%TF.GenerationSoftware,KiCad,Pcbnew,9.0.7*%
%TF.CreationDate,2026-05-26T23:08:37-04:00*%
%TF.ProjectId,pi-dash-input-hat,70692d64-6173-4682-9d69-6e7075742d68,1.0*%
%TF.SameCoordinates,Original*%
%TF.FileFunction,Paste,Top*%
%TF.FilePolarity,Positive*%
%FSLAX46Y46*%
G04 Gerber Fmt 4.6, Leading zero omitted, Abs format (unit mm)*
G04 Created by KiCad (PCBNEW 9.0.7) date 2026-05-26 23:08:37*
%MOMM*%
%LPD*%
G01*
G04 APERTURE LIST*
G04 Aperture macros list*
%AMRoundRect*
0 Rectangle with rounded corners*
0 $1 Rounding radius*
0 $2 $3 $4 $5 $6 $7 $8 $9 X,Y pos of 4 corners*
0 Add a 4 corners polygon primitive as box body*
4,1,4,$2,$3,$4,$5,$6,$7,$8,$9,$2,$3,0*
0 Add four circle primitives for the rounded corners*
1,1,$1+$1,$2,$3*
1,1,$1+$1,$4,$5*
1,1,$1+$1,$6,$7*
1,1,$1+$1,$8,$9*
0 Add four rect primitives between the rounded corners*
20,1,$1+$1,$2,$3,$4,$5,0*
20,1,$1+$1,$4,$5,$6,$7,0*
20,1,$1+$1,$6,$7,$8,$9,0*
20,1,$1+$1,$8,$9,$2,$3,0*%
G04 Aperture macros list end*
%ADD10RoundRect,0.250000X-0.262500X-0.450000X0.262500X-0.450000X0.262500X0.450000X-0.262500X0.450000X0*%
%ADD11RoundRect,0.250000X-1.000000X-0.650000X1.000000X-0.650000X1.000000X0.650000X-1.000000X0.650000X0*%
%ADD12RoundRect,0.250000X-0.650000X1.000000X-0.650000X-1.000000X0.650000X-1.000000X0.650000X1.000000X0*%
%ADD13RoundRect,0.150000X-0.587500X-0.150000X0.587500X-0.150000X0.587500X0.150000X-0.587500X0.150000X0*%
G04 APERTURE END LIST*
D10*
%TO.C,R18*%
X48087500Y-9000000D03*
X49912500Y-9000000D03*
%TD*%
%TO.C,R16*%
X52087500Y-43000000D03*
X53912500Y-43000000D03*
%TD*%
D11*
%TO.C,D8*%
X35000000Y-47000000D03*
X39000000Y-47000000D03*
%TD*%
D10*
%TO.C,R5*%
X14087500Y-36000000D03*
X15912500Y-36000000D03*
%TD*%
D11*
%TO.C,D5*%
X6000000Y-36000000D03*
X10000000Y-36000000D03*
%TD*%
D10*
%TO.C,R10*%
X52087500Y-10000000D03*
X53912500Y-10000000D03*
%TD*%
D12*
%TO.C,D18*%
X69000000Y-32500000D03*
X69000000Y-36500000D03*
%TD*%
D10*
%TO.C,R8*%
X43087500Y-47000000D03*
X44912500Y-47000000D03*
%TD*%
%TO.C,R23*%
X19087500Y-42000000D03*
X20912500Y-42000000D03*
%TD*%
%TO.C,R21*%
X19087500Y-31000000D03*
X20912500Y-31000000D03*
%TD*%
%TO.C,R1*%
X14087500Y-14000000D03*
X15912500Y-14000000D03*
%TD*%
D12*
%TO.C,D17*%
X76500000Y-32500000D03*
X76500000Y-36500000D03*
%TD*%
D10*
%TO.C,R9*%
X30175000Y-9500000D03*
X32000000Y-9500000D03*
%TD*%
D11*
%TO.C,D2*%
X35000000Y-14000000D03*
X39000000Y-14000000D03*
%TD*%
D10*
%TO.C,R7*%
X14087500Y-47000000D03*
X15912500Y-47000000D03*
%TD*%
%TO.C,R4*%
X43087500Y-25000000D03*
X44912500Y-25000000D03*
%TD*%
%TO.C,R3*%
X14087500Y-25000000D03*
X15912500Y-25000000D03*
%TD*%
%TO.C,R19*%
X19087500Y-20000000D03*
X20912500Y-20000000D03*
%TD*%
D11*
%TO.C,D6*%
X35500000Y-33000000D03*
X39500000Y-33000000D03*
%TD*%
D10*
%TO.C,R24*%
X48087500Y-42000000D03*
X49912500Y-42000000D03*
%TD*%
%TO.C,R2*%
X43087500Y-14000000D03*
X44912500Y-14000000D03*
%TD*%
%TO.C,R20*%
X48087500Y-20000000D03*
X49912500Y-20000000D03*
%TD*%
D11*
%TO.C,D1*%
X6000000Y-14000000D03*
X10000000Y-14000000D03*
%TD*%
D10*
%TO.C,R13*%
X23087500Y-32000000D03*
X24912500Y-32000000D03*
%TD*%
%TO.C,R14*%
X52087500Y-32000000D03*
X53912500Y-32000000D03*
%TD*%
D13*
%TO.C,Q1*%
X85500000Y-29000000D03*
X85500000Y-30900000D03*
X87375000Y-29950000D03*
%TD*%
D10*
%TO.C,R25*%
X85175000Y-25500000D03*
X87000000Y-25500000D03*
%TD*%
%TO.C,R12*%
X52087500Y-21000000D03*
X53912500Y-21000000D03*
%TD*%
%TO.C,R22*%
X48087500Y-31000000D03*
X49912500Y-31000000D03*
%TD*%
%TO.C,R15*%
X23087500Y-43000000D03*
X24912500Y-43000000D03*
%TD*%
D11*
%TO.C,D7*%
X6000000Y-47000000D03*
X10000000Y-47000000D03*
%TD*%
D10*
%TO.C,R17*%
X18587500Y-14000000D03*
X20412500Y-14000000D03*
%TD*%
D11*
%TO.C,D3*%
X6000000Y-25000000D03*
X10000000Y-25000000D03*
%TD*%
%TO.C,D4*%
X35000000Y-25000000D03*
X39000000Y-25000000D03*
%TD*%
D10*
%TO.C,R6*%
X43675000Y-33500000D03*
X45500000Y-33500000D03*
%TD*%
%TO.C,R11*%
X23087500Y-21000000D03*
X24912500Y-21000000D03*
%TD*%
M02*
