%TF.GenerationSoftware,KiCad,Pcbnew,9.0.7*%
%TF.CreationDate,2026-05-26T23:08:37-04:00*%
%TF.ProjectId,pi-dash-input-hat,70692d64-6173-4682-9d69-6e7075742d68,1.0*%
%TF.SameCoordinates,Original*%
%TF.FileFunction,Copper,L2,Bot*%
%TF.FilePolarity,Positive*%
%FSLAX46Y46*%
G04 Gerber Fmt 4.6, Leading zero omitted, Abs format (unit mm)*
G04 Created by KiCad (PCBNEW 9.0.7) date 2026-05-26 23:08:37*
%MOMM*%
%LPD*%
G01*
G04 APERTURE LIST*
G04 Aperture macros list*
%AMRoundRect*
0 Rectangle with rounded corners*
0 $1 Rounding radius*
0 $2 $3 $4 $5 $6 $7 $8 $9 X,Y pos of 4 corners*
0 Add a 4 corners polygon primitive as box body*
4,1,4,$2,$3,$4,$5,$6,$7,$8,$9,$2,$3,0*
0 Add four circle primitives for the rounded corners*
1,1,$1+$1,$2,$3*
1,1,$1+$1,$4,$5*
1,1,$1+$1,$6,$7*
1,1,$1+$1,$8,$9*
0 Add four rect primitives between the rounded corners*
20,1,$1+$1,$2,$3,$4,$5,0*
20,1,$1+$1,$4,$5,$6,$7,0*
20,1,$1+$1,$6,$7,$8,$9,0*
20,1,$1+$1,$8,$9,$2,$3,0*%
G04 Aperture macros list end*
%TA.AperFunction,ComponentPad*%
%ADD10RoundRect,0.250000X-0.550000X-0.550000X0.550000X-0.550000X0.550000X0.550000X-0.550000X0.550000X0*%
%TD*%
%TA.AperFunction,ComponentPad*%
%ADD11C,1.600000*%
%TD*%
%TA.AperFunction,ComponentPad*%
%ADD12R,1.800000X1.800000*%
%TD*%
%TA.AperFunction,ComponentPad*%
%ADD13C,1.800000*%
%TD*%
%TA.AperFunction,ComponentPad*%
%ADD14C,2.600000*%
%TD*%
%TA.AperFunction,ComponentPad*%
%ADD15R,1.700000X1.700000*%
%TD*%
%TA.AperFunction,ComponentPad*%
%ADD16C,1.700000*%
%TD*%
%TA.AperFunction,ComponentPad*%
%ADD17R,1.500000X2.000000*%
%TD*%
%TA.AperFunction,ComponentPad*%
%ADD18O,1.500000X2.000000*%
%TD*%
%TA.AperFunction,ComponentPad*%
%ADD19R,2.540000X2.540000*%
%TD*%
%TA.AperFunction,ComponentPad*%
%ADD20RoundRect,0.249999X-0.790001X-1.550001X0.790001X-1.550001X0.790001X1.550001X-0.790001X1.550001X0*%
%TD*%
%TA.AperFunction,ComponentPad*%
%ADD21O,2.080000X3.600000*%
%TD*%
%TA.AperFunction,ViaPad*%
%ADD22C,0.800000*%
%TD*%
%TA.AperFunction,Conductor*%
%ADD23C,0.250000*%
%TD*%
G04 APERTURE END LIST*
D10*
%TO.P,U5,1,A*%
%TO.N,CH5_MID*%
X24000000Y-36000000D03*
D11*
%TO.P,U5,2,K*%
%TO.N,GND_CAR*%
X24000000Y-38540000D03*
%TO.P,U5,3,C*%
%TO.N,GPIO5*%
X31620000Y-38540000D03*
%TO.P,U5,4,E*%
%TO.N,GND*%
X31620000Y-36000000D03*
%TD*%
D10*
%TO.P,U8,1,A*%
%TO.N,CH8_MID*%
X53000000Y-47000000D03*
D11*
%TO.P,U8,2,K*%
%TO.N,GND_CAR*%
X53000000Y-49540000D03*
%TO.P,U8,3,C*%
%TO.N,GPIO19*%
X60620000Y-49540000D03*
%TO.P,U8,4,E*%
%TO.N,GND*%
X60620000Y-47000000D03*
%TD*%
D10*
%TO.P,C1,1*%
%TO.N,VIN_BUCK*%
X69500000Y-14500000D03*
D11*
%TO.P,C1,2*%
%TO.N,GND_CAR*%
X73000000Y-14500000D03*
%TD*%
D12*
%TO.P,D14,1,A*%
%TO.N,CH6_LED*%
X56000000Y-43000000D03*
D13*
%TO.P,D14,2,K*%
%TO.N,GND*%
X58540000Y-43000000D03*
%TD*%
D14*
%TO.P,L1,1*%
%TO.N,SW_NODE*%
X82000000Y-47000000D03*
%TO.P,L1,2*%
%TO.N,+5V*%
X87000000Y-47000000D03*
%TD*%
D10*
%TO.P,C2,1*%
%TO.N,+5V*%
X80500000Y-14500000D03*
D11*
%TO.P,C2,2*%
%TO.N,GND*%
X84000000Y-14500000D03*
%TD*%
D10*
%TO.P,U7,1,A*%
%TO.N,CH7_MID*%
X24000000Y-47000000D03*
D11*
%TO.P,U7,2,K*%
%TO.N,GND_CAR*%
X24000000Y-49540000D03*
%TO.P,U7,3,C*%
%TO.N,GPIO13*%
X31620000Y-49540000D03*
%TO.P,U7,4,E*%
%TO.N,GND*%
X31620000Y-47000000D03*
%TD*%
%TO.P,F1,1*%
%TO.N,12V_BATT*%
X73190000Y-25500000D03*
%TO.P,F1,2*%
%TO.N,12V_CLEAN*%
X80810000Y-25500000D03*
%TD*%
D12*
%TO.P,D11,1,A*%
%TO.N,CH3_LED*%
X27000000Y-32000000D03*
D13*
%TO.P,D11,2,K*%
%TO.N,GND*%
X29540000Y-32000000D03*
%TD*%
D10*
%TO.P,U4,1,A*%
%TO.N,CH4_MID*%
X53000000Y-25000000D03*
D11*
%TO.P,U4,2,K*%
%TO.N,GND_CAR*%
X53000000Y-27540000D03*
%TO.P,U4,3,C*%
%TO.N,GPIO22*%
X60620000Y-27540000D03*
%TO.P,U4,4,E*%
%TO.N,GND*%
X60620000Y-25000000D03*
%TD*%
D12*
%TO.P,D15,1,A*%
%TO.N,CH7_LED*%
X27000000Y-54000000D03*
D13*
%TO.P,D15,2,K*%
%TO.N,GND*%
X29540000Y-54000000D03*
%TD*%
D10*
%TO.P,U1,1,A*%
%TO.N,CH1_MID*%
X24000000Y-14000000D03*
D11*
%TO.P,U1,2,K*%
%TO.N,GND_CAR*%
X24000000Y-16540000D03*
%TO.P,U1,3,C*%
%TO.N,GPIO4*%
X31620000Y-16540000D03*
%TO.P,U1,4,E*%
%TO.N,GND*%
X31620000Y-14000000D03*
%TD*%
D10*
%TO.P,U6,1,A*%
%TO.N,CH6_MID*%
X53000000Y-36000000D03*
D11*
%TO.P,U6,2,K*%
%TO.N,GND_CAR*%
X53000000Y-38540000D03*
%TO.P,U6,3,C*%
%TO.N,GPIO6*%
X60620000Y-38540000D03*
%TO.P,U6,4,E*%
%TO.N,GND*%
X60620000Y-36000000D03*
%TD*%
D15*
%TO.P,J4,1*%
%TO.N,+3V3*%
X94000000Y-18620000D03*
D16*
%TO.P,J4,2*%
%TO.N,GND*%
X91460000Y-18620000D03*
%TO.P,J4,3*%
%TO.N,+5V*%
X94000000Y-16080000D03*
%TO.P,J4,4*%
%TO.N,GND*%
X91460000Y-16080000D03*
%TO.P,J4,5*%
%TO.N,GPIO10*%
X94000000Y-13540000D03*
%TO.P,J4,6*%
%TO.N,GPIO9*%
X91460000Y-13540000D03*
%TO.P,J4,7*%
%TO.N,GPIO11*%
X94000000Y-11000000D03*
%TO.P,J4,8*%
%TO.N,GPIO8*%
X91460000Y-11000000D03*
%TO.P,J4,9*%
%TO.N,GPIO2*%
X94000000Y-8460000D03*
%TO.P,J4,10*%
%TO.N,GPIO3*%
X91460000Y-8460000D03*
%TD*%
D17*
%TO.P,U9,1*%
%TO.N,SW_NODE*%
X90600000Y-27950000D03*
D18*
%TO.P,U9,2*%
%TO.N,VIN_BUCK*%
X92300000Y-27950000D03*
%TO.P,U9,3*%
%TO.N,GND*%
X94000000Y-27950000D03*
%TO.P,U9,4*%
X95700000Y-27950000D03*
%TO.P,U9,5*%
X97400000Y-27950000D03*
%TD*%
D10*
%TO.P,U3,1,A*%
%TO.N,CH3_MID*%
X24000000Y-25000000D03*
D11*
%TO.P,U3,2,K*%
%TO.N,GND_CAR*%
X24000000Y-27540000D03*
%TO.P,U3,3,C*%
%TO.N,GPIO27*%
X31620000Y-27540000D03*
%TO.P,U3,4,E*%
%TO.N,GND*%
X31620000Y-25000000D03*
%TD*%
D19*
%TO.P,J2,1*%
%TO.N,+3V3*%
X56160000Y-5000000D03*
D16*
%TO.P,J2,2*%
%TO.N,+5V*%
X56160000Y-2460000D03*
%TO.P,J2,3*%
%TO.N,GPIO2*%
X53620000Y-5000000D03*
%TO.P,J2,4*%
%TO.N,+5V*%
X53620000Y-2460000D03*
%TO.P,J2,5*%
%TO.N,GPIO3*%
X51080000Y-5000000D03*
%TO.P,J2,6*%
%TO.N,GND*%
X51080000Y-2460000D03*
%TO.P,J2,7*%
%TO.N,GPIO4*%
X48540000Y-5000000D03*
%TO.P,J2,8*%
%TO.N,GPIO14*%
X48540000Y-2460000D03*
%TO.P,J2,9*%
%TO.N,GND*%
X46000000Y-5000000D03*
%TO.P,J2,10*%
%TO.N,GPIO15*%
X46000000Y-2460000D03*
%TO.P,J2,11*%
%TO.N,GPIO17*%
X43460000Y-5000000D03*
%TO.P,J2,12*%
%TO.N,GPIO18*%
X43460000Y-2460000D03*
%TO.P,J2,13*%
%TO.N,GPIO27*%
X40920000Y-5000000D03*
%TO.P,J2,14*%
%TO.N,GND*%
X40920000Y-2460000D03*
%TO.P,J2,15*%
%TO.N,GPIO22*%
X38380000Y-5000000D03*
%TO.P,J2,16*%
%TO.N,GPIO23*%
X38380000Y-2460000D03*
%TO.P,J2,17*%
%TO.N,+3V3*%
X35840000Y-5000000D03*
%TO.P,J2,18*%
%TO.N,GPIO24*%
X35840000Y-2460000D03*
%TO.P,J2,19*%
%TO.N,GPIO10*%
X33300000Y-5000000D03*
%TO.P,J2,20*%
%TO.N,GND*%
X33300000Y-2460000D03*
%TO.P,J2,21*%
%TO.N,GPIO9*%
X30760000Y-5000000D03*
%TO.P,J2,22*%
%TO.N,GPIO25*%
X30760000Y-2460000D03*
%TO.P,J2,23*%
%TO.N,GPIO11*%
X28220000Y-5000000D03*
%TO.P,J2,24*%
%TO.N,GPIO8*%
X28220000Y-2460000D03*
%TO.P,J2,25*%
%TO.N,GND*%
X25680000Y-5000000D03*
%TO.P,J2,26*%
%TO.N,GPIO7*%
X25680000Y-2460000D03*
%TO.P,J2,27*%
%TO.N,GPIO0*%
X23140000Y-5000000D03*
%TO.P,J2,28*%
%TO.N,GPIO1*%
X23140000Y-2460000D03*
%TO.P,J2,29*%
%TO.N,GPIO5*%
X20600000Y-5000000D03*
%TO.P,J2,30*%
%TO.N,GND*%
X20600000Y-2460000D03*
%TO.P,J2,31*%
%TO.N,GPIO6*%
X18060000Y-5000000D03*
%TO.P,J2,32*%
%TO.N,GPIO12*%
X18060000Y-2460000D03*
%TO.P,J2,33*%
%TO.N,GPIO13*%
X15520000Y-5000000D03*
%TO.P,J2,34*%
%TO.N,GND*%
X15520000Y-2460000D03*
%TO.P,J2,35*%
%TO.N,GPIO19*%
X12980000Y-5000000D03*
%TO.P,J2,36*%
%TO.N,GPIO16*%
X12980000Y-2460000D03*
%TO.P,J2,37*%
%TO.N,GPIO26*%
X10440000Y-5000000D03*
%TO.P,J2,38*%
%TO.N,GPIO20*%
X10440000Y-2460000D03*
%TO.P,J2,39*%
%TO.N,GND*%
X7900000Y-5000000D03*
%TO.P,J2,40*%
%TO.N,GPIO21*%
X7900000Y-2460000D03*
%TD*%
D13*
%TO.P,J1,1*%
%TO.N,IN1_LT*%
X66500000Y-2500000D03*
%TO.P,J1,2*%
%TO.N,IN2_RT*%
X69500000Y-2500000D03*
%TO.P,J1,3*%
%TO.N,IN3_HB*%
X72500000Y-2500000D03*
%TO.P,J1,4*%
%TO.N,IN4_PK*%
X75500000Y-2500000D03*
%TO.P,J1,5*%
%TO.N,IN5_HZ*%
X66500000Y-5500000D03*
%TO.P,J1,6*%
%TO.N,IN6_RV*%
X69500000Y-5500000D03*
%TO.P,J1,7*%
%TO.N,IN7_IL*%
X72500000Y-5500000D03*
%TO.P,J1,8*%
%TO.N,IN8_SP*%
X75500000Y-5500000D03*
D12*
%TO.P,J1,9*%
%TO.N,GND_CAR*%
X78500000Y-4000000D03*
%TD*%
D20*
%TO.P,J3,1*%
%TO.N,12V_BATT*%
X69000000Y-46000000D03*
D21*
%TO.P,J3,2*%
%TO.N,GND_CAR*%
X74080000Y-46000000D03*
%TD*%
D12*
%TO.P,D12,1,A*%
%TO.N,CH4_LED*%
X56000000Y-32000000D03*
D13*
%TO.P,D12,2,K*%
%TO.N,GND*%
X58540000Y-32000000D03*
%TD*%
D12*
%TO.P,D10,1,A*%
%TO.N,CH2_LED*%
X56000000Y-21000000D03*
D13*
%TO.P,D10,2,K*%
%TO.N,GND*%
X58540000Y-21000000D03*
%TD*%
D12*
%TO.P,D9,1,A*%
%TO.N,CH1_LED*%
X27000000Y-21000000D03*
D13*
%TO.P,D9,2,K*%
%TO.N,GND*%
X29540000Y-21000000D03*
%TD*%
D12*
%TO.P,D16,1,A*%
%TO.N,CH8_LED*%
X56000000Y-54000000D03*
D13*
%TO.P,D16,2,K*%
%TO.N,GND*%
X58540000Y-54000000D03*
%TD*%
D12*
%TO.P,D13,1,A*%
%TO.N,CH5_LED*%
X27000000Y-43000000D03*
D13*
%TO.P,D13,2,K*%
%TO.N,GND*%
X29540000Y-43000000D03*
%TD*%
D12*
%TO.P,D19,1*%
%TO.N,+5V*%
X94460000Y-44500000D03*
D13*
%TO.P,D19,2*%
%TO.N,LED_PWR*%
X97000000Y-44500000D03*
%TD*%
D10*
%TO.P,U2,1,A*%
%TO.N,CH2_MID*%
X53000000Y-14000000D03*
D11*
%TO.P,U2,2,K*%
%TO.N,GND_CAR*%
X53000000Y-16540000D03*
%TO.P,U2,3,C*%
%TO.N,GPIO17*%
X60620000Y-16540000D03*
%TO.P,U2,4,E*%
%TO.N,GND*%
X60620000Y-14000000D03*
%TD*%
D22*
%TO.N,GND*%
X90000000Y-42000000D03*
X90000000Y-14000000D03*
X88135000Y-25114900D03*
X67000000Y-42000000D03*
X67489800Y-32059700D03*
%TO.N,+3V3*%
X25395600Y-22748800D03*
X25991800Y-29481500D03*
X29541500Y-19450000D03*
X56160000Y-9492100D03*
X59334700Y-19450000D03*
%TO.N,IN6_RV*%
X45640300Y-31469500D03*
%TO.N,IN7_IL*%
X55569600Y-49545300D03*
%TO.N,IN8_SP*%
X55241700Y-50553100D03*
%TO.N,GPIO6*%
X29030900Y-29876400D03*
%TO.N,GPIO13*%
X23940300Y-41903300D03*
%TO.N,GPIO17*%
X46915600Y-9660300D03*
%TO.N,GPIO22*%
X48647100Y-17446500D03*
%TO.N,GPIO27*%
X28814300Y-23042600D03*
%TO.N,CH1_LED*%
X26387800Y-13929100D03*
%TO.N,CH2_LED*%
X50787400Y-10460500D03*
%TO.N,CH3_LED*%
X20871800Y-21486200D03*
%TO.N,CH4_LED*%
X51933100Y-19678700D03*
%TO.N,CH5_LED*%
X23769200Y-33457500D03*
%TO.N,GPIO10*%
X48847200Y-18572300D03*
X42613500Y-9861000D03*
%TO.N,GPIO9*%
X50331600Y-17014100D03*
%TO.N,VIN_BUCK*%
X86929900Y-28901900D03*
%TD*%
D23*
%TO.N,GND_CAR*%
X73000000Y-14500000D02*
X78500000Y-9000000D01*
X53000000Y-27540000D02*
X54148700Y-28688700D01*
X22851300Y-26391300D02*
X24000000Y-27540000D01*
X54147500Y-39687500D02*
X54147500Y-48392500D01*
X22817100Y-39722900D02*
X24000000Y-38540000D01*
X53000000Y-38540000D02*
X54147500Y-39687500D01*
X22851300Y-17688700D02*
X22851300Y-26391300D01*
X54147500Y-48392500D02*
X53000000Y-49540000D01*
X22851300Y-17688700D02*
X22851300Y-26391300D01*
X53000000Y-27540000D02*
X54148700Y-28688700D01*
X53000000Y-38540000D02*
X54147500Y-39687500D01*
X78500000Y-9000000D02*
X78500000Y-4000000D01*
X22817100Y-48357100D02*
X22817100Y-39722900D01*
X24000000Y-49540000D02*
X22817100Y-48357100D01*
X22851300Y-26391300D02*
X24000000Y-27540000D01*
X54147500Y-48392500D02*
X53000000Y-49540000D01*
X22817100Y-39722900D02*
X24000000Y-38540000D01*
X54148700Y-28688700D02*
X54148700Y-37391300D01*
X24000000Y-16540000D02*
X22851300Y-17688700D01*
X54148700Y-28688700D02*
X54148700Y-37391300D01*
X54147500Y-39687500D02*
X54147500Y-48392500D01*
X73000000Y-14500000D02*
X78500000Y-9000000D01*
X24000000Y-16540000D02*
X22851300Y-17688700D01*
X54148700Y-37391300D02*
X53000000Y-38540000D01*
X78500000Y-9000000D02*
X78500000Y-4000000D01*
X54148700Y-37391300D02*
X53000000Y-38540000D01*
X22817100Y-48357100D02*
X22817100Y-39722900D01*
X24000000Y-49540000D02*
X22817100Y-48357100D01*
%TO.N,+3V3*%
X25395600Y-22748800D02*
X25395600Y-28885300D01*
X61773500Y-13547000D02*
X57718600Y-9492100D01*
X35840000Y-5000000D02*
X29541500Y-11298500D01*
X61773500Y-17011200D02*
X61773500Y-13547000D01*
X56160000Y-5000000D02*
X56160000Y-9492100D01*
X25395600Y-22748800D02*
X25395600Y-28885300D01*
X57718600Y-9492100D02*
X56160000Y-9492100D01*
X25395600Y-28885300D02*
X25991800Y-29481500D01*
X29541500Y-11298500D02*
X29541500Y-19450000D01*
X35840000Y-5000000D02*
X29541500Y-11298500D01*
X25395600Y-28885300D02*
X25991800Y-29481500D01*
X59334700Y-19450000D02*
X61773500Y-17011200D01*
X61773500Y-17011200D02*
X61773500Y-13547000D01*
X57718600Y-9492100D02*
X56160000Y-9492100D01*
X59334700Y-19450000D02*
X61773500Y-17011200D01*
X61773500Y-13547000D02*
X57718600Y-9492100D01*
X56160000Y-5000000D02*
X56160000Y-9492100D01*
X29541500Y-11298500D02*
X29541500Y-19450000D01*
%TO.N,IN6_RV*%
X50758100Y-26351700D02*
X45640300Y-31469500D01*
X62551100Y-19168900D02*
X57226700Y-24493300D01*
X53455000Y-26351700D02*
X50758100Y-26351700D01*
X54999800Y-33266900D02*
X54773300Y-33040400D01*
X50758100Y-26351700D02*
X45640300Y-31469500D01*
X57226700Y-33129700D02*
X57089500Y-33266900D01*
X57226700Y-24493300D02*
X57226700Y-33129700D01*
X54773300Y-27670000D02*
X53455000Y-26351700D01*
X62551100Y-19168900D02*
X57226700Y-24493300D01*
X54773300Y-27670000D02*
X53455000Y-26351700D01*
X54773300Y-33040400D02*
X54773300Y-27670000D01*
X57226700Y-24493300D02*
X57226700Y-33129700D01*
X62551100Y-12448900D02*
X62551100Y-19168900D01*
X57226700Y-33129700D02*
X57089500Y-33266900D01*
X53455000Y-26351700D02*
X50758100Y-26351700D01*
X62551100Y-12448900D02*
X62551100Y-19168900D01*
X69500000Y-5500000D02*
X62551100Y-12448900D01*
X57089500Y-33266900D02*
X54999800Y-33266900D01*
X69500000Y-5500000D02*
X62551100Y-12448900D01*
X54999800Y-33266900D02*
X54773300Y-33040400D01*
X54773300Y-33040400D02*
X54773300Y-27670000D01*
X57089500Y-33266900D02*
X54999800Y-33266900D01*
%TO.N,IN7_IL*%
X66814900Y-11185100D02*
X66814900Y-26397000D01*
X72500000Y-5500000D02*
X66814900Y-11185100D01*
X66814900Y-11185100D02*
X66814900Y-26397000D01*
X66814900Y-26397000D02*
X54773300Y-38438600D01*
X66814900Y-26397000D02*
X54773300Y-38438600D01*
X54773300Y-38438600D02*
X54773300Y-48749000D01*
X54773300Y-38438600D02*
X54773300Y-48749000D01*
X72500000Y-5500000D02*
X66814900Y-11185100D01*
X54773300Y-48749000D02*
X55569600Y-49545300D01*
X54773300Y-48749000D02*
X55569600Y-49545300D01*
%TO.N,IN8_SP*%
X55589500Y-50553100D02*
X57269900Y-48872700D01*
X57269900Y-40247700D02*
X60247600Y-37270000D01*
X55241700Y-50553100D02*
X55589500Y-50553100D01*
X67682400Y-13317600D02*
X75500000Y-5500000D01*
X67682400Y-30569700D02*
X67682400Y-13317600D01*
X57269900Y-40247700D02*
X60247600Y-37270000D01*
X67682400Y-30569700D02*
X67682400Y-13317600D01*
X67682400Y-13317600D02*
X75500000Y-5500000D01*
X60982100Y-37270000D02*
X67682400Y-30569700D01*
X57269900Y-48872700D02*
X57269900Y-40247700D01*
X60247600Y-37270000D02*
X60982100Y-37270000D01*
X60247600Y-37270000D02*
X60982100Y-37270000D01*
X55589500Y-50553100D02*
X57269900Y-48872700D01*
X60982100Y-37270000D02*
X67682400Y-30569700D01*
X55241700Y-50553100D02*
X55589500Y-50553100D01*
X57269900Y-48872700D02*
X57269900Y-40247700D01*
%TO.N,GPIO5*%
X19382400Y-3782400D02*
X17576700Y-3782400D01*
X19382400Y-3782400D02*
X17576700Y-3782400D01*
X16852700Y-24191500D02*
X31201200Y-38540000D01*
X31201200Y-38540000D02*
X31620000Y-38540000D01*
X17576700Y-3782400D02*
X16852700Y-4506400D01*
X16852700Y-4506400D02*
X16852700Y-24191500D01*
X16852700Y-24191500D02*
X31201200Y-38540000D01*
X17576700Y-3782400D02*
X16852700Y-4506400D01*
X20600000Y-5000000D02*
X19382400Y-3782400D01*
X16852700Y-4506400D02*
X16852700Y-24191500D01*
X31201200Y-38540000D02*
X31620000Y-38540000D01*
X20600000Y-5000000D02*
X19382400Y-3782400D01*
%TO.N,GPIO6*%
X25661100Y-21986700D02*
X25661100Y-12601100D01*
X26122300Y-26967800D02*
X26122300Y-22447800D01*
X25661100Y-12601100D02*
X18060000Y-5000000D01*
X25661100Y-12601100D02*
X18060000Y-5000000D01*
X29030900Y-29876400D02*
X26122300Y-26967800D01*
X26122300Y-22447800D02*
X25661200Y-21986700D01*
X26122300Y-22447800D02*
X25661200Y-21986700D01*
X25661100Y-21986700D02*
X25661100Y-12601100D01*
X25661200Y-21986700D02*
X25661100Y-21986700D01*
X26122300Y-26967800D02*
X26122300Y-22447800D01*
X29030900Y-29876400D02*
X26122300Y-26967800D01*
X25661200Y-21986700D02*
X25661100Y-21986700D01*
%TO.N,GPIO13*%
X23237100Y-37272000D02*
X15520000Y-29554900D01*
X25160800Y-40682800D02*
X25160800Y-38076800D01*
X23940300Y-42279100D02*
X23940300Y-41903300D01*
X31620000Y-49540000D02*
X31201200Y-49540000D01*
X25160800Y-38076800D02*
X24356000Y-37272000D01*
X25160800Y-38076800D02*
X24356000Y-37272000D01*
X31201200Y-49540000D02*
X23940300Y-42279100D01*
X15520000Y-29554900D02*
X15520000Y-5000000D01*
X24356000Y-37272000D02*
X23237100Y-37272000D01*
X31620000Y-49540000D02*
X31201200Y-49540000D01*
X31201200Y-49540000D02*
X23940300Y-42279100D01*
X23940300Y-42279100D02*
X23940300Y-41903300D01*
X15520000Y-29554900D02*
X15520000Y-5000000D01*
X23940300Y-41903300D02*
X25160800Y-40682800D01*
X24356000Y-37272000D02*
X23237100Y-37272000D01*
X25160800Y-40682800D02*
X25160800Y-38076800D01*
X23940300Y-41903300D02*
X25160800Y-40682800D01*
X23237100Y-37272000D02*
X15520000Y-29554900D01*
%TO.N,GPIO17*%
X60620000Y-16540000D02*
X53740300Y-9660300D01*
X53740300Y-9660300D02*
X46915600Y-9660300D01*
X43460000Y-5000000D02*
X46915600Y-8455600D01*
X53740300Y-9660300D02*
X46915600Y-9660300D01*
X60620000Y-16540000D02*
X53740300Y-9660300D01*
X46915600Y-8455600D02*
X46915600Y-9660300D01*
X43460000Y-5000000D02*
X46915600Y-8455600D01*
X46915600Y-8455600D02*
X46915600Y-9660300D01*
%TO.N,GPIO19*%
X58847100Y-51312900D02*
X60620000Y-49540000D01*
X17531500Y-1271300D02*
X21100100Y-1271300D01*
X28226700Y-22602600D02*
X28087600Y-22741700D01*
X21870000Y-7547000D02*
X28226700Y-13903700D01*
X17531500Y-1271300D02*
X21100100Y-1271300D01*
X15942000Y-3730000D02*
X16772200Y-2899800D01*
X21100100Y-1271300D02*
X21870000Y-2041200D01*
X21870000Y-7547000D02*
X28226700Y-13903700D01*
X58847100Y-51312900D02*
X60620000Y-49540000D01*
X28226700Y-13903700D02*
X28226700Y-22602600D01*
X16772200Y-2899800D02*
X16772200Y-2030600D01*
X12980000Y-5000000D02*
X14250000Y-3730000D01*
X21870000Y-2041200D02*
X21870000Y-7547000D01*
X21100100Y-1271300D02*
X21870000Y-2041200D01*
X14250000Y-3730000D02*
X15942000Y-3730000D01*
X16772200Y-2030600D02*
X17531500Y-1271300D01*
X53174500Y-51312900D02*
X58847100Y-51312900D01*
X12980000Y-5000000D02*
X14250000Y-3730000D01*
X14250000Y-3730000D02*
X15942000Y-3730000D01*
X21870000Y-2041200D02*
X21870000Y-7547000D01*
X28087600Y-22741700D02*
X28087600Y-26226000D01*
X15942000Y-3730000D02*
X16772200Y-2899800D01*
X28226700Y-13903700D02*
X28226700Y-22602600D01*
X28087600Y-26226000D02*
X53174500Y-51312900D01*
X53174500Y-51312900D02*
X58847100Y-51312900D01*
X16772200Y-2030600D02*
X17531500Y-1271300D01*
X16772200Y-2899800D02*
X16772200Y-2030600D01*
X28226700Y-22602600D02*
X28087600Y-22741700D01*
X28087600Y-26226000D02*
X53174500Y-51312900D01*
X28087600Y-22741700D02*
X28087600Y-26226000D01*
%TO.N,GPIO22*%
X48647100Y-17446500D02*
X48647100Y-14866900D01*
X48647100Y-14866900D02*
X38780200Y-5000000D01*
X48647100Y-14866900D02*
X38780200Y-5000000D01*
X38780200Y-5000000D02*
X38380000Y-5000000D01*
X48647100Y-17446500D02*
X48647100Y-14866900D01*
X38780200Y-5000000D02*
X38380000Y-5000000D01*
%TO.N,GPIO27*%
X40920000Y-5000000D02*
X39702400Y-3782400D01*
X28814300Y-24734300D02*
X28814300Y-23042600D01*
X37110000Y-4569100D02*
X37110000Y-22050000D01*
X31620000Y-27540000D02*
X28814300Y-24734300D01*
X37110000Y-22050000D02*
X31620000Y-27540000D01*
X39702400Y-3782400D02*
X37896700Y-3782400D01*
X37896700Y-3782400D02*
X37110000Y-4569100D01*
X31620000Y-27540000D02*
X28814300Y-24734300D01*
X37896700Y-3782400D02*
X37110000Y-4569100D01*
X28814300Y-24734300D02*
X28814300Y-23042600D01*
X39702400Y-3782400D02*
X37896700Y-3782400D01*
X37110000Y-22050000D02*
X31620000Y-27540000D01*
X37110000Y-4569100D02*
X37110000Y-22050000D01*
X40920000Y-5000000D02*
X39702400Y-3782400D01*
%TO.N,CH1_LED*%
X26387800Y-19161100D02*
X26387800Y-13929100D01*
X27000000Y-21000000D02*
X27000000Y-19773300D01*
X27000000Y-21000000D02*
X27000000Y-19773300D01*
X27000000Y-19773300D02*
X26387800Y-19161100D01*
X27000000Y-19773300D02*
X26387800Y-19161100D01*
X26387800Y-19161100D02*
X26387800Y-13929100D01*
%TO.N,CH2_LED*%
X50787400Y-16442200D02*
X50787400Y-10460500D01*
X54773300Y-21000000D02*
X54773300Y-20428100D01*
X50787400Y-16442200D02*
X50787400Y-10460500D01*
X56000000Y-21000000D02*
X54773300Y-21000000D01*
X54773300Y-21000000D02*
X54773300Y-20428100D01*
X54773300Y-20428100D02*
X50787400Y-16442200D01*
X56000000Y-21000000D02*
X54773300Y-21000000D01*
X54773300Y-20428100D02*
X50787400Y-16442200D01*
%TO.N,CH3_LED*%
X20871800Y-27098500D02*
X20871800Y-21486200D01*
X27000000Y-32000000D02*
X25773300Y-32000000D01*
X25773300Y-32000000D02*
X20871800Y-27098500D01*
X25773300Y-32000000D02*
X20871800Y-27098500D01*
X20871800Y-27098500D02*
X20871800Y-21486200D01*
X27000000Y-32000000D02*
X25773300Y-32000000D01*
%TO.N,CH4_LED*%
X51933100Y-19678700D02*
X56000000Y-23745600D01*
X51933100Y-19678700D02*
X56000000Y-23745600D01*
X56000000Y-23745600D02*
X56000000Y-32000000D01*
X56000000Y-23745600D02*
X56000000Y-32000000D01*
%TO.N,CH5_LED*%
X27000000Y-36688300D02*
X27000000Y-43000000D01*
X23769200Y-33457500D02*
X27000000Y-36688300D01*
X23769200Y-33457500D02*
X27000000Y-36688300D01*
X27000000Y-36688300D02*
X27000000Y-43000000D01*
%TO.N,+5V*%
X77464600Y-2773300D02*
X79582600Y-2773300D01*
X56652800Y-2460000D02*
X59646400Y-5453600D01*
X98510000Y-39223300D02*
X98510000Y-20590000D01*
X63427100Y-5453600D02*
X64880700Y-4000000D01*
X94460000Y-44500000D02*
X94460000Y-43273300D01*
X64880700Y-4000000D02*
X76237900Y-4000000D01*
X80500000Y-3690700D02*
X80500000Y-14500000D01*
X77464600Y-2773300D02*
X79582600Y-2773300D01*
X56160000Y-2460000D02*
X56652800Y-2460000D01*
X56160000Y-2460000D02*
X56652800Y-2460000D01*
X94460000Y-43273300D02*
X98510000Y-39223300D01*
X79582600Y-2773300D02*
X80500000Y-3690700D01*
X98510000Y-20590000D02*
X94000000Y-16080000D01*
X94460000Y-43273300D02*
X98510000Y-39223300D01*
X59646400Y-5453600D02*
X63427100Y-5453600D01*
X79582600Y-2773300D02*
X80500000Y-3690700D01*
X76237900Y-4000000D02*
X77464600Y-2773300D01*
X59646400Y-5453600D02*
X63427100Y-5453600D01*
X63427100Y-5453600D02*
X64880700Y-4000000D01*
X98510000Y-39223300D02*
X98510000Y-20590000D01*
X56652800Y-2460000D02*
X59646400Y-5453600D01*
X64880700Y-4000000D02*
X76237900Y-4000000D01*
X98510000Y-20590000D02*
X94000000Y-16080000D01*
X80500000Y-3690700D02*
X80500000Y-14500000D01*
X76237900Y-4000000D02*
X77464600Y-2773300D01*
X94460000Y-44500000D02*
X94460000Y-43273300D01*
%TO.N,GPIO2*%
X51102000Y-735800D02*
X86275800Y-735800D01*
X51102000Y-735800D02*
X86275800Y-735800D01*
X52418300Y-6201700D02*
X50611000Y-6201700D01*
X53620000Y-5000000D02*
X52418300Y-6201700D01*
X50611000Y-6201700D02*
X49893700Y-5484400D01*
X50611000Y-6201700D02*
X49893700Y-5484400D01*
X86275800Y-735800D02*
X94000000Y-8460000D01*
X49893700Y-1944100D02*
X51102000Y-735800D01*
X49893700Y-5484400D02*
X49893700Y-1944100D01*
X49893700Y-1944100D02*
X51102000Y-735800D01*
X52418300Y-6201700D02*
X50611000Y-6201700D01*
X49893700Y-5484400D02*
X49893700Y-1944100D01*
X86275800Y-735800D02*
X94000000Y-8460000D01*
X53620000Y-5000000D02*
X52418300Y-6201700D01*
%TO.N,GPIO3*%
X84253800Y-1253800D02*
X91460000Y-8460000D01*
X54939800Y-2867700D02*
X54939800Y-1971700D01*
X54939800Y-1971700D02*
X55657700Y-1253800D01*
X54939800Y-2867700D02*
X54939800Y-1971700D01*
X54939800Y-1971700D02*
X55657700Y-1253800D01*
X52317100Y-3762900D02*
X54044600Y-3762900D01*
X52317100Y-3762900D02*
X54044600Y-3762900D01*
X51080000Y-5000000D02*
X52317100Y-3762900D01*
X84253800Y-1253800D02*
X91460000Y-8460000D01*
X55657700Y-1253800D02*
X84253800Y-1253800D01*
X51080000Y-5000000D02*
X52317100Y-3762900D01*
X54044600Y-3762900D02*
X54939800Y-2867700D01*
X55657700Y-1253800D02*
X84253800Y-1253800D01*
X54044600Y-3762900D02*
X54939800Y-2867700D01*
%TO.N,GPIO10*%
X42613500Y-12443100D02*
X48742700Y-18572300D01*
X42613500Y-9861000D02*
X42613500Y-12443100D01*
X42613500Y-9861000D02*
X42613500Y-12443100D01*
X42613500Y-12443100D02*
X48742700Y-18572300D01*
X48742700Y-18572300D02*
X48847200Y-18572300D01*
X48742700Y-18572300D02*
X48847200Y-18572300D01*
%TO.N,GPIO9*%
X35286000Y-1271500D02*
X41399100Y-1271500D01*
X42190000Y-6380000D02*
X50331600Y-14521600D01*
X34570000Y-1987500D02*
X35286000Y-1271500D01*
X32030000Y-3730000D02*
X33730900Y-3730000D01*
X34570000Y-2890900D02*
X34570000Y-1987500D01*
X50331600Y-14521600D02*
X50331600Y-17014100D01*
X33730900Y-3730000D02*
X34570000Y-2890900D01*
X42190000Y-6380000D02*
X50331600Y-14521600D01*
X41399100Y-1271500D02*
X42190000Y-2062400D01*
X30760000Y-5000000D02*
X32030000Y-3730000D01*
X42190000Y-2062400D02*
X42190000Y-6380000D01*
X34570000Y-1987500D02*
X35286000Y-1271500D01*
X30760000Y-5000000D02*
X32030000Y-3730000D01*
X32030000Y-3730000D02*
X33730900Y-3730000D01*
X34570000Y-2890900D02*
X34570000Y-1987500D01*
X33730900Y-3730000D02*
X34570000Y-2890900D01*
X42190000Y-2062400D02*
X42190000Y-6380000D01*
X50331600Y-14521600D02*
X50331600Y-17014100D01*
X41399100Y-1271500D02*
X42190000Y-2062400D01*
X35286000Y-1271500D02*
X41399100Y-1271500D01*
%TO.N,12V_BATT*%
X69000000Y-29690000D02*
X73190000Y-25500000D01*
X69000000Y-29690000D02*
X73190000Y-25500000D01*
X69000000Y-46000000D02*
X69000000Y-29690000D01*
X69000000Y-46000000D02*
X69000000Y-29690000D01*
%TO.N,VIN_BUCK*%
X71250700Y-16250700D02*
X76557300Y-16250700D01*
X86929900Y-26623300D02*
X86929900Y-28901900D01*
X92300000Y-27950000D02*
X92300000Y-26623300D01*
X69500000Y-14500000D02*
X71250700Y-16250700D01*
X69500000Y-14500000D02*
X71250700Y-16250700D01*
X86929900Y-26623300D02*
X92300000Y-26623300D01*
X76557300Y-16250700D02*
X86929900Y-26623300D01*
X92300000Y-27950000D02*
X92300000Y-26623300D01*
X86929900Y-26623300D02*
X86929900Y-28901900D01*
X71250700Y-16250700D02*
X76557300Y-16250700D01*
X76557300Y-16250700D02*
X86929900Y-26623300D01*
X86929900Y-26623300D02*
X92300000Y-26623300D01*
%TO.N,SW_NODE*%
X82000000Y-47000000D02*
X89893300Y-39106700D01*
X89893300Y-39106700D02*
X89893300Y-29695600D01*
X90600000Y-27950000D02*
X89523300Y-27950000D01*
X90600000Y-27950000D02*
X89523300Y-27950000D01*
X89893300Y-29695600D02*
X89523300Y-29325600D01*
X89523300Y-29325600D02*
X89523300Y-27950000D01*
X89893300Y-39106700D02*
X89893300Y-29695600D01*
X89523300Y-29325600D02*
X89523300Y-27950000D01*
X82000000Y-47000000D02*
X89893300Y-39106700D01*
X89893300Y-29695600D02*
X89523300Y-29325600D01*
%TD*%
%TA.AperFunction,Conductor*%
%TO.N,GND*%
G36*
X50520386Y-220185D02*
G01*
X50566141Y-272989D01*
X50576085Y-342147D01*
X50547060Y-405703D01*
X50541028Y-412181D01*
X49554637Y-1398571D01*
X49493314Y-1432056D01*
X49423622Y-1427072D01*
X49394071Y-1411208D01*
X49247819Y-1304951D01*
X49247818Y-1304950D01*
X49247816Y-1304949D01*
X49058412Y-1208443D01*
X48856243Y-1142754D01*
X48856241Y-1142753D01*
X48856240Y-1142753D01*
X48694957Y-1117208D01*
X48646287Y-1109500D01*
X48433713Y-1109500D01*
X48385042Y-1117208D01*
X48223760Y-1142753D01*
X48021585Y-1208444D01*
X47832179Y-1304951D01*
X47660213Y-1429890D01*
X47509890Y-1580213D01*
X47384949Y-1752182D01*
X47380484Y-1760946D01*
X47332509Y-1811742D01*
X47264688Y-1828536D01*
X47198553Y-1805998D01*
X47159516Y-1760946D01*
X47155050Y-1752182D01*
X47030109Y-1580213D01*
X46879786Y-1429890D01*
X46707820Y-1304951D01*
X46518414Y-1208444D01*
X46518413Y-1208443D01*
X46518412Y-1208443D01*
X46316243Y-1142754D01*
X46316241Y-1142753D01*
X46316240Y-1142753D01*
X46154957Y-1117208D01*
X46106287Y-1109500D01*
X45893713Y-1109500D01*
X45845042Y-1117208D01*
X45683760Y-1142753D01*
X45481585Y-1208444D01*
X45292179Y-1304951D01*
X45120213Y-1429890D01*
X44969890Y-1580213D01*
X44844949Y-1752182D01*
X44840484Y-1760946D01*
X44792509Y-1811742D01*
X44724688Y-1828536D01*
X44658553Y-1805998D01*
X44619516Y-1760946D01*
X44615050Y-1752182D01*
X44490109Y-1580213D01*
X44339786Y-1429890D01*
X44167820Y-1304951D01*
X43978414Y-1208444D01*
X43978413Y-1208443D01*
X43978412Y-1208443D01*
X43776243Y-1142754D01*
X43776241Y-1142753D01*
X43776240Y-1142753D01*
X43614957Y-1117208D01*
X43566287Y-1109500D01*
X43353713Y-1109500D01*
X43305042Y-1117208D01*
X43143760Y-1142753D01*
X42941585Y-1208444D01*
X42752184Y-1304948D01*
X42585888Y-1425769D01*
X42520081Y-1449248D01*
X42452028Y-1433422D01*
X42425322Y-1413131D01*
X41894922Y-882732D01*
X41884959Y-872769D01*
X41884958Y-872767D01*
X41797833Y-785642D01*
X41746609Y-751415D01*
X41695386Y-717188D01*
X41695383Y-717186D01*
X41695380Y-717185D01*
X41621703Y-686668D01*
X41621701Y-686667D01*
X41614892Y-683847D01*
X41581552Y-670037D01*
X41521129Y-658018D01*
X41516406Y-657078D01*
X41516404Y-657078D01*
X41460710Y-646000D01*
X41460707Y-646000D01*
X41460706Y-646000D01*
X35347607Y-646000D01*
X35224393Y-646000D01*
X35224389Y-646000D01*
X35173535Y-656115D01*
X35173530Y-656116D01*
X35163971Y-658018D01*
X35103548Y-670037D01*
X35056397Y-689567D01*
X34989715Y-717188D01*
X34989714Y-717189D01*
X34967347Y-732133D01*
X34967344Y-732135D01*
X34887268Y-785640D01*
X34843705Y-829203D01*
X34800142Y-872767D01*
X34084144Y-1588764D01*
X34084138Y-1588772D01*
X34015690Y-1691208D01*
X34015688Y-1691213D01*
X33968540Y-1805038D01*
X33968535Y-1805054D01*
X33953132Y-1882495D01*
X33944500Y-1925889D01*
X33944500Y-2580447D01*
X33924815Y-2647486D01*
X33908181Y-2668128D01*
X33508129Y-3068181D01*
X33446806Y-3101666D01*
X33420448Y-3104500D01*
X32141260Y-3104500D01*
X32074221Y-3084815D01*
X32028466Y-3032011D01*
X32018522Y-2962853D01*
X32023329Y-2942182D01*
X32041708Y-2885616D01*
X32077246Y-2776243D01*
X32110500Y-2566287D01*
X32110500Y-2353713D01*
X32077246Y-2143757D01*
X32011557Y-1941588D01*
X31915051Y-1752184D01*
X31915049Y-1752181D01*
X31915048Y-1752179D01*
X31790109Y-1580213D01*
X31639786Y-1429890D01*
X31467820Y-1304951D01*
X31278414Y-1208444D01*
X31278413Y-1208443D01*
X31278412Y-1208443D01*
X31076243Y-1142754D01*
X31076241Y-1142753D01*
X31076240Y-1142753D01*
X30914957Y-1117208D01*
X30866287Y-1109500D01*
X30653713Y-1109500D01*
X30605042Y-1117208D01*
X30443760Y-1142753D01*
X30241585Y-1208444D01*
X30052179Y-1304951D01*
X29880213Y-1429890D01*
X29729890Y-1580213D01*
X29604949Y-1752182D01*
X29600484Y-1760946D01*
X29552509Y-1811742D01*
X29484688Y-1828536D01*
X29418553Y-1805998D01*
X29379516Y-1760946D01*
X29375050Y-1752182D01*
X29250109Y-1580213D01*
X29099786Y-1429890D01*
X28927820Y-1304951D01*
X28738414Y-1208444D01*
X28738413Y-1208443D01*
X28738412Y-1208443D01*
X28536243Y-1142754D01*
X28536241Y-1142753D01*
X28536240Y-1142753D01*
X28374957Y-1117208D01*
X28326287Y-1109500D01*
X28113713Y-1109500D01*
X28065042Y-1117208D01*
X27903760Y-1142753D01*
X27701585Y-1208444D01*
X27512179Y-1304951D01*
X27340213Y-1429890D01*
X27189890Y-1580213D01*
X27064949Y-1752182D01*
X27060484Y-1760946D01*
X27012509Y-1811742D01*
X26944688Y-1828536D01*
X26878553Y-1805998D01*
X26839516Y-1760946D01*
X26835050Y-1752182D01*
X26710109Y-1580213D01*
X26559786Y-1429890D01*
X26387820Y-1304951D01*
X26198414Y-1208444D01*
X26198413Y-1208443D01*
X26198412Y-1208443D01*
X25996243Y-1142754D01*
X25996241Y-1142753D01*
X25996240Y-1142753D01*
X25834957Y-1117208D01*
X25786287Y-1109500D01*
X25573713Y-1109500D01*
X25525042Y-1117208D01*
X25363760Y-1142753D01*
X25161585Y-1208444D01*
X24972179Y-1304951D01*
X24800213Y-1429890D01*
X24649890Y-1580213D01*
X24524949Y-1752182D01*
X24520484Y-1760946D01*
X24472509Y-1811742D01*
X24404688Y-1828536D01*
X24338553Y-1805998D01*
X24299516Y-1760946D01*
X24295050Y-1752182D01*
X24170109Y-1580213D01*
X24019786Y-1429890D01*
X23847820Y-1304951D01*
X23658414Y-1208444D01*
X23658413Y-1208443D01*
X23658412Y-1208443D01*
X23456243Y-1142754D01*
X23456241Y-1142753D01*
X23456240Y-1142753D01*
X23294957Y-1117208D01*
X23246287Y-1109500D01*
X23033713Y-1109500D01*
X22985042Y-1117208D01*
X22823760Y-1142753D01*
X22621585Y-1208444D01*
X22432184Y-1304948D01*
X22278166Y-1416848D01*
X22212359Y-1440327D01*
X22144305Y-1424501D01*
X22117600Y-1404210D01*
X21593250Y-879860D01*
X21585960Y-872570D01*
X21585958Y-872567D01*
X21498833Y-785442D01*
X21447609Y-751215D01*
X21396386Y-716988D01*
X21396383Y-716986D01*
X21396380Y-716985D01*
X21323541Y-686815D01*
X21323539Y-686814D01*
X21315892Y-683647D01*
X21282552Y-669837D01*
X21194571Y-652337D01*
X21190747Y-651576D01*
X21190742Y-651575D01*
X21162712Y-646000D01*
X21161707Y-645800D01*
X21161706Y-645800D01*
X17593106Y-645800D01*
X17469893Y-645800D01*
X17468888Y-646000D01*
X17437028Y-652337D01*
X17437027Y-652336D01*
X17349055Y-669835D01*
X17349045Y-669838D01*
X17235212Y-716989D01*
X17235206Y-716993D01*
X17132766Y-785442D01*
X17132762Y-785445D01*
X16556909Y-1361300D01*
X16373469Y-1544740D01*
X16373467Y-1544742D01*
X16345228Y-1572981D01*
X16286342Y-1631866D01*
X16260839Y-1670035D01*
X16260838Y-1670036D01*
X16217890Y-1734308D01*
X16217886Y-1734316D01*
X16204716Y-1766114D01*
X16170738Y-1848144D01*
X16170735Y-1848156D01*
X16146700Y-1968989D01*
X16146700Y-2589348D01*
X16127015Y-2656387D01*
X16110381Y-2677029D01*
X15719229Y-3068181D01*
X15657906Y-3101666D01*
X15631548Y-3104500D01*
X14361260Y-3104500D01*
X14294221Y-3084815D01*
X14248466Y-3032011D01*
X14238522Y-2962853D01*
X14243329Y-2942182D01*
X14261708Y-2885616D01*
X14297246Y-2776243D01*
X14330500Y-2566287D01*
X14330500Y-2353713D01*
X14297246Y-2143757D01*
X14231557Y-1941588D01*
X14135051Y-1752184D01*
X14135049Y-1752181D01*
X14135048Y-1752179D01*
X14010109Y-1580213D01*
X13859786Y-1429890D01*
X13687820Y-1304951D01*
X13498414Y-1208444D01*
X13498413Y-1208443D01*
X13498412Y-1208443D01*
X13296243Y-1142754D01*
X13296241Y-1142753D01*
X13296240Y-1142753D01*
X13134957Y-1117208D01*
X13086287Y-1109500D01*
X12873713Y-1109500D01*
X12825042Y-1117208D01*
X12663760Y-1142753D01*
X12461585Y-1208444D01*
X12272179Y-1304951D01*
X12100213Y-1429890D01*
X11949890Y-1580213D01*
X11824949Y-1752182D01*
X11820484Y-1760946D01*
X11772509Y-1811742D01*
X11704688Y-1828536D01*
X11638553Y-1805998D01*
X11599516Y-1760946D01*
X11595050Y-1752182D01*
X11470109Y-1580213D01*
X11319786Y-1429890D01*
X11147820Y-1304951D01*
X10958414Y-1208444D01*
X10958413Y-1208443D01*
X10958412Y-1208443D01*
X10756243Y-1142754D01*
X10756241Y-1142753D01*
X10756240Y-1142753D01*
X10594957Y-1117208D01*
X10546287Y-1109500D01*
X10333713Y-1109500D01*
X10285042Y-1117208D01*
X10123760Y-1142753D01*
X9921585Y-1208444D01*
X9732179Y-1304951D01*
X9560213Y-1429890D01*
X9409890Y-1580213D01*
X9284949Y-1752182D01*
X9280484Y-1760946D01*
X9232509Y-1811742D01*
X9164688Y-1828536D01*
X9098553Y-1805998D01*
X9059516Y-1760946D01*
X9055050Y-1752182D01*
X8930109Y-1580213D01*
X8779786Y-1429890D01*
X8607820Y-1304951D01*
X8418414Y-1208444D01*
X8418413Y-1208443D01*
X8418412Y-1208443D01*
X8216243Y-1142754D01*
X8216241Y-1142753D01*
X8216240Y-1142753D01*
X8054957Y-1117208D01*
X8006287Y-1109500D01*
X7793713Y-1109500D01*
X7745042Y-1117208D01*
X7583760Y-1142753D01*
X7381585Y-1208444D01*
X7192179Y-1304951D01*
X7020213Y-1429890D01*
X6869890Y-1580213D01*
X6744951Y-1752179D01*
X6648444Y-1941585D01*
X6648443Y-1941587D01*
X6648443Y-1941588D01*
X6641683Y-1962394D01*
X6582753Y-2143760D01*
X6549500Y-2353713D01*
X6549500Y-2566286D01*
X6582753Y-2776239D01*
X6582753Y-2776241D01*
X6582754Y-2776243D01*
X6618293Y-2885621D01*
X6648444Y-2978414D01*
X6744951Y-3167820D01*
X6869890Y-3339786D01*
X7020213Y-3490109D01*
X7192179Y-3615048D01*
X7192181Y-3615049D01*
X7192184Y-3615051D01*
X7381588Y-3711557D01*
X7583757Y-3777246D01*
X7793713Y-3810500D01*
X7793714Y-3810500D01*
X8006286Y-3810500D01*
X8006287Y-3810500D01*
X8216243Y-3777246D01*
X8418412Y-3711557D01*
X8607816Y-3615051D01*
X8640171Y-3591544D01*
X8779786Y-3490109D01*
X8779788Y-3490106D01*
X8779792Y-3490104D01*
X8930104Y-3339792D01*
X8930106Y-3339788D01*
X8930109Y-3339786D01*
X9055048Y-3167820D01*
X9055047Y-3167820D01*
X9055051Y-3167816D01*
X9059514Y-3159054D01*
X9107488Y-3108259D01*
X9175308Y-3091463D01*
X9241444Y-3113999D01*
X9280486Y-3159056D01*
X9284951Y-3167820D01*
X9409890Y-3339786D01*
X9560213Y-3490109D01*
X9732182Y-3615050D01*
X9740946Y-3619516D01*
X9791742Y-3667491D01*
X9808536Y-3735312D01*
X9785998Y-3801447D01*
X9740946Y-3840484D01*
X9732182Y-3844949D01*
X9560213Y-3969890D01*
X9409890Y-4120213D01*
X9284951Y-4292179D01*
X9188444Y-4481585D01*
X9122753Y-4683760D01*
X9103425Y-4805795D01*
X9089500Y-4893713D01*
X9089500Y-5106287D01*
X9122754Y-5316243D01*
X9173683Y-5472987D01*
X9188444Y-5518414D01*
X9284951Y-5707820D01*
X9409890Y-5879786D01*
X9560213Y-6030109D01*
X9732179Y-6155048D01*
X9732181Y-6155049D01*
X9732184Y-6155051D01*
X9921588Y-6251557D01*
X10123757Y-6317246D01*
X10333713Y-6350500D01*
X10333714Y-6350500D01*
X10546286Y-6350500D01*
X10546287Y-6350500D01*
X10756243Y-6317246D01*
X10958412Y-6251557D01*
X11147816Y-6155051D01*
X11209502Y-6110234D01*
X11319786Y-6030109D01*
X11319792Y-6030104D01*
X11387303Y-5962593D01*
X11470104Y-5879792D01*
X11470106Y-5879788D01*
X11470109Y-5879786D01*
X11595048Y-5707820D01*
X11595047Y-5707820D01*
X11595051Y-5707816D01*
X11599514Y-5699054D01*
X11647488Y-5648259D01*
X11715308Y-5631463D01*
X11781444Y-5653999D01*
X11820486Y-5699056D01*
X11824951Y-5707820D01*
X11949890Y-5879786D01*
X12100213Y-6030109D01*
X12272179Y-6155048D01*
X12272181Y-6155049D01*
X12272184Y-6155051D01*
X12461588Y-6251557D01*
X12663757Y-6317246D01*
X12873713Y-6350500D01*
X12873714Y-6350500D01*
X13086286Y-6350500D01*
X13086287Y-6350500D01*
X13296243Y-6317246D01*
X13498412Y-6251557D01*
X13687816Y-6155051D01*
X13749502Y-6110234D01*
X13859786Y-6030109D01*
X13859792Y-6030104D01*
X13927303Y-5962593D01*
X14010104Y-5879792D01*
X14010106Y-5879788D01*
X14010109Y-5879786D01*
X14135048Y-5707820D01*
X14135047Y-5707820D01*
X14135051Y-5707816D01*
X14139514Y-5699054D01*
X14187488Y-5648259D01*
X14255308Y-5631463D01*
X14321444Y-5653999D01*
X14360486Y-5699056D01*
X14364951Y-5707820D01*
X14489890Y-5879786D01*
X14640213Y-6030109D01*
X14812181Y-6155050D01*
X14826792Y-6162494D01*
X14877589Y-6210467D01*
X14894500Y-6272980D01*
X14894500Y-29616507D01*
X14897978Y-29633994D01*
X14897977Y-29633994D01*
X14918535Y-29737345D01*
X14918536Y-29737351D01*
X14920842Y-29742918D01*
X14924442Y-29751607D01*
X14965688Y-29851186D01*
X14999915Y-29902409D01*
X15004110Y-29908687D01*
X15004111Y-29908689D01*
X15034140Y-29953631D01*
X15034141Y-29953632D01*
X15034142Y-29953633D01*
X15121267Y-30040758D01*
X15121268Y-30040758D01*
X15128335Y-30047825D01*
X15128334Y-30047825D01*
X15128338Y-30047828D01*
X22841285Y-37760777D01*
X22874770Y-37822100D01*
X22869786Y-37891792D01*
X22864089Y-37904752D01*
X22794782Y-38040773D01*
X22731522Y-38235465D01*
X22699500Y-38437648D01*
X22699500Y-38642351D01*
X22732285Y-38849346D01*
X22730252Y-38849667D01*
X22727165Y-38910834D01*
X22697781Y-38957627D01*
X22418370Y-39237039D01*
X22331244Y-39324164D01*
X22331238Y-39324172D01*
X22262790Y-39426608D01*
X22262789Y-39426610D01*
X22230300Y-39505045D01*
X22230300Y-39505048D01*
X22219151Y-39531966D01*
X22219150Y-39531968D01*
X22215638Y-39540444D01*
X22215638Y-39540445D01*
X22215637Y-39540448D01*
X22215637Y-39540449D01*
X22193392Y-39652287D01*
X22191600Y-39661294D01*
X22191600Y-48295493D01*
X22191600Y-48418707D01*
X22198364Y-48452714D01*
X22198364Y-48452715D01*
X22198363Y-48452715D01*
X22215635Y-48539545D01*
X22215639Y-48539560D01*
X22225196Y-48562631D01*
X22225202Y-48562643D01*
X22226820Y-48566549D01*
X22262788Y-48653386D01*
X22287420Y-48690249D01*
X22291843Y-48696869D01*
X22291845Y-48696872D01*
X22331241Y-48755832D01*
X22331244Y-48755836D01*
X22422686Y-48847278D01*
X22422708Y-48847298D01*
X22697781Y-49122371D01*
X22731266Y-49183694D01*
X22730785Y-49230416D01*
X22732285Y-49230654D01*
X22699500Y-49437648D01*
X22699500Y-49642351D01*
X22731522Y-49844534D01*
X22794781Y-50039223D01*
X22887715Y-50221613D01*
X23008028Y-50387213D01*
X23152786Y-50531971D01*
X23296476Y-50636366D01*
X23318390Y-50652287D01*
X23434607Y-50711503D01*
X23500776Y-50745218D01*
X23500778Y-50745218D01*
X23500781Y-50745220D01*
X23605137Y-50779127D01*
X23695465Y-50808477D01*
X23796557Y-50824488D01*
X23897648Y-50840500D01*
X23897649Y-50840500D01*
X24102351Y-50840500D01*
X24102352Y-50840500D01*
X24304534Y-50808477D01*
X24499219Y-50745220D01*
X24681610Y-50652287D01*
X24779664Y-50581047D01*
X24847213Y-50531971D01*
X24847215Y-50531968D01*
X24847219Y-50531966D01*
X24991966Y-50387219D01*
X24991968Y-50387215D01*
X24991971Y-50387213D01*
X25062285Y-50290432D01*
X25112287Y-50221610D01*
X25205220Y-50039219D01*
X25268477Y-49844534D01*
X25300500Y-49642352D01*
X25300500Y-49437648D01*
X25268477Y-49235466D01*
X25268279Y-49234858D01*
X25209889Y-49055152D01*
X25205220Y-49040781D01*
X25205218Y-49040778D01*
X25205218Y-49040776D01*
X25164812Y-48961476D01*
X25112287Y-48858390D01*
X25070228Y-48800500D01*
X24991971Y-48692786D01*
X24847219Y-48548034D01*
X24781481Y-48500273D01*
X24753547Y-48479978D01*
X24710882Y-48424649D01*
X24704903Y-48355036D01*
X24737508Y-48293240D01*
X24787426Y-48261955D01*
X24869334Y-48234814D01*
X25018656Y-48142712D01*
X25142712Y-48018656D01*
X25234814Y-47869334D01*
X25289999Y-47702797D01*
X25300500Y-47600009D01*
X25300499Y-46399992D01*
X25289999Y-46297203D01*
X25234814Y-46130666D01*
X25142712Y-45981344D01*
X25018656Y-45857288D01*
X24869334Y-45765186D01*
X24702797Y-45710001D01*
X24702795Y-45710000D01*
X24600016Y-45699500D01*
X24600009Y-45699500D01*
X23566600Y-45699500D01*
X23499561Y-45679815D01*
X23453806Y-45627011D01*
X23442600Y-45575500D01*
X23442600Y-42965352D01*
X23462285Y-42898313D01*
X23515089Y-42852558D01*
X23584247Y-42842614D01*
X23647803Y-42871639D01*
X23654281Y-42877671D01*
X30283181Y-49506571D01*
X30316666Y-49567894D01*
X30319500Y-49594252D01*
X30319500Y-49642351D01*
X30351522Y-49844534D01*
X30414781Y-50039223D01*
X30507715Y-50221613D01*
X30628028Y-50387213D01*
X30772786Y-50531971D01*
X30916476Y-50636366D01*
X30938390Y-50652287D01*
X31054607Y-50711503D01*
X31120776Y-50745218D01*
X31120778Y-50745218D01*
X31120781Y-50745220D01*
X31225137Y-50779127D01*
X31315465Y-50808477D01*
X31416557Y-50824488D01*
X31517648Y-50840500D01*
X31517649Y-50840500D01*
X31722351Y-50840500D01*
X31722352Y-50840500D01*
X31924534Y-50808477D01*
X32119219Y-50745220D01*
X32301610Y-50652287D01*
X32399664Y-50581047D01*
X32467213Y-50531971D01*
X32467215Y-50531968D01*
X32467219Y-50531966D01*
X32611966Y-50387219D01*
X32611968Y-50387215D01*
X32611971Y-50387213D01*
X32682285Y-50290432D01*
X32732287Y-50221610D01*
X32825220Y-50039219D01*
X32888477Y-49844534D01*
X32920500Y-49642352D01*
X32920500Y-49437648D01*
X32888477Y-49235466D01*
X32888279Y-49234858D01*
X32829889Y-49055152D01*
X32825220Y-49040781D01*
X32825218Y-49040778D01*
X32825218Y-49040776D01*
X32784812Y-48961476D01*
X32732287Y-48858390D01*
X32690228Y-48800500D01*
X32611971Y-48692786D01*
X32467213Y-48548028D01*
X32301613Y-48427715D01*
X32301612Y-48427714D01*
X32301610Y-48427713D01*
X32244653Y-48398691D01*
X32119223Y-48334781D01*
X31924534Y-48271522D01*
X31749995Y-48243878D01*
X31722352Y-48239500D01*
X31517648Y-48239500D01*
X31450254Y-48250174D01*
X31315464Y-48271523D01*
X31315461Y-48271523D01*
X31120782Y-48334779D01*
X31120781Y-48334779D01*
X31041921Y-48374960D01*
X30973251Y-48387856D01*
X30908511Y-48361579D01*
X30897946Y-48352156D01*
X27157970Y-44612180D01*
X27124485Y-44550857D01*
X27129469Y-44481165D01*
X27171341Y-44425232D01*
X27236805Y-44400815D01*
X27245651Y-44400499D01*
X27947871Y-44400499D01*
X27947872Y-44400499D01*
X28007483Y-44394091D01*
X28142331Y-44343796D01*
X28257546Y-44257546D01*
X28343796Y-44142331D01*
X28394091Y-44007483D01*
X28400500Y-43947873D01*
X28400499Y-42052128D01*
X28394091Y-41992517D01*
X28393896Y-41991995D01*
X28343797Y-41857671D01*
X28343793Y-41857664D01*
X28257547Y-41742455D01*
X28257544Y-41742452D01*
X28142335Y-41656206D01*
X28142328Y-41656202D01*
X28007482Y-41605908D01*
X28007483Y-41605908D01*
X27947883Y-41599501D01*
X27947881Y-41599500D01*
X27947873Y-41599500D01*
X27947865Y-41599500D01*
X27749500Y-41599500D01*
X27682461Y-41579815D01*
X27636706Y-41527011D01*
X27625500Y-41475500D01*
X27625500Y-36626693D01*
X27625499Y-36626689D01*
X27620194Y-36600018D01*
X27601463Y-36505848D01*
X27554311Y-36392014D01*
X27554310Y-36392013D01*
X27554307Y-36392007D01*
X27485858Y-36289567D01*
X27485855Y-36289563D01*
X27395637Y-36199345D01*
X27395606Y-36199316D01*
X24706019Y-33509729D01*
X24672534Y-33448406D01*
X24669700Y-33422048D01*
X24669700Y-33368806D01*
X24669699Y-33368804D01*
X24635096Y-33194841D01*
X24633327Y-33189011D01*
X24634952Y-33188517D01*
X24628348Y-33127122D01*
X24659619Y-33064640D01*
X24719706Y-33028985D01*
X24789531Y-33031474D01*
X24838060Y-33061450D01*
X30283181Y-38506571D01*
X30316666Y-38567894D01*
X30319500Y-38594252D01*
X30319500Y-38642351D01*
X30351522Y-38844534D01*
X30414781Y-39039223D01*
X30507715Y-39221613D01*
X30628028Y-39387213D01*
X30772786Y-39531971D01*
X30927749Y-39644556D01*
X30938390Y-39652287D01*
X31050009Y-39709160D01*
X31120776Y-39745218D01*
X31120778Y-39745218D01*
X31120781Y-39745220D01*
X31225137Y-39779127D01*
X31315465Y-39808477D01*
X31390251Y-39820322D01*
X31517648Y-39840500D01*
X31517649Y-39840500D01*
X31722351Y-39840500D01*
X31722352Y-39840500D01*
X31924534Y-39808477D01*
X32119219Y-39745220D01*
X32301610Y-39652287D01*
X32394590Y-39584732D01*
X32467213Y-39531971D01*
X32467215Y-39531968D01*
X32467219Y-39531966D01*
X32611966Y-39387219D01*
X32611968Y-39387215D01*
X32611971Y-39387213D01*
X32683216Y-39289151D01*
X32732287Y-39221610D01*
X32825220Y-39039219D01*
X32888477Y-38844534D01*
X32920500Y-38642352D01*
X32920500Y-38437648D01*
X32888477Y-38235466D01*
X32825220Y-38040781D01*
X32825218Y-38040778D01*
X32825218Y-38040776D01*
X32791503Y-37974607D01*
X32732287Y-37858390D01*
X32699243Y-37812908D01*
X32611971Y-37692786D01*
X32467213Y-37548028D01*
X32301613Y-37427715D01*
X32301612Y-37427714D01*
X32301610Y-37427713D01*
X32244653Y-37398691D01*
X32119223Y-37334781D01*
X31924534Y-37271522D01*
X31749995Y-37243878D01*
X31722352Y-37239500D01*
X31517648Y-37239500D01*
X31450254Y-37250174D01*
X31315464Y-37271523D01*
X31315461Y-37271523D01*
X31120782Y-37334779D01*
X31120781Y-37334779D01*
X31041921Y-37374960D01*
X30973251Y-37387856D01*
X30908511Y-37361579D01*
X30897946Y-37352156D01*
X27157970Y-33612180D01*
X27124485Y-33550857D01*
X27129469Y-33481165D01*
X27171341Y-33425232D01*
X27236805Y-33400815D01*
X27245651Y-33400499D01*
X27947871Y-33400499D01*
X27947872Y-33400499D01*
X28007483Y-33394091D01*
X28142331Y-33343796D01*
X28257546Y-33257546D01*
X28343796Y-33142331D01*
X28394091Y-33007483D01*
X28400500Y-32947873D01*
X28400499Y-31052128D01*
X28394091Y-30992517D01*
X28393104Y-30989872D01*
X28343797Y-30857671D01*
X28343793Y-30857664D01*
X28257547Y-30742455D01*
X28257544Y-30742452D01*
X28142335Y-30656206D01*
X28142328Y-30656202D01*
X28007482Y-30605908D01*
X28007483Y-30605908D01*
X27947883Y-30599501D01*
X27947881Y-30599500D01*
X27947873Y-30599500D01*
X27947865Y-30599500D01*
X26246033Y-30599500D01*
X26178994Y-30579815D01*
X26133239Y-30527011D01*
X26123295Y-30457853D01*
X26152320Y-30394297D01*
X26211098Y-30356523D01*
X26221823Y-30353887D01*
X26254466Y-30347394D01*
X26418347Y-30279513D01*
X26565835Y-30180964D01*
X26691264Y-30055535D01*
X26789813Y-29908047D01*
X26857694Y-29744166D01*
X26859050Y-29737352D01*
X26892299Y-29570195D01*
X26892300Y-29570193D01*
X26892300Y-29392806D01*
X26892299Y-29392804D01*
X26857696Y-29218841D01*
X26857693Y-29218832D01*
X26789816Y-29054959D01*
X26789809Y-29054946D01*
X26691264Y-28907465D01*
X26691261Y-28907461D01*
X26565838Y-28782038D01*
X26565834Y-28782035D01*
X26418353Y-28683490D01*
X26418340Y-28683483D01*
X26254467Y-28615606D01*
X26254459Y-28615604D01*
X26120908Y-28589039D01*
X26058998Y-28556654D01*
X26024423Y-28495938D01*
X26021100Y-28467422D01*
X26021100Y-28050552D01*
X26040785Y-27983513D01*
X26093589Y-27937758D01*
X26162747Y-27927814D01*
X26226303Y-27956839D01*
X26232781Y-27962871D01*
X28094081Y-29824171D01*
X28127566Y-29885494D01*
X28130400Y-29911852D01*
X28130400Y-29965095D01*
X28165003Y-30139058D01*
X28165006Y-30139067D01*
X28232883Y-30302940D01*
X28232890Y-30302953D01*
X28331435Y-30450434D01*
X28331438Y-30450438D01*
X28456861Y-30575861D01*
X28456865Y-30575864D01*
X28604346Y-30674409D01*
X28604359Y-30674416D01*
X28727263Y-30725323D01*
X28768234Y-30742294D01*
X28768236Y-30742294D01*
X28768241Y-30742296D01*
X28942204Y-30776899D01*
X28942207Y-30776900D01*
X28942209Y-30776900D01*
X29119593Y-30776900D01*
X29119594Y-30776899D01*
X29177582Y-30765364D01*
X29293558Y-30742296D01*
X29293561Y-30742294D01*
X29293566Y-30742294D01*
X29457447Y-30674413D01*
X29604935Y-30575864D01*
X29730364Y-30450435D01*
X29828913Y-30302947D01*
X29896794Y-30139066D01*
X29913410Y-30055535D01*
X29931399Y-29965095D01*
X29931400Y-29965093D01*
X29931400Y-29787706D01*
X29931399Y-29787704D01*
X29896796Y-29613741D01*
X29896793Y-29613732D01*
X29828916Y-29449859D01*
X29828909Y-29449846D01*
X29730364Y-29302365D01*
X29730361Y-29302361D01*
X29604938Y-29176938D01*
X29604934Y-29176935D01*
X29457453Y-29078390D01*
X29457440Y-29078383D01*
X29293567Y-29010506D01*
X29293558Y-29010503D01*
X29119594Y-28975900D01*
X29119591Y-28975900D01*
X29066353Y-28975900D01*
X28999314Y-28956215D01*
X28978672Y-28939581D01*
X26784119Y-26745028D01*
X26750634Y-26683705D01*
X26747800Y-26657347D01*
X26747800Y-22524499D01*
X26767485Y-22457460D01*
X26820289Y-22411705D01*
X26871800Y-22400499D01*
X27367099Y-22400499D01*
X27434138Y-22420184D01*
X27479893Y-22472988D01*
X27489837Y-22542146D01*
X27486998Y-22554915D01*
X27462100Y-22680089D01*
X27462100Y-26287611D01*
X27486135Y-26408444D01*
X27486140Y-26408461D01*
X27533285Y-26522281D01*
X27533291Y-26522292D01*
X27559620Y-26561694D01*
X27564547Y-26569067D01*
X27601742Y-26624733D01*
X27688867Y-26711858D01*
X27688870Y-26711860D01*
X27696296Y-26719286D01*
X52685516Y-51708506D01*
X52685545Y-51708537D01*
X52775763Y-51798755D01*
X52775767Y-51798758D01*
X52878207Y-51867207D01*
X52878211Y-51867209D01*
X52878214Y-51867211D01*
X52992048Y-51914363D01*
X53052471Y-51926381D01*
X53112893Y-51938400D01*
X58908707Y-51938400D01*
X58969129Y-51926381D01*
X59029552Y-51914363D01*
X59062892Y-51900552D01*
X59143386Y-51867212D01*
X59194609Y-51832984D01*
X59245833Y-51798758D01*
X59332958Y-51711633D01*
X59332959Y-51711631D01*
X59340025Y-51704565D01*
X59340028Y-51704561D01*
X60202373Y-50842215D01*
X60263694Y-50808732D01*
X60310410Y-50809249D01*
X60310654Y-50807715D01*
X60414101Y-50824099D01*
X60517648Y-50840500D01*
X60517649Y-50840500D01*
X60722351Y-50840500D01*
X60722352Y-50840500D01*
X60924534Y-50808477D01*
X61119219Y-50745220D01*
X61301610Y-50652287D01*
X61399664Y-50581047D01*
X61467213Y-50531971D01*
X61467215Y-50531968D01*
X61467219Y-50531966D01*
X61611966Y-50387219D01*
X61611968Y-50387215D01*
X61611971Y-50387213D01*
X61682285Y-50290432D01*
X61732287Y-50221610D01*
X61825220Y-50039219D01*
X61888477Y-49844534D01*
X61920500Y-49642352D01*
X61920500Y-49437648D01*
X61888477Y-49235466D01*
X61888279Y-49234858D01*
X61829889Y-49055152D01*
X61825220Y-49040781D01*
X61825218Y-49040778D01*
X61825218Y-49040776D01*
X61784812Y-48961476D01*
X61732287Y-48858390D01*
X61690228Y-48800500D01*
X61611971Y-48692786D01*
X61467213Y-48548028D01*
X61301613Y-48427715D01*
X61301612Y-48427714D01*
X61301610Y-48427713D01*
X61244653Y-48398691D01*
X61119223Y-48334781D01*
X60924534Y-48271522D01*
X60749995Y-48243878D01*
X60722352Y-48239500D01*
X60517648Y-48239500D01*
X60493329Y-48243351D01*
X60315465Y-48271522D01*
X60120776Y-48334781D01*
X59938386Y-48427715D01*
X59772786Y-48548028D01*
X59628028Y-48692786D01*
X59507715Y-48858386D01*
X59414781Y-49040776D01*
X59351522Y-49235465D01*
X59319500Y-49437648D01*
X59319500Y-49642351D01*
X59352285Y-49849346D01*
X59350252Y-49849667D01*
X59347165Y-49910834D01*
X59317781Y-49957627D01*
X58624329Y-50651081D01*
X58563006Y-50684566D01*
X58536648Y-50687400D01*
X56639152Y-50687400D01*
X56572113Y-50667715D01*
X56526358Y-50614911D01*
X56516414Y-50545753D01*
X56545439Y-50482197D01*
X56551471Y-50475719D01*
X56987971Y-50039219D01*
X57755757Y-49271434D01*
X57765084Y-49257475D01*
X57774281Y-49243713D01*
X57814383Y-49183694D01*
X57824211Y-49168986D01*
X57871363Y-49055152D01*
X57873324Y-49045289D01*
X57873325Y-49045289D01*
X57873325Y-49045286D01*
X57895400Y-48934307D01*
X57895400Y-48811094D01*
X57895400Y-40558151D01*
X57915085Y-40491112D01*
X57931714Y-40470475D01*
X59276611Y-39125577D01*
X59337932Y-39092094D01*
X59407624Y-39097078D01*
X59463557Y-39138950D01*
X59474775Y-39156965D01*
X59507715Y-39221614D01*
X59628028Y-39387213D01*
X59772786Y-39531971D01*
X59927749Y-39644556D01*
X59938390Y-39652287D01*
X60050009Y-39709160D01*
X60120776Y-39745218D01*
X60120778Y-39745218D01*
X60120781Y-39745220D01*
X60225137Y-39779127D01*
X60315465Y-39808477D01*
X60390251Y-39820322D01*
X60517648Y-39840500D01*
X60517649Y-39840500D01*
X60722351Y-39840500D01*
X60722352Y-39840500D01*
X60924534Y-39808477D01*
X61119219Y-39745220D01*
X61301610Y-39652287D01*
X61394590Y-39584732D01*
X61467213Y-39531971D01*
X61467215Y-39531968D01*
X61467219Y-39531966D01*
X61611966Y-39387219D01*
X61611968Y-39387215D01*
X61611971Y-39387213D01*
X61683216Y-39289151D01*
X61732287Y-39221610D01*
X61825220Y-39039219D01*
X61888477Y-38844534D01*
X61920500Y-38642352D01*
X61920500Y-38437648D01*
X61888477Y-38235466D01*
X61825220Y-38040781D01*
X61825218Y-38040778D01*
X61825218Y-38040776D01*
X61791503Y-37974607D01*
X61732287Y-37858390D01*
X61699243Y-37812908D01*
X61611975Y-37692792D01*
X61609002Y-37689312D01*
X61580423Y-37625554D01*
X61590852Y-37556467D01*
X61615598Y-37521090D01*
X68081129Y-31055560D01*
X68081133Y-31055558D01*
X68162822Y-30973868D01*
X68224144Y-30940386D01*
X68263974Y-30943235D01*
X68293834Y-30945371D01*
X68293835Y-30945371D01*
X68293836Y-30945372D01*
X68330985Y-30973183D01*
X68338925Y-30979127D01*
X68349768Y-30987244D01*
X68350748Y-30989872D01*
X68374184Y-31052707D01*
X68374500Y-31061553D01*
X68374500Y-43575500D01*
X68354815Y-43642539D01*
X68302011Y-43688294D01*
X68250500Y-43699500D01*
X68159982Y-43699500D01*
X68057203Y-43710000D01*
X68057202Y-43710001D01*
X67974669Y-43737349D01*
X67890667Y-43765185D01*
X67890662Y-43765187D01*
X67741342Y-43857289D01*
X67617289Y-43981342D01*
X67525187Y-44130662D01*
X67525186Y-44130665D01*
X67470001Y-44297202D01*
X67470001Y-44297203D01*
X67470000Y-44297203D01*
X67459500Y-44399982D01*
X67459500Y-47600017D01*
X67470000Y-47702796D01*
X67501563Y-47798045D01*
X67525186Y-47869335D01*
X67617288Y-48018656D01*
X67741344Y-48142712D01*
X67890665Y-48234814D01*
X68057202Y-48289999D01*
X68159990Y-48300500D01*
X68159995Y-48300500D01*
X69840005Y-48300500D01*
X69840010Y-48300500D01*
X69942798Y-48289999D01*
X70109335Y-48234814D01*
X70258656Y-48142712D01*
X70382712Y-48018656D01*
X70474814Y-47869335D01*
X70529999Y-47702798D01*
X70540500Y-47600010D01*
X70540500Y-45118754D01*
X72539500Y-45118754D01*
X72539500Y-46881245D01*
X72577432Y-47120736D01*
X72652360Y-47351344D01*
X72762448Y-47567401D01*
X72904966Y-47763562D01*
X72904970Y-47763567D01*
X73076432Y-47935029D01*
X73076437Y-47935033D01*
X73191537Y-48018657D01*
X73272602Y-48077554D01*
X73488653Y-48187638D01*
X73488655Y-48187639D01*
X73603959Y-48225103D01*
X73719265Y-48262568D01*
X73830186Y-48280136D01*
X73958755Y-48300500D01*
X73958760Y-48300500D01*
X74201245Y-48300500D01*
X74317347Y-48282110D01*
X74440735Y-48262568D01*
X74671347Y-48187638D01*
X74887398Y-48077554D01*
X75083569Y-47935028D01*
X75255028Y-47763569D01*
X75397554Y-47567398D01*
X75507638Y-47351347D01*
X75582568Y-47120735D01*
X75602110Y-46997347D01*
X75620500Y-46881245D01*
X75620500Y-45118754D01*
X75598432Y-44979431D01*
X75582568Y-44879265D01*
X75507638Y-44648653D01*
X75397554Y-44432602D01*
X75379345Y-44407539D01*
X75255033Y-44236437D01*
X75255029Y-44236432D01*
X75083567Y-44064970D01*
X75083562Y-44064966D01*
X74887401Y-43922448D01*
X74887400Y-43922447D01*
X74887398Y-43922446D01*
X74759519Y-43857288D01*
X74671344Y-43812360D01*
X74440736Y-43737432D01*
X74201245Y-43699500D01*
X74201240Y-43699500D01*
X73958760Y-43699500D01*
X73958755Y-43699500D01*
X73719263Y-43737432D01*
X73488655Y-43812360D01*
X73272598Y-43922448D01*
X73076437Y-44064966D01*
X73076432Y-44064970D01*
X72904970Y-44236432D01*
X72904966Y-44236437D01*
X72762448Y-44432598D01*
X72652360Y-44648655D01*
X72577432Y-44879263D01*
X72539500Y-45118754D01*
X70540500Y-45118754D01*
X70540500Y-44399990D01*
X70529999Y-44297202D01*
X70474814Y-44130665D01*
X70382712Y-43981344D01*
X70258656Y-43857288D01*
X70109335Y-43765186D01*
X69942798Y-43710001D01*
X69942796Y-43710000D01*
X69840017Y-43699500D01*
X69840010Y-43699500D01*
X69749500Y-43699500D01*
X69682461Y-43679815D01*
X69636706Y-43627011D01*
X69625500Y-43575500D01*
X69625500Y-30000451D01*
X69645185Y-29933412D01*
X69661814Y-29912775D01*
X72772373Y-26802215D01*
X72833694Y-26768732D01*
X72880410Y-26769249D01*
X72880654Y-26767715D01*
X72984101Y-26784099D01*
X73087648Y-26800500D01*
X73087649Y-26800500D01*
X73292351Y-26800500D01*
X73292352Y-26800500D01*
X73494534Y-26768477D01*
X73689219Y-26705220D01*
X73871610Y-26612287D01*
X73995494Y-26522281D01*
X74037213Y-26491971D01*
X74037215Y-26491968D01*
X74037219Y-26491966D01*
X74181966Y-26347219D01*
X74181968Y-26347215D01*
X74181971Y-26347213D01*
X74240140Y-26267149D01*
X74302287Y-26181610D01*
X74395220Y-25999219D01*
X74458477Y-25804534D01*
X74490500Y-25602352D01*
X74490500Y-25397648D01*
X79509500Y-25397648D01*
X79509500Y-25602351D01*
X79541522Y-25804534D01*
X79604781Y-25999223D01*
X79661675Y-26110881D01*
X79692920Y-26172204D01*
X79697715Y-26181613D01*
X79818028Y-26347213D01*
X79962786Y-26491971D01*
X80117749Y-26604556D01*
X80128390Y-26612287D01*
X80244607Y-26671503D01*
X80310776Y-26705218D01*
X80310778Y-26705218D01*
X80310781Y-26705220D01*
X80354072Y-26719286D01*
X80505465Y-26768477D01*
X80606557Y-26784488D01*
X80707648Y-26800500D01*
X80707649Y-26800500D01*
X80912351Y-26800500D01*
X80912352Y-26800500D01*
X81114534Y-26768477D01*
X81309219Y-26705220D01*
X81491610Y-26612287D01*
X81615494Y-26522281D01*
X81657213Y-26491971D01*
X81657215Y-26491968D01*
X81657219Y-26491966D01*
X81801966Y-26347219D01*
X81801968Y-26347215D01*
X81801971Y-26347213D01*
X81860140Y-26267149D01*
X81922287Y-26181610D01*
X82015220Y-25999219D01*
X82078477Y-25804534D01*
X82110500Y-25602352D01*
X82110500Y-25397648D01*
X82078477Y-25195466D01*
X82015220Y-25000781D01*
X82015218Y-25000778D01*
X82015218Y-25000776D01*
X81981503Y-24934607D01*
X81922287Y-24818390D01*
X81847949Y-24716071D01*
X81801971Y-24652786D01*
X81657213Y-24508028D01*
X81491613Y-24387715D01*
X81491612Y-24387714D01*
X81491610Y-24387713D01*
X81434653Y-24358691D01*
X81309223Y-24294781D01*
X81114534Y-24231522D01*
X80939995Y-24203878D01*
X80912352Y-24199500D01*
X80707648Y-24199500D01*
X80683329Y-24203351D01*
X80505465Y-24231522D01*
X80310776Y-24294781D01*
X80128386Y-24387715D01*
X79962786Y-24508028D01*
X79818028Y-24652786D01*
X79697715Y-24818386D01*
X79604781Y-25000776D01*
X79541522Y-25195465D01*
X79509500Y-25397648D01*
X74490500Y-25397648D01*
X74458477Y-25195466D01*
X74395220Y-25000781D01*
X74395218Y-25000778D01*
X74395218Y-25000776D01*
X74361503Y-24934607D01*
X74302287Y-24818390D01*
X74227949Y-24716071D01*
X74181971Y-24652786D01*
X74037213Y-24508028D01*
X73871613Y-24387715D01*
X73871612Y-24387714D01*
X73871610Y-24387713D01*
X73814653Y-24358691D01*
X73689223Y-24294781D01*
X73494534Y-24231522D01*
X73319995Y-24203878D01*
X73292352Y-24199500D01*
X73087648Y-24199500D01*
X73063329Y-24203351D01*
X72885465Y-24231522D01*
X72690776Y-24294781D01*
X72508386Y-24387715D01*
X72342786Y-24508028D01*
X72198028Y-24652786D01*
X72077715Y-24818386D01*
X71984781Y-25000776D01*
X71921522Y-25195465D01*
X71889500Y-25397648D01*
X71889500Y-25602351D01*
X71922285Y-25809346D01*
X71920252Y-25809667D01*
X71917165Y-25870834D01*
X71887781Y-25917627D01*
X68601270Y-29204139D01*
X68519581Y-29285828D01*
X68458258Y-29319313D01*
X68388566Y-29314329D01*
X68332633Y-29272457D01*
X68308216Y-29206993D01*
X68307900Y-29198147D01*
X68307900Y-15757905D01*
X68327585Y-15690866D01*
X68380389Y-15645111D01*
X68449547Y-15635167D01*
X68496993Y-15652364D01*
X68630666Y-15734814D01*
X68797203Y-15789999D01*
X68899991Y-15800500D01*
X69864546Y-15800499D01*
X69931585Y-15820183D01*
X69952227Y-15836818D01*
X70851963Y-16736555D01*
X70851967Y-16736558D01*
X70954410Y-16805009D01*
X70954411Y-16805009D01*
X70954415Y-16805012D01*
X71011722Y-16828749D01*
X71068248Y-16852163D01*
X71088297Y-16856151D01*
X71152379Y-16868898D01*
X71189092Y-16876201D01*
X71189094Y-16876201D01*
X71318421Y-16876201D01*
X71318441Y-16876200D01*
X76246848Y-16876200D01*
X76313887Y-16895885D01*
X76334529Y-16912519D01*
X86268081Y-26846071D01*
X86301566Y-26907394D01*
X86304400Y-26933752D01*
X86304400Y-28202538D01*
X86284715Y-28269577D01*
X86268081Y-28290219D01*
X86230438Y-28327861D01*
X86230435Y-28327865D01*
X86131890Y-28475346D01*
X86131883Y-28475359D01*
X86064006Y-28639232D01*
X86064003Y-28639241D01*
X86029400Y-28813204D01*
X86029400Y-28990595D01*
X86064003Y-29164558D01*
X86064006Y-29164567D01*
X86131883Y-29328440D01*
X86131890Y-29328453D01*
X86230435Y-29475934D01*
X86230438Y-29475938D01*
X86355861Y-29601361D01*
X86355865Y-29601364D01*
X86503346Y-29699909D01*
X86503359Y-29699916D01*
X86610171Y-29744158D01*
X86667234Y-29767794D01*
X86667236Y-29767794D01*
X86667241Y-29767796D01*
X86841204Y-29802399D01*
X86841207Y-29802400D01*
X86841209Y-29802400D01*
X87018593Y-29802400D01*
X87018594Y-29802399D01*
X87092447Y-29787709D01*
X87192558Y-29767796D01*
X87192561Y-29767794D01*
X87192566Y-29767794D01*
X87356447Y-29699913D01*
X87503935Y-29601364D01*
X87629364Y-29475935D01*
X87727913Y-29328447D01*
X87795794Y-29164566D01*
X87830400Y-28990591D01*
X87830400Y-28813209D01*
X87830400Y-28813206D01*
X87830399Y-28813204D01*
X87795796Y-28639241D01*
X87795793Y-28639232D01*
X87727916Y-28475359D01*
X87727909Y-28475346D01*
X87629364Y-28327865D01*
X87629361Y-28327861D01*
X87591719Y-28290219D01*
X87558234Y-28228896D01*
X87555400Y-28202538D01*
X87555400Y-27372800D01*
X87575085Y-27305761D01*
X87627889Y-27260006D01*
X87679400Y-27248800D01*
X89040546Y-27248800D01*
X89107585Y-27268485D01*
X89153340Y-27321289D01*
X89163284Y-27390447D01*
X89134259Y-27454003D01*
X89128227Y-27460481D01*
X89037444Y-27551263D01*
X89037441Y-27551267D01*
X88968992Y-27653707D01*
X88968987Y-27653716D01*
X88921838Y-27767545D01*
X88921835Y-27767555D01*
X88897800Y-27888389D01*
X88897800Y-27888394D01*
X88897800Y-29263993D01*
X88897800Y-29387207D01*
X88904265Y-29419709D01*
X88921837Y-29508052D01*
X88927894Y-29522675D01*
X88931559Y-29531525D01*
X88931560Y-29531526D01*
X88968986Y-29621884D01*
X88968989Y-29621888D01*
X88977077Y-29633992D01*
X88977081Y-29633997D01*
X89037441Y-29724332D01*
X89037444Y-29724336D01*
X89128886Y-29815778D01*
X89128908Y-29815798D01*
X89231481Y-29918371D01*
X89264966Y-29979694D01*
X89267800Y-30006052D01*
X89267800Y-38796247D01*
X89248115Y-38863286D01*
X89231481Y-38883928D01*
X82811129Y-45304279D01*
X82749806Y-45337764D01*
X82680114Y-45332780D01*
X82675995Y-45331159D01*
X82579997Y-45291395D01*
X82466003Y-45260850D01*
X82352014Y-45230307D01*
X82352013Y-45230306D01*
X82352010Y-45230306D01*
X82118020Y-45199501D01*
X82118017Y-45199500D01*
X82118011Y-45199500D01*
X81881989Y-45199500D01*
X81881983Y-45199500D01*
X81881979Y-45199501D01*
X81647989Y-45230306D01*
X81420006Y-45291394D01*
X81201954Y-45381714D01*
X81201943Y-45381719D01*
X80997545Y-45499730D01*
X80810302Y-45643406D01*
X80810295Y-45643412D01*
X80643412Y-45810295D01*
X80643406Y-45810302D01*
X80499730Y-45997545D01*
X80381719Y-46201943D01*
X80381714Y-46201954D01*
X80291394Y-46420006D01*
X80230306Y-46647989D01*
X80199501Y-46881979D01*
X80199500Y-46881995D01*
X80199500Y-47118004D01*
X80199501Y-47118020D01*
X80230306Y-47352010D01*
X80291394Y-47579993D01*
X80381714Y-47798045D01*
X80381719Y-47798056D01*
X80422874Y-47869337D01*
X80499727Y-48002450D01*
X80499729Y-48002453D01*
X80499730Y-48002454D01*
X80643406Y-48189697D01*
X80643412Y-48189704D01*
X80810295Y-48356587D01*
X80810302Y-48356593D01*
X80851045Y-48387856D01*
X80997550Y-48500273D01*
X81128918Y-48576118D01*
X81201943Y-48618280D01*
X81201948Y-48618282D01*
X81201951Y-48618284D01*
X81420007Y-48708606D01*
X81647986Y-48769693D01*
X81881989Y-48800500D01*
X81881996Y-48800500D01*
X82118004Y-48800500D01*
X82118011Y-48800500D01*
X82352014Y-48769693D01*
X82579993Y-48708606D01*
X82798049Y-48618284D01*
X83002450Y-48500273D01*
X83189699Y-48356592D01*
X83356592Y-48189699D01*
X83500273Y-48002450D01*
X83618284Y-47798049D01*
X83708606Y-47579993D01*
X83769693Y-47352014D01*
X83800500Y-47118011D01*
X83800500Y-46881995D01*
X85199500Y-46881995D01*
X85199500Y-47118004D01*
X85199501Y-47118020D01*
X85230306Y-47352010D01*
X85291394Y-47579993D01*
X85381714Y-47798045D01*
X85381719Y-47798056D01*
X85422874Y-47869337D01*
X85499727Y-48002450D01*
X85499729Y-48002453D01*
X85499730Y-48002454D01*
X85643406Y-48189697D01*
X85643412Y-48189704D01*
X85810295Y-48356587D01*
X85810302Y-48356593D01*
X85851045Y-48387856D01*
X85997550Y-48500273D01*
X86128918Y-48576118D01*
X86201943Y-48618280D01*
X86201948Y-48618282D01*
X86201951Y-48618284D01*
X86420007Y-48708606D01*
X86647986Y-48769693D01*
X86881989Y-48800500D01*
X86881996Y-48800500D01*
X87118004Y-48800500D01*
X87118011Y-48800500D01*
X87352014Y-48769693D01*
X87579993Y-48708606D01*
X87798049Y-48618284D01*
X88002450Y-48500273D01*
X88189699Y-48356592D01*
X88356592Y-48189699D01*
X88500273Y-48002450D01*
X88618284Y-47798049D01*
X88708606Y-47579993D01*
X88769693Y-47352014D01*
X88800500Y-47118011D01*
X88800500Y-46881989D01*
X88769693Y-46647986D01*
X88708606Y-46420007D01*
X88618284Y-46201951D01*
X88618282Y-46201948D01*
X88618280Y-46201943D01*
X88576118Y-46128918D01*
X88500273Y-45997550D01*
X88425803Y-45900499D01*
X88356593Y-45810302D01*
X88356587Y-45810295D01*
X88189704Y-45643412D01*
X88189697Y-45643406D01*
X88002454Y-45499730D01*
X88002453Y-45499729D01*
X88002450Y-45499727D01*
X87920957Y-45452677D01*
X87798056Y-45381719D01*
X87798045Y-45381714D01*
X87579993Y-45291394D01*
X87352014Y-45230307D01*
X87352013Y-45230306D01*
X87352010Y-45230306D01*
X87118020Y-45199501D01*
X87118017Y-45199500D01*
X87118011Y-45199500D01*
X86881989Y-45199500D01*
X86881983Y-45199500D01*
X86881979Y-45199501D01*
X86647989Y-45230306D01*
X86420006Y-45291394D01*
X86201954Y-45381714D01*
X86201943Y-45381719D01*
X85997545Y-45499730D01*
X85810302Y-45643406D01*
X85810295Y-45643412D01*
X85643412Y-45810295D01*
X85643406Y-45810302D01*
X85499730Y-45997545D01*
X85381719Y-46201943D01*
X85381714Y-46201954D01*
X85291394Y-46420006D01*
X85230306Y-46647989D01*
X85199501Y-46881979D01*
X85199500Y-46881995D01*
X83800500Y-46881995D01*
X83800500Y-46881989D01*
X83769693Y-46647986D01*
X83708606Y-46420007D01*
X83668838Y-46324000D01*
X83661370Y-46254534D01*
X83692645Y-46192054D01*
X83695691Y-46188897D01*
X90292029Y-39592560D01*
X90292033Y-39592558D01*
X90379158Y-39505433D01*
X90445763Y-39405752D01*
X90447612Y-39402985D01*
X90480259Y-39324167D01*
X90494762Y-39289154D01*
X90494764Y-39289146D01*
X90494821Y-39288862D01*
X90508197Y-39221613D01*
X90518800Y-39168306D01*
X90518800Y-29633994D01*
X90511778Y-29598690D01*
X90518005Y-29529099D01*
X90560868Y-29473921D01*
X90626758Y-29450677D01*
X90633395Y-29450499D01*
X91397871Y-29450499D01*
X91397872Y-29450499D01*
X91457483Y-29444091D01*
X91592331Y-29393796D01*
X91650463Y-29350278D01*
X91715925Y-29325861D01*
X91781068Y-29339060D01*
X91819970Y-29358882D01*
X91819972Y-29358882D01*
X91819975Y-29358884D01*
X91907138Y-29387205D01*
X92007173Y-29419709D01*
X92201578Y-29450500D01*
X92201583Y-29450500D01*
X92398422Y-29450500D01*
X92592826Y-29419709D01*
X92672574Y-29393797D01*
X92780025Y-29358884D01*
X92955405Y-29269524D01*
X93114646Y-29153828D01*
X93253828Y-29014646D01*
X93369524Y-28855405D01*
X93458884Y-28680025D01*
X93519709Y-28492826D01*
X93550500Y-28298422D01*
X93550500Y-27601577D01*
X93519709Y-27407173D01*
X93471891Y-27260006D01*
X93458884Y-27219975D01*
X93458882Y-27219972D01*
X93458882Y-27219970D01*
X93407357Y-27118847D01*
X93369524Y-27044595D01*
X93253828Y-26885354D01*
X93114646Y-26746172D01*
X93113071Y-26745028D01*
X93063083Y-26708709D01*
X92975548Y-26645111D01*
X92932884Y-26589783D01*
X92927560Y-26567495D01*
X92926689Y-26567669D01*
X92903862Y-26452911D01*
X92901463Y-26440848D01*
X92854311Y-26327014D01*
X92854310Y-26327013D01*
X92854307Y-26327007D01*
X92785858Y-26224567D01*
X92785855Y-26224563D01*
X92698736Y-26137444D01*
X92698732Y-26137441D01*
X92596292Y-26068992D01*
X92596283Y-26068987D01*
X92482454Y-26021838D01*
X92482455Y-26021838D01*
X92482452Y-26021837D01*
X92482448Y-26021836D01*
X92482444Y-26021835D01*
X92361610Y-25997800D01*
X92361606Y-25997800D01*
X87240353Y-25997800D01*
X87173314Y-25978115D01*
X87152672Y-25961481D01*
X77053122Y-15861932D01*
X77043159Y-15851969D01*
X77043158Y-15851967D01*
X76956033Y-15764842D01*
X76904809Y-15730615D01*
X76853586Y-15696388D01*
X76853583Y-15696386D01*
X76853580Y-15696385D01*
X76779903Y-15665868D01*
X76779901Y-15665867D01*
X76773092Y-15663047D01*
X76739752Y-15649237D01*
X76679329Y-15637218D01*
X76674606Y-15636278D01*
X76674604Y-15636278D01*
X76618910Y-15625200D01*
X76618907Y-15625200D01*
X76618906Y-15625200D01*
X74013347Y-15625200D01*
X73946308Y-15605515D01*
X73900553Y-15552711D01*
X73890609Y-15483553D01*
X73919634Y-15419997D01*
X73925666Y-15413519D01*
X73991966Y-15347219D01*
X73991968Y-15347215D01*
X73991971Y-15347213D01*
X74053914Y-15261954D01*
X74112287Y-15181610D01*
X74205220Y-14999219D01*
X74268477Y-14804534D01*
X74300500Y-14602352D01*
X74300500Y-14397648D01*
X74293848Y-14355647D01*
X74267715Y-14190654D01*
X74269777Y-14190327D01*
X74272784Y-14129304D01*
X74302215Y-14082373D01*
X78985858Y-9398733D01*
X79054312Y-9296285D01*
X79082002Y-9229434D01*
X79101463Y-9182452D01*
X79114644Y-9116186D01*
X79125501Y-9061606D01*
X79125501Y-8938393D01*
X79125501Y-8933283D01*
X79125500Y-8933257D01*
X79125500Y-5524499D01*
X79145185Y-5457460D01*
X79197989Y-5411705D01*
X79249500Y-5400499D01*
X79447871Y-5400499D01*
X79447872Y-5400499D01*
X79507483Y-5394091D01*
X79642331Y-5343796D01*
X79676189Y-5318449D01*
X79741652Y-5294032D01*
X79809925Y-5308883D01*
X79859331Y-5358287D01*
X79874500Y-5417716D01*
X79874500Y-13094845D01*
X79854815Y-13161884D01*
X79802011Y-13207639D01*
X79789505Y-13212551D01*
X79630666Y-13265186D01*
X79630663Y-13265187D01*
X79481342Y-13357289D01*
X79357289Y-13481342D01*
X79265187Y-13630663D01*
X79265185Y-13630668D01*
X79257858Y-13652781D01*
X79210001Y-13797203D01*
X79210001Y-13797204D01*
X79210000Y-13797204D01*
X79199500Y-13899983D01*
X79199500Y-15100001D01*
X79199501Y-15100018D01*
X79210000Y-15202796D01*
X79210001Y-15202799D01*
X79242783Y-15301727D01*
X79265186Y-15369334D01*
X79357288Y-15518656D01*
X79481344Y-15642712D01*
X79630666Y-15734814D01*
X79797203Y-15789999D01*
X79899991Y-15800500D01*
X81100008Y-15800499D01*
X81202797Y-15789999D01*
X81369334Y-15734814D01*
X81518656Y-15642712D01*
X81642712Y-15518656D01*
X81734814Y-15369334D01*
X81789999Y-15202797D01*
X81800500Y-15100009D01*
X81800499Y-13899992D01*
X81796153Y-13857452D01*
X81789999Y-13797203D01*
X81789998Y-13797200D01*
X81780909Y-13769771D01*
X81734814Y-13630666D01*
X81642712Y-13481344D01*
X81518656Y-13357288D01*
X81398723Y-13283313D01*
X81369336Y-13265187D01*
X81369331Y-13265185D01*
X81210496Y-13212552D01*
X81153051Y-13172779D01*
X81126228Y-13108263D01*
X81125500Y-13094846D01*
X81125500Y-3758441D01*
X81125501Y-3758420D01*
X81125501Y-3629091D01*
X81115428Y-3578457D01*
X81103084Y-3516400D01*
X81101463Y-3508248D01*
X81056019Y-3398537D01*
X81054312Y-3394415D01*
X80985858Y-3291967D01*
X80985855Y-3291963D01*
X80078978Y-2385088D01*
X80068459Y-2374569D01*
X80068458Y-2374567D01*
X79981333Y-2287442D01*
X79910909Y-2240386D01*
X79897659Y-2231532D01*
X79878890Y-2218990D01*
X79878886Y-2218988D01*
X79840745Y-2203190D01*
X79798392Y-2185647D01*
X79765052Y-2171837D01*
X79765048Y-2171836D01*
X79765044Y-2171835D01*
X79673265Y-2153579D01*
X79673262Y-2153579D01*
X79644209Y-2147800D01*
X79644207Y-2147800D01*
X79644206Y-2147800D01*
X77526207Y-2147800D01*
X77402993Y-2147800D01*
X77402988Y-2147800D01*
X77373936Y-2153579D01*
X77282154Y-2171835D01*
X77282141Y-2171839D01*
X77242010Y-2188462D01*
X77242008Y-2188462D01*
X77234997Y-2191367D01*
X77168315Y-2218988D01*
X77142790Y-2236043D01*
X77065867Y-2287442D01*
X77064229Y-2289079D01*
X77054915Y-2294351D01*
X77025189Y-2301292D01*
X76996053Y-2310416D01*
X76991486Y-2309163D01*
X76986876Y-2310240D01*
X76958118Y-2300009D01*
X76928673Y-2291932D01*
X76925508Y-2288408D01*
X76921048Y-2286822D01*
X76902386Y-2262668D01*
X76881982Y-2239953D01*
X76880057Y-2233768D01*
X76878330Y-2231532D01*
X76877930Y-2226931D01*
X76871366Y-2205833D01*
X76866015Y-2172048D01*
X76823636Y-2041618D01*
X76821641Y-1971777D01*
X76857721Y-1911944D01*
X76920422Y-1881116D01*
X76941567Y-1879300D01*
X83943348Y-1879300D01*
X84010387Y-1898985D01*
X84031029Y-1915619D01*
X90117571Y-8002161D01*
X90151056Y-8063484D01*
X90147822Y-8128158D01*
X90142753Y-8143757D01*
X90109500Y-8353713D01*
X90109500Y-8566286D01*
X90139640Y-8756586D01*
X90142754Y-8776243D01*
X90206364Y-8972015D01*
X90208444Y-8978414D01*
X90304951Y-9167820D01*
X90429890Y-9339786D01*
X90580213Y-9490109D01*
X90752182Y-9615050D01*
X90760946Y-9619516D01*
X90811742Y-9667491D01*
X90828536Y-9735312D01*
X90805998Y-9801447D01*
X90760946Y-9840484D01*
X90752182Y-9844949D01*
X90580213Y-9969890D01*
X90429890Y-10120213D01*
X90304951Y-10292179D01*
X90208444Y-10481585D01*
X90208443Y-10481587D01*
X90208443Y-10481588D01*
X90197996Y-10513740D01*
X90142753Y-10683760D01*
X90109500Y-10893713D01*
X90109500Y-11106281D01*
X90109499Y-11106284D01*
X90142753Y-11316239D01*
X90142754Y-11316243D01*
X90201015Y-11495552D01*
X90208444Y-11518414D01*
X90304951Y-11707820D01*
X90429890Y-11879786D01*
X90580213Y-12030109D01*
X90752182Y-12155050D01*
X90760946Y-12159516D01*
X90811742Y-12207491D01*
X90828536Y-12275312D01*
X90805998Y-12341447D01*
X90760946Y-12380484D01*
X90752182Y-12384949D01*
X90580213Y-12509890D01*
X90429890Y-12660213D01*
X90304951Y-12832179D01*
X90208444Y-13021585D01*
X90142753Y-13223760D01*
X90109500Y-13433713D01*
X90109500Y-13646286D01*
X90141747Y-13849890D01*
X90142754Y-13856243D01*
X90199276Y-14030200D01*
X90208444Y-14058414D01*
X90304951Y-14247820D01*
X90429890Y-14419786D01*
X90580213Y-14570109D01*
X90752179Y-14695048D01*
X90752181Y-14695049D01*
X90752184Y-14695051D01*
X90941588Y-14791557D01*
X91143757Y-14857246D01*
X91353713Y-14890500D01*
X91353714Y-14890500D01*
X91566286Y-14890500D01*
X91566287Y-14890500D01*
X91776243Y-14857246D01*
X91978412Y-14791557D01*
X92167816Y-14695051D01*
X92238612Y-14643615D01*
X92339786Y-14570109D01*
X92339788Y-14570106D01*
X92339792Y-14570104D01*
X92490104Y-14419792D01*
X92490106Y-14419788D01*
X92490109Y-14419786D01*
X92615048Y-14247820D01*
X92615047Y-14247820D01*
X92615051Y-14247816D01*
X92619514Y-14239054D01*
X92667488Y-14188259D01*
X92735308Y-14171463D01*
X92801444Y-14193999D01*
X92840486Y-14239056D01*
X92844951Y-14247820D01*
X92969890Y-14419786D01*
X93120213Y-14570109D01*
X93292182Y-14695050D01*
X93300946Y-14699516D01*
X93351742Y-14747491D01*
X93368536Y-14815312D01*
X93345998Y-14881447D01*
X93300946Y-14920484D01*
X93292182Y-14924949D01*
X93120213Y-15049890D01*
X92969890Y-15200213D01*
X92844951Y-15372179D01*
X92748444Y-15561585D01*
X92682753Y-15763760D01*
X92649500Y-15973713D01*
X92649500Y-16186286D01*
X92680462Y-16381777D01*
X92682754Y-16396243D01*
X92744915Y-16587555D01*
X92748444Y-16598414D01*
X92844951Y-16787820D01*
X92969890Y-16959786D01*
X93083430Y-17073326D01*
X93116915Y-17134649D01*
X93111931Y-17204341D01*
X93070059Y-17260274D01*
X93039083Y-17277189D01*
X92907669Y-17326203D01*
X92907664Y-17326206D01*
X92792455Y-17412452D01*
X92792452Y-17412455D01*
X92706206Y-17527664D01*
X92706202Y-17527671D01*
X92655908Y-17662517D01*
X92649501Y-17722116D01*
X92649500Y-17722135D01*
X92649500Y-19517870D01*
X92649501Y-19517876D01*
X92655908Y-19577483D01*
X92706202Y-19712328D01*
X92706206Y-19712335D01*
X92792452Y-19827544D01*
X92792455Y-19827547D01*
X92907664Y-19913793D01*
X92907671Y-19913797D01*
X93042517Y-19964091D01*
X93042516Y-19964091D01*
X93049444Y-19964835D01*
X93102127Y-19970500D01*
X94897872Y-19970499D01*
X94957483Y-19964091D01*
X95092331Y-19913796D01*
X95207546Y-19827546D01*
X95293796Y-19712331D01*
X95344091Y-19577483D01*
X95350500Y-19517873D01*
X95350499Y-18614450D01*
X95370183Y-18547412D01*
X95422987Y-18501657D01*
X95492146Y-18491713D01*
X95555702Y-18520738D01*
X95562180Y-18526770D01*
X97848181Y-20812771D01*
X97881666Y-20874094D01*
X97884500Y-20900452D01*
X97884500Y-38912847D01*
X97864815Y-38979886D01*
X97848181Y-39000528D01*
X94062357Y-42786351D01*
X94062337Y-42786371D01*
X94061270Y-42787439D01*
X94061267Y-42787442D01*
X93974142Y-42874567D01*
X93970136Y-42880563D01*
X93905688Y-42977014D01*
X93905685Y-42977019D01*
X93886659Y-43022953D01*
X93842818Y-43077356D01*
X93776523Y-43099421D01*
X93772098Y-43099500D01*
X93512130Y-43099500D01*
X93512123Y-43099501D01*
X93452516Y-43105908D01*
X93317671Y-43156202D01*
X93317664Y-43156206D01*
X93202455Y-43242452D01*
X93202452Y-43242455D01*
X93116206Y-43357664D01*
X93116202Y-43357671D01*
X93065908Y-43492517D01*
X93059501Y-43552116D01*
X93059500Y-43552135D01*
X93059500Y-45447870D01*
X93059501Y-45447876D01*
X93065908Y-45507483D01*
X93116202Y-45642328D01*
X93116206Y-45642335D01*
X93202452Y-45757544D01*
X93202455Y-45757547D01*
X93317664Y-45843793D01*
X93317671Y-45843797D01*
X93452517Y-45894091D01*
X93452516Y-45894091D01*
X93459444Y-45894835D01*
X93512127Y-45900500D01*
X95407872Y-45900499D01*
X95467483Y-45894091D01*
X95602331Y-45843796D01*
X95717546Y-45757546D01*
X95803796Y-45642331D01*
X95831429Y-45568243D01*
X95833601Y-45562420D01*
X95875471Y-45506486D01*
X95940936Y-45482068D01*
X96009209Y-45496919D01*
X96037464Y-45518071D01*
X96087636Y-45568243D01*
X96087641Y-45568247D01*
X96191098Y-45643412D01*
X96265978Y-45697815D01*
X96394375Y-45763237D01*
X96462393Y-45797895D01*
X96462396Y-45797896D01*
X96500576Y-45810301D01*
X96672049Y-45866015D01*
X96889778Y-45900500D01*
X96889779Y-45900500D01*
X97110221Y-45900500D01*
X97110222Y-45900500D01*
X97327951Y-45866015D01*
X97537606Y-45797895D01*
X97734022Y-45697815D01*
X97912365Y-45568242D01*
X98068242Y-45412365D01*
X98197815Y-45234022D01*
X98297895Y-45037606D01*
X98366015Y-44827951D01*
X98400500Y-44610222D01*
X98400500Y-44389778D01*
X98366015Y-44172049D01*
X98304052Y-43981344D01*
X98297896Y-43962396D01*
X98297895Y-43962393D01*
X98263237Y-43894375D01*
X98197815Y-43765978D01*
X98139501Y-43685715D01*
X98068247Y-43587641D01*
X98068243Y-43587636D01*
X97912363Y-43431756D01*
X97912358Y-43431752D01*
X97734025Y-43302187D01*
X97734024Y-43302186D01*
X97734022Y-43302185D01*
X97616791Y-43242452D01*
X97537606Y-43202104D01*
X97537603Y-43202103D01*
X97327952Y-43133985D01*
X97219086Y-43116742D01*
X97110222Y-43099500D01*
X96889778Y-43099500D01*
X96817201Y-43110995D01*
X96672047Y-43133985D01*
X96462396Y-43202103D01*
X96462393Y-43202104D01*
X96265974Y-43302187D01*
X96087641Y-43431752D01*
X96087636Y-43431756D01*
X96037463Y-43481929D01*
X95976140Y-43515413D01*
X95906448Y-43510428D01*
X95850515Y-43468557D01*
X95833601Y-43437580D01*
X95803797Y-43357671D01*
X95803793Y-43357664D01*
X95717547Y-43242455D01*
X95636455Y-43181749D01*
X95594585Y-43125815D01*
X95589601Y-43056124D01*
X95623084Y-42994804D01*
X98908729Y-39709160D01*
X98908733Y-39709158D01*
X98995858Y-39622033D01*
X99064311Y-39519586D01*
X99064312Y-39519585D01*
X99097070Y-39440500D01*
X99111463Y-39405752D01*
X99117502Y-39375390D01*
X99127692Y-39324166D01*
X99135500Y-39284907D01*
X99135500Y-20528393D01*
X99135499Y-20528389D01*
X99125220Y-20476713D01*
X99111463Y-20407548D01*
X99064311Y-20293714D01*
X99064310Y-20293713D01*
X99064307Y-20293707D01*
X98995858Y-20191267D01*
X98995855Y-20191263D01*
X98905637Y-20101045D01*
X98905606Y-20101016D01*
X95342428Y-16537838D01*
X95308943Y-16476515D01*
X95312177Y-16411841D01*
X95317246Y-16396243D01*
X95350500Y-16186287D01*
X95350500Y-15973713D01*
X95317246Y-15763757D01*
X95251557Y-15561588D01*
X95155051Y-15372184D01*
X95155049Y-15372181D01*
X95155048Y-15372179D01*
X95030109Y-15200213D01*
X94879786Y-15049890D01*
X94707820Y-14924951D01*
X94707115Y-14924591D01*
X94699054Y-14920485D01*
X94648259Y-14872512D01*
X94631463Y-14804692D01*
X94653999Y-14738556D01*
X94699054Y-14699515D01*
X94707816Y-14695051D01*
X94778612Y-14643615D01*
X94879786Y-14570109D01*
X94879788Y-14570106D01*
X94879792Y-14570104D01*
X95030104Y-14419792D01*
X95030106Y-14419788D01*
X95030109Y-14419786D01*
X95155048Y-14247820D01*
X95155047Y-14247820D01*
X95155051Y-14247816D01*
X95251557Y-14058412D01*
X95317246Y-13856243D01*
X95350500Y-13646287D01*
X95350500Y-13433713D01*
X95317246Y-13223757D01*
X95251557Y-13021588D01*
X95155051Y-12832184D01*
X95155049Y-12832181D01*
X95155048Y-12832179D01*
X95030109Y-12660213D01*
X94879786Y-12509890D01*
X94707820Y-12384951D01*
X94701033Y-12381493D01*
X94699054Y-12380485D01*
X94648259Y-12332512D01*
X94631463Y-12264692D01*
X94653999Y-12198556D01*
X94699054Y-12159515D01*
X94707816Y-12155051D01*
X94852171Y-12050172D01*
X94879786Y-12030109D01*
X94879788Y-12030106D01*
X94879792Y-12030104D01*
X95030104Y-11879792D01*
X95030106Y-11879788D01*
X95030109Y-11879786D01*
X95155048Y-11707820D01*
X95155047Y-11707820D01*
X95155051Y-11707816D01*
X95251557Y-11518412D01*
X95317246Y-11316243D01*
X95350500Y-11106287D01*
X95350500Y-10893713D01*
X95317246Y-10683757D01*
X95251557Y-10481588D01*
X95155051Y-10292184D01*
X95155049Y-10292181D01*
X95155048Y-10292179D01*
X95030109Y-10120213D01*
X94879786Y-9969890D01*
X94707820Y-9844951D01*
X94707115Y-9844591D01*
X94699054Y-9840485D01*
X94648259Y-9792512D01*
X94631463Y-9724692D01*
X94653999Y-9658556D01*
X94699054Y-9619515D01*
X94707816Y-9615051D01*
X94754971Y-9580791D01*
X94879786Y-9490109D01*
X94879788Y-9490106D01*
X94879792Y-9490104D01*
X95030104Y-9339792D01*
X95030106Y-9339788D01*
X95030109Y-9339786D01*
X95155048Y-9167820D01*
X95155047Y-9167820D01*
X95155051Y-9167816D01*
X95251557Y-8978412D01*
X95317246Y-8776243D01*
X95350500Y-8566287D01*
X95350500Y-8353713D01*
X95317246Y-8143757D01*
X95251557Y-7941588D01*
X95155051Y-7752184D01*
X95155049Y-7752181D01*
X95155048Y-7752179D01*
X95030109Y-7580213D01*
X94879786Y-7429890D01*
X94707820Y-7304951D01*
X94518414Y-7208444D01*
X94518413Y-7208443D01*
X94518412Y-7208443D01*
X94316243Y-7142754D01*
X94316241Y-7142753D01*
X94316240Y-7142753D01*
X94154957Y-7117208D01*
X94106287Y-7109500D01*
X93893713Y-7109500D01*
X93869462Y-7113341D01*
X93683753Y-7142754D01*
X93668160Y-7147821D01*
X93598319Y-7149816D01*
X93542162Y-7117571D01*
X91718623Y-5294032D01*
X89798629Y-3374038D01*
X94899500Y-3374038D01*
X94899500Y-3625962D01*
X94920483Y-3758441D01*
X94938910Y-3874785D01*
X95016760Y-4114383D01*
X95095413Y-4268747D01*
X95122725Y-4322350D01*
X95131132Y-4338848D01*
X95279201Y-4542649D01*
X95279205Y-4542654D01*
X95457345Y-4720794D01*
X95457350Y-4720798D01*
X95578554Y-4808857D01*
X95661155Y-4868870D01*
X95764744Y-4921651D01*
X95885616Y-4983239D01*
X95885618Y-4983239D01*
X95885621Y-4983241D01*
X96125215Y-5061090D01*
X96374038Y-5100500D01*
X96374039Y-5100500D01*
X96625961Y-5100500D01*
X96625962Y-5100500D01*
X96874785Y-5061090D01*
X97114379Y-4983241D01*
X97338845Y-4868870D01*
X97542656Y-4720793D01*
X97720793Y-4542656D01*
X97868870Y-4338845D01*
X97983241Y-4114379D01*
X98061090Y-3874785D01*
X98100500Y-3625962D01*
X98100500Y-3374038D01*
X98061090Y-3125215D01*
X97983241Y-2885621D01*
X97983239Y-2885618D01*
X97983239Y-2885616D01*
X97927510Y-2776243D01*
X97868870Y-2661155D01*
X97816699Y-2589348D01*
X97720798Y-2457350D01*
X97720794Y-2457345D01*
X97542654Y-2279205D01*
X97542649Y-2279201D01*
X97338848Y-2131132D01*
X97338847Y-2131131D01*
X97338845Y-2131130D01*
X97268747Y-2095413D01*
X97114383Y-2016760D01*
X96874785Y-1938910D01*
X96792574Y-1925889D01*
X96625962Y-1899500D01*
X96374038Y-1899500D01*
X96266800Y-1916485D01*
X96125214Y-1938910D01*
X95885616Y-2016760D01*
X95661151Y-2131132D01*
X95457350Y-2279201D01*
X95457345Y-2279205D01*
X95279205Y-2457345D01*
X95279201Y-2457350D01*
X95131132Y-2661151D01*
X95016760Y-2885616D01*
X94938910Y-3125214D01*
X94912499Y-3291967D01*
X94899500Y-3374038D01*
X89798629Y-3374038D01*
X86836770Y-412180D01*
X86803286Y-350858D01*
X86808270Y-281166D01*
X86850142Y-225233D01*
X86915606Y-200816D01*
X86924452Y-200500D01*
X99675500Y-200500D01*
X99742539Y-220185D01*
X99788294Y-272989D01*
X99799500Y-324500D01*
X99799500Y-56175500D01*
X99779815Y-56242539D01*
X99727011Y-56288294D01*
X99675500Y-56299500D01*
X324500Y-56299500D01*
X257461Y-56279815D01*
X211706Y-56227011D01*
X200500Y-56175500D01*
X200500Y-52874038D01*
X1899500Y-52874038D01*
X1899500Y-53125961D01*
X1938910Y-53374785D01*
X2016760Y-53614383D01*
X2131132Y-53838848D01*
X2279201Y-54042649D01*
X2279205Y-54042654D01*
X2457345Y-54220794D01*
X2457350Y-54220798D01*
X2635117Y-54349952D01*
X2661155Y-54368870D01*
X2804184Y-54441747D01*
X2885616Y-54483239D01*
X2885618Y-54483239D01*
X2885621Y-54483241D01*
X3125215Y-54561090D01*
X3374038Y-54600500D01*
X3374039Y-54600500D01*
X3625961Y-54600500D01*
X3625962Y-54600500D01*
X3874785Y-54561090D01*
X4114379Y-54483241D01*
X4338845Y-54368870D01*
X4542656Y-54220793D01*
X4720793Y-54042656D01*
X4868870Y-53838845D01*
X4983241Y-53614379D01*
X5061090Y-53374785D01*
X5100500Y-53125962D01*
X5100500Y-53052135D01*
X25599500Y-53052135D01*
X25599500Y-54947870D01*
X25599501Y-54947876D01*
X25605908Y-55007483D01*
X25656202Y-55142328D01*
X25656206Y-55142335D01*
X25742452Y-55257544D01*
X25742455Y-55257547D01*
X25857664Y-55343793D01*
X25857671Y-55343797D01*
X25992517Y-55394091D01*
X25992516Y-55394091D01*
X25999444Y-55394835D01*
X26052127Y-55400500D01*
X27947872Y-55400499D01*
X28007483Y-55394091D01*
X28142331Y-55343796D01*
X28257546Y-55257546D01*
X28343796Y-55142331D01*
X28394091Y-55007483D01*
X28400500Y-54947873D01*
X28400499Y-53052135D01*
X54599500Y-53052135D01*
X54599500Y-54947870D01*
X54599501Y-54947876D01*
X54605908Y-55007483D01*
X54656202Y-55142328D01*
X54656206Y-55142335D01*
X54742452Y-55257544D01*
X54742455Y-55257547D01*
X54857664Y-55343793D01*
X54857671Y-55343797D01*
X54992517Y-55394091D01*
X54992516Y-55394091D01*
X54999444Y-55394835D01*
X55052127Y-55400500D01*
X56947872Y-55400499D01*
X57007483Y-55394091D01*
X57142331Y-55343796D01*
X57257546Y-55257546D01*
X57343796Y-55142331D01*
X57394091Y-55007483D01*
X57400500Y-54947873D01*
X57400499Y-53052128D01*
X57394091Y-52992517D01*
X57385859Y-52970447D01*
X57364254Y-52912518D01*
X57364247Y-52912500D01*
X57349901Y-52874038D01*
X59899500Y-52874038D01*
X59899500Y-53125961D01*
X59938910Y-53374785D01*
X60016760Y-53614383D01*
X60131132Y-53838848D01*
X60279201Y-54042649D01*
X60279205Y-54042654D01*
X60457345Y-54220794D01*
X60457350Y-54220798D01*
X60635117Y-54349952D01*
X60661155Y-54368870D01*
X60804184Y-54441747D01*
X60885616Y-54483239D01*
X60885618Y-54483239D01*
X60885621Y-54483241D01*
X61125215Y-54561090D01*
X61374038Y-54600500D01*
X61374039Y-54600500D01*
X61625961Y-54600500D01*
X61625962Y-54600500D01*
X61874785Y-54561090D01*
X62114379Y-54483241D01*
X62338845Y-54368870D01*
X62542656Y-54220793D01*
X62720793Y-54042656D01*
X62868870Y-53838845D01*
X62983241Y-53614379D01*
X63061090Y-53374785D01*
X63100500Y-53125962D01*
X63100500Y-52874038D01*
X94899500Y-52874038D01*
X94899500Y-53125961D01*
X94938910Y-53374785D01*
X95016760Y-53614383D01*
X95131132Y-53838848D01*
X95279201Y-54042649D01*
X95279205Y-54042654D01*
X95457345Y-54220794D01*
X95457350Y-54220798D01*
X95635117Y-54349952D01*
X95661155Y-54368870D01*
X95804184Y-54441747D01*
X95885616Y-54483239D01*
X95885618Y-54483239D01*
X95885621Y-54483241D01*
X96125215Y-54561090D01*
X96374038Y-54600500D01*
X96374039Y-54600500D01*
X96625961Y-54600500D01*
X96625962Y-54600500D01*
X96874785Y-54561090D01*
X97114379Y-54483241D01*
X97338845Y-54368870D01*
X97542656Y-54220793D01*
X97720793Y-54042656D01*
X97868870Y-53838845D01*
X97983241Y-53614379D01*
X98061090Y-53374785D01*
X98100500Y-53125962D01*
X98100500Y-52874038D01*
X98061090Y-52625215D01*
X97983241Y-52385621D01*
X97983239Y-52385618D01*
X97983239Y-52385616D01*
X97941747Y-52304184D01*
X97868870Y-52161155D01*
X97849952Y-52135117D01*
X97720798Y-51957350D01*
X97720794Y-51957345D01*
X97542654Y-51779205D01*
X97542649Y-51779201D01*
X97338848Y-51631132D01*
X97338847Y-51631131D01*
X97338845Y-51631130D01*
X97268747Y-51595413D01*
X97114383Y-51516760D01*
X96874785Y-51438910D01*
X96625962Y-51399500D01*
X96374038Y-51399500D01*
X96249626Y-51419205D01*
X96125214Y-51438910D01*
X95885616Y-51516760D01*
X95661151Y-51631132D01*
X95457350Y-51779201D01*
X95457345Y-51779205D01*
X95279205Y-51957345D01*
X95279201Y-51957350D01*
X95131132Y-52161151D01*
X95016760Y-52385616D01*
X94938910Y-52625214D01*
X94899500Y-52874038D01*
X63100500Y-52874038D01*
X63061090Y-52625215D01*
X62983241Y-52385621D01*
X62983239Y-52385618D01*
X62983239Y-52385616D01*
X62941747Y-52304184D01*
X62868870Y-52161155D01*
X62849952Y-52135117D01*
X62720798Y-51957350D01*
X62720794Y-51957345D01*
X62542654Y-51779205D01*
X62542649Y-51779201D01*
X62338848Y-51631132D01*
X62338847Y-51631131D01*
X62338845Y-51631130D01*
X62268747Y-51595413D01*
X62114383Y-51516760D01*
X61874785Y-51438910D01*
X61625962Y-51399500D01*
X61374038Y-51399500D01*
X61249626Y-51419205D01*
X61125214Y-51438910D01*
X60885616Y-51516760D01*
X60661151Y-51631132D01*
X60457350Y-51779201D01*
X60457345Y-51779205D01*
X60279205Y-51957345D01*
X60279201Y-51957350D01*
X60131132Y-52161151D01*
X60016760Y-52385616D01*
X59938910Y-52625214D01*
X59899500Y-52874038D01*
X57349901Y-52874038D01*
X57343796Y-52857669D01*
X57343793Y-52857664D01*
X57257547Y-52742455D01*
X57257544Y-52742452D01*
X57142335Y-52656206D01*
X57142328Y-52656202D01*
X57007482Y-52605908D01*
X57007483Y-52605908D01*
X56947883Y-52599501D01*
X56947881Y-52599500D01*
X56947873Y-52599500D01*
X56947864Y-52599500D01*
X55052129Y-52599500D01*
X55052123Y-52599501D01*
X54992516Y-52605908D01*
X54857671Y-52656202D01*
X54857664Y-52656206D01*
X54742455Y-52742452D01*
X54742452Y-52742455D01*
X54656206Y-52857664D01*
X54656202Y-52857671D01*
X54605908Y-52992517D01*
X54599501Y-53052116D01*
X54599501Y-53052123D01*
X54599500Y-53052135D01*
X28400499Y-53052135D01*
X28400499Y-53052128D01*
X28394091Y-52992517D01*
X28394090Y-52992515D01*
X28343797Y-52857671D01*
X28343793Y-52857664D01*
X28257547Y-52742455D01*
X28257544Y-52742452D01*
X28142335Y-52656206D01*
X28142328Y-52656202D01*
X28007482Y-52605908D01*
X28007483Y-52605908D01*
X27947883Y-52599501D01*
X27947881Y-52599500D01*
X27947873Y-52599500D01*
X27947864Y-52599500D01*
X26052129Y-52599500D01*
X26052123Y-52599501D01*
X25992516Y-52605908D01*
X25857671Y-52656202D01*
X25857664Y-52656206D01*
X25742455Y-52742452D01*
X25742452Y-52742455D01*
X25656206Y-52857664D01*
X25656202Y-52857671D01*
X25605908Y-52992517D01*
X25599501Y-53052116D01*
X25599501Y-53052123D01*
X25599500Y-53052135D01*
X5100500Y-53052135D01*
X5100500Y-52874038D01*
X5061090Y-52625215D01*
X4983241Y-52385621D01*
X4983239Y-52385618D01*
X4983239Y-52385616D01*
X4941747Y-52304184D01*
X4868870Y-52161155D01*
X4849952Y-52135117D01*
X4720798Y-51957350D01*
X4720794Y-51957345D01*
X4542654Y-51779205D01*
X4542649Y-51779201D01*
X4338848Y-51631132D01*
X4338847Y-51631131D01*
X4338845Y-51631130D01*
X4268747Y-51595413D01*
X4114383Y-51516760D01*
X3874785Y-51438910D01*
X3625962Y-51399500D01*
X3374038Y-51399500D01*
X3249626Y-51419205D01*
X3125214Y-51438910D01*
X2885616Y-51516760D01*
X2661151Y-51631132D01*
X2457350Y-51779201D01*
X2457345Y-51779205D01*
X2279205Y-51957345D01*
X2279201Y-51957350D01*
X2131132Y-52161151D01*
X2016760Y-52385616D01*
X1938910Y-52625214D01*
X1899500Y-52874038D01*
X200500Y-52874038D01*
X200500Y-3374038D01*
X1899500Y-3374038D01*
X1899500Y-3625962D01*
X1920483Y-3758441D01*
X1938910Y-3874785D01*
X2016760Y-4114383D01*
X2095413Y-4268747D01*
X2122725Y-4322350D01*
X2131132Y-4338848D01*
X2279201Y-4542649D01*
X2279205Y-4542654D01*
X2457345Y-4720794D01*
X2457350Y-4720798D01*
X2578554Y-4808857D01*
X2661155Y-4868870D01*
X2764744Y-4921651D01*
X2885616Y-4983239D01*
X2885618Y-4983239D01*
X2885621Y-4983241D01*
X3125215Y-5061090D01*
X3374038Y-5100500D01*
X3374039Y-5100500D01*
X3625961Y-5100500D01*
X3625962Y-5100500D01*
X3874785Y-5061090D01*
X4114379Y-4983241D01*
X4338845Y-4868870D01*
X4542656Y-4720793D01*
X4720793Y-4542656D01*
X4868870Y-4338845D01*
X4983241Y-4114379D01*
X5061090Y-3874785D01*
X5100500Y-3625962D01*
X5100500Y-3374038D01*
X5061090Y-3125215D01*
X4983241Y-2885621D01*
X4983239Y-2885618D01*
X4983239Y-2885616D01*
X4927510Y-2776243D01*
X4868870Y-2661155D01*
X4816699Y-2589348D01*
X4720798Y-2457350D01*
X4720794Y-2457345D01*
X4542654Y-2279205D01*
X4542649Y-2279201D01*
X4338848Y-2131132D01*
X4338847Y-2131131D01*
X4338845Y-2131130D01*
X4268747Y-2095413D01*
X4114383Y-2016760D01*
X3874785Y-1938910D01*
X3792574Y-1925889D01*
X3625962Y-1899500D01*
X3374038Y-1899500D01*
X3266800Y-1916485D01*
X3125214Y-1938910D01*
X2885616Y-2016760D01*
X2661151Y-2131132D01*
X2457350Y-2279201D01*
X2457345Y-2279205D01*
X2279205Y-2457345D01*
X2279201Y-2457350D01*
X2131132Y-2661151D01*
X2016760Y-2885616D01*
X1938910Y-3125214D01*
X1912499Y-3291967D01*
X1899500Y-3374038D01*
X200500Y-3374038D01*
X200500Y-324500D01*
X220185Y-257461D01*
X272989Y-211706D01*
X324500Y-200500D01*
X50453347Y-200500D01*
X50520386Y-220185D01*
G37*
%TD.AperFunction*%
%TA.AperFunction,Conductor*%
G36*
X66976234Y-27222770D02*
G01*
X67032167Y-27264642D01*
X67056584Y-27330106D01*
X67056900Y-27338952D01*
X67056900Y-30259248D01*
X67037215Y-30326287D01*
X67020581Y-30346929D01*
X60759329Y-36608181D01*
X60698006Y-36641666D01*
X60671648Y-36644500D01*
X60185989Y-36644500D01*
X60065153Y-36668535D01*
X60065141Y-36668539D01*
X60032862Y-36681909D01*
X60017997Y-36688067D01*
X59951319Y-36715685D01*
X59951317Y-36715686D01*
X59848866Y-36784141D01*
X59848863Y-36784144D01*
X56871169Y-39761840D01*
X56784044Y-39848964D01*
X56784038Y-39848972D01*
X56715590Y-39951408D01*
X56715588Y-39951413D01*
X56702180Y-39983784D01*
X56668438Y-40065244D01*
X56668435Y-40065256D01*
X56644400Y-40186089D01*
X56644400Y-41475500D01*
X56624715Y-41542539D01*
X56571911Y-41588294D01*
X56520400Y-41599500D01*
X55522800Y-41599500D01*
X55455761Y-41579815D01*
X55410006Y-41527011D01*
X55398800Y-41475500D01*
X55398800Y-38749052D01*
X55418485Y-38682013D01*
X55435119Y-38661371D01*
X66845219Y-27251271D01*
X66906542Y-27217786D01*
X66976234Y-27222770D01*
G37*
%TD.AperFunction*%
%TA.AperFunction,Conductor*%
G36*
X70090690Y-6856865D02*
G01*
X70121518Y-6919566D01*
X70113553Y-6988981D01*
X70087015Y-7028392D01*
X67322897Y-9792512D01*
X66416169Y-10699240D01*
X66416167Y-10699242D01*
X66392251Y-10723158D01*
X66329042Y-10786366D01*
X66311485Y-10812643D01*
X66311484Y-10812644D01*
X66260590Y-10888809D01*
X66260585Y-10888818D01*
X66227247Y-10969306D01*
X66227247Y-10969307D01*
X66213617Y-11002214D01*
X66213435Y-11002654D01*
X66201417Y-11063067D01*
X66201418Y-11063068D01*
X66192824Y-11106281D01*
X66192823Y-11106289D01*
X66189400Y-11123494D01*
X66189400Y-26086547D01*
X66169715Y-26153586D01*
X66153081Y-26174228D01*
X54985881Y-37341428D01*
X54924558Y-37374913D01*
X54854866Y-37369929D01*
X54798933Y-37328057D01*
X54774516Y-37262593D01*
X54774200Y-37253747D01*
X54774200Y-34010874D01*
X54793885Y-33943835D01*
X54846689Y-33898080D01*
X54915847Y-33888136D01*
X54922383Y-33889255D01*
X54938193Y-33892400D01*
X57151107Y-33892400D01*
X57211529Y-33880381D01*
X57271952Y-33868363D01*
X57305292Y-33854552D01*
X57385786Y-33821212D01*
X57437009Y-33786984D01*
X57488233Y-33752758D01*
X57575358Y-33665633D01*
X57575359Y-33665631D01*
X57582425Y-33658565D01*
X57582428Y-33658561D01*
X57625429Y-33615560D01*
X57625433Y-33615558D01*
X57712558Y-33528433D01*
X57746784Y-33477209D01*
X57781012Y-33425986D01*
X57814352Y-33345492D01*
X57828163Y-33312152D01*
X57852200Y-33191306D01*
X57852200Y-27437648D01*
X59319500Y-27437648D01*
X59319500Y-27642352D01*
X59321300Y-27653714D01*
X59351522Y-27844534D01*
X59414781Y-28039223D01*
X59420554Y-28050552D01*
X59497995Y-28202538D01*
X59507715Y-28221613D01*
X59628028Y-28387213D01*
X59772786Y-28531971D01*
X59927749Y-28644556D01*
X59938390Y-28652287D01*
X60030195Y-28699064D01*
X60120776Y-28745218D01*
X60120778Y-28745218D01*
X60120781Y-28745220D01*
X60195664Y-28769551D01*
X60315465Y-28808477D01*
X60394393Y-28820978D01*
X60517648Y-28840500D01*
X60517649Y-28840500D01*
X60722351Y-28840500D01*
X60722352Y-28840500D01*
X60924534Y-28808477D01*
X61119219Y-28745220D01*
X61301610Y-28652287D01*
X61433239Y-28556654D01*
X61467213Y-28531971D01*
X61467215Y-28531968D01*
X61467219Y-28531966D01*
X61611966Y-28387219D01*
X61611968Y-28387215D01*
X61611971Y-28387213D01*
X61708826Y-28253901D01*
X61732287Y-28221610D01*
X61825220Y-28039219D01*
X61888477Y-27844534D01*
X61920500Y-27642352D01*
X61920500Y-27437648D01*
X61899611Y-27305761D01*
X61888477Y-27235465D01*
X61825218Y-27040776D01*
X61770686Y-26933752D01*
X61732287Y-26858390D01*
X61700331Y-26814406D01*
X61611971Y-26692786D01*
X61467213Y-26548028D01*
X61301613Y-26427715D01*
X61301612Y-26427714D01*
X61301610Y-26427713D01*
X61244653Y-26398691D01*
X61119223Y-26334781D01*
X60924534Y-26271522D01*
X60749995Y-26243878D01*
X60722352Y-26239500D01*
X60517648Y-26239500D01*
X60493329Y-26243351D01*
X60315465Y-26271522D01*
X60120776Y-26334781D01*
X59938386Y-26427715D01*
X59772786Y-26548028D01*
X59628028Y-26692786D01*
X59507715Y-26858386D01*
X59414781Y-27040776D01*
X59351522Y-27235465D01*
X59326976Y-27390447D01*
X59319500Y-27437648D01*
X57852200Y-27437648D01*
X57852200Y-24803752D01*
X57871885Y-24736713D01*
X57888519Y-24716071D01*
X60445390Y-22159201D01*
X63036958Y-19567633D01*
X63105412Y-19465185D01*
X63137220Y-19388393D01*
X63152563Y-19351352D01*
X63156551Y-19331302D01*
X63176601Y-19230506D01*
X63176601Y-19107293D01*
X63176601Y-19102183D01*
X63176600Y-19102157D01*
X63176600Y-12759352D01*
X63196285Y-12692313D01*
X63212919Y-12671671D01*
X66092078Y-9792512D01*
X69002483Y-6882106D01*
X69063804Y-6848623D01*
X69128480Y-6851858D01*
X69172049Y-6866015D01*
X69389778Y-6900500D01*
X69389779Y-6900500D01*
X69610221Y-6900500D01*
X69610222Y-6900500D01*
X69827951Y-6866015D01*
X69961016Y-6822779D01*
X70030857Y-6820785D01*
X70090690Y-6856865D01*
G37*
%TD.AperFunction*%
%TA.AperFunction,Conductor*%
G36*
X36451856Y-6297413D02*
G01*
X36482684Y-6360114D01*
X36484500Y-6381259D01*
X36484500Y-21739547D01*
X36464815Y-21806586D01*
X36448181Y-21827228D01*
X32037627Y-26237781D01*
X31976304Y-26271266D01*
X31929584Y-26270776D01*
X31929346Y-26272285D01*
X31825898Y-26255900D01*
X31722352Y-26239500D01*
X31517648Y-26239500D01*
X31414101Y-26255900D01*
X31310654Y-26272285D01*
X31310333Y-26270262D01*
X31249120Y-26267149D01*
X31202371Y-26237781D01*
X29476119Y-24511529D01*
X29442634Y-24450206D01*
X29439800Y-24423848D01*
X29439800Y-23741961D01*
X29459485Y-23674922D01*
X29476120Y-23654279D01*
X29513761Y-23616638D01*
X29513764Y-23616635D01*
X29612313Y-23469147D01*
X29680194Y-23305266D01*
X29689250Y-23259742D01*
X29714799Y-23131295D01*
X29714800Y-23131293D01*
X29714800Y-22953906D01*
X29714799Y-22953904D01*
X29680196Y-22779941D01*
X29680193Y-22779932D01*
X29612316Y-22616059D01*
X29612309Y-22616046D01*
X29513764Y-22468565D01*
X29513761Y-22468561D01*
X29388338Y-22343138D01*
X29388334Y-22343135D01*
X29240853Y-22244590D01*
X29240840Y-22244583D01*
X29076967Y-22176706D01*
X29076959Y-22176704D01*
X28952008Y-22151849D01*
X28890097Y-22119464D01*
X28855523Y-22058748D01*
X28852200Y-22030232D01*
X28852200Y-20304434D01*
X28871885Y-20237395D01*
X28924689Y-20191640D01*
X28993847Y-20181696D01*
X29045092Y-20201333D01*
X29114944Y-20248008D01*
X29114959Y-20248016D01*
X29225269Y-20293707D01*
X29278834Y-20315894D01*
X29278836Y-20315894D01*
X29278841Y-20315896D01*
X29452804Y-20350499D01*
X29452807Y-20350500D01*
X29452809Y-20350500D01*
X29630193Y-20350500D01*
X29630194Y-20350499D01*
X29688182Y-20338964D01*
X29804158Y-20315896D01*
X29804161Y-20315894D01*
X29804166Y-20315894D01*
X29956647Y-20252735D01*
X29968040Y-20248016D01*
X29968040Y-20248015D01*
X29968047Y-20248013D01*
X30115535Y-20149464D01*
X30240964Y-20024035D01*
X30339513Y-19876547D01*
X30407394Y-19712666D01*
X30407462Y-19712328D01*
X30441999Y-19538695D01*
X30442000Y-19538693D01*
X30442000Y-19361306D01*
X30441999Y-19361304D01*
X30407396Y-19187341D01*
X30407393Y-19187332D01*
X30339516Y-19023459D01*
X30339509Y-19023446D01*
X30240964Y-18875965D01*
X30240961Y-18875961D01*
X30203319Y-18838319D01*
X30169834Y-18776996D01*
X30167000Y-18750638D01*
X30167000Y-17059534D01*
X30186685Y-16992495D01*
X30239489Y-16946740D01*
X30308647Y-16936796D01*
X30372203Y-16965821D01*
X30408930Y-17021216D01*
X30414780Y-17039219D01*
X30498150Y-17202842D01*
X30507715Y-17221613D01*
X30628028Y-17387213D01*
X30772786Y-17531971D01*
X30903716Y-17627095D01*
X30938390Y-17652287D01*
X31050021Y-17709166D01*
X31120776Y-17745218D01*
X31120778Y-17745218D01*
X31120781Y-17745220D01*
X31225137Y-17779127D01*
X31315465Y-17808477D01*
X31391078Y-17820453D01*
X31517648Y-17840500D01*
X31517649Y-17840500D01*
X31722351Y-17840500D01*
X31722352Y-17840500D01*
X31924534Y-17808477D01*
X32119219Y-17745220D01*
X32301610Y-17652287D01*
X32404497Y-17577536D01*
X32467213Y-17531971D01*
X32467215Y-17531968D01*
X32467219Y-17531966D01*
X32611966Y-17387219D01*
X32611968Y-17387215D01*
X32611971Y-17387213D01*
X32682624Y-17289966D01*
X32732287Y-17221610D01*
X32825220Y-17039219D01*
X32888477Y-16844534D01*
X32920500Y-16642352D01*
X32920500Y-16437648D01*
X32909168Y-16366101D01*
X32888477Y-16235465D01*
X32849809Y-16116459D01*
X32825220Y-16040781D01*
X32825218Y-16040778D01*
X32825218Y-16040776D01*
X32791047Y-15973713D01*
X32732287Y-15858390D01*
X32690227Y-15800499D01*
X32611971Y-15692786D01*
X32467213Y-15548028D01*
X32301613Y-15427715D01*
X32301612Y-15427714D01*
X32301610Y-15427713D01*
X32244653Y-15398691D01*
X32119223Y-15334781D01*
X31924534Y-15271522D01*
X31749995Y-15243878D01*
X31722352Y-15239500D01*
X31517648Y-15239500D01*
X31493329Y-15243351D01*
X31315465Y-15271522D01*
X31120776Y-15334781D01*
X30938386Y-15427715D01*
X30772786Y-15548028D01*
X30628028Y-15692786D01*
X30507715Y-15858386D01*
X30414781Y-16040776D01*
X30411616Y-16050516D01*
X30408929Y-16058785D01*
X30369493Y-16116459D01*
X30305134Y-16143657D01*
X30236288Y-16131742D01*
X30184812Y-16084498D01*
X30167000Y-16020465D01*
X30167000Y-11608951D01*
X30186685Y-11541912D01*
X30203314Y-11521275D01*
X35382162Y-6342426D01*
X35443483Y-6308943D01*
X35508162Y-6312179D01*
X35523757Y-6317246D01*
X35733713Y-6350500D01*
X35733714Y-6350500D01*
X35946286Y-6350500D01*
X35946287Y-6350500D01*
X36156243Y-6317246D01*
X36322185Y-6263327D01*
X36392023Y-6261333D01*
X36451856Y-6297413D01*
G37*
%TD.AperFunction*%
%TA.AperFunction,Conductor*%
G36*
X53496887Y-10305485D02*
G01*
X53517529Y-10322119D01*
X59317781Y-16122371D01*
X59351266Y-16183694D01*
X59350785Y-16230416D01*
X59352285Y-16230654D01*
X59319500Y-16437648D01*
X59319500Y-16642351D01*
X59351522Y-16844534D01*
X59414781Y-17039223D01*
X59463404Y-17134649D01*
X59498150Y-17202842D01*
X59507715Y-17221613D01*
X59628028Y-17387213D01*
X59772786Y-17531971D01*
X59938388Y-17652286D01*
X59938390Y-17652287D01*
X59958467Y-17662517D01*
X59991306Y-17679249D01*
X60042102Y-17727223D01*
X60058898Y-17795044D01*
X60036361Y-17861179D01*
X60022693Y-17877415D01*
X59386929Y-18513181D01*
X59325606Y-18546666D01*
X59299248Y-18549500D01*
X59246006Y-18549500D01*
X59072041Y-18584103D01*
X59072032Y-18584106D01*
X58908159Y-18651983D01*
X58908146Y-18651990D01*
X58760665Y-18750535D01*
X58760661Y-18750538D01*
X58635238Y-18875961D01*
X58635235Y-18875965D01*
X58536690Y-19023446D01*
X58536683Y-19023459D01*
X58468806Y-19187332D01*
X58468803Y-19187341D01*
X58434200Y-19361304D01*
X58434200Y-19538695D01*
X58468803Y-19712658D01*
X58468806Y-19712667D01*
X58536683Y-19876540D01*
X58536690Y-19876553D01*
X58635235Y-20024034D01*
X58635238Y-20024038D01*
X58760661Y-20149461D01*
X58760665Y-20149464D01*
X58908146Y-20248009D01*
X58908159Y-20248016D01*
X59018469Y-20293707D01*
X59072034Y-20315894D01*
X59072036Y-20315894D01*
X59072041Y-20315896D01*
X59246004Y-20350499D01*
X59246007Y-20350500D01*
X59246009Y-20350500D01*
X59423393Y-20350500D01*
X59423394Y-20350499D01*
X59481382Y-20338964D01*
X59597358Y-20315896D01*
X59597361Y-20315894D01*
X59597366Y-20315894D01*
X59749847Y-20252735D01*
X59761240Y-20248016D01*
X59761240Y-20248015D01*
X59761247Y-20248013D01*
X59908735Y-20149464D01*
X60034164Y-20024035D01*
X60132713Y-19876547D01*
X60200594Y-19712666D01*
X60200662Y-19712328D01*
X60235199Y-19538695D01*
X60235200Y-19538693D01*
X60235200Y-19485452D01*
X60254885Y-19418413D01*
X60271519Y-19397771D01*
X61713919Y-17955371D01*
X61775242Y-17921886D01*
X61844934Y-17926870D01*
X61900867Y-17968742D01*
X61925284Y-18034206D01*
X61925600Y-18043052D01*
X61925600Y-18858447D01*
X61905915Y-18925486D01*
X61889281Y-18946128D01*
X56837181Y-23998228D01*
X56775858Y-24031713D01*
X56706166Y-24026729D01*
X56650233Y-23984857D01*
X56625816Y-23919393D01*
X56625500Y-23910547D01*
X56625500Y-23683996D01*
X56625500Y-23683994D01*
X56601463Y-23563148D01*
X56587652Y-23529807D01*
X56554312Y-23449314D01*
X56504262Y-23374411D01*
X56485858Y-23346867D01*
X56485855Y-23346864D01*
X56485853Y-23346861D01*
X56395637Y-23256645D01*
X56395606Y-23256616D01*
X55751170Y-22612180D01*
X55717685Y-22550857D01*
X55722669Y-22481165D01*
X55764541Y-22425232D01*
X55830005Y-22400815D01*
X55838851Y-22400499D01*
X56947871Y-22400499D01*
X56947872Y-22400499D01*
X57007483Y-22394091D01*
X57142331Y-22343796D01*
X57257546Y-22257546D01*
X57343796Y-22142331D01*
X57394091Y-22007483D01*
X57400500Y-21947873D01*
X57400499Y-20052128D01*
X57394091Y-19992517D01*
X57385879Y-19970500D01*
X57343797Y-19857671D01*
X57343793Y-19857664D01*
X57257547Y-19742455D01*
X57257544Y-19742452D01*
X57142335Y-19656206D01*
X57142328Y-19656202D01*
X57007482Y-19605908D01*
X57007483Y-19605908D01*
X56947883Y-19599501D01*
X56947881Y-19599500D01*
X56947873Y-19599500D01*
X56947864Y-19599500D01*
X55052129Y-19599500D01*
X55052123Y-19599501D01*
X54992516Y-19605908D01*
X54952963Y-19620661D01*
X54883271Y-19625645D01*
X54821950Y-19592160D01*
X53246382Y-18016592D01*
X53212897Y-17955269D01*
X53217881Y-17885577D01*
X53259753Y-17829644D01*
X53300127Y-17810684D01*
X53299900Y-17809983D01*
X53364429Y-17789016D01*
X53499219Y-17745220D01*
X53681610Y-17652287D01*
X53784497Y-17577536D01*
X53847213Y-17531971D01*
X53847215Y-17531968D01*
X53847219Y-17531966D01*
X53991966Y-17387219D01*
X53991968Y-17387215D01*
X53991971Y-17387213D01*
X54062624Y-17289966D01*
X54112287Y-17221610D01*
X54205220Y-17039219D01*
X54268477Y-16844534D01*
X54300500Y-16642352D01*
X54300500Y-16437648D01*
X54289168Y-16366101D01*
X54268477Y-16235465D01*
X54229809Y-16116459D01*
X54205220Y-16040781D01*
X54205218Y-16040778D01*
X54205218Y-16040776D01*
X54171047Y-15973713D01*
X54112287Y-15858390D01*
X54070227Y-15800499D01*
X53991971Y-15692786D01*
X53847219Y-15548034D01*
X53842402Y-15544534D01*
X53753547Y-15479978D01*
X53710882Y-15424649D01*
X53704903Y-15355036D01*
X53737508Y-15293240D01*
X53787426Y-15261955D01*
X53869334Y-15234814D01*
X54018656Y-15142712D01*
X54142712Y-15018656D01*
X54234814Y-14869334D01*
X54289999Y-14702797D01*
X54300500Y-14600009D01*
X54300499Y-13399992D01*
X54289999Y-13297203D01*
X54234814Y-13130666D01*
X54142712Y-12981344D01*
X54018656Y-12857288D01*
X53869334Y-12765186D01*
X53702797Y-12710001D01*
X53702795Y-12710000D01*
X53600010Y-12699500D01*
X52399998Y-12699500D01*
X52399981Y-12699501D01*
X52297203Y-12710000D01*
X52297200Y-12710001D01*
X52130668Y-12765185D01*
X52130663Y-12765187D01*
X51981342Y-12857289D01*
X51857289Y-12981342D01*
X51765187Y-13130663D01*
X51765185Y-13130668D01*
X51742946Y-13197781D01*
X51710001Y-13297203D01*
X51710001Y-13297204D01*
X51710000Y-13297204D01*
X51699500Y-13399983D01*
X51699500Y-14600001D01*
X51699501Y-14600018D01*
X51710000Y-14702796D01*
X51710001Y-14702799D01*
X51765185Y-14869331D01*
X51765187Y-14869336D01*
X51796735Y-14920484D01*
X51857288Y-15018656D01*
X51981344Y-15142712D01*
X52130666Y-15234814D01*
X52212570Y-15261954D01*
X52270015Y-15301727D01*
X52296838Y-15366243D01*
X52284523Y-15435018D01*
X52246451Y-15479978D01*
X52152787Y-15548028D01*
X52152782Y-15548032D01*
X52008028Y-15692786D01*
X51887715Y-15858386D01*
X51794781Y-16040776D01*
X51730017Y-16240100D01*
X51728882Y-16239731D01*
X51696862Y-16295484D01*
X51634832Y-16327642D01*
X51565264Y-16321158D01*
X51523407Y-16293617D01*
X51449219Y-16219429D01*
X51415734Y-16158106D01*
X51412900Y-16131748D01*
X51412900Y-11159861D01*
X51432585Y-11092822D01*
X51449220Y-11072179D01*
X51486861Y-11034538D01*
X51486864Y-11034535D01*
X51585413Y-10887047D01*
X51653294Y-10723166D01*
X51658054Y-10699240D01*
X51687899Y-10549195D01*
X51687900Y-10549193D01*
X51687900Y-10409800D01*
X51707585Y-10342761D01*
X51760389Y-10297006D01*
X51811900Y-10285800D01*
X53429848Y-10285800D01*
X53496887Y-10305485D01*
G37*
%TD.AperFunction*%
%TA.AperFunction,Conductor*%
G36*
X47341444Y-3113999D02*
G01*
X47380486Y-3159056D01*
X47384951Y-3167820D01*
X47509890Y-3339786D01*
X47660213Y-3490109D01*
X47832182Y-3615050D01*
X47840946Y-3619516D01*
X47891742Y-3667491D01*
X47908536Y-3735312D01*
X47885998Y-3801447D01*
X47840946Y-3840484D01*
X47832182Y-3844949D01*
X47660213Y-3969890D01*
X47509890Y-4120213D01*
X47384951Y-4292179D01*
X47288444Y-4481585D01*
X47222753Y-4683760D01*
X47203425Y-4805795D01*
X47189500Y-4893713D01*
X47189500Y-5106287D01*
X47222754Y-5316243D01*
X47273683Y-5472987D01*
X47288444Y-5518414D01*
X47384951Y-5707820D01*
X47509890Y-5879786D01*
X47660213Y-6030109D01*
X47832179Y-6155048D01*
X47832181Y-6155049D01*
X47832184Y-6155051D01*
X48021588Y-6251557D01*
X48223757Y-6317246D01*
X48433713Y-6350500D01*
X48433714Y-6350500D01*
X48646286Y-6350500D01*
X48646287Y-6350500D01*
X48856243Y-6317246D01*
X49058412Y-6251557D01*
X49247816Y-6155051D01*
X49412318Y-6035533D01*
X49478122Y-6012055D01*
X49546176Y-6027880D01*
X49572882Y-6048172D01*
X50212262Y-6687554D01*
X50212265Y-6687557D01*
X50280411Y-6733090D01*
X50314714Y-6756011D01*
X50314715Y-6756011D01*
X50314716Y-6756012D01*
X50334216Y-6764089D01*
X50428548Y-6803163D01*
X50517137Y-6820784D01*
X50549388Y-6827199D01*
X50549392Y-6827200D01*
X50549393Y-6827200D01*
X52479907Y-6827200D01*
X52540329Y-6815181D01*
X52600752Y-6803163D01*
X52659731Y-6778733D01*
X52714586Y-6756012D01*
X52777765Y-6713796D01*
X52817033Y-6687558D01*
X52904158Y-6600433D01*
X52904158Y-6600431D01*
X52914366Y-6590224D01*
X52914367Y-6590221D01*
X53162162Y-6342427D01*
X53223484Y-6308943D01*
X53288159Y-6312178D01*
X53292677Y-6313646D01*
X53303757Y-6317246D01*
X53513713Y-6350500D01*
X53513714Y-6350500D01*
X53726286Y-6350500D01*
X53726287Y-6350500D01*
X53936243Y-6317246D01*
X54138412Y-6251557D01*
X54209456Y-6215358D01*
X54278122Y-6202462D01*
X54342862Y-6228737D01*
X54383120Y-6285843D01*
X54388691Y-6314619D01*
X54389146Y-6314571D01*
X54395908Y-6377483D01*
X54446202Y-6512328D01*
X54446206Y-6512335D01*
X54532452Y-6627544D01*
X54532455Y-6627547D01*
X54647664Y-6713793D01*
X54647671Y-6713797D01*
X54692618Y-6730561D01*
X54782517Y-6764091D01*
X54842127Y-6770500D01*
X55410500Y-6770499D01*
X55477539Y-6790183D01*
X55523294Y-6842987D01*
X55534500Y-6894499D01*
X55534500Y-8792738D01*
X55514815Y-8859777D01*
X55498181Y-8880419D01*
X55460538Y-8918061D01*
X55460535Y-8918065D01*
X55361990Y-9065546D01*
X55361983Y-9065559D01*
X55294106Y-9229432D01*
X55294103Y-9229441D01*
X55259500Y-9403404D01*
X55259500Y-9580795D01*
X55294103Y-9754758D01*
X55294106Y-9754767D01*
X55361983Y-9918640D01*
X55361990Y-9918653D01*
X55460535Y-10066134D01*
X55460538Y-10066138D01*
X55585961Y-10191561D01*
X55585965Y-10191564D01*
X55733446Y-10290109D01*
X55733459Y-10290116D01*
X55849839Y-10338321D01*
X55897334Y-10357994D01*
X55897336Y-10357994D01*
X55897341Y-10357996D01*
X56071304Y-10392599D01*
X56071307Y-10392600D01*
X56071309Y-10392600D01*
X56248693Y-10392600D01*
X56248694Y-10392599D01*
X56306682Y-10381064D01*
X56422658Y-10357996D01*
X56422661Y-10357994D01*
X56422666Y-10357994D01*
X56586547Y-10290113D01*
X56734035Y-10191564D01*
X56771679Y-10153920D01*
X56833001Y-10120434D01*
X56859361Y-10117600D01*
X57408148Y-10117600D01*
X57475187Y-10137285D01*
X57495829Y-10153919D01*
X61111681Y-13769771D01*
X61145166Y-13831094D01*
X61148000Y-13857452D01*
X61148000Y-15173459D01*
X61128315Y-15240498D01*
X61075511Y-15286253D01*
X61006353Y-15296197D01*
X60985683Y-15291390D01*
X60924542Y-15271524D01*
X60924535Y-15271523D01*
X60823443Y-15255511D01*
X60722352Y-15239500D01*
X60517648Y-15239500D01*
X60414101Y-15255900D01*
X60310654Y-15272285D01*
X60310333Y-15270262D01*
X60249120Y-15267149D01*
X60202371Y-15237781D01*
X54233450Y-9268860D01*
X54226160Y-9261570D01*
X54226158Y-9261567D01*
X54139033Y-9174442D01*
X54087809Y-9140215D01*
X54036586Y-9105988D01*
X54036583Y-9105986D01*
X54036580Y-9105985D01*
X53963126Y-9075560D01*
X53963122Y-9075558D01*
X53956092Y-9072647D01*
X53922752Y-9058837D01*
X53855992Y-9045558D01*
X53801907Y-9034800D01*
X53801906Y-9034800D01*
X47665100Y-9034800D01*
X47598061Y-9015115D01*
X47552306Y-8962311D01*
X47541100Y-8910800D01*
X47541100Y-8393993D01*
X47541099Y-8393989D01*
X47517064Y-8273155D01*
X47517063Y-8273148D01*
X47469911Y-8159314D01*
X47469910Y-8159313D01*
X47469907Y-8159307D01*
X47401459Y-8056868D01*
X47400483Y-8055892D01*
X47314333Y-7969742D01*
X47314332Y-7969741D01*
X44802428Y-5457837D01*
X44768943Y-5396514D01*
X44772178Y-5331837D01*
X44777246Y-5316243D01*
X44810500Y-5106287D01*
X44810500Y-4893713D01*
X44777246Y-4683757D01*
X44711557Y-4481588D01*
X44615051Y-4292184D01*
X44615049Y-4292181D01*
X44615048Y-4292179D01*
X44490109Y-4120213D01*
X44339786Y-3969890D01*
X44167820Y-3844951D01*
X44167115Y-3844591D01*
X44159054Y-3840485D01*
X44108259Y-3792512D01*
X44091463Y-3724692D01*
X44113999Y-3658556D01*
X44159054Y-3619515D01*
X44167816Y-3615051D01*
X44200171Y-3591544D01*
X44339786Y-3490109D01*
X44339788Y-3490106D01*
X44339792Y-3490104D01*
X44490104Y-3339792D01*
X44490106Y-3339788D01*
X44490109Y-3339786D01*
X44615048Y-3167820D01*
X44615047Y-3167820D01*
X44615051Y-3167816D01*
X44619514Y-3159054D01*
X44667488Y-3108259D01*
X44735308Y-3091463D01*
X44801444Y-3113999D01*
X44840486Y-3159056D01*
X44844951Y-3167820D01*
X44969890Y-3339786D01*
X45120213Y-3490109D01*
X45292179Y-3615048D01*
X45292181Y-3615049D01*
X45292184Y-3615051D01*
X45481588Y-3711557D01*
X45683757Y-3777246D01*
X45893713Y-3810500D01*
X45893714Y-3810500D01*
X46106286Y-3810500D01*
X46106287Y-3810500D01*
X46316243Y-3777246D01*
X46518412Y-3711557D01*
X46707816Y-3615051D01*
X46740171Y-3591544D01*
X46879786Y-3490109D01*
X46879788Y-3490106D01*
X46879792Y-3490104D01*
X47030104Y-3339792D01*
X47030106Y-3339788D01*
X47030109Y-3339786D01*
X47155048Y-3167820D01*
X47155047Y-3167820D01*
X47155051Y-3167816D01*
X47159514Y-3159054D01*
X47207488Y-3108259D01*
X47275308Y-3091463D01*
X47341444Y-3113999D01*
G37*
%TD.AperFunction*%
%TA.AperFunction,Conductor*%
G36*
X27021444Y-3113999D02*
G01*
X27060486Y-3159056D01*
X27064951Y-3167820D01*
X27189890Y-3339786D01*
X27340213Y-3490109D01*
X27512182Y-3615050D01*
X27520946Y-3619516D01*
X27571742Y-3667491D01*
X27588536Y-3735312D01*
X27565998Y-3801447D01*
X27520946Y-3840484D01*
X27512182Y-3844949D01*
X27340213Y-3969890D01*
X27189890Y-4120213D01*
X27064951Y-4292179D01*
X26968444Y-4481585D01*
X26902753Y-4683760D01*
X26883425Y-4805795D01*
X26869500Y-4893713D01*
X26869500Y-5106287D01*
X26902754Y-5316243D01*
X26953683Y-5472987D01*
X26968444Y-5518414D01*
X27064951Y-5707820D01*
X27189890Y-5879786D01*
X27340213Y-6030109D01*
X27512179Y-6155048D01*
X27512181Y-6155049D01*
X27512184Y-6155051D01*
X27701588Y-6251557D01*
X27903757Y-6317246D01*
X28113713Y-6350500D01*
X28113714Y-6350500D01*
X28326286Y-6350500D01*
X28326287Y-6350500D01*
X28536243Y-6317246D01*
X28738412Y-6251557D01*
X28927816Y-6155051D01*
X28989502Y-6110234D01*
X29099786Y-6030109D01*
X29099792Y-6030104D01*
X29167303Y-5962593D01*
X29250104Y-5879792D01*
X29250106Y-5879788D01*
X29250109Y-5879786D01*
X29375048Y-5707820D01*
X29375047Y-5707820D01*
X29375051Y-5707816D01*
X29379514Y-5699054D01*
X29427488Y-5648259D01*
X29495308Y-5631463D01*
X29561444Y-5653999D01*
X29600486Y-5699056D01*
X29604951Y-5707820D01*
X29729890Y-5879786D01*
X29880213Y-6030109D01*
X30052179Y-6155048D01*
X30052181Y-6155049D01*
X30052184Y-6155051D01*
X30241588Y-6251557D01*
X30443757Y-6317246D01*
X30653713Y-6350500D01*
X30653714Y-6350500D01*
X30866286Y-6350500D01*
X30866287Y-6350500D01*
X31076243Y-6317246D01*
X31278412Y-6251557D01*
X31467816Y-6155051D01*
X31529502Y-6110234D01*
X31639786Y-6030109D01*
X31639792Y-6030104D01*
X31707303Y-5962593D01*
X31790104Y-5879792D01*
X31790106Y-5879788D01*
X31790109Y-5879786D01*
X31915048Y-5707820D01*
X31915047Y-5707820D01*
X31915051Y-5707816D01*
X31919514Y-5699054D01*
X31967488Y-5648259D01*
X32035308Y-5631463D01*
X32101444Y-5653999D01*
X32140486Y-5699056D01*
X32144951Y-5707820D01*
X32269890Y-5879786D01*
X32420213Y-6030109D01*
X32592179Y-6155048D01*
X32592181Y-6155049D01*
X32592184Y-6155051D01*
X32781588Y-6251557D01*
X32983757Y-6317246D01*
X33193713Y-6350500D01*
X33193714Y-6350500D01*
X33305547Y-6350500D01*
X33372586Y-6370185D01*
X33418341Y-6422989D01*
X33428285Y-6492147D01*
X33399260Y-6555703D01*
X33393228Y-6562181D01*
X29055644Y-10899764D01*
X29055638Y-10899772D01*
X28987190Y-11002208D01*
X28987188Y-11002213D01*
X28954440Y-11081276D01*
X28954439Y-11081278D01*
X28940039Y-11116039D01*
X28940038Y-11116044D01*
X28940037Y-11116047D01*
X28940037Y-11116048D01*
X28931323Y-11159861D01*
X28916000Y-11236896D01*
X28916000Y-13409046D01*
X28909761Y-13430291D01*
X28908182Y-13452379D01*
X28900109Y-13463162D01*
X28896315Y-13476085D01*
X28879583Y-13490583D01*
X28866311Y-13508313D01*
X28853688Y-13513020D01*
X28843511Y-13521840D01*
X28821595Y-13524991D01*
X28800847Y-13532730D01*
X28787685Y-13529867D01*
X28774353Y-13531784D01*
X28754211Y-13522585D01*
X28732574Y-13517879D01*
X28714845Y-13504607D01*
X28710797Y-13502759D01*
X28704319Y-13496728D01*
X28670753Y-13463162D01*
X28625433Y-13417842D01*
X28625432Y-13417841D01*
X22531819Y-7324228D01*
X22498334Y-7262905D01*
X22495500Y-7236547D01*
X22495500Y-6381259D01*
X22515185Y-6314220D01*
X22567989Y-6268465D01*
X22637147Y-6258521D01*
X22657805Y-6263324D01*
X22823757Y-6317246D01*
X23033713Y-6350500D01*
X23033714Y-6350500D01*
X23246286Y-6350500D01*
X23246287Y-6350500D01*
X23456243Y-6317246D01*
X23658412Y-6251557D01*
X23847816Y-6155051D01*
X23909502Y-6110234D01*
X24019786Y-6030109D01*
X24019792Y-6030104D01*
X24087303Y-5962593D01*
X24170104Y-5879792D01*
X24170106Y-5879788D01*
X24170109Y-5879786D01*
X24295048Y-5707820D01*
X24295047Y-5707820D01*
X24295051Y-5707816D01*
X24391557Y-5518412D01*
X24457246Y-5316243D01*
X24490500Y-5106287D01*
X24490500Y-4893713D01*
X24457246Y-4683757D01*
X24391557Y-4481588D01*
X24295051Y-4292184D01*
X24295049Y-4292181D01*
X24295048Y-4292179D01*
X24170109Y-4120213D01*
X24019786Y-3969890D01*
X23847820Y-3844951D01*
X23847115Y-3844591D01*
X23839054Y-3840485D01*
X23788259Y-3792512D01*
X23771463Y-3724692D01*
X23793999Y-3658556D01*
X23839054Y-3619515D01*
X23847816Y-3615051D01*
X23880171Y-3591544D01*
X24019786Y-3490109D01*
X24019788Y-3490106D01*
X24019792Y-3490104D01*
X24170104Y-3339792D01*
X24170106Y-3339788D01*
X24170109Y-3339786D01*
X24295048Y-3167820D01*
X24295047Y-3167820D01*
X24295051Y-3167816D01*
X24299514Y-3159054D01*
X24347488Y-3108259D01*
X24415308Y-3091463D01*
X24481444Y-3113999D01*
X24520486Y-3159056D01*
X24524951Y-3167820D01*
X24649890Y-3339786D01*
X24800213Y-3490109D01*
X24972179Y-3615048D01*
X24972181Y-3615049D01*
X24972184Y-3615051D01*
X25161588Y-3711557D01*
X25363757Y-3777246D01*
X25573713Y-3810500D01*
X25573714Y-3810500D01*
X25786286Y-3810500D01*
X25786287Y-3810500D01*
X25996243Y-3777246D01*
X26198412Y-3711557D01*
X26387816Y-3615051D01*
X26420171Y-3591544D01*
X26559786Y-3490109D01*
X26559788Y-3490106D01*
X26559792Y-3490104D01*
X26710104Y-3339792D01*
X26710106Y-3339788D01*
X26710109Y-3339786D01*
X26835048Y-3167820D01*
X26835047Y-3167820D01*
X26835051Y-3167816D01*
X26839514Y-3159054D01*
X26887488Y-3108259D01*
X26955308Y-3091463D01*
X27021444Y-3113999D01*
G37*
%TD.AperFunction*%
%TA.AperFunction,Conductor*%
G36*
X20856687Y-1916485D02*
G01*
X20877329Y-1933119D01*
X21208181Y-2263971D01*
X21241666Y-2325294D01*
X21244500Y-2351652D01*
X21244500Y-3618739D01*
X21224815Y-3685778D01*
X21172011Y-3731533D01*
X21102853Y-3741477D01*
X21082183Y-3736670D01*
X20916244Y-3682754D01*
X20916240Y-3682753D01*
X20754957Y-3657208D01*
X20706287Y-3649500D01*
X20493713Y-3649500D01*
X20465006Y-3654046D01*
X20283757Y-3682753D01*
X20268158Y-3687822D01*
X20198317Y-3689816D01*
X20142162Y-3657572D01*
X19868259Y-3383669D01*
X19868258Y-3383667D01*
X19781133Y-3296542D01*
X19725184Y-3259158D01*
X19678686Y-3228088D01*
X19678687Y-3228088D01*
X19678685Y-3228087D01*
X19678681Y-3228085D01*
X19588930Y-3190910D01*
X19588926Y-3190909D01*
X19579938Y-3187186D01*
X19564852Y-3180937D01*
X19466816Y-3161437D01*
X19464423Y-3160961D01*
X19464394Y-3160954D01*
X19444011Y-3156900D01*
X19444007Y-3156900D01*
X19444006Y-3156900D01*
X19422963Y-3156900D01*
X19355924Y-3137215D01*
X19310169Y-3084411D01*
X19300225Y-3015253D01*
X19310384Y-2983208D01*
X19309690Y-2982921D01*
X19311554Y-2978419D01*
X19311556Y-2978414D01*
X19311557Y-2978412D01*
X19377246Y-2776243D01*
X19410500Y-2566287D01*
X19410500Y-2353713D01*
X19377246Y-2143757D01*
X19349745Y-2059118D01*
X19347750Y-1989277D01*
X19383831Y-1929444D01*
X19446532Y-1898616D01*
X19467676Y-1896800D01*
X20789648Y-1896800D01*
X20856687Y-1916485D01*
G37*
%TD.AperFunction*%
%TA.AperFunction,Conductor*%
G36*
X41155687Y-1916685D02*
G01*
X41176329Y-1933319D01*
X41528181Y-2285171D01*
X41561666Y-2346494D01*
X41564500Y-2372852D01*
X41564500Y-3618739D01*
X41544815Y-3685778D01*
X41492011Y-3731533D01*
X41422853Y-3741477D01*
X41402183Y-3736670D01*
X41236244Y-3682754D01*
X41236240Y-3682753D01*
X41074957Y-3657208D01*
X41026287Y-3649500D01*
X40813713Y-3649500D01*
X40785006Y-3654046D01*
X40603757Y-3682753D01*
X40588158Y-3687822D01*
X40518317Y-3689816D01*
X40462162Y-3657572D01*
X40188259Y-3383669D01*
X40188258Y-3383667D01*
X40101133Y-3296542D01*
X40045184Y-3259158D01*
X39998686Y-3228088D01*
X39998687Y-3228088D01*
X39998685Y-3228087D01*
X39998681Y-3228085D01*
X39908930Y-3190910D01*
X39908926Y-3190909D01*
X39899938Y-3187186D01*
X39884852Y-3180937D01*
X39786816Y-3161437D01*
X39784423Y-3160961D01*
X39784394Y-3160954D01*
X39764011Y-3156900D01*
X39764007Y-3156900D01*
X39764006Y-3156900D01*
X39742963Y-3156900D01*
X39675924Y-3137215D01*
X39630169Y-3084411D01*
X39620225Y-3015253D01*
X39630384Y-2983208D01*
X39629690Y-2982921D01*
X39631554Y-2978419D01*
X39631556Y-2978414D01*
X39631557Y-2978412D01*
X39697246Y-2776243D01*
X39730500Y-2566287D01*
X39730500Y-2353713D01*
X39697246Y-2143757D01*
X39669810Y-2059318D01*
X39667815Y-1989477D01*
X39703896Y-1929644D01*
X39766597Y-1898816D01*
X39787741Y-1897000D01*
X41088648Y-1897000D01*
X41155687Y-1916685D01*
G37*
%TD.AperFunction*%
%TA.AperFunction,Conductor*%
G36*
X52530687Y-1367538D02*
G01*
X52552776Y-1369118D01*
X52563559Y-1377190D01*
X52576481Y-1380985D01*
X52590980Y-1397718D01*
X52608709Y-1410990D01*
X52613416Y-1423610D01*
X52622236Y-1433789D01*
X52625387Y-1455706D01*
X52633126Y-1476454D01*
X52630263Y-1489614D01*
X52632180Y-1502947D01*
X52622980Y-1523090D01*
X52618274Y-1544727D01*
X52605005Y-1562452D01*
X52603155Y-1566503D01*
X52597123Y-1572981D01*
X52589894Y-1580209D01*
X52589890Y-1580213D01*
X52464951Y-1752179D01*
X52368444Y-1941585D01*
X52368443Y-1941587D01*
X52368443Y-1941588D01*
X52361683Y-1962394D01*
X52302753Y-2143760D01*
X52269500Y-2353713D01*
X52269500Y-2566286D01*
X52302753Y-2776239D01*
X52302753Y-2776241D01*
X52302754Y-2776243D01*
X52338293Y-2885621D01*
X52367361Y-2975081D01*
X52369356Y-3044922D01*
X52333276Y-3104755D01*
X52278678Y-3133900D01*
X52264262Y-3137399D01*
X52255494Y-3137399D01*
X52157463Y-3156899D01*
X52134648Y-3161437D01*
X52100241Y-3175689D01*
X52091371Y-3179363D01*
X52091367Y-3179364D01*
X52020821Y-3208584D01*
X52020808Y-3208591D01*
X51918367Y-3277041D01*
X51918363Y-3277044D01*
X51537837Y-3657570D01*
X51476514Y-3691055D01*
X51411842Y-3687821D01*
X51396246Y-3682754D01*
X51237239Y-3657570D01*
X51186287Y-3649500D01*
X50973713Y-3649500D01*
X50934202Y-3655757D01*
X50763759Y-3682753D01*
X50681518Y-3709475D01*
X50611676Y-3711470D01*
X50551844Y-3675389D01*
X50521016Y-3612688D01*
X50519200Y-3591544D01*
X50519200Y-2254552D01*
X50538885Y-2187513D01*
X50555519Y-2166871D01*
X51324771Y-1397619D01*
X51386094Y-1364134D01*
X51412452Y-1361300D01*
X52509442Y-1361300D01*
X52530687Y-1367538D01*
G37*
%TD.AperFunction*%
%TD*%
M02*
