M48
; DRILL file {KiCad 9.0.7} date 2026-05-26T23:09:41-0400
; FORMAT={3:3/ absolute / metric / suppress leading zeros}
; #@! TF.CreationDate,2026-05-26T23:09:41-04:00
; #@! TF.GenerationSoftware,Kicad,Pcbnew,9.0.7
; #@! TF.FileFunction,Plated,1,2,PTH
FMAT,2
METRIC,TZ
; #@! TA.AperFunction,Plated,PTH,ViaDrill
T1C0.400
; #@! TA.AperFunction,Plated,PTH,ComponentDrill
T2C0.800
; #@! TA.AperFunction,Plated,PTH,ComponentDrill
T3C0.900
; #@! TA.AperFunction,Plated,PTH,ComponentDrill
T4C1.000
; #@! TA.AperFunction,Plated,PTH,ComponentDrill
T5C1.100
; #@! TA.AperFunction,Plated,PTH,ComponentDrill
T6C1.300
; #@! TA.AperFunction,Plated,PTH,ComponentDrill
T7C1.400
%
G90
G05
T1
X20872Y-21486
X23769Y-33457
X23940Y-41903
X25396Y-22749
X25992Y-29481
X26388Y-13929
X28814Y-23043
X29031Y-29876
X29541Y-19450
X42613Y-9861
X45640Y-31470
X46916Y-9660
X48647Y-17447
X48847Y-18572
X50332Y-17014
X50787Y-10461
X51933Y-19679
X55242Y-50553
X55570Y-49545
X56160Y-9492
X59335Y-19450
X67000Y-42000
X67490Y-32060
X86930Y-28902
X88135Y-25115
X90000Y-14000
X90000Y-42000
T2
X24000Y-14000
X24000Y-16540
X24000Y-25000
X24000Y-27540
X24000Y-36000
X24000Y-38540
X24000Y-47000
X24000Y-49540
X31620Y-14000
X31620Y-16540
X31620Y-25000
X31620Y-27540
X31620Y-36000
X31620Y-38540
X31620Y-47000
X31620Y-49540
X53000Y-14000
X53000Y-16540
X53000Y-25000
X53000Y-27540
X53000Y-36000
X53000Y-38540
X53000Y-47000
X53000Y-49540
X60620Y-14000
X60620Y-16540
X60620Y-25000
X60620Y-27540
X60620Y-36000
X60620Y-38540
X60620Y-47000
X60620Y-49540
X69500Y-14500
X73000Y-14500
X73190Y-25500
X80500Y-14500
X80810Y-25500
X84000Y-14500
T3
X27000Y-21000
X27000Y-32000
X27000Y-43000
X27000Y-54000
X29540Y-21000
X29540Y-32000
X29540Y-43000
X29540Y-54000
X56000Y-21000
X56000Y-32000
X56000Y-43000
X56000Y-54000
X58540Y-21000
X58540Y-32000
X58540Y-43000
X58540Y-54000
X94460Y-44500
X97000Y-44500
T4
X66500Y-2500
X66500Y-5500
X69500Y-2500
X69500Y-5500
X72500Y-2500
X72500Y-5500
X75500Y-2500
X75500Y-5500
X78500Y-4000
X91460Y-8460
X91460Y-11000
X91460Y-13540
X91460Y-16080
X91460Y-18620
X94000Y-8460
X94000Y-11000
X94000Y-13540
X94000Y-16080
X94000Y-18620
T5
X7900Y-2460
X7900Y-5000
X10440Y-2460
X10440Y-5000
X12980Y-2460
X12980Y-5000
X15520Y-2460
X15520Y-5000
X18060Y-2460
X18060Y-5000
X20600Y-2460
X20600Y-5000
X23140Y-2460
X23140Y-5000
X25680Y-2460
X25680Y-5000
X28220Y-2460
X28220Y-5000
X30760Y-2460
X30760Y-5000
X33300Y-2460
X33300Y-5000
X35840Y-2460
X35840Y-5000
X38380Y-2460
X38380Y-5000
X40920Y-2460
X40920Y-5000
X43460Y-2460
X43460Y-5000
X46000Y-2460
X46000Y-5000
X48540Y-2460
X48540Y-5000
X51080Y-2460
X51080Y-5000
X53620Y-2460
X53620Y-5000
X56160Y-2460
X56160Y-5000
X90600Y-27950
X92300Y-27950
X94000Y-27950
X95700Y-27950
X97400Y-27950
T6
X82000Y-47000
X87000Y-47000
T7
X69000Y-46000
X74080Y-46000
M30
