%TF.GenerationSoftware,KiCad,Pcbnew,9.0.7*%
%TF.CreationDate,2026-05-26T23:08:38-04:00*%
%TF.ProjectId,pi-dash-input-hat,70692d64-6173-4682-9d69-6e7075742d68,1.0*%
%TF.SameCoordinates,Original*%
%TF.FileFunction,Soldermask,Top*%
%TF.FilePolarity,Negative*%
%FSLAX46Y46*%
G04 Gerber Fmt 4.6, Leading zero omitted, Abs format (unit mm)*
G04 Created by KiCad (PCBNEW 9.0.7) date 2026-05-26 23:08:38*
%MOMM*%
%LPD*%
G01*
G04 APERTURE LIST*
G04 Aperture macros list*
%AMRoundRect*
0 Rectangle with rounded corners*
0 $1 Rounding radius*
0 $2 $3 $4 $5 $6 $7 $8 $9 X,Y pos of 4 corners*
0 Add a 4 corners polygon primitive as box body*
4,1,4,$2,$3,$4,$5,$6,$7,$8,$9,$2,$3,0*
0 Add four circle primitives for the rounded corners*
1,1,$1+$1,$2,$3*
1,1,$1+$1,$4,$5*
1,1,$1+$1,$6,$7*
1,1,$1+$1,$8,$9*
0 Add four rect primitives between the rounded corners*
20,1,$1+$1,$2,$3,$4,$5,0*
20,1,$1+$1,$4,$5,$6,$7,0*
20,1,$1+$1,$6,$7,$8,$9,0*
20,1,$1+$1,$8,$9,$2,$3,0*%
G04 Aperture macros list end*
%ADD10RoundRect,0.250000X-0.262500X-0.450000X0.262500X-0.450000X0.262500X0.450000X-0.262500X0.450000X0*%
%ADD11RoundRect,0.250000X-0.550000X-0.550000X0.550000X-0.550000X0.550000X0.550000X-0.550000X0.550000X0*%
%ADD12C,1.600000*%
%ADD13RoundRect,0.250000X-1.000000X-0.650000X1.000000X-0.650000X1.000000X0.650000X-1.000000X0.650000X0*%
%ADD14RoundRect,0.250000X-0.650000X1.000000X-0.650000X-1.000000X0.650000X-1.000000X0.650000X1.000000X0*%
%ADD15R,1.800000X1.800000*%
%ADD16C,1.800000*%
%ADD17C,2.600000*%
%ADD18RoundRect,0.150000X-0.587500X-0.150000X0.587500X-0.150000X0.587500X0.150000X-0.587500X0.150000X0*%
%ADD19C,2.700000*%
%ADD20R,1.700000X1.700000*%
%ADD21C,1.700000*%
%ADD22R,1.500000X2.000000*%
%ADD23O,1.500000X2.000000*%
%ADD24R,2.540000X2.540000*%
%ADD25RoundRect,0.249999X-0.790001X-1.550001X0.790001X-1.550001X0.790001X1.550001X-0.790001X1.550001X0*%
%ADD26O,2.080000X3.600000*%
G04 APERTURE END LIST*
D10*
%TO.C,R18*%
X48087500Y-9000000D03*
X49912500Y-9000000D03*
%TD*%
D11*
%TO.C,U5*%
X24000000Y-36000000D03*
D12*
X24000000Y-38540000D03*
X31620000Y-38540000D03*
X31620000Y-36000000D03*
%TD*%
D10*
%TO.C,R16*%
X52087500Y-43000000D03*
X53912500Y-43000000D03*
%TD*%
D13*
%TO.C,D8*%
X35000000Y-47000000D03*
X39000000Y-47000000D03*
%TD*%
D10*
%TO.C,R5*%
X14087500Y-36000000D03*
X15912500Y-36000000D03*
%TD*%
D13*
%TO.C,D5*%
X6000000Y-36000000D03*
X10000000Y-36000000D03*
%TD*%
D11*
%TO.C,U8*%
X53000000Y-47000000D03*
D12*
X53000000Y-49540000D03*
X60620000Y-49540000D03*
X60620000Y-47000000D03*
%TD*%
D10*
%TO.C,R10*%
X52087500Y-10000000D03*
X53912500Y-10000000D03*
%TD*%
D14*
%TO.C,D18*%
X69000000Y-32500000D03*
X69000000Y-36500000D03*
%TD*%
D11*
%TO.C,C1*%
X69500000Y-14500000D03*
D12*
X73000000Y-14500000D03*
%TD*%
D10*
%TO.C,R8*%
X43087500Y-47000000D03*
X44912500Y-47000000D03*
%TD*%
%TO.C,R23*%
X19087500Y-42000000D03*
X20912500Y-42000000D03*
%TD*%
D15*
%TO.C,D14*%
X56000000Y-43000000D03*
D16*
X58540000Y-43000000D03*
%TD*%
D10*
%TO.C,R21*%
X19087500Y-31000000D03*
X20912500Y-31000000D03*
%TD*%
%TO.C,R1*%
X14087500Y-14000000D03*
X15912500Y-14000000D03*
%TD*%
D17*
%TO.C,L1*%
X82000000Y-47000000D03*
X87000000Y-47000000D03*
%TD*%
D11*
%TO.C,C2*%
X80500000Y-14500000D03*
D12*
X84000000Y-14500000D03*
%TD*%
D14*
%TO.C,D17*%
X76500000Y-32500000D03*
X76500000Y-36500000D03*
%TD*%
D10*
%TO.C,R9*%
X30175000Y-9500000D03*
X32000000Y-9500000D03*
%TD*%
D13*
%TO.C,D2*%
X35000000Y-14000000D03*
X39000000Y-14000000D03*
%TD*%
D10*
%TO.C,R7*%
X14087500Y-47000000D03*
X15912500Y-47000000D03*
%TD*%
%TO.C,R4*%
X43087500Y-25000000D03*
X44912500Y-25000000D03*
%TD*%
%TO.C,R3*%
X14087500Y-25000000D03*
X15912500Y-25000000D03*
%TD*%
%TO.C,R19*%
X19087500Y-20000000D03*
X20912500Y-20000000D03*
%TD*%
D13*
%TO.C,D6*%
X35500000Y-33000000D03*
X39500000Y-33000000D03*
%TD*%
D11*
%TO.C,U7*%
X24000000Y-47000000D03*
D12*
X24000000Y-49540000D03*
X31620000Y-49540000D03*
X31620000Y-47000000D03*
%TD*%
D10*
%TO.C,R24*%
X48087500Y-42000000D03*
X49912500Y-42000000D03*
%TD*%
%TO.C,R2*%
X43087500Y-14000000D03*
X44912500Y-14000000D03*
%TD*%
%TO.C,R20*%
X48087500Y-20000000D03*
X49912500Y-20000000D03*
%TD*%
D13*
%TO.C,D1*%
X6000000Y-14000000D03*
X10000000Y-14000000D03*
%TD*%
D12*
%TO.C,F1*%
X73190000Y-25500000D03*
X80810000Y-25500000D03*
%TD*%
D15*
%TO.C,D11*%
X27000000Y-32000000D03*
D16*
X29540000Y-32000000D03*
%TD*%
D10*
%TO.C,R13*%
X23087500Y-32000000D03*
X24912500Y-32000000D03*
%TD*%
%TO.C,R14*%
X52087500Y-32000000D03*
X53912500Y-32000000D03*
%TD*%
D18*
%TO.C,Q1*%
X85500000Y-29000000D03*
X85500000Y-30900000D03*
X87375000Y-29950000D03*
%TD*%
D11*
%TO.C,U4*%
X53000000Y-25000000D03*
D12*
X53000000Y-27540000D03*
X60620000Y-27540000D03*
X60620000Y-25000000D03*
%TD*%
D10*
%TO.C,R25*%
X85175000Y-25500000D03*
X87000000Y-25500000D03*
%TD*%
D15*
%TO.C,D15*%
X27000000Y-54000000D03*
D16*
X29540000Y-54000000D03*
%TD*%
D11*
%TO.C,U1*%
X24000000Y-14000000D03*
D12*
X24000000Y-16540000D03*
X31620000Y-16540000D03*
X31620000Y-14000000D03*
%TD*%
D19*
%TO.C,H1*%
X3500000Y-3500000D03*
%TD*%
%TO.C,H2*%
X61500000Y-3500000D03*
%TD*%
%TO.C,H3*%
X3500000Y-53000000D03*
%TD*%
%TO.C,H4*%
X61500000Y-53000000D03*
%TD*%
%TO.C,H5*%
X96500000Y-3500000D03*
%TD*%
%TO.C,H6*%
X96500000Y-53000000D03*
%TD*%
D11*
%TO.C,U6*%
X53000000Y-36000000D03*
D12*
X53000000Y-38540000D03*
X60620000Y-38540000D03*
X60620000Y-36000000D03*
%TD*%
D20*
%TO.C,J4*%
X94000000Y-18620000D03*
D21*
X91460000Y-18620000D03*
X94000000Y-16080000D03*
X91460000Y-16080000D03*
X94000000Y-13540000D03*
X91460000Y-13540000D03*
X94000000Y-11000000D03*
X91460000Y-11000000D03*
X94000000Y-8460000D03*
X91460000Y-8460000D03*
%TD*%
D22*
%TO.C,U9*%
X90600000Y-27950000D03*
D23*
X92300000Y-27950000D03*
X94000000Y-27950000D03*
X95700000Y-27950000D03*
X97400000Y-27950000D03*
%TD*%
D10*
%TO.C,R12*%
X52087500Y-21000000D03*
X53912500Y-21000000D03*
%TD*%
%TO.C,R22*%
X48087500Y-31000000D03*
X49912500Y-31000000D03*
%TD*%
D11*
%TO.C,U3*%
X24000000Y-25000000D03*
D12*
X24000000Y-27540000D03*
X31620000Y-27540000D03*
X31620000Y-25000000D03*
%TD*%
D24*
%TO.C,J2*%
X56160000Y-5000000D03*
D21*
X56160000Y-2460000D03*
X53620000Y-5000000D03*
X53620000Y-2460000D03*
X51080000Y-5000000D03*
X51080000Y-2460000D03*
X48540000Y-5000000D03*
X48540000Y-2460000D03*
X46000000Y-5000000D03*
X46000000Y-2460000D03*
X43460000Y-5000000D03*
X43460000Y-2460000D03*
X40920000Y-5000000D03*
X40920000Y-2460000D03*
X38380000Y-5000000D03*
X38380000Y-2460000D03*
X35840000Y-5000000D03*
X35840000Y-2460000D03*
X33300000Y-5000000D03*
X33300000Y-2460000D03*
X30760000Y-5000000D03*
X30760000Y-2460000D03*
X28220000Y-5000000D03*
X28220000Y-2460000D03*
X25680000Y-5000000D03*
X25680000Y-2460000D03*
X23140000Y-5000000D03*
X23140000Y-2460000D03*
X20600000Y-5000000D03*
X20600000Y-2460000D03*
X18060000Y-5000000D03*
X18060000Y-2460000D03*
X15520000Y-5000000D03*
X15520000Y-2460000D03*
X12980000Y-5000000D03*
X12980000Y-2460000D03*
X10440000Y-5000000D03*
X10440000Y-2460000D03*
X7900000Y-5000000D03*
X7900000Y-2460000D03*
%TD*%
D16*
%TO.C,J1*%
X66500000Y-2500000D03*
X69500000Y-2500000D03*
X72500000Y-2500000D03*
X75500000Y-2500000D03*
X66500000Y-5500000D03*
X69500000Y-5500000D03*
X72500000Y-5500000D03*
X75500000Y-5500000D03*
D15*
X78500000Y-4000000D03*
%TD*%
D25*
%TO.C,J3*%
X69000000Y-46000000D03*
D26*
X74080000Y-46000000D03*
%TD*%
D15*
%TO.C,D12*%
X56000000Y-32000000D03*
D16*
X58540000Y-32000000D03*
%TD*%
D15*
%TO.C,D10*%
X56000000Y-21000000D03*
D16*
X58540000Y-21000000D03*
%TD*%
D15*
%TO.C,D9*%
X27000000Y-21000000D03*
D16*
X29540000Y-21000000D03*
%TD*%
D15*
%TO.C,D16*%
X56000000Y-54000000D03*
D16*
X58540000Y-54000000D03*
%TD*%
D10*
%TO.C,R15*%
X23087500Y-43000000D03*
X24912500Y-43000000D03*
%TD*%
D13*
%TO.C,D7*%
X6000000Y-47000000D03*
X10000000Y-47000000D03*
%TD*%
D10*
%TO.C,R17*%
X18587500Y-14000000D03*
X20412500Y-14000000D03*
%TD*%
D13*
%TO.C,D3*%
X6000000Y-25000000D03*
X10000000Y-25000000D03*
%TD*%
%TO.C,D4*%
X35000000Y-25000000D03*
X39000000Y-25000000D03*
%TD*%
D15*
%TO.C,D13*%
X27000000Y-43000000D03*
D16*
X29540000Y-43000000D03*
%TD*%
D10*
%TO.C,R6*%
X43675000Y-33500000D03*
X45500000Y-33500000D03*
%TD*%
D15*
%TO.C,D19*%
X94460000Y-44500000D03*
D16*
X97000000Y-44500000D03*
%TD*%
D10*
%TO.C,R11*%
X23087500Y-21000000D03*
X24912500Y-21000000D03*
%TD*%
D11*
%TO.C,U2*%
X53000000Y-14000000D03*
D12*
X53000000Y-16540000D03*
X60620000Y-16540000D03*
X60620000Y-14000000D03*
%TD*%
M02*
