%TF.GenerationSoftware,KiCad,Pcbnew,9.0.7*%
%TF.CreationDate,2026-05-26T23:08:38-04:00*%
%TF.ProjectId,pi-dash-input-hat,70692d64-6173-4682-9d69-6e7075742d68,1.0*%
%TF.SameCoordinates,Original*%
%TF.FileFunction,Legend,Top*%
%TF.FilePolarity,Positive*%
%FSLAX46Y46*%
G04 Gerber Fmt 4.6, Leading zero omitted, Abs format (unit mm)*
G04 Created by KiCad (PCBNEW 9.0.7) date 2026-05-26 23:08:38*
%MOMM*%
%LPD*%
G01*
G04 APERTURE LIST*
%ADD10C,0.100000*%
%ADD11C,0.150000*%
%ADD12C,0.120000*%
G04 APERTURE END LIST*
D10*
X72256265Y-896895D02*
X72256265Y-96895D01*
X72256265Y-477847D02*
X72713408Y-477847D01*
X72713408Y-896895D02*
X72713408Y-96895D01*
X73361026Y-477847D02*
X73475312Y-515942D01*
X73475312Y-515942D02*
X73513407Y-554038D01*
X73513407Y-554038D02*
X73551503Y-630228D01*
X73551503Y-630228D02*
X73551503Y-744514D01*
X73551503Y-744514D02*
X73513407Y-820704D01*
X73513407Y-820704D02*
X73475312Y-858800D01*
X73475312Y-858800D02*
X73399122Y-896895D01*
X73399122Y-896895D02*
X73094360Y-896895D01*
X73094360Y-896895D02*
X73094360Y-96895D01*
X73094360Y-96895D02*
X73361026Y-96895D01*
X73361026Y-96895D02*
X73437217Y-134990D01*
X73437217Y-134990D02*
X73475312Y-173085D01*
X73475312Y-173085D02*
X73513407Y-249276D01*
X73513407Y-249276D02*
X73513407Y-325466D01*
X73513407Y-325466D02*
X73475312Y-401657D01*
X73475312Y-401657D02*
X73437217Y-439752D01*
X73437217Y-439752D02*
X73361026Y-477847D01*
X73361026Y-477847D02*
X73094360Y-477847D01*
X65256265Y-7896895D02*
X65256265Y-7096895D01*
X65256265Y-7477847D02*
X65713408Y-7477847D01*
X65713408Y-7896895D02*
X65713408Y-7096895D01*
X66018169Y-7096895D02*
X66551503Y-7096895D01*
X66551503Y-7096895D02*
X66018169Y-7896895D01*
X66018169Y-7896895D02*
X66551503Y-7896895D01*
X66137217Y-896895D02*
X65756265Y-896895D01*
X65756265Y-896895D02*
X65756265Y-96895D01*
X66289598Y-96895D02*
X66746741Y-96895D01*
X66518169Y-896895D02*
X66518169Y-96895D01*
X75218169Y-7858800D02*
X75332455Y-7896895D01*
X75332455Y-7896895D02*
X75522931Y-7896895D01*
X75522931Y-7896895D02*
X75599122Y-7858800D01*
X75599122Y-7858800D02*
X75637217Y-7820704D01*
X75637217Y-7820704D02*
X75675312Y-7744514D01*
X75675312Y-7744514D02*
X75675312Y-7668323D01*
X75675312Y-7668323D02*
X75637217Y-7592133D01*
X75637217Y-7592133D02*
X75599122Y-7554038D01*
X75599122Y-7554038D02*
X75522931Y-7515942D01*
X75522931Y-7515942D02*
X75370550Y-7477847D01*
X75370550Y-7477847D02*
X75294360Y-7439752D01*
X75294360Y-7439752D02*
X75256265Y-7401657D01*
X75256265Y-7401657D02*
X75218169Y-7325466D01*
X75218169Y-7325466D02*
X75218169Y-7249276D01*
X75218169Y-7249276D02*
X75256265Y-7173085D01*
X75256265Y-7173085D02*
X75294360Y-7134990D01*
X75294360Y-7134990D02*
X75370550Y-7096895D01*
X75370550Y-7096895D02*
X75561027Y-7096895D01*
X75561027Y-7096895D02*
X75675312Y-7134990D01*
X76018170Y-7896895D02*
X76018170Y-7096895D01*
X76018170Y-7096895D02*
X76322932Y-7096895D01*
X76322932Y-7096895D02*
X76399122Y-7134990D01*
X76399122Y-7134990D02*
X76437217Y-7173085D01*
X76437217Y-7173085D02*
X76475313Y-7249276D01*
X76475313Y-7249276D02*
X76475313Y-7363561D01*
X76475313Y-7363561D02*
X76437217Y-7439752D01*
X76437217Y-7439752D02*
X76399122Y-7477847D01*
X76399122Y-7477847D02*
X76322932Y-7515942D01*
X76322932Y-7515942D02*
X76018170Y-7515942D01*
X10161027Y-53372419D02*
X10494360Y-54372419D01*
X10494360Y-54372419D02*
X10827693Y-53372419D01*
X11684836Y-54372419D02*
X11113408Y-54372419D01*
X11399122Y-54372419D02*
X11399122Y-53372419D01*
X11399122Y-53372419D02*
X11303884Y-53515276D01*
X11303884Y-53515276D02*
X11208646Y-53610514D01*
X11208646Y-53610514D02*
X11113408Y-53658133D01*
X12113408Y-54277180D02*
X12161027Y-54324800D01*
X12161027Y-54324800D02*
X12113408Y-54372419D01*
X12113408Y-54372419D02*
X12065789Y-54324800D01*
X12065789Y-54324800D02*
X12113408Y-54277180D01*
X12113408Y-54277180D02*
X12113408Y-54372419D01*
X12780074Y-53372419D02*
X12875312Y-53372419D01*
X12875312Y-53372419D02*
X12970550Y-53420038D01*
X12970550Y-53420038D02*
X13018169Y-53467657D01*
X13018169Y-53467657D02*
X13065788Y-53562895D01*
X13065788Y-53562895D02*
X13113407Y-53753371D01*
X13113407Y-53753371D02*
X13113407Y-53991466D01*
X13113407Y-53991466D02*
X13065788Y-54181942D01*
X13065788Y-54181942D02*
X13018169Y-54277180D01*
X13018169Y-54277180D02*
X12970550Y-54324800D01*
X12970550Y-54324800D02*
X12875312Y-54372419D01*
X12875312Y-54372419D02*
X12780074Y-54372419D01*
X12780074Y-54372419D02*
X12684836Y-54324800D01*
X12684836Y-54324800D02*
X12637217Y-54277180D01*
X12637217Y-54277180D02*
X12589598Y-54181942D01*
X12589598Y-54181942D02*
X12541979Y-53991466D01*
X12541979Y-53991466D02*
X12541979Y-53753371D01*
X12541979Y-53753371D02*
X12589598Y-53562895D01*
X12589598Y-53562895D02*
X12637217Y-53467657D01*
X12637217Y-53467657D02*
X12684836Y-53420038D01*
X12684836Y-53420038D02*
X12780074Y-53372419D01*
X78675312Y-1634990D02*
X78599122Y-1596895D01*
X78599122Y-1596895D02*
X78484836Y-1596895D01*
X78484836Y-1596895D02*
X78370550Y-1634990D01*
X78370550Y-1634990D02*
X78294360Y-1711180D01*
X78294360Y-1711180D02*
X78256265Y-1787371D01*
X78256265Y-1787371D02*
X78218169Y-1939752D01*
X78218169Y-1939752D02*
X78218169Y-2054038D01*
X78218169Y-2054038D02*
X78256265Y-2206419D01*
X78256265Y-2206419D02*
X78294360Y-2282609D01*
X78294360Y-2282609D02*
X78370550Y-2358800D01*
X78370550Y-2358800D02*
X78484836Y-2396895D01*
X78484836Y-2396895D02*
X78561027Y-2396895D01*
X78561027Y-2396895D02*
X78675312Y-2358800D01*
X78675312Y-2358800D02*
X78713408Y-2320704D01*
X78713408Y-2320704D02*
X78713408Y-2054038D01*
X78713408Y-2054038D02*
X78561027Y-2054038D01*
X79056265Y-2396895D02*
X79056265Y-1596895D01*
X79056265Y-1596895D02*
X79513408Y-2396895D01*
X79513408Y-2396895D02*
X79513408Y-1596895D01*
X79894360Y-2396895D02*
X79894360Y-1596895D01*
X79894360Y-1596895D02*
X80084836Y-1596895D01*
X80084836Y-1596895D02*
X80199122Y-1634990D01*
X80199122Y-1634990D02*
X80275312Y-1711180D01*
X80275312Y-1711180D02*
X80313407Y-1787371D01*
X80313407Y-1787371D02*
X80351503Y-1939752D01*
X80351503Y-1939752D02*
X80351503Y-2054038D01*
X80351503Y-2054038D02*
X80313407Y-2206419D01*
X80313407Y-2206419D02*
X80275312Y-2282609D01*
X80275312Y-2282609D02*
X80199122Y-2358800D01*
X80199122Y-2358800D02*
X80084836Y-2396895D01*
X80084836Y-2396895D02*
X79894360Y-2396895D01*
X74827693Y-41920038D02*
X74732455Y-41872419D01*
X74732455Y-41872419D02*
X74589598Y-41872419D01*
X74589598Y-41872419D02*
X74446741Y-41920038D01*
X74446741Y-41920038D02*
X74351503Y-42015276D01*
X74351503Y-42015276D02*
X74303884Y-42110514D01*
X74303884Y-42110514D02*
X74256265Y-42300990D01*
X74256265Y-42300990D02*
X74256265Y-42443847D01*
X74256265Y-42443847D02*
X74303884Y-42634323D01*
X74303884Y-42634323D02*
X74351503Y-42729561D01*
X74351503Y-42729561D02*
X74446741Y-42824800D01*
X74446741Y-42824800D02*
X74589598Y-42872419D01*
X74589598Y-42872419D02*
X74684836Y-42872419D01*
X74684836Y-42872419D02*
X74827693Y-42824800D01*
X74827693Y-42824800D02*
X74875312Y-42777180D01*
X74875312Y-42777180D02*
X74875312Y-42443847D01*
X74875312Y-42443847D02*
X74684836Y-42443847D01*
X75303884Y-42872419D02*
X75303884Y-41872419D01*
X75303884Y-41872419D02*
X75875312Y-42872419D01*
X75875312Y-42872419D02*
X75875312Y-41872419D01*
X76351503Y-42872419D02*
X76351503Y-41872419D01*
X76351503Y-41872419D02*
X76589598Y-41872419D01*
X76589598Y-41872419D02*
X76732455Y-41920038D01*
X76732455Y-41920038D02*
X76827693Y-42015276D01*
X76827693Y-42015276D02*
X76875312Y-42110514D01*
X76875312Y-42110514D02*
X76922931Y-42300990D01*
X76922931Y-42300990D02*
X76922931Y-42443847D01*
X76922931Y-42443847D02*
X76875312Y-42634323D01*
X76875312Y-42634323D02*
X76827693Y-42729561D01*
X76827693Y-42729561D02*
X76732455Y-42824800D01*
X76732455Y-42824800D02*
X76589598Y-42872419D01*
X76589598Y-42872419D02*
X76351503Y-42872419D01*
X68327693Y-42872419D02*
X67756265Y-42872419D01*
X68041979Y-42872419D02*
X68041979Y-41872419D01*
X68041979Y-41872419D02*
X67946741Y-42015276D01*
X67946741Y-42015276D02*
X67851503Y-42110514D01*
X67851503Y-42110514D02*
X67756265Y-42158133D01*
X68708646Y-41967657D02*
X68756265Y-41920038D01*
X68756265Y-41920038D02*
X68851503Y-41872419D01*
X68851503Y-41872419D02*
X69089598Y-41872419D01*
X69089598Y-41872419D02*
X69184836Y-41920038D01*
X69184836Y-41920038D02*
X69232455Y-41967657D01*
X69232455Y-41967657D02*
X69280074Y-42062895D01*
X69280074Y-42062895D02*
X69280074Y-42158133D01*
X69280074Y-42158133D02*
X69232455Y-42300990D01*
X69232455Y-42300990D02*
X68661027Y-42872419D01*
X68661027Y-42872419D02*
X69280074Y-42872419D01*
X69565789Y-41872419D02*
X69899122Y-42872419D01*
X69899122Y-42872419D02*
X70232455Y-41872419D01*
X70565789Y-42491466D02*
X71327694Y-42491466D01*
X70946741Y-42872419D02*
X70946741Y-42110514D01*
X69213408Y-7896895D02*
X68946741Y-7515942D01*
X68756265Y-7896895D02*
X68756265Y-7096895D01*
X68756265Y-7096895D02*
X69061027Y-7096895D01*
X69061027Y-7096895D02*
X69137217Y-7134990D01*
X69137217Y-7134990D02*
X69175312Y-7173085D01*
X69175312Y-7173085D02*
X69213408Y-7249276D01*
X69213408Y-7249276D02*
X69213408Y-7363561D01*
X69213408Y-7363561D02*
X69175312Y-7439752D01*
X69175312Y-7439752D02*
X69137217Y-7477847D01*
X69137217Y-7477847D02*
X69061027Y-7515942D01*
X69061027Y-7515942D02*
X68756265Y-7515942D01*
X69441979Y-7096895D02*
X69708646Y-7896895D01*
X69708646Y-7896895D02*
X69975312Y-7096895D01*
X72256265Y-7896895D02*
X72256265Y-7096895D01*
X72751502Y-7896895D02*
X72675312Y-7858800D01*
X72675312Y-7858800D02*
X72637217Y-7782609D01*
X72637217Y-7782609D02*
X72637217Y-7096895D01*
X75256265Y-896895D02*
X75256265Y-96895D01*
X75256265Y-96895D02*
X75561027Y-96895D01*
X75561027Y-96895D02*
X75637217Y-134990D01*
X75637217Y-134990D02*
X75675312Y-173085D01*
X75675312Y-173085D02*
X75713408Y-249276D01*
X75713408Y-249276D02*
X75713408Y-363561D01*
X75713408Y-363561D02*
X75675312Y-439752D01*
X75675312Y-439752D02*
X75637217Y-477847D01*
X75637217Y-477847D02*
X75561027Y-515942D01*
X75561027Y-515942D02*
X75256265Y-515942D01*
X76056265Y-896895D02*
X76056265Y-96895D01*
X76513408Y-896895D02*
X76170550Y-439752D01*
X76513408Y-96895D02*
X76056265Y-554038D01*
D11*
X34408207Y-19359580D02*
X34360588Y-19407200D01*
X34360588Y-19407200D02*
X34217731Y-19454819D01*
X34217731Y-19454819D02*
X34122493Y-19454819D01*
X34122493Y-19454819D02*
X33979636Y-19407200D01*
X33979636Y-19407200D02*
X33884398Y-19311961D01*
X33884398Y-19311961D02*
X33836779Y-19216723D01*
X33836779Y-19216723D02*
X33789160Y-19026247D01*
X33789160Y-19026247D02*
X33789160Y-18883390D01*
X33789160Y-18883390D02*
X33836779Y-18692914D01*
X33836779Y-18692914D02*
X33884398Y-18597676D01*
X33884398Y-18597676D02*
X33979636Y-18502438D01*
X33979636Y-18502438D02*
X34122493Y-18454819D01*
X34122493Y-18454819D02*
X34217731Y-18454819D01*
X34217731Y-18454819D02*
X34360588Y-18502438D01*
X34360588Y-18502438D02*
X34408207Y-18550057D01*
X34836779Y-19454819D02*
X34836779Y-18454819D01*
X34836779Y-18931009D02*
X35408207Y-18931009D01*
X35408207Y-19454819D02*
X35408207Y-18454819D01*
X36408207Y-19454819D02*
X35836779Y-19454819D01*
X36122493Y-19454819D02*
X36122493Y-18454819D01*
X36122493Y-18454819D02*
X36027255Y-18597676D01*
X36027255Y-18597676D02*
X35932017Y-18692914D01*
X35932017Y-18692914D02*
X35836779Y-18740533D01*
X36836779Y-19073866D02*
X37598684Y-19073866D01*
X38503445Y-18788152D02*
X38503445Y-19454819D01*
X38265350Y-18407200D02*
X38027255Y-19121485D01*
X38027255Y-19121485D02*
X38646302Y-19121485D01*
X40074874Y-19835771D02*
X40027255Y-19788152D01*
X40027255Y-19788152D02*
X39932017Y-19645295D01*
X39932017Y-19645295D02*
X39884398Y-19550057D01*
X39884398Y-19550057D02*
X39836779Y-19407200D01*
X39836779Y-19407200D02*
X39789160Y-19169104D01*
X39789160Y-19169104D02*
X39789160Y-18978628D01*
X39789160Y-18978628D02*
X39836779Y-18740533D01*
X39836779Y-18740533D02*
X39884398Y-18597676D01*
X39884398Y-18597676D02*
X39932017Y-18502438D01*
X39932017Y-18502438D02*
X40027255Y-18359580D01*
X40027255Y-18359580D02*
X40074874Y-18311961D01*
X41027255Y-19454819D02*
X40693922Y-18978628D01*
X40455827Y-19454819D02*
X40455827Y-18454819D01*
X40455827Y-18454819D02*
X40836779Y-18454819D01*
X40836779Y-18454819D02*
X40932017Y-18502438D01*
X40932017Y-18502438D02*
X40979636Y-18550057D01*
X40979636Y-18550057D02*
X41027255Y-18645295D01*
X41027255Y-18645295D02*
X41027255Y-18788152D01*
X41027255Y-18788152D02*
X40979636Y-18883390D01*
X40979636Y-18883390D02*
X40932017Y-18931009D01*
X40932017Y-18931009D02*
X40836779Y-18978628D01*
X40836779Y-18978628D02*
X40455827Y-18978628D01*
X41598684Y-19454819D02*
X41503446Y-19407200D01*
X41503446Y-19407200D02*
X41455827Y-19359580D01*
X41455827Y-19359580D02*
X41408208Y-19264342D01*
X41408208Y-19264342D02*
X41408208Y-18978628D01*
X41408208Y-18978628D02*
X41455827Y-18883390D01*
X41455827Y-18883390D02*
X41503446Y-18835771D01*
X41503446Y-18835771D02*
X41598684Y-18788152D01*
X41598684Y-18788152D02*
X41741541Y-18788152D01*
X41741541Y-18788152D02*
X41836779Y-18835771D01*
X41836779Y-18835771D02*
X41884398Y-18883390D01*
X41884398Y-18883390D02*
X41932017Y-18978628D01*
X41932017Y-18978628D02*
X41932017Y-19264342D01*
X41932017Y-19264342D02*
X41884398Y-19359580D01*
X41884398Y-19359580D02*
X41836779Y-19407200D01*
X41836779Y-19407200D02*
X41741541Y-19454819D01*
X41741541Y-19454819D02*
X41598684Y-19454819D01*
X42265351Y-18788152D02*
X42455827Y-19454819D01*
X42455827Y-19454819D02*
X42646303Y-18978628D01*
X42646303Y-18978628D02*
X42836779Y-19454819D01*
X42836779Y-19454819D02*
X43027255Y-18788152D01*
X44693922Y-19454819D02*
X44122494Y-19454819D01*
X44408208Y-19454819D02*
X44408208Y-18454819D01*
X44408208Y-18454819D02*
X44312970Y-18597676D01*
X44312970Y-18597676D02*
X44217732Y-18692914D01*
X44217732Y-18692914D02*
X44122494Y-18740533D01*
X45027256Y-19835771D02*
X45074875Y-19788152D01*
X45074875Y-19788152D02*
X45170113Y-19645295D01*
X45170113Y-19645295D02*
X45217732Y-19550057D01*
X45217732Y-19550057D02*
X45265351Y-19407200D01*
X45265351Y-19407200D02*
X45312970Y-19169104D01*
X45312970Y-19169104D02*
X45312970Y-18978628D01*
X45312970Y-18978628D02*
X45265351Y-18740533D01*
X45265351Y-18740533D02*
X45217732Y-18597676D01*
X45217732Y-18597676D02*
X45170113Y-18502438D01*
X45170113Y-18502438D02*
X45074875Y-18359580D01*
X45074875Y-18359580D02*
X45027256Y-18311961D01*
X33408207Y-37359580D02*
X33360588Y-37407200D01*
X33360588Y-37407200D02*
X33217731Y-37454819D01*
X33217731Y-37454819D02*
X33122493Y-37454819D01*
X33122493Y-37454819D02*
X32979636Y-37407200D01*
X32979636Y-37407200D02*
X32884398Y-37311961D01*
X32884398Y-37311961D02*
X32836779Y-37216723D01*
X32836779Y-37216723D02*
X32789160Y-37026247D01*
X32789160Y-37026247D02*
X32789160Y-36883390D01*
X32789160Y-36883390D02*
X32836779Y-36692914D01*
X32836779Y-36692914D02*
X32884398Y-36597676D01*
X32884398Y-36597676D02*
X32979636Y-36502438D01*
X32979636Y-36502438D02*
X33122493Y-36454819D01*
X33122493Y-36454819D02*
X33217731Y-36454819D01*
X33217731Y-36454819D02*
X33360588Y-36502438D01*
X33360588Y-36502438D02*
X33408207Y-36550057D01*
X33836779Y-37454819D02*
X33836779Y-36454819D01*
X33836779Y-36931009D02*
X34408207Y-36931009D01*
X34408207Y-37454819D02*
X34408207Y-36454819D01*
X35360588Y-36454819D02*
X34884398Y-36454819D01*
X34884398Y-36454819D02*
X34836779Y-36931009D01*
X34836779Y-36931009D02*
X34884398Y-36883390D01*
X34884398Y-36883390D02*
X34979636Y-36835771D01*
X34979636Y-36835771D02*
X35217731Y-36835771D01*
X35217731Y-36835771D02*
X35312969Y-36883390D01*
X35312969Y-36883390D02*
X35360588Y-36931009D01*
X35360588Y-36931009D02*
X35408207Y-37026247D01*
X35408207Y-37026247D02*
X35408207Y-37264342D01*
X35408207Y-37264342D02*
X35360588Y-37359580D01*
X35360588Y-37359580D02*
X35312969Y-37407200D01*
X35312969Y-37407200D02*
X35217731Y-37454819D01*
X35217731Y-37454819D02*
X34979636Y-37454819D01*
X34979636Y-37454819D02*
X34884398Y-37407200D01*
X34884398Y-37407200D02*
X34836779Y-37359580D01*
X35836779Y-37073866D02*
X36598684Y-37073866D01*
X37217731Y-36883390D02*
X37122493Y-36835771D01*
X37122493Y-36835771D02*
X37074874Y-36788152D01*
X37074874Y-36788152D02*
X37027255Y-36692914D01*
X37027255Y-36692914D02*
X37027255Y-36645295D01*
X37027255Y-36645295D02*
X37074874Y-36550057D01*
X37074874Y-36550057D02*
X37122493Y-36502438D01*
X37122493Y-36502438D02*
X37217731Y-36454819D01*
X37217731Y-36454819D02*
X37408207Y-36454819D01*
X37408207Y-36454819D02*
X37503445Y-36502438D01*
X37503445Y-36502438D02*
X37551064Y-36550057D01*
X37551064Y-36550057D02*
X37598683Y-36645295D01*
X37598683Y-36645295D02*
X37598683Y-36692914D01*
X37598683Y-36692914D02*
X37551064Y-36788152D01*
X37551064Y-36788152D02*
X37503445Y-36835771D01*
X37503445Y-36835771D02*
X37408207Y-36883390D01*
X37408207Y-36883390D02*
X37217731Y-36883390D01*
X37217731Y-36883390D02*
X37122493Y-36931009D01*
X37122493Y-36931009D02*
X37074874Y-36978628D01*
X37074874Y-36978628D02*
X37027255Y-37073866D01*
X37027255Y-37073866D02*
X37027255Y-37264342D01*
X37027255Y-37264342D02*
X37074874Y-37359580D01*
X37074874Y-37359580D02*
X37122493Y-37407200D01*
X37122493Y-37407200D02*
X37217731Y-37454819D01*
X37217731Y-37454819D02*
X37408207Y-37454819D01*
X37408207Y-37454819D02*
X37503445Y-37407200D01*
X37503445Y-37407200D02*
X37551064Y-37359580D01*
X37551064Y-37359580D02*
X37598683Y-37264342D01*
X37598683Y-37264342D02*
X37598683Y-37073866D01*
X37598683Y-37073866D02*
X37551064Y-36978628D01*
X37551064Y-36978628D02*
X37503445Y-36931009D01*
X37503445Y-36931009D02*
X37408207Y-36883390D01*
X39074874Y-37835771D02*
X39027255Y-37788152D01*
X39027255Y-37788152D02*
X38932017Y-37645295D01*
X38932017Y-37645295D02*
X38884398Y-37550057D01*
X38884398Y-37550057D02*
X38836779Y-37407200D01*
X38836779Y-37407200D02*
X38789160Y-37169104D01*
X38789160Y-37169104D02*
X38789160Y-36978628D01*
X38789160Y-36978628D02*
X38836779Y-36740533D01*
X38836779Y-36740533D02*
X38884398Y-36597676D01*
X38884398Y-36597676D02*
X38932017Y-36502438D01*
X38932017Y-36502438D02*
X39027255Y-36359580D01*
X39027255Y-36359580D02*
X39074874Y-36311961D01*
X40027255Y-37454819D02*
X39693922Y-36978628D01*
X39455827Y-37454819D02*
X39455827Y-36454819D01*
X39455827Y-36454819D02*
X39836779Y-36454819D01*
X39836779Y-36454819D02*
X39932017Y-36502438D01*
X39932017Y-36502438D02*
X39979636Y-36550057D01*
X39979636Y-36550057D02*
X40027255Y-36645295D01*
X40027255Y-36645295D02*
X40027255Y-36788152D01*
X40027255Y-36788152D02*
X39979636Y-36883390D01*
X39979636Y-36883390D02*
X39932017Y-36931009D01*
X39932017Y-36931009D02*
X39836779Y-36978628D01*
X39836779Y-36978628D02*
X39455827Y-36978628D01*
X40598684Y-37454819D02*
X40503446Y-37407200D01*
X40503446Y-37407200D02*
X40455827Y-37359580D01*
X40455827Y-37359580D02*
X40408208Y-37264342D01*
X40408208Y-37264342D02*
X40408208Y-36978628D01*
X40408208Y-36978628D02*
X40455827Y-36883390D01*
X40455827Y-36883390D02*
X40503446Y-36835771D01*
X40503446Y-36835771D02*
X40598684Y-36788152D01*
X40598684Y-36788152D02*
X40741541Y-36788152D01*
X40741541Y-36788152D02*
X40836779Y-36835771D01*
X40836779Y-36835771D02*
X40884398Y-36883390D01*
X40884398Y-36883390D02*
X40932017Y-36978628D01*
X40932017Y-36978628D02*
X40932017Y-37264342D01*
X40932017Y-37264342D02*
X40884398Y-37359580D01*
X40884398Y-37359580D02*
X40836779Y-37407200D01*
X40836779Y-37407200D02*
X40741541Y-37454819D01*
X40741541Y-37454819D02*
X40598684Y-37454819D01*
X41265351Y-36788152D02*
X41455827Y-37454819D01*
X41455827Y-37454819D02*
X41646303Y-36978628D01*
X41646303Y-36978628D02*
X41836779Y-37454819D01*
X41836779Y-37454819D02*
X42027255Y-36788152D01*
X43122494Y-36550057D02*
X43170113Y-36502438D01*
X43170113Y-36502438D02*
X43265351Y-36454819D01*
X43265351Y-36454819D02*
X43503446Y-36454819D01*
X43503446Y-36454819D02*
X43598684Y-36502438D01*
X43598684Y-36502438D02*
X43646303Y-36550057D01*
X43646303Y-36550057D02*
X43693922Y-36645295D01*
X43693922Y-36645295D02*
X43693922Y-36740533D01*
X43693922Y-36740533D02*
X43646303Y-36883390D01*
X43646303Y-36883390D02*
X43074875Y-37454819D01*
X43074875Y-37454819D02*
X43693922Y-37454819D01*
X44027256Y-37835771D02*
X44074875Y-37788152D01*
X44074875Y-37788152D02*
X44170113Y-37645295D01*
X44170113Y-37645295D02*
X44217732Y-37550057D01*
X44217732Y-37550057D02*
X44265351Y-37407200D01*
X44265351Y-37407200D02*
X44312970Y-37169104D01*
X44312970Y-37169104D02*
X44312970Y-36978628D01*
X44312970Y-36978628D02*
X44265351Y-36740533D01*
X44265351Y-36740533D02*
X44217732Y-36597676D01*
X44217732Y-36597676D02*
X44170113Y-36502438D01*
X44170113Y-36502438D02*
X44074875Y-36359580D01*
X44074875Y-36359580D02*
X44027256Y-36311961D01*
D12*
X7542856Y-9363855D02*
X7085713Y-9363855D01*
X7314285Y-9363855D02*
X7314285Y-8563855D01*
X7314285Y-8563855D02*
X7238094Y-8678140D01*
X7238094Y-8678140D02*
X7161904Y-8754331D01*
X7161904Y-8754331D02*
X7085713Y-8792426D01*
X7885714Y-9287664D02*
X7923809Y-9325760D01*
X7923809Y-9325760D02*
X7885714Y-9363855D01*
X7885714Y-9363855D02*
X7847618Y-9325760D01*
X7847618Y-9325760D02*
X7885714Y-9287664D01*
X7885714Y-9287664D02*
X7885714Y-9363855D01*
X7885714Y-8868617D02*
X7923809Y-8906712D01*
X7923809Y-8906712D02*
X7885714Y-8944807D01*
X7885714Y-8944807D02*
X7847618Y-8906712D01*
X7847618Y-8906712D02*
X7885714Y-8868617D01*
X7885714Y-8868617D02*
X7885714Y-8944807D01*
X8647618Y-9363855D02*
X8266666Y-9363855D01*
X8266666Y-9363855D02*
X8266666Y-8563855D01*
X8799999Y-8563855D02*
X9257142Y-8563855D01*
X9028570Y-9363855D02*
X9028570Y-8563855D01*
X10704761Y-8640045D02*
X10742857Y-8601950D01*
X10742857Y-8601950D02*
X10819047Y-8563855D01*
X10819047Y-8563855D02*
X11009523Y-8563855D01*
X11009523Y-8563855D02*
X11085714Y-8601950D01*
X11085714Y-8601950D02*
X11123809Y-8640045D01*
X11123809Y-8640045D02*
X11161904Y-8716236D01*
X11161904Y-8716236D02*
X11161904Y-8792426D01*
X11161904Y-8792426D02*
X11123809Y-8906712D01*
X11123809Y-8906712D02*
X10666666Y-9363855D01*
X10666666Y-9363855D02*
X11161904Y-9363855D01*
X11504762Y-9287664D02*
X11542857Y-9325760D01*
X11542857Y-9325760D02*
X11504762Y-9363855D01*
X11504762Y-9363855D02*
X11466666Y-9325760D01*
X11466666Y-9325760D02*
X11504762Y-9287664D01*
X11504762Y-9287664D02*
X11504762Y-9363855D01*
X11504762Y-8868617D02*
X11542857Y-8906712D01*
X11542857Y-8906712D02*
X11504762Y-8944807D01*
X11504762Y-8944807D02*
X11466666Y-8906712D01*
X11466666Y-8906712D02*
X11504762Y-8868617D01*
X11504762Y-8868617D02*
X11504762Y-8944807D01*
X12342857Y-9363855D02*
X12076190Y-8982902D01*
X11885714Y-9363855D02*
X11885714Y-8563855D01*
X11885714Y-8563855D02*
X12190476Y-8563855D01*
X12190476Y-8563855D02*
X12266666Y-8601950D01*
X12266666Y-8601950D02*
X12304761Y-8640045D01*
X12304761Y-8640045D02*
X12342857Y-8716236D01*
X12342857Y-8716236D02*
X12342857Y-8830521D01*
X12342857Y-8830521D02*
X12304761Y-8906712D01*
X12304761Y-8906712D02*
X12266666Y-8944807D01*
X12266666Y-8944807D02*
X12190476Y-8982902D01*
X12190476Y-8982902D02*
X11885714Y-8982902D01*
X12571428Y-8563855D02*
X13028571Y-8563855D01*
X12799999Y-9363855D02*
X12799999Y-8563855D01*
X14438095Y-8563855D02*
X14933333Y-8563855D01*
X14933333Y-8563855D02*
X14666667Y-8868617D01*
X14666667Y-8868617D02*
X14780952Y-8868617D01*
X14780952Y-8868617D02*
X14857143Y-8906712D01*
X14857143Y-8906712D02*
X14895238Y-8944807D01*
X14895238Y-8944807D02*
X14933333Y-9020998D01*
X14933333Y-9020998D02*
X14933333Y-9211474D01*
X14933333Y-9211474D02*
X14895238Y-9287664D01*
X14895238Y-9287664D02*
X14857143Y-9325760D01*
X14857143Y-9325760D02*
X14780952Y-9363855D01*
X14780952Y-9363855D02*
X14552381Y-9363855D01*
X14552381Y-9363855D02*
X14476190Y-9325760D01*
X14476190Y-9325760D02*
X14438095Y-9287664D01*
X15276191Y-9287664D02*
X15314286Y-9325760D01*
X15314286Y-9325760D02*
X15276191Y-9363855D01*
X15276191Y-9363855D02*
X15238095Y-9325760D01*
X15238095Y-9325760D02*
X15276191Y-9287664D01*
X15276191Y-9287664D02*
X15276191Y-9363855D01*
X15276191Y-8868617D02*
X15314286Y-8906712D01*
X15314286Y-8906712D02*
X15276191Y-8944807D01*
X15276191Y-8944807D02*
X15238095Y-8906712D01*
X15238095Y-8906712D02*
X15276191Y-8868617D01*
X15276191Y-8868617D02*
X15276191Y-8944807D01*
X15657143Y-9363855D02*
X15657143Y-8563855D01*
X15657143Y-8944807D02*
X16114286Y-8944807D01*
X16114286Y-9363855D02*
X16114286Y-8563855D01*
X16761904Y-8944807D02*
X16876190Y-8982902D01*
X16876190Y-8982902D02*
X16914285Y-9020998D01*
X16914285Y-9020998D02*
X16952381Y-9097188D01*
X16952381Y-9097188D02*
X16952381Y-9211474D01*
X16952381Y-9211474D02*
X16914285Y-9287664D01*
X16914285Y-9287664D02*
X16876190Y-9325760D01*
X16876190Y-9325760D02*
X16800000Y-9363855D01*
X16800000Y-9363855D02*
X16495238Y-9363855D01*
X16495238Y-9363855D02*
X16495238Y-8563855D01*
X16495238Y-8563855D02*
X16761904Y-8563855D01*
X16761904Y-8563855D02*
X16838095Y-8601950D01*
X16838095Y-8601950D02*
X16876190Y-8640045D01*
X16876190Y-8640045D02*
X16914285Y-8716236D01*
X16914285Y-8716236D02*
X16914285Y-8792426D01*
X16914285Y-8792426D02*
X16876190Y-8868617D01*
X16876190Y-8868617D02*
X16838095Y-8906712D01*
X16838095Y-8906712D02*
X16761904Y-8944807D01*
X16761904Y-8944807D02*
X16495238Y-8944807D01*
X18857143Y-8830521D02*
X18857143Y-9363855D01*
X18666667Y-8525760D02*
X18476190Y-9097188D01*
X18476190Y-9097188D02*
X18971429Y-9097188D01*
X19276191Y-9287664D02*
X19314286Y-9325760D01*
X19314286Y-9325760D02*
X19276191Y-9363855D01*
X19276191Y-9363855D02*
X19238095Y-9325760D01*
X19238095Y-9325760D02*
X19276191Y-9287664D01*
X19276191Y-9287664D02*
X19276191Y-9363855D01*
X19276191Y-8868617D02*
X19314286Y-8906712D01*
X19314286Y-8906712D02*
X19276191Y-8944807D01*
X19276191Y-8944807D02*
X19238095Y-8906712D01*
X19238095Y-8906712D02*
X19276191Y-8868617D01*
X19276191Y-8868617D02*
X19276191Y-8944807D01*
X19657143Y-9363855D02*
X19657143Y-8563855D01*
X19657143Y-8563855D02*
X19961905Y-8563855D01*
X19961905Y-8563855D02*
X20038095Y-8601950D01*
X20038095Y-8601950D02*
X20076190Y-8640045D01*
X20076190Y-8640045D02*
X20114286Y-8716236D01*
X20114286Y-8716236D02*
X20114286Y-8830521D01*
X20114286Y-8830521D02*
X20076190Y-8906712D01*
X20076190Y-8906712D02*
X20038095Y-8944807D01*
X20038095Y-8944807D02*
X19961905Y-8982902D01*
X19961905Y-8982902D02*
X19657143Y-8982902D01*
X20457143Y-9363855D02*
X20457143Y-8563855D01*
X20914286Y-9363855D02*
X20571428Y-8906712D01*
X20914286Y-8563855D02*
X20457143Y-9020998D01*
X5219047Y-9763855D02*
X4838095Y-9763855D01*
X4838095Y-9763855D02*
X4799999Y-10144807D01*
X4799999Y-10144807D02*
X4838095Y-10106712D01*
X4838095Y-10106712D02*
X4914285Y-10068617D01*
X4914285Y-10068617D02*
X5104761Y-10068617D01*
X5104761Y-10068617D02*
X5180952Y-10106712D01*
X5180952Y-10106712D02*
X5219047Y-10144807D01*
X5219047Y-10144807D02*
X5257142Y-10220998D01*
X5257142Y-10220998D02*
X5257142Y-10411474D01*
X5257142Y-10411474D02*
X5219047Y-10487664D01*
X5219047Y-10487664D02*
X5180952Y-10525760D01*
X5180952Y-10525760D02*
X5104761Y-10563855D01*
X5104761Y-10563855D02*
X4914285Y-10563855D01*
X4914285Y-10563855D02*
X4838095Y-10525760D01*
X4838095Y-10525760D02*
X4799999Y-10487664D01*
X5600000Y-10487664D02*
X5638095Y-10525760D01*
X5638095Y-10525760D02*
X5600000Y-10563855D01*
X5600000Y-10563855D02*
X5561904Y-10525760D01*
X5561904Y-10525760D02*
X5600000Y-10487664D01*
X5600000Y-10487664D02*
X5600000Y-10563855D01*
X5600000Y-10068617D02*
X5638095Y-10106712D01*
X5638095Y-10106712D02*
X5600000Y-10144807D01*
X5600000Y-10144807D02*
X5561904Y-10106712D01*
X5561904Y-10106712D02*
X5600000Y-10068617D01*
X5600000Y-10068617D02*
X5600000Y-10144807D01*
X5980952Y-10563855D02*
X5980952Y-9763855D01*
X5980952Y-10144807D02*
X6438095Y-10144807D01*
X6438095Y-10563855D02*
X6438095Y-9763855D01*
X6742856Y-9763855D02*
X7276190Y-9763855D01*
X7276190Y-9763855D02*
X6742856Y-10563855D01*
X6742856Y-10563855D02*
X7276190Y-10563855D01*
X9142857Y-9763855D02*
X8990476Y-9763855D01*
X8990476Y-9763855D02*
X8914285Y-9801950D01*
X8914285Y-9801950D02*
X8876190Y-9840045D01*
X8876190Y-9840045D02*
X8800000Y-9954331D01*
X8800000Y-9954331D02*
X8761904Y-10106712D01*
X8761904Y-10106712D02*
X8761904Y-10411474D01*
X8761904Y-10411474D02*
X8800000Y-10487664D01*
X8800000Y-10487664D02*
X8838095Y-10525760D01*
X8838095Y-10525760D02*
X8914285Y-10563855D01*
X8914285Y-10563855D02*
X9066666Y-10563855D01*
X9066666Y-10563855D02*
X9142857Y-10525760D01*
X9142857Y-10525760D02*
X9180952Y-10487664D01*
X9180952Y-10487664D02*
X9219047Y-10411474D01*
X9219047Y-10411474D02*
X9219047Y-10220998D01*
X9219047Y-10220998D02*
X9180952Y-10144807D01*
X9180952Y-10144807D02*
X9142857Y-10106712D01*
X9142857Y-10106712D02*
X9066666Y-10068617D01*
X9066666Y-10068617D02*
X8914285Y-10068617D01*
X8914285Y-10068617D02*
X8838095Y-10106712D01*
X8838095Y-10106712D02*
X8800000Y-10144807D01*
X8800000Y-10144807D02*
X8761904Y-10220998D01*
X9561905Y-10487664D02*
X9600000Y-10525760D01*
X9600000Y-10525760D02*
X9561905Y-10563855D01*
X9561905Y-10563855D02*
X9523809Y-10525760D01*
X9523809Y-10525760D02*
X9561905Y-10487664D01*
X9561905Y-10487664D02*
X9561905Y-10563855D01*
X9561905Y-10068617D02*
X9600000Y-10106712D01*
X9600000Y-10106712D02*
X9561905Y-10144807D01*
X9561905Y-10144807D02*
X9523809Y-10106712D01*
X9523809Y-10106712D02*
X9561905Y-10068617D01*
X9561905Y-10068617D02*
X9561905Y-10144807D01*
X10400000Y-10563855D02*
X10133333Y-10182902D01*
X9942857Y-10563855D02*
X9942857Y-9763855D01*
X9942857Y-9763855D02*
X10247619Y-9763855D01*
X10247619Y-9763855D02*
X10323809Y-9801950D01*
X10323809Y-9801950D02*
X10361904Y-9840045D01*
X10361904Y-9840045D02*
X10400000Y-9916236D01*
X10400000Y-9916236D02*
X10400000Y-10030521D01*
X10400000Y-10030521D02*
X10361904Y-10106712D01*
X10361904Y-10106712D02*
X10323809Y-10144807D01*
X10323809Y-10144807D02*
X10247619Y-10182902D01*
X10247619Y-10182902D02*
X9942857Y-10182902D01*
X10628571Y-9763855D02*
X10895238Y-10563855D01*
X10895238Y-10563855D02*
X11161904Y-9763855D01*
X12571428Y-9763855D02*
X13104762Y-9763855D01*
X13104762Y-9763855D02*
X12761904Y-10563855D01*
X13409524Y-10487664D02*
X13447619Y-10525760D01*
X13447619Y-10525760D02*
X13409524Y-10563855D01*
X13409524Y-10563855D02*
X13371428Y-10525760D01*
X13371428Y-10525760D02*
X13409524Y-10487664D01*
X13409524Y-10487664D02*
X13409524Y-10563855D01*
X13409524Y-10068617D02*
X13447619Y-10106712D01*
X13447619Y-10106712D02*
X13409524Y-10144807D01*
X13409524Y-10144807D02*
X13371428Y-10106712D01*
X13371428Y-10106712D02*
X13409524Y-10068617D01*
X13409524Y-10068617D02*
X13409524Y-10144807D01*
X13790476Y-10563855D02*
X13790476Y-9763855D01*
X14552380Y-10563855D02*
X14171428Y-10563855D01*
X14171428Y-10563855D02*
X14171428Y-9763855D01*
X16152380Y-10106712D02*
X16076190Y-10068617D01*
X16076190Y-10068617D02*
X16038095Y-10030521D01*
X16038095Y-10030521D02*
X15999999Y-9954331D01*
X15999999Y-9954331D02*
X15999999Y-9916236D01*
X15999999Y-9916236D02*
X16038095Y-9840045D01*
X16038095Y-9840045D02*
X16076190Y-9801950D01*
X16076190Y-9801950D02*
X16152380Y-9763855D01*
X16152380Y-9763855D02*
X16304761Y-9763855D01*
X16304761Y-9763855D02*
X16380952Y-9801950D01*
X16380952Y-9801950D02*
X16419047Y-9840045D01*
X16419047Y-9840045D02*
X16457142Y-9916236D01*
X16457142Y-9916236D02*
X16457142Y-9954331D01*
X16457142Y-9954331D02*
X16419047Y-10030521D01*
X16419047Y-10030521D02*
X16380952Y-10068617D01*
X16380952Y-10068617D02*
X16304761Y-10106712D01*
X16304761Y-10106712D02*
X16152380Y-10106712D01*
X16152380Y-10106712D02*
X16076190Y-10144807D01*
X16076190Y-10144807D02*
X16038095Y-10182902D01*
X16038095Y-10182902D02*
X15999999Y-10259093D01*
X15999999Y-10259093D02*
X15999999Y-10411474D01*
X15999999Y-10411474D02*
X16038095Y-10487664D01*
X16038095Y-10487664D02*
X16076190Y-10525760D01*
X16076190Y-10525760D02*
X16152380Y-10563855D01*
X16152380Y-10563855D02*
X16304761Y-10563855D01*
X16304761Y-10563855D02*
X16380952Y-10525760D01*
X16380952Y-10525760D02*
X16419047Y-10487664D01*
X16419047Y-10487664D02*
X16457142Y-10411474D01*
X16457142Y-10411474D02*
X16457142Y-10259093D01*
X16457142Y-10259093D02*
X16419047Y-10182902D01*
X16419047Y-10182902D02*
X16380952Y-10144807D01*
X16380952Y-10144807D02*
X16304761Y-10106712D01*
X16800000Y-10487664D02*
X16838095Y-10525760D01*
X16838095Y-10525760D02*
X16800000Y-10563855D01*
X16800000Y-10563855D02*
X16761904Y-10525760D01*
X16761904Y-10525760D02*
X16800000Y-10487664D01*
X16800000Y-10487664D02*
X16800000Y-10563855D01*
X16800000Y-10068617D02*
X16838095Y-10106712D01*
X16838095Y-10106712D02*
X16800000Y-10144807D01*
X16800000Y-10144807D02*
X16761904Y-10106712D01*
X16761904Y-10106712D02*
X16800000Y-10068617D01*
X16800000Y-10068617D02*
X16800000Y-10144807D01*
X17142856Y-10525760D02*
X17257142Y-10563855D01*
X17257142Y-10563855D02*
X17447618Y-10563855D01*
X17447618Y-10563855D02*
X17523809Y-10525760D01*
X17523809Y-10525760D02*
X17561904Y-10487664D01*
X17561904Y-10487664D02*
X17599999Y-10411474D01*
X17599999Y-10411474D02*
X17599999Y-10335283D01*
X17599999Y-10335283D02*
X17561904Y-10259093D01*
X17561904Y-10259093D02*
X17523809Y-10220998D01*
X17523809Y-10220998D02*
X17447618Y-10182902D01*
X17447618Y-10182902D02*
X17295237Y-10144807D01*
X17295237Y-10144807D02*
X17219047Y-10106712D01*
X17219047Y-10106712D02*
X17180952Y-10068617D01*
X17180952Y-10068617D02*
X17142856Y-9992426D01*
X17142856Y-9992426D02*
X17142856Y-9916236D01*
X17142856Y-9916236D02*
X17180952Y-9840045D01*
X17180952Y-9840045D02*
X17219047Y-9801950D01*
X17219047Y-9801950D02*
X17295237Y-9763855D01*
X17295237Y-9763855D02*
X17485714Y-9763855D01*
X17485714Y-9763855D02*
X17599999Y-9801950D01*
X17942857Y-10563855D02*
X17942857Y-9763855D01*
X17942857Y-9763855D02*
X18247619Y-9763855D01*
X18247619Y-9763855D02*
X18323809Y-9801950D01*
X18323809Y-9801950D02*
X18361904Y-9840045D01*
X18361904Y-9840045D02*
X18400000Y-9916236D01*
X18400000Y-9916236D02*
X18400000Y-10030521D01*
X18400000Y-10030521D02*
X18361904Y-10106712D01*
X18361904Y-10106712D02*
X18323809Y-10144807D01*
X18323809Y-10144807D02*
X18247619Y-10182902D01*
X18247619Y-10182902D02*
X17942857Y-10182902D01*
X20000000Y-10563855D02*
X20152381Y-10563855D01*
X20152381Y-10563855D02*
X20228571Y-10525760D01*
X20228571Y-10525760D02*
X20266667Y-10487664D01*
X20266667Y-10487664D02*
X20342857Y-10373379D01*
X20342857Y-10373379D02*
X20380952Y-10220998D01*
X20380952Y-10220998D02*
X20380952Y-9916236D01*
X20380952Y-9916236D02*
X20342857Y-9840045D01*
X20342857Y-9840045D02*
X20304762Y-9801950D01*
X20304762Y-9801950D02*
X20228571Y-9763855D01*
X20228571Y-9763855D02*
X20076190Y-9763855D01*
X20076190Y-9763855D02*
X20000000Y-9801950D01*
X20000000Y-9801950D02*
X19961905Y-9840045D01*
X19961905Y-9840045D02*
X19923809Y-9916236D01*
X19923809Y-9916236D02*
X19923809Y-10106712D01*
X19923809Y-10106712D02*
X19961905Y-10182902D01*
X19961905Y-10182902D02*
X20000000Y-10220998D01*
X20000000Y-10220998D02*
X20076190Y-10259093D01*
X20076190Y-10259093D02*
X20228571Y-10259093D01*
X20228571Y-10259093D02*
X20304762Y-10220998D01*
X20304762Y-10220998D02*
X20342857Y-10182902D01*
X20342857Y-10182902D02*
X20380952Y-10106712D01*
X20723810Y-10487664D02*
X20761905Y-10525760D01*
X20761905Y-10525760D02*
X20723810Y-10563855D01*
X20723810Y-10563855D02*
X20685714Y-10525760D01*
X20685714Y-10525760D02*
X20723810Y-10487664D01*
X20723810Y-10487664D02*
X20723810Y-10563855D01*
X20723810Y-10068617D02*
X20761905Y-10106712D01*
X20761905Y-10106712D02*
X20723810Y-10144807D01*
X20723810Y-10144807D02*
X20685714Y-10106712D01*
X20685714Y-10106712D02*
X20723810Y-10068617D01*
X20723810Y-10068617D02*
X20723810Y-10144807D01*
X21523809Y-9801950D02*
X21447619Y-9763855D01*
X21447619Y-9763855D02*
X21333333Y-9763855D01*
X21333333Y-9763855D02*
X21219047Y-9801950D01*
X21219047Y-9801950D02*
X21142857Y-9878140D01*
X21142857Y-9878140D02*
X21104762Y-9954331D01*
X21104762Y-9954331D02*
X21066666Y-10106712D01*
X21066666Y-10106712D02*
X21066666Y-10220998D01*
X21066666Y-10220998D02*
X21104762Y-10373379D01*
X21104762Y-10373379D02*
X21142857Y-10449569D01*
X21142857Y-10449569D02*
X21219047Y-10525760D01*
X21219047Y-10525760D02*
X21333333Y-10563855D01*
X21333333Y-10563855D02*
X21409524Y-10563855D01*
X21409524Y-10563855D02*
X21523809Y-10525760D01*
X21523809Y-10525760D02*
X21561905Y-10487664D01*
X21561905Y-10487664D02*
X21561905Y-10220998D01*
X21561905Y-10220998D02*
X21409524Y-10220998D01*
X21904762Y-10563855D02*
X21904762Y-9763855D01*
X21904762Y-9763855D02*
X22361905Y-10563855D01*
X22361905Y-10563855D02*
X22361905Y-9763855D01*
X22742857Y-10563855D02*
X22742857Y-9763855D01*
X22742857Y-9763855D02*
X22933333Y-9763855D01*
X22933333Y-9763855D02*
X23047619Y-9801950D01*
X23047619Y-9801950D02*
X23123809Y-9878140D01*
X23123809Y-9878140D02*
X23161904Y-9954331D01*
X23161904Y-9954331D02*
X23200000Y-10106712D01*
X23200000Y-10106712D02*
X23200000Y-10220998D01*
X23200000Y-10220998D02*
X23161904Y-10373379D01*
X23161904Y-10373379D02*
X23123809Y-10449569D01*
X23123809Y-10449569D02*
X23047619Y-10525760D01*
X23047619Y-10525760D02*
X22933333Y-10563855D01*
X22933333Y-10563855D02*
X22742857Y-10563855D01*
D10*
X69713408Y-896895D02*
X69446741Y-515942D01*
X69256265Y-896895D02*
X69256265Y-96895D01*
X69256265Y-96895D02*
X69561027Y-96895D01*
X69561027Y-96895D02*
X69637217Y-134990D01*
X69637217Y-134990D02*
X69675312Y-173085D01*
X69675312Y-173085D02*
X69713408Y-249276D01*
X69713408Y-249276D02*
X69713408Y-363561D01*
X69713408Y-363561D02*
X69675312Y-439752D01*
X69675312Y-439752D02*
X69637217Y-477847D01*
X69637217Y-477847D02*
X69561027Y-515942D01*
X69561027Y-515942D02*
X69256265Y-515942D01*
X69941979Y-96895D02*
X70399122Y-96895D01*
X70170550Y-896895D02*
X70170550Y-96895D01*
D11*
X48357142Y-7804819D02*
X48023809Y-7328628D01*
X47785714Y-7804819D02*
X47785714Y-6804819D01*
X47785714Y-6804819D02*
X48166666Y-6804819D01*
X48166666Y-6804819D02*
X48261904Y-6852438D01*
X48261904Y-6852438D02*
X48309523Y-6900057D01*
X48309523Y-6900057D02*
X48357142Y-6995295D01*
X48357142Y-6995295D02*
X48357142Y-7138152D01*
X48357142Y-7138152D02*
X48309523Y-7233390D01*
X48309523Y-7233390D02*
X48261904Y-7281009D01*
X48261904Y-7281009D02*
X48166666Y-7328628D01*
X48166666Y-7328628D02*
X47785714Y-7328628D01*
X49309523Y-7804819D02*
X48738095Y-7804819D01*
X49023809Y-7804819D02*
X49023809Y-6804819D01*
X49023809Y-6804819D02*
X48928571Y-6947676D01*
X48928571Y-6947676D02*
X48833333Y-7042914D01*
X48833333Y-7042914D02*
X48738095Y-7090533D01*
X49880952Y-7233390D02*
X49785714Y-7185771D01*
X49785714Y-7185771D02*
X49738095Y-7138152D01*
X49738095Y-7138152D02*
X49690476Y-7042914D01*
X49690476Y-7042914D02*
X49690476Y-6995295D01*
X49690476Y-6995295D02*
X49738095Y-6900057D01*
X49738095Y-6900057D02*
X49785714Y-6852438D01*
X49785714Y-6852438D02*
X49880952Y-6804819D01*
X49880952Y-6804819D02*
X50071428Y-6804819D01*
X50071428Y-6804819D02*
X50166666Y-6852438D01*
X50166666Y-6852438D02*
X50214285Y-6900057D01*
X50214285Y-6900057D02*
X50261904Y-6995295D01*
X50261904Y-6995295D02*
X50261904Y-7042914D01*
X50261904Y-7042914D02*
X50214285Y-7138152D01*
X50214285Y-7138152D02*
X50166666Y-7185771D01*
X50166666Y-7185771D02*
X50071428Y-7233390D01*
X50071428Y-7233390D02*
X49880952Y-7233390D01*
X49880952Y-7233390D02*
X49785714Y-7281009D01*
X49785714Y-7281009D02*
X49738095Y-7328628D01*
X49738095Y-7328628D02*
X49690476Y-7423866D01*
X49690476Y-7423866D02*
X49690476Y-7614342D01*
X49690476Y-7614342D02*
X49738095Y-7709580D01*
X49738095Y-7709580D02*
X49785714Y-7757200D01*
X49785714Y-7757200D02*
X49880952Y-7804819D01*
X49880952Y-7804819D02*
X50071428Y-7804819D01*
X50071428Y-7804819D02*
X50166666Y-7757200D01*
X50166666Y-7757200D02*
X50214285Y-7709580D01*
X50214285Y-7709580D02*
X50261904Y-7614342D01*
X50261904Y-7614342D02*
X50261904Y-7423866D01*
X50261904Y-7423866D02*
X50214285Y-7328628D01*
X50214285Y-7328628D02*
X50166666Y-7281009D01*
X50166666Y-7281009D02*
X50071428Y-7233390D01*
X20738095Y-36454819D02*
X20738095Y-37264342D01*
X20738095Y-37264342D02*
X20785714Y-37359580D01*
X20785714Y-37359580D02*
X20833333Y-37407200D01*
X20833333Y-37407200D02*
X20928571Y-37454819D01*
X20928571Y-37454819D02*
X21119047Y-37454819D01*
X21119047Y-37454819D02*
X21214285Y-37407200D01*
X21214285Y-37407200D02*
X21261904Y-37359580D01*
X21261904Y-37359580D02*
X21309523Y-37264342D01*
X21309523Y-37264342D02*
X21309523Y-36454819D01*
X22261904Y-36454819D02*
X21785714Y-36454819D01*
X21785714Y-36454819D02*
X21738095Y-36931009D01*
X21738095Y-36931009D02*
X21785714Y-36883390D01*
X21785714Y-36883390D02*
X21880952Y-36835771D01*
X21880952Y-36835771D02*
X22119047Y-36835771D01*
X22119047Y-36835771D02*
X22214285Y-36883390D01*
X22214285Y-36883390D02*
X22261904Y-36931009D01*
X22261904Y-36931009D02*
X22309523Y-37026247D01*
X22309523Y-37026247D02*
X22309523Y-37264342D01*
X22309523Y-37264342D02*
X22261904Y-37359580D01*
X22261904Y-37359580D02*
X22214285Y-37407200D01*
X22214285Y-37407200D02*
X22119047Y-37454819D01*
X22119047Y-37454819D02*
X21880952Y-37454819D01*
X21880952Y-37454819D02*
X21785714Y-37407200D01*
X21785714Y-37407200D02*
X21738095Y-37359580D01*
X52357142Y-41804819D02*
X52023809Y-41328628D01*
X51785714Y-41804819D02*
X51785714Y-40804819D01*
X51785714Y-40804819D02*
X52166666Y-40804819D01*
X52166666Y-40804819D02*
X52261904Y-40852438D01*
X52261904Y-40852438D02*
X52309523Y-40900057D01*
X52309523Y-40900057D02*
X52357142Y-40995295D01*
X52357142Y-40995295D02*
X52357142Y-41138152D01*
X52357142Y-41138152D02*
X52309523Y-41233390D01*
X52309523Y-41233390D02*
X52261904Y-41281009D01*
X52261904Y-41281009D02*
X52166666Y-41328628D01*
X52166666Y-41328628D02*
X51785714Y-41328628D01*
X53309523Y-41804819D02*
X52738095Y-41804819D01*
X53023809Y-41804819D02*
X53023809Y-40804819D01*
X53023809Y-40804819D02*
X52928571Y-40947676D01*
X52928571Y-40947676D02*
X52833333Y-41042914D01*
X52833333Y-41042914D02*
X52738095Y-41090533D01*
X54166666Y-40804819D02*
X53976190Y-40804819D01*
X53976190Y-40804819D02*
X53880952Y-40852438D01*
X53880952Y-40852438D02*
X53833333Y-40900057D01*
X53833333Y-40900057D02*
X53738095Y-41042914D01*
X53738095Y-41042914D02*
X53690476Y-41233390D01*
X53690476Y-41233390D02*
X53690476Y-41614342D01*
X53690476Y-41614342D02*
X53738095Y-41709580D01*
X53738095Y-41709580D02*
X53785714Y-41757200D01*
X53785714Y-41757200D02*
X53880952Y-41804819D01*
X53880952Y-41804819D02*
X54071428Y-41804819D01*
X54071428Y-41804819D02*
X54166666Y-41757200D01*
X54166666Y-41757200D02*
X54214285Y-41709580D01*
X54214285Y-41709580D02*
X54261904Y-41614342D01*
X54261904Y-41614342D02*
X54261904Y-41376247D01*
X54261904Y-41376247D02*
X54214285Y-41281009D01*
X54214285Y-41281009D02*
X54166666Y-41233390D01*
X54166666Y-41233390D02*
X54071428Y-41185771D01*
X54071428Y-41185771D02*
X53880952Y-41185771D01*
X53880952Y-41185771D02*
X53785714Y-41233390D01*
X53785714Y-41233390D02*
X53738095Y-41281009D01*
X53738095Y-41281009D02*
X53690476Y-41376247D01*
X36261905Y-44954819D02*
X36261905Y-43954819D01*
X36261905Y-43954819D02*
X36500000Y-43954819D01*
X36500000Y-43954819D02*
X36642857Y-44002438D01*
X36642857Y-44002438D02*
X36738095Y-44097676D01*
X36738095Y-44097676D02*
X36785714Y-44192914D01*
X36785714Y-44192914D02*
X36833333Y-44383390D01*
X36833333Y-44383390D02*
X36833333Y-44526247D01*
X36833333Y-44526247D02*
X36785714Y-44716723D01*
X36785714Y-44716723D02*
X36738095Y-44811961D01*
X36738095Y-44811961D02*
X36642857Y-44907200D01*
X36642857Y-44907200D02*
X36500000Y-44954819D01*
X36500000Y-44954819D02*
X36261905Y-44954819D01*
X37404762Y-44383390D02*
X37309524Y-44335771D01*
X37309524Y-44335771D02*
X37261905Y-44288152D01*
X37261905Y-44288152D02*
X37214286Y-44192914D01*
X37214286Y-44192914D02*
X37214286Y-44145295D01*
X37214286Y-44145295D02*
X37261905Y-44050057D01*
X37261905Y-44050057D02*
X37309524Y-44002438D01*
X37309524Y-44002438D02*
X37404762Y-43954819D01*
X37404762Y-43954819D02*
X37595238Y-43954819D01*
X37595238Y-43954819D02*
X37690476Y-44002438D01*
X37690476Y-44002438D02*
X37738095Y-44050057D01*
X37738095Y-44050057D02*
X37785714Y-44145295D01*
X37785714Y-44145295D02*
X37785714Y-44192914D01*
X37785714Y-44192914D02*
X37738095Y-44288152D01*
X37738095Y-44288152D02*
X37690476Y-44335771D01*
X37690476Y-44335771D02*
X37595238Y-44383390D01*
X37595238Y-44383390D02*
X37404762Y-44383390D01*
X37404762Y-44383390D02*
X37309524Y-44431009D01*
X37309524Y-44431009D02*
X37261905Y-44478628D01*
X37261905Y-44478628D02*
X37214286Y-44573866D01*
X37214286Y-44573866D02*
X37214286Y-44764342D01*
X37214286Y-44764342D02*
X37261905Y-44859580D01*
X37261905Y-44859580D02*
X37309524Y-44907200D01*
X37309524Y-44907200D02*
X37404762Y-44954819D01*
X37404762Y-44954819D02*
X37595238Y-44954819D01*
X37595238Y-44954819D02*
X37690476Y-44907200D01*
X37690476Y-44907200D02*
X37738095Y-44859580D01*
X37738095Y-44859580D02*
X37785714Y-44764342D01*
X37785714Y-44764342D02*
X37785714Y-44573866D01*
X37785714Y-44573866D02*
X37738095Y-44478628D01*
X37738095Y-44478628D02*
X37690476Y-44431009D01*
X37690476Y-44431009D02*
X37595238Y-44383390D01*
X14833333Y-34804819D02*
X14500000Y-34328628D01*
X14261905Y-34804819D02*
X14261905Y-33804819D01*
X14261905Y-33804819D02*
X14642857Y-33804819D01*
X14642857Y-33804819D02*
X14738095Y-33852438D01*
X14738095Y-33852438D02*
X14785714Y-33900057D01*
X14785714Y-33900057D02*
X14833333Y-33995295D01*
X14833333Y-33995295D02*
X14833333Y-34138152D01*
X14833333Y-34138152D02*
X14785714Y-34233390D01*
X14785714Y-34233390D02*
X14738095Y-34281009D01*
X14738095Y-34281009D02*
X14642857Y-34328628D01*
X14642857Y-34328628D02*
X14261905Y-34328628D01*
X15738095Y-33804819D02*
X15261905Y-33804819D01*
X15261905Y-33804819D02*
X15214286Y-34281009D01*
X15214286Y-34281009D02*
X15261905Y-34233390D01*
X15261905Y-34233390D02*
X15357143Y-34185771D01*
X15357143Y-34185771D02*
X15595238Y-34185771D01*
X15595238Y-34185771D02*
X15690476Y-34233390D01*
X15690476Y-34233390D02*
X15738095Y-34281009D01*
X15738095Y-34281009D02*
X15785714Y-34376247D01*
X15785714Y-34376247D02*
X15785714Y-34614342D01*
X15785714Y-34614342D02*
X15738095Y-34709580D01*
X15738095Y-34709580D02*
X15690476Y-34757200D01*
X15690476Y-34757200D02*
X15595238Y-34804819D01*
X15595238Y-34804819D02*
X15357143Y-34804819D01*
X15357143Y-34804819D02*
X15261905Y-34757200D01*
X15261905Y-34757200D02*
X15214286Y-34709580D01*
X7261905Y-33954819D02*
X7261905Y-32954819D01*
X7261905Y-32954819D02*
X7500000Y-32954819D01*
X7500000Y-32954819D02*
X7642857Y-33002438D01*
X7642857Y-33002438D02*
X7738095Y-33097676D01*
X7738095Y-33097676D02*
X7785714Y-33192914D01*
X7785714Y-33192914D02*
X7833333Y-33383390D01*
X7833333Y-33383390D02*
X7833333Y-33526247D01*
X7833333Y-33526247D02*
X7785714Y-33716723D01*
X7785714Y-33716723D02*
X7738095Y-33811961D01*
X7738095Y-33811961D02*
X7642857Y-33907200D01*
X7642857Y-33907200D02*
X7500000Y-33954819D01*
X7500000Y-33954819D02*
X7261905Y-33954819D01*
X8738095Y-32954819D02*
X8261905Y-32954819D01*
X8261905Y-32954819D02*
X8214286Y-33431009D01*
X8214286Y-33431009D02*
X8261905Y-33383390D01*
X8261905Y-33383390D02*
X8357143Y-33335771D01*
X8357143Y-33335771D02*
X8595238Y-33335771D01*
X8595238Y-33335771D02*
X8690476Y-33383390D01*
X8690476Y-33383390D02*
X8738095Y-33431009D01*
X8738095Y-33431009D02*
X8785714Y-33526247D01*
X8785714Y-33526247D02*
X8785714Y-33764342D01*
X8785714Y-33764342D02*
X8738095Y-33859580D01*
X8738095Y-33859580D02*
X8690476Y-33907200D01*
X8690476Y-33907200D02*
X8595238Y-33954819D01*
X8595238Y-33954819D02*
X8357143Y-33954819D01*
X8357143Y-33954819D02*
X8261905Y-33907200D01*
X8261905Y-33907200D02*
X8214286Y-33859580D01*
X62738095Y-47454819D02*
X62738095Y-48264342D01*
X62738095Y-48264342D02*
X62785714Y-48359580D01*
X62785714Y-48359580D02*
X62833333Y-48407200D01*
X62833333Y-48407200D02*
X62928571Y-48454819D01*
X62928571Y-48454819D02*
X63119047Y-48454819D01*
X63119047Y-48454819D02*
X63214285Y-48407200D01*
X63214285Y-48407200D02*
X63261904Y-48359580D01*
X63261904Y-48359580D02*
X63309523Y-48264342D01*
X63309523Y-48264342D02*
X63309523Y-47454819D01*
X63928571Y-47883390D02*
X63833333Y-47835771D01*
X63833333Y-47835771D02*
X63785714Y-47788152D01*
X63785714Y-47788152D02*
X63738095Y-47692914D01*
X63738095Y-47692914D02*
X63738095Y-47645295D01*
X63738095Y-47645295D02*
X63785714Y-47550057D01*
X63785714Y-47550057D02*
X63833333Y-47502438D01*
X63833333Y-47502438D02*
X63928571Y-47454819D01*
X63928571Y-47454819D02*
X64119047Y-47454819D01*
X64119047Y-47454819D02*
X64214285Y-47502438D01*
X64214285Y-47502438D02*
X64261904Y-47550057D01*
X64261904Y-47550057D02*
X64309523Y-47645295D01*
X64309523Y-47645295D02*
X64309523Y-47692914D01*
X64309523Y-47692914D02*
X64261904Y-47788152D01*
X64261904Y-47788152D02*
X64214285Y-47835771D01*
X64214285Y-47835771D02*
X64119047Y-47883390D01*
X64119047Y-47883390D02*
X63928571Y-47883390D01*
X63928571Y-47883390D02*
X63833333Y-47931009D01*
X63833333Y-47931009D02*
X63785714Y-47978628D01*
X63785714Y-47978628D02*
X63738095Y-48073866D01*
X63738095Y-48073866D02*
X63738095Y-48264342D01*
X63738095Y-48264342D02*
X63785714Y-48359580D01*
X63785714Y-48359580D02*
X63833333Y-48407200D01*
X63833333Y-48407200D02*
X63928571Y-48454819D01*
X63928571Y-48454819D02*
X64119047Y-48454819D01*
X64119047Y-48454819D02*
X64214285Y-48407200D01*
X64214285Y-48407200D02*
X64261904Y-48359580D01*
X64261904Y-48359580D02*
X64309523Y-48264342D01*
X64309523Y-48264342D02*
X64309523Y-48073866D01*
X64309523Y-48073866D02*
X64261904Y-47978628D01*
X64261904Y-47978628D02*
X64214285Y-47931009D01*
X64214285Y-47931009D02*
X64119047Y-47883390D01*
X52357142Y-8804819D02*
X52023809Y-8328628D01*
X51785714Y-8804819D02*
X51785714Y-7804819D01*
X51785714Y-7804819D02*
X52166666Y-7804819D01*
X52166666Y-7804819D02*
X52261904Y-7852438D01*
X52261904Y-7852438D02*
X52309523Y-7900057D01*
X52309523Y-7900057D02*
X52357142Y-7995295D01*
X52357142Y-7995295D02*
X52357142Y-8138152D01*
X52357142Y-8138152D02*
X52309523Y-8233390D01*
X52309523Y-8233390D02*
X52261904Y-8281009D01*
X52261904Y-8281009D02*
X52166666Y-8328628D01*
X52166666Y-8328628D02*
X51785714Y-8328628D01*
X53309523Y-8804819D02*
X52738095Y-8804819D01*
X53023809Y-8804819D02*
X53023809Y-7804819D01*
X53023809Y-7804819D02*
X52928571Y-7947676D01*
X52928571Y-7947676D02*
X52833333Y-8042914D01*
X52833333Y-8042914D02*
X52738095Y-8090533D01*
X53928571Y-7804819D02*
X54023809Y-7804819D01*
X54023809Y-7804819D02*
X54119047Y-7852438D01*
X54119047Y-7852438D02*
X54166666Y-7900057D01*
X54166666Y-7900057D02*
X54214285Y-7995295D01*
X54214285Y-7995295D02*
X54261904Y-8185771D01*
X54261904Y-8185771D02*
X54261904Y-8423866D01*
X54261904Y-8423866D02*
X54214285Y-8614342D01*
X54214285Y-8614342D02*
X54166666Y-8709580D01*
X54166666Y-8709580D02*
X54119047Y-8757200D01*
X54119047Y-8757200D02*
X54023809Y-8804819D01*
X54023809Y-8804819D02*
X53928571Y-8804819D01*
X53928571Y-8804819D02*
X53833333Y-8757200D01*
X53833333Y-8757200D02*
X53785714Y-8709580D01*
X53785714Y-8709580D02*
X53738095Y-8614342D01*
X53738095Y-8614342D02*
X53690476Y-8423866D01*
X53690476Y-8423866D02*
X53690476Y-8185771D01*
X53690476Y-8185771D02*
X53738095Y-7995295D01*
X53738095Y-7995295D02*
X53785714Y-7900057D01*
X53785714Y-7900057D02*
X53833333Y-7852438D01*
X53833333Y-7852438D02*
X53928571Y-7804819D01*
X71954819Y-35714285D02*
X70954819Y-35714285D01*
X70954819Y-35714285D02*
X70954819Y-35476190D01*
X70954819Y-35476190D02*
X71002438Y-35333333D01*
X71002438Y-35333333D02*
X71097676Y-35238095D01*
X71097676Y-35238095D02*
X71192914Y-35190476D01*
X71192914Y-35190476D02*
X71383390Y-35142857D01*
X71383390Y-35142857D02*
X71526247Y-35142857D01*
X71526247Y-35142857D02*
X71716723Y-35190476D01*
X71716723Y-35190476D02*
X71811961Y-35238095D01*
X71811961Y-35238095D02*
X71907200Y-35333333D01*
X71907200Y-35333333D02*
X71954819Y-35476190D01*
X71954819Y-35476190D02*
X71954819Y-35714285D01*
X71954819Y-34190476D02*
X71954819Y-34761904D01*
X71954819Y-34476190D02*
X70954819Y-34476190D01*
X70954819Y-34476190D02*
X71097676Y-34571428D01*
X71097676Y-34571428D02*
X71192914Y-34666666D01*
X71192914Y-34666666D02*
X71240533Y-34761904D01*
X71383390Y-33619047D02*
X71335771Y-33714285D01*
X71335771Y-33714285D02*
X71288152Y-33761904D01*
X71288152Y-33761904D02*
X71192914Y-33809523D01*
X71192914Y-33809523D02*
X71145295Y-33809523D01*
X71145295Y-33809523D02*
X71050057Y-33761904D01*
X71050057Y-33761904D02*
X71002438Y-33714285D01*
X71002438Y-33714285D02*
X70954819Y-33619047D01*
X70954819Y-33619047D02*
X70954819Y-33428571D01*
X70954819Y-33428571D02*
X71002438Y-33333333D01*
X71002438Y-33333333D02*
X71050057Y-33285714D01*
X71050057Y-33285714D02*
X71145295Y-33238095D01*
X71145295Y-33238095D02*
X71192914Y-33238095D01*
X71192914Y-33238095D02*
X71288152Y-33285714D01*
X71288152Y-33285714D02*
X71335771Y-33333333D01*
X71335771Y-33333333D02*
X71383390Y-33428571D01*
X71383390Y-33428571D02*
X71383390Y-33619047D01*
X71383390Y-33619047D02*
X71431009Y-33714285D01*
X71431009Y-33714285D02*
X71478628Y-33761904D01*
X71478628Y-33761904D02*
X71573866Y-33809523D01*
X71573866Y-33809523D02*
X71764342Y-33809523D01*
X71764342Y-33809523D02*
X71859580Y-33761904D01*
X71859580Y-33761904D02*
X71907200Y-33714285D01*
X71907200Y-33714285D02*
X71954819Y-33619047D01*
X71954819Y-33619047D02*
X71954819Y-33428571D01*
X71954819Y-33428571D02*
X71907200Y-33333333D01*
X71907200Y-33333333D02*
X71859580Y-33285714D01*
X71859580Y-33285714D02*
X71764342Y-33238095D01*
X71764342Y-33238095D02*
X71573866Y-33238095D01*
X71573866Y-33238095D02*
X71478628Y-33285714D01*
X71478628Y-33285714D02*
X71431009Y-33333333D01*
X71431009Y-33333333D02*
X71383390Y-33428571D01*
X65833333Y-14359580D02*
X65785714Y-14407200D01*
X65785714Y-14407200D02*
X65642857Y-14454819D01*
X65642857Y-14454819D02*
X65547619Y-14454819D01*
X65547619Y-14454819D02*
X65404762Y-14407200D01*
X65404762Y-14407200D02*
X65309524Y-14311961D01*
X65309524Y-14311961D02*
X65261905Y-14216723D01*
X65261905Y-14216723D02*
X65214286Y-14026247D01*
X65214286Y-14026247D02*
X65214286Y-13883390D01*
X65214286Y-13883390D02*
X65261905Y-13692914D01*
X65261905Y-13692914D02*
X65309524Y-13597676D01*
X65309524Y-13597676D02*
X65404762Y-13502438D01*
X65404762Y-13502438D02*
X65547619Y-13454819D01*
X65547619Y-13454819D02*
X65642857Y-13454819D01*
X65642857Y-13454819D02*
X65785714Y-13502438D01*
X65785714Y-13502438D02*
X65833333Y-13550057D01*
X66785714Y-14454819D02*
X66214286Y-14454819D01*
X66500000Y-14454819D02*
X66500000Y-13454819D01*
X66500000Y-13454819D02*
X66404762Y-13597676D01*
X66404762Y-13597676D02*
X66309524Y-13692914D01*
X66309524Y-13692914D02*
X66214286Y-13740533D01*
X43833333Y-45804819D02*
X43500000Y-45328628D01*
X43261905Y-45804819D02*
X43261905Y-44804819D01*
X43261905Y-44804819D02*
X43642857Y-44804819D01*
X43642857Y-44804819D02*
X43738095Y-44852438D01*
X43738095Y-44852438D02*
X43785714Y-44900057D01*
X43785714Y-44900057D02*
X43833333Y-44995295D01*
X43833333Y-44995295D02*
X43833333Y-45138152D01*
X43833333Y-45138152D02*
X43785714Y-45233390D01*
X43785714Y-45233390D02*
X43738095Y-45281009D01*
X43738095Y-45281009D02*
X43642857Y-45328628D01*
X43642857Y-45328628D02*
X43261905Y-45328628D01*
X44404762Y-45233390D02*
X44309524Y-45185771D01*
X44309524Y-45185771D02*
X44261905Y-45138152D01*
X44261905Y-45138152D02*
X44214286Y-45042914D01*
X44214286Y-45042914D02*
X44214286Y-44995295D01*
X44214286Y-44995295D02*
X44261905Y-44900057D01*
X44261905Y-44900057D02*
X44309524Y-44852438D01*
X44309524Y-44852438D02*
X44404762Y-44804819D01*
X44404762Y-44804819D02*
X44595238Y-44804819D01*
X44595238Y-44804819D02*
X44690476Y-44852438D01*
X44690476Y-44852438D02*
X44738095Y-44900057D01*
X44738095Y-44900057D02*
X44785714Y-44995295D01*
X44785714Y-44995295D02*
X44785714Y-45042914D01*
X44785714Y-45042914D02*
X44738095Y-45138152D01*
X44738095Y-45138152D02*
X44690476Y-45185771D01*
X44690476Y-45185771D02*
X44595238Y-45233390D01*
X44595238Y-45233390D02*
X44404762Y-45233390D01*
X44404762Y-45233390D02*
X44309524Y-45281009D01*
X44309524Y-45281009D02*
X44261905Y-45328628D01*
X44261905Y-45328628D02*
X44214286Y-45423866D01*
X44214286Y-45423866D02*
X44214286Y-45614342D01*
X44214286Y-45614342D02*
X44261905Y-45709580D01*
X44261905Y-45709580D02*
X44309524Y-45757200D01*
X44309524Y-45757200D02*
X44404762Y-45804819D01*
X44404762Y-45804819D02*
X44595238Y-45804819D01*
X44595238Y-45804819D02*
X44690476Y-45757200D01*
X44690476Y-45757200D02*
X44738095Y-45709580D01*
X44738095Y-45709580D02*
X44785714Y-45614342D01*
X44785714Y-45614342D02*
X44785714Y-45423866D01*
X44785714Y-45423866D02*
X44738095Y-45328628D01*
X44738095Y-45328628D02*
X44690476Y-45281009D01*
X44690476Y-45281009D02*
X44595238Y-45233390D01*
X19357142Y-40804819D02*
X19023809Y-40328628D01*
X18785714Y-40804819D02*
X18785714Y-39804819D01*
X18785714Y-39804819D02*
X19166666Y-39804819D01*
X19166666Y-39804819D02*
X19261904Y-39852438D01*
X19261904Y-39852438D02*
X19309523Y-39900057D01*
X19309523Y-39900057D02*
X19357142Y-39995295D01*
X19357142Y-39995295D02*
X19357142Y-40138152D01*
X19357142Y-40138152D02*
X19309523Y-40233390D01*
X19309523Y-40233390D02*
X19261904Y-40281009D01*
X19261904Y-40281009D02*
X19166666Y-40328628D01*
X19166666Y-40328628D02*
X18785714Y-40328628D01*
X19738095Y-39900057D02*
X19785714Y-39852438D01*
X19785714Y-39852438D02*
X19880952Y-39804819D01*
X19880952Y-39804819D02*
X20119047Y-39804819D01*
X20119047Y-39804819D02*
X20214285Y-39852438D01*
X20214285Y-39852438D02*
X20261904Y-39900057D01*
X20261904Y-39900057D02*
X20309523Y-39995295D01*
X20309523Y-39995295D02*
X20309523Y-40090533D01*
X20309523Y-40090533D02*
X20261904Y-40233390D01*
X20261904Y-40233390D02*
X19690476Y-40804819D01*
X19690476Y-40804819D02*
X20309523Y-40804819D01*
X20642857Y-39804819D02*
X21261904Y-39804819D01*
X21261904Y-39804819D02*
X20928571Y-40185771D01*
X20928571Y-40185771D02*
X21071428Y-40185771D01*
X21071428Y-40185771D02*
X21166666Y-40233390D01*
X21166666Y-40233390D02*
X21214285Y-40281009D01*
X21214285Y-40281009D02*
X21261904Y-40376247D01*
X21261904Y-40376247D02*
X21261904Y-40614342D01*
X21261904Y-40614342D02*
X21214285Y-40709580D01*
X21214285Y-40709580D02*
X21166666Y-40757200D01*
X21166666Y-40757200D02*
X21071428Y-40804819D01*
X21071428Y-40804819D02*
X20785714Y-40804819D01*
X20785714Y-40804819D02*
X20690476Y-40757200D01*
X20690476Y-40757200D02*
X20642857Y-40709580D01*
X60785714Y-43454819D02*
X60785714Y-42454819D01*
X60785714Y-42454819D02*
X61023809Y-42454819D01*
X61023809Y-42454819D02*
X61166666Y-42502438D01*
X61166666Y-42502438D02*
X61261904Y-42597676D01*
X61261904Y-42597676D02*
X61309523Y-42692914D01*
X61309523Y-42692914D02*
X61357142Y-42883390D01*
X61357142Y-42883390D02*
X61357142Y-43026247D01*
X61357142Y-43026247D02*
X61309523Y-43216723D01*
X61309523Y-43216723D02*
X61261904Y-43311961D01*
X61261904Y-43311961D02*
X61166666Y-43407200D01*
X61166666Y-43407200D02*
X61023809Y-43454819D01*
X61023809Y-43454819D02*
X60785714Y-43454819D01*
X62309523Y-43454819D02*
X61738095Y-43454819D01*
X62023809Y-43454819D02*
X62023809Y-42454819D01*
X62023809Y-42454819D02*
X61928571Y-42597676D01*
X61928571Y-42597676D02*
X61833333Y-42692914D01*
X61833333Y-42692914D02*
X61738095Y-42740533D01*
X63166666Y-42788152D02*
X63166666Y-43454819D01*
X62928571Y-42407200D02*
X62690476Y-43121485D01*
X62690476Y-43121485D02*
X63309523Y-43121485D01*
X19357142Y-29804819D02*
X19023809Y-29328628D01*
X18785714Y-29804819D02*
X18785714Y-28804819D01*
X18785714Y-28804819D02*
X19166666Y-28804819D01*
X19166666Y-28804819D02*
X19261904Y-28852438D01*
X19261904Y-28852438D02*
X19309523Y-28900057D01*
X19309523Y-28900057D02*
X19357142Y-28995295D01*
X19357142Y-28995295D02*
X19357142Y-29138152D01*
X19357142Y-29138152D02*
X19309523Y-29233390D01*
X19309523Y-29233390D02*
X19261904Y-29281009D01*
X19261904Y-29281009D02*
X19166666Y-29328628D01*
X19166666Y-29328628D02*
X18785714Y-29328628D01*
X19738095Y-28900057D02*
X19785714Y-28852438D01*
X19785714Y-28852438D02*
X19880952Y-28804819D01*
X19880952Y-28804819D02*
X20119047Y-28804819D01*
X20119047Y-28804819D02*
X20214285Y-28852438D01*
X20214285Y-28852438D02*
X20261904Y-28900057D01*
X20261904Y-28900057D02*
X20309523Y-28995295D01*
X20309523Y-28995295D02*
X20309523Y-29090533D01*
X20309523Y-29090533D02*
X20261904Y-29233390D01*
X20261904Y-29233390D02*
X19690476Y-29804819D01*
X19690476Y-29804819D02*
X20309523Y-29804819D01*
X21261904Y-29804819D02*
X20690476Y-29804819D01*
X20976190Y-29804819D02*
X20976190Y-28804819D01*
X20976190Y-28804819D02*
X20880952Y-28947676D01*
X20880952Y-28947676D02*
X20785714Y-29042914D01*
X20785714Y-29042914D02*
X20690476Y-29090533D01*
X14833333Y-12804819D02*
X14500000Y-12328628D01*
X14261905Y-12804819D02*
X14261905Y-11804819D01*
X14261905Y-11804819D02*
X14642857Y-11804819D01*
X14642857Y-11804819D02*
X14738095Y-11852438D01*
X14738095Y-11852438D02*
X14785714Y-11900057D01*
X14785714Y-11900057D02*
X14833333Y-11995295D01*
X14833333Y-11995295D02*
X14833333Y-12138152D01*
X14833333Y-12138152D02*
X14785714Y-12233390D01*
X14785714Y-12233390D02*
X14738095Y-12281009D01*
X14738095Y-12281009D02*
X14642857Y-12328628D01*
X14642857Y-12328628D02*
X14261905Y-12328628D01*
X15785714Y-12804819D02*
X15214286Y-12804819D01*
X15500000Y-12804819D02*
X15500000Y-11804819D01*
X15500000Y-11804819D02*
X15404762Y-11947676D01*
X15404762Y-11947676D02*
X15309524Y-12042914D01*
X15309524Y-12042914D02*
X15214286Y-12090533D01*
X84333333Y-41204819D02*
X83857143Y-41204819D01*
X83857143Y-41204819D02*
X83857143Y-40204819D01*
X85190476Y-41204819D02*
X84619048Y-41204819D01*
X84904762Y-41204819D02*
X84904762Y-40204819D01*
X84904762Y-40204819D02*
X84809524Y-40347676D01*
X84809524Y-40347676D02*
X84714286Y-40442914D01*
X84714286Y-40442914D02*
X84619048Y-40490533D01*
X82083333Y-8859580D02*
X82035714Y-8907200D01*
X82035714Y-8907200D02*
X81892857Y-8954819D01*
X81892857Y-8954819D02*
X81797619Y-8954819D01*
X81797619Y-8954819D02*
X81654762Y-8907200D01*
X81654762Y-8907200D02*
X81559524Y-8811961D01*
X81559524Y-8811961D02*
X81511905Y-8716723D01*
X81511905Y-8716723D02*
X81464286Y-8526247D01*
X81464286Y-8526247D02*
X81464286Y-8383390D01*
X81464286Y-8383390D02*
X81511905Y-8192914D01*
X81511905Y-8192914D02*
X81559524Y-8097676D01*
X81559524Y-8097676D02*
X81654762Y-8002438D01*
X81654762Y-8002438D02*
X81797619Y-7954819D01*
X81797619Y-7954819D02*
X81892857Y-7954819D01*
X81892857Y-7954819D02*
X82035714Y-8002438D01*
X82035714Y-8002438D02*
X82083333Y-8050057D01*
X82464286Y-8050057D02*
X82511905Y-8002438D01*
X82511905Y-8002438D02*
X82607143Y-7954819D01*
X82607143Y-7954819D02*
X82845238Y-7954819D01*
X82845238Y-7954819D02*
X82940476Y-8002438D01*
X82940476Y-8002438D02*
X82988095Y-8050057D01*
X82988095Y-8050057D02*
X83035714Y-8145295D01*
X83035714Y-8145295D02*
X83035714Y-8240533D01*
X83035714Y-8240533D02*
X82988095Y-8383390D01*
X82988095Y-8383390D02*
X82416667Y-8954819D01*
X82416667Y-8954819D02*
X83035714Y-8954819D01*
X79454819Y-35714285D02*
X78454819Y-35714285D01*
X78454819Y-35714285D02*
X78454819Y-35476190D01*
X78454819Y-35476190D02*
X78502438Y-35333333D01*
X78502438Y-35333333D02*
X78597676Y-35238095D01*
X78597676Y-35238095D02*
X78692914Y-35190476D01*
X78692914Y-35190476D02*
X78883390Y-35142857D01*
X78883390Y-35142857D02*
X79026247Y-35142857D01*
X79026247Y-35142857D02*
X79216723Y-35190476D01*
X79216723Y-35190476D02*
X79311961Y-35238095D01*
X79311961Y-35238095D02*
X79407200Y-35333333D01*
X79407200Y-35333333D02*
X79454819Y-35476190D01*
X79454819Y-35476190D02*
X79454819Y-35714285D01*
X79454819Y-34190476D02*
X79454819Y-34761904D01*
X79454819Y-34476190D02*
X78454819Y-34476190D01*
X78454819Y-34476190D02*
X78597676Y-34571428D01*
X78597676Y-34571428D02*
X78692914Y-34666666D01*
X78692914Y-34666666D02*
X78740533Y-34761904D01*
X78454819Y-33857142D02*
X78454819Y-33190476D01*
X78454819Y-33190476D02*
X79454819Y-33619047D01*
X30920833Y-8304819D02*
X30587500Y-7828628D01*
X30349405Y-8304819D02*
X30349405Y-7304819D01*
X30349405Y-7304819D02*
X30730357Y-7304819D01*
X30730357Y-7304819D02*
X30825595Y-7352438D01*
X30825595Y-7352438D02*
X30873214Y-7400057D01*
X30873214Y-7400057D02*
X30920833Y-7495295D01*
X30920833Y-7495295D02*
X30920833Y-7638152D01*
X30920833Y-7638152D02*
X30873214Y-7733390D01*
X30873214Y-7733390D02*
X30825595Y-7781009D01*
X30825595Y-7781009D02*
X30730357Y-7828628D01*
X30730357Y-7828628D02*
X30349405Y-7828628D01*
X31397024Y-8304819D02*
X31587500Y-8304819D01*
X31587500Y-8304819D02*
X31682738Y-8257200D01*
X31682738Y-8257200D02*
X31730357Y-8209580D01*
X31730357Y-8209580D02*
X31825595Y-8066723D01*
X31825595Y-8066723D02*
X31873214Y-7876247D01*
X31873214Y-7876247D02*
X31873214Y-7495295D01*
X31873214Y-7495295D02*
X31825595Y-7400057D01*
X31825595Y-7400057D02*
X31777976Y-7352438D01*
X31777976Y-7352438D02*
X31682738Y-7304819D01*
X31682738Y-7304819D02*
X31492262Y-7304819D01*
X31492262Y-7304819D02*
X31397024Y-7352438D01*
X31397024Y-7352438D02*
X31349405Y-7400057D01*
X31349405Y-7400057D02*
X31301786Y-7495295D01*
X31301786Y-7495295D02*
X31301786Y-7733390D01*
X31301786Y-7733390D02*
X31349405Y-7828628D01*
X31349405Y-7828628D02*
X31397024Y-7876247D01*
X31397024Y-7876247D02*
X31492262Y-7923866D01*
X31492262Y-7923866D02*
X31682738Y-7923866D01*
X31682738Y-7923866D02*
X31777976Y-7876247D01*
X31777976Y-7876247D02*
X31825595Y-7828628D01*
X31825595Y-7828628D02*
X31873214Y-7733390D01*
X36261905Y-11954819D02*
X36261905Y-10954819D01*
X36261905Y-10954819D02*
X36500000Y-10954819D01*
X36500000Y-10954819D02*
X36642857Y-11002438D01*
X36642857Y-11002438D02*
X36738095Y-11097676D01*
X36738095Y-11097676D02*
X36785714Y-11192914D01*
X36785714Y-11192914D02*
X36833333Y-11383390D01*
X36833333Y-11383390D02*
X36833333Y-11526247D01*
X36833333Y-11526247D02*
X36785714Y-11716723D01*
X36785714Y-11716723D02*
X36738095Y-11811961D01*
X36738095Y-11811961D02*
X36642857Y-11907200D01*
X36642857Y-11907200D02*
X36500000Y-11954819D01*
X36500000Y-11954819D02*
X36261905Y-11954819D01*
X37214286Y-11050057D02*
X37261905Y-11002438D01*
X37261905Y-11002438D02*
X37357143Y-10954819D01*
X37357143Y-10954819D02*
X37595238Y-10954819D01*
X37595238Y-10954819D02*
X37690476Y-11002438D01*
X37690476Y-11002438D02*
X37738095Y-11050057D01*
X37738095Y-11050057D02*
X37785714Y-11145295D01*
X37785714Y-11145295D02*
X37785714Y-11240533D01*
X37785714Y-11240533D02*
X37738095Y-11383390D01*
X37738095Y-11383390D02*
X37166667Y-11954819D01*
X37166667Y-11954819D02*
X37785714Y-11954819D01*
X14833333Y-45804819D02*
X14500000Y-45328628D01*
X14261905Y-45804819D02*
X14261905Y-44804819D01*
X14261905Y-44804819D02*
X14642857Y-44804819D01*
X14642857Y-44804819D02*
X14738095Y-44852438D01*
X14738095Y-44852438D02*
X14785714Y-44900057D01*
X14785714Y-44900057D02*
X14833333Y-44995295D01*
X14833333Y-44995295D02*
X14833333Y-45138152D01*
X14833333Y-45138152D02*
X14785714Y-45233390D01*
X14785714Y-45233390D02*
X14738095Y-45281009D01*
X14738095Y-45281009D02*
X14642857Y-45328628D01*
X14642857Y-45328628D02*
X14261905Y-45328628D01*
X15166667Y-44804819D02*
X15833333Y-44804819D01*
X15833333Y-44804819D02*
X15404762Y-45804819D01*
X43833333Y-23804819D02*
X43500000Y-23328628D01*
X43261905Y-23804819D02*
X43261905Y-22804819D01*
X43261905Y-22804819D02*
X43642857Y-22804819D01*
X43642857Y-22804819D02*
X43738095Y-22852438D01*
X43738095Y-22852438D02*
X43785714Y-22900057D01*
X43785714Y-22900057D02*
X43833333Y-22995295D01*
X43833333Y-22995295D02*
X43833333Y-23138152D01*
X43833333Y-23138152D02*
X43785714Y-23233390D01*
X43785714Y-23233390D02*
X43738095Y-23281009D01*
X43738095Y-23281009D02*
X43642857Y-23328628D01*
X43642857Y-23328628D02*
X43261905Y-23328628D01*
X44690476Y-23138152D02*
X44690476Y-23804819D01*
X44452381Y-22757200D02*
X44214286Y-23471485D01*
X44214286Y-23471485D02*
X44833333Y-23471485D01*
X14833333Y-23804819D02*
X14500000Y-23328628D01*
X14261905Y-23804819D02*
X14261905Y-22804819D01*
X14261905Y-22804819D02*
X14642857Y-22804819D01*
X14642857Y-22804819D02*
X14738095Y-22852438D01*
X14738095Y-22852438D02*
X14785714Y-22900057D01*
X14785714Y-22900057D02*
X14833333Y-22995295D01*
X14833333Y-22995295D02*
X14833333Y-23138152D01*
X14833333Y-23138152D02*
X14785714Y-23233390D01*
X14785714Y-23233390D02*
X14738095Y-23281009D01*
X14738095Y-23281009D02*
X14642857Y-23328628D01*
X14642857Y-23328628D02*
X14261905Y-23328628D01*
X15166667Y-22804819D02*
X15785714Y-22804819D01*
X15785714Y-22804819D02*
X15452381Y-23185771D01*
X15452381Y-23185771D02*
X15595238Y-23185771D01*
X15595238Y-23185771D02*
X15690476Y-23233390D01*
X15690476Y-23233390D02*
X15738095Y-23281009D01*
X15738095Y-23281009D02*
X15785714Y-23376247D01*
X15785714Y-23376247D02*
X15785714Y-23614342D01*
X15785714Y-23614342D02*
X15738095Y-23709580D01*
X15738095Y-23709580D02*
X15690476Y-23757200D01*
X15690476Y-23757200D02*
X15595238Y-23804819D01*
X15595238Y-23804819D02*
X15309524Y-23804819D01*
X15309524Y-23804819D02*
X15214286Y-23757200D01*
X15214286Y-23757200D02*
X15166667Y-23709580D01*
X19357142Y-18804819D02*
X19023809Y-18328628D01*
X18785714Y-18804819D02*
X18785714Y-17804819D01*
X18785714Y-17804819D02*
X19166666Y-17804819D01*
X19166666Y-17804819D02*
X19261904Y-17852438D01*
X19261904Y-17852438D02*
X19309523Y-17900057D01*
X19309523Y-17900057D02*
X19357142Y-17995295D01*
X19357142Y-17995295D02*
X19357142Y-18138152D01*
X19357142Y-18138152D02*
X19309523Y-18233390D01*
X19309523Y-18233390D02*
X19261904Y-18281009D01*
X19261904Y-18281009D02*
X19166666Y-18328628D01*
X19166666Y-18328628D02*
X18785714Y-18328628D01*
X20309523Y-18804819D02*
X19738095Y-18804819D01*
X20023809Y-18804819D02*
X20023809Y-17804819D01*
X20023809Y-17804819D02*
X19928571Y-17947676D01*
X19928571Y-17947676D02*
X19833333Y-18042914D01*
X19833333Y-18042914D02*
X19738095Y-18090533D01*
X20785714Y-18804819D02*
X20976190Y-18804819D01*
X20976190Y-18804819D02*
X21071428Y-18757200D01*
X21071428Y-18757200D02*
X21119047Y-18709580D01*
X21119047Y-18709580D02*
X21214285Y-18566723D01*
X21214285Y-18566723D02*
X21261904Y-18376247D01*
X21261904Y-18376247D02*
X21261904Y-17995295D01*
X21261904Y-17995295D02*
X21214285Y-17900057D01*
X21214285Y-17900057D02*
X21166666Y-17852438D01*
X21166666Y-17852438D02*
X21071428Y-17804819D01*
X21071428Y-17804819D02*
X20880952Y-17804819D01*
X20880952Y-17804819D02*
X20785714Y-17852438D01*
X20785714Y-17852438D02*
X20738095Y-17900057D01*
X20738095Y-17900057D02*
X20690476Y-17995295D01*
X20690476Y-17995295D02*
X20690476Y-18233390D01*
X20690476Y-18233390D02*
X20738095Y-18328628D01*
X20738095Y-18328628D02*
X20785714Y-18376247D01*
X20785714Y-18376247D02*
X20880952Y-18423866D01*
X20880952Y-18423866D02*
X21071428Y-18423866D01*
X21071428Y-18423866D02*
X21166666Y-18376247D01*
X21166666Y-18376247D02*
X21214285Y-18328628D01*
X21214285Y-18328628D02*
X21261904Y-18233390D01*
X36761905Y-30954819D02*
X36761905Y-29954819D01*
X36761905Y-29954819D02*
X37000000Y-29954819D01*
X37000000Y-29954819D02*
X37142857Y-30002438D01*
X37142857Y-30002438D02*
X37238095Y-30097676D01*
X37238095Y-30097676D02*
X37285714Y-30192914D01*
X37285714Y-30192914D02*
X37333333Y-30383390D01*
X37333333Y-30383390D02*
X37333333Y-30526247D01*
X37333333Y-30526247D02*
X37285714Y-30716723D01*
X37285714Y-30716723D02*
X37238095Y-30811961D01*
X37238095Y-30811961D02*
X37142857Y-30907200D01*
X37142857Y-30907200D02*
X37000000Y-30954819D01*
X37000000Y-30954819D02*
X36761905Y-30954819D01*
X38190476Y-29954819D02*
X38000000Y-29954819D01*
X38000000Y-29954819D02*
X37904762Y-30002438D01*
X37904762Y-30002438D02*
X37857143Y-30050057D01*
X37857143Y-30050057D02*
X37761905Y-30192914D01*
X37761905Y-30192914D02*
X37714286Y-30383390D01*
X37714286Y-30383390D02*
X37714286Y-30764342D01*
X37714286Y-30764342D02*
X37761905Y-30859580D01*
X37761905Y-30859580D02*
X37809524Y-30907200D01*
X37809524Y-30907200D02*
X37904762Y-30954819D01*
X37904762Y-30954819D02*
X38095238Y-30954819D01*
X38095238Y-30954819D02*
X38190476Y-30907200D01*
X38190476Y-30907200D02*
X38238095Y-30859580D01*
X38238095Y-30859580D02*
X38285714Y-30764342D01*
X38285714Y-30764342D02*
X38285714Y-30526247D01*
X38285714Y-30526247D02*
X38238095Y-30431009D01*
X38238095Y-30431009D02*
X38190476Y-30383390D01*
X38190476Y-30383390D02*
X38095238Y-30335771D01*
X38095238Y-30335771D02*
X37904762Y-30335771D01*
X37904762Y-30335771D02*
X37809524Y-30383390D01*
X37809524Y-30383390D02*
X37761905Y-30431009D01*
X37761905Y-30431009D02*
X37714286Y-30526247D01*
X20738095Y-47454819D02*
X20738095Y-48264342D01*
X20738095Y-48264342D02*
X20785714Y-48359580D01*
X20785714Y-48359580D02*
X20833333Y-48407200D01*
X20833333Y-48407200D02*
X20928571Y-48454819D01*
X20928571Y-48454819D02*
X21119047Y-48454819D01*
X21119047Y-48454819D02*
X21214285Y-48407200D01*
X21214285Y-48407200D02*
X21261904Y-48359580D01*
X21261904Y-48359580D02*
X21309523Y-48264342D01*
X21309523Y-48264342D02*
X21309523Y-47454819D01*
X21690476Y-47454819D02*
X22357142Y-47454819D01*
X22357142Y-47454819D02*
X21928571Y-48454819D01*
X48357142Y-40804819D02*
X48023809Y-40328628D01*
X47785714Y-40804819D02*
X47785714Y-39804819D01*
X47785714Y-39804819D02*
X48166666Y-39804819D01*
X48166666Y-39804819D02*
X48261904Y-39852438D01*
X48261904Y-39852438D02*
X48309523Y-39900057D01*
X48309523Y-39900057D02*
X48357142Y-39995295D01*
X48357142Y-39995295D02*
X48357142Y-40138152D01*
X48357142Y-40138152D02*
X48309523Y-40233390D01*
X48309523Y-40233390D02*
X48261904Y-40281009D01*
X48261904Y-40281009D02*
X48166666Y-40328628D01*
X48166666Y-40328628D02*
X47785714Y-40328628D01*
X48738095Y-39900057D02*
X48785714Y-39852438D01*
X48785714Y-39852438D02*
X48880952Y-39804819D01*
X48880952Y-39804819D02*
X49119047Y-39804819D01*
X49119047Y-39804819D02*
X49214285Y-39852438D01*
X49214285Y-39852438D02*
X49261904Y-39900057D01*
X49261904Y-39900057D02*
X49309523Y-39995295D01*
X49309523Y-39995295D02*
X49309523Y-40090533D01*
X49309523Y-40090533D02*
X49261904Y-40233390D01*
X49261904Y-40233390D02*
X48690476Y-40804819D01*
X48690476Y-40804819D02*
X49309523Y-40804819D01*
X50166666Y-40138152D02*
X50166666Y-40804819D01*
X49928571Y-39757200D02*
X49690476Y-40471485D01*
X49690476Y-40471485D02*
X50309523Y-40471485D01*
X43833333Y-12804819D02*
X43500000Y-12328628D01*
X43261905Y-12804819D02*
X43261905Y-11804819D01*
X43261905Y-11804819D02*
X43642857Y-11804819D01*
X43642857Y-11804819D02*
X43738095Y-11852438D01*
X43738095Y-11852438D02*
X43785714Y-11900057D01*
X43785714Y-11900057D02*
X43833333Y-11995295D01*
X43833333Y-11995295D02*
X43833333Y-12138152D01*
X43833333Y-12138152D02*
X43785714Y-12233390D01*
X43785714Y-12233390D02*
X43738095Y-12281009D01*
X43738095Y-12281009D02*
X43642857Y-12328628D01*
X43642857Y-12328628D02*
X43261905Y-12328628D01*
X44214286Y-11900057D02*
X44261905Y-11852438D01*
X44261905Y-11852438D02*
X44357143Y-11804819D01*
X44357143Y-11804819D02*
X44595238Y-11804819D01*
X44595238Y-11804819D02*
X44690476Y-11852438D01*
X44690476Y-11852438D02*
X44738095Y-11900057D01*
X44738095Y-11900057D02*
X44785714Y-11995295D01*
X44785714Y-11995295D02*
X44785714Y-12090533D01*
X44785714Y-12090533D02*
X44738095Y-12233390D01*
X44738095Y-12233390D02*
X44166667Y-12804819D01*
X44166667Y-12804819D02*
X44785714Y-12804819D01*
X48357142Y-18804819D02*
X48023809Y-18328628D01*
X47785714Y-18804819D02*
X47785714Y-17804819D01*
X47785714Y-17804819D02*
X48166666Y-17804819D01*
X48166666Y-17804819D02*
X48261904Y-17852438D01*
X48261904Y-17852438D02*
X48309523Y-17900057D01*
X48309523Y-17900057D02*
X48357142Y-17995295D01*
X48357142Y-17995295D02*
X48357142Y-18138152D01*
X48357142Y-18138152D02*
X48309523Y-18233390D01*
X48309523Y-18233390D02*
X48261904Y-18281009D01*
X48261904Y-18281009D02*
X48166666Y-18328628D01*
X48166666Y-18328628D02*
X47785714Y-18328628D01*
X48738095Y-17900057D02*
X48785714Y-17852438D01*
X48785714Y-17852438D02*
X48880952Y-17804819D01*
X48880952Y-17804819D02*
X49119047Y-17804819D01*
X49119047Y-17804819D02*
X49214285Y-17852438D01*
X49214285Y-17852438D02*
X49261904Y-17900057D01*
X49261904Y-17900057D02*
X49309523Y-17995295D01*
X49309523Y-17995295D02*
X49309523Y-18090533D01*
X49309523Y-18090533D02*
X49261904Y-18233390D01*
X49261904Y-18233390D02*
X48690476Y-18804819D01*
X48690476Y-18804819D02*
X49309523Y-18804819D01*
X49928571Y-17804819D02*
X50023809Y-17804819D01*
X50023809Y-17804819D02*
X50119047Y-17852438D01*
X50119047Y-17852438D02*
X50166666Y-17900057D01*
X50166666Y-17900057D02*
X50214285Y-17995295D01*
X50214285Y-17995295D02*
X50261904Y-18185771D01*
X50261904Y-18185771D02*
X50261904Y-18423866D01*
X50261904Y-18423866D02*
X50214285Y-18614342D01*
X50214285Y-18614342D02*
X50166666Y-18709580D01*
X50166666Y-18709580D02*
X50119047Y-18757200D01*
X50119047Y-18757200D02*
X50023809Y-18804819D01*
X50023809Y-18804819D02*
X49928571Y-18804819D01*
X49928571Y-18804819D02*
X49833333Y-18757200D01*
X49833333Y-18757200D02*
X49785714Y-18709580D01*
X49785714Y-18709580D02*
X49738095Y-18614342D01*
X49738095Y-18614342D02*
X49690476Y-18423866D01*
X49690476Y-18423866D02*
X49690476Y-18185771D01*
X49690476Y-18185771D02*
X49738095Y-17995295D01*
X49738095Y-17995295D02*
X49785714Y-17900057D01*
X49785714Y-17900057D02*
X49833333Y-17852438D01*
X49833333Y-17852438D02*
X49928571Y-17804819D01*
X7261905Y-11954819D02*
X7261905Y-10954819D01*
X7261905Y-10954819D02*
X7500000Y-10954819D01*
X7500000Y-10954819D02*
X7642857Y-11002438D01*
X7642857Y-11002438D02*
X7738095Y-11097676D01*
X7738095Y-11097676D02*
X7785714Y-11192914D01*
X7785714Y-11192914D02*
X7833333Y-11383390D01*
X7833333Y-11383390D02*
X7833333Y-11526247D01*
X7833333Y-11526247D02*
X7785714Y-11716723D01*
X7785714Y-11716723D02*
X7738095Y-11811961D01*
X7738095Y-11811961D02*
X7642857Y-11907200D01*
X7642857Y-11907200D02*
X7500000Y-11954819D01*
X7500000Y-11954819D02*
X7261905Y-11954819D01*
X8785714Y-11954819D02*
X8214286Y-11954819D01*
X8500000Y-11954819D02*
X8500000Y-10954819D01*
X8500000Y-10954819D02*
X8404762Y-11097676D01*
X8404762Y-11097676D02*
X8309524Y-11192914D01*
X8309524Y-11192914D02*
X8214286Y-11240533D01*
X77356666Y-22431009D02*
X77023333Y-22431009D01*
X77023333Y-22954819D02*
X77023333Y-21954819D01*
X77023333Y-21954819D02*
X77499523Y-21954819D01*
X78404285Y-22954819D02*
X77832857Y-22954819D01*
X78118571Y-22954819D02*
X78118571Y-21954819D01*
X78118571Y-21954819D02*
X78023333Y-22097676D01*
X78023333Y-22097676D02*
X77928095Y-22192914D01*
X77928095Y-22192914D02*
X77832857Y-22240533D01*
X27055714Y-29494819D02*
X27055714Y-28494819D01*
X27055714Y-28494819D02*
X27293809Y-28494819D01*
X27293809Y-28494819D02*
X27436666Y-28542438D01*
X27436666Y-28542438D02*
X27531904Y-28637676D01*
X27531904Y-28637676D02*
X27579523Y-28732914D01*
X27579523Y-28732914D02*
X27627142Y-28923390D01*
X27627142Y-28923390D02*
X27627142Y-29066247D01*
X27627142Y-29066247D02*
X27579523Y-29256723D01*
X27579523Y-29256723D02*
X27531904Y-29351961D01*
X27531904Y-29351961D02*
X27436666Y-29447200D01*
X27436666Y-29447200D02*
X27293809Y-29494819D01*
X27293809Y-29494819D02*
X27055714Y-29494819D01*
X28579523Y-29494819D02*
X28008095Y-29494819D01*
X28293809Y-29494819D02*
X28293809Y-28494819D01*
X28293809Y-28494819D02*
X28198571Y-28637676D01*
X28198571Y-28637676D02*
X28103333Y-28732914D01*
X28103333Y-28732914D02*
X28008095Y-28780533D01*
X29531904Y-29494819D02*
X28960476Y-29494819D01*
X29246190Y-29494819D02*
X29246190Y-28494819D01*
X29246190Y-28494819D02*
X29150952Y-28637676D01*
X29150952Y-28637676D02*
X29055714Y-28732914D01*
X29055714Y-28732914D02*
X28960476Y-28780533D01*
X23357142Y-30804819D02*
X23023809Y-30328628D01*
X22785714Y-30804819D02*
X22785714Y-29804819D01*
X22785714Y-29804819D02*
X23166666Y-29804819D01*
X23166666Y-29804819D02*
X23261904Y-29852438D01*
X23261904Y-29852438D02*
X23309523Y-29900057D01*
X23309523Y-29900057D02*
X23357142Y-29995295D01*
X23357142Y-29995295D02*
X23357142Y-30138152D01*
X23357142Y-30138152D02*
X23309523Y-30233390D01*
X23309523Y-30233390D02*
X23261904Y-30281009D01*
X23261904Y-30281009D02*
X23166666Y-30328628D01*
X23166666Y-30328628D02*
X22785714Y-30328628D01*
X24309523Y-30804819D02*
X23738095Y-30804819D01*
X24023809Y-30804819D02*
X24023809Y-29804819D01*
X24023809Y-29804819D02*
X23928571Y-29947676D01*
X23928571Y-29947676D02*
X23833333Y-30042914D01*
X23833333Y-30042914D02*
X23738095Y-30090533D01*
X24642857Y-29804819D02*
X25261904Y-29804819D01*
X25261904Y-29804819D02*
X24928571Y-30185771D01*
X24928571Y-30185771D02*
X25071428Y-30185771D01*
X25071428Y-30185771D02*
X25166666Y-30233390D01*
X25166666Y-30233390D02*
X25214285Y-30281009D01*
X25214285Y-30281009D02*
X25261904Y-30376247D01*
X25261904Y-30376247D02*
X25261904Y-30614342D01*
X25261904Y-30614342D02*
X25214285Y-30709580D01*
X25214285Y-30709580D02*
X25166666Y-30757200D01*
X25166666Y-30757200D02*
X25071428Y-30804819D01*
X25071428Y-30804819D02*
X24785714Y-30804819D01*
X24785714Y-30804819D02*
X24690476Y-30757200D01*
X24690476Y-30757200D02*
X24642857Y-30709580D01*
X52357142Y-30804819D02*
X52023809Y-30328628D01*
X51785714Y-30804819D02*
X51785714Y-29804819D01*
X51785714Y-29804819D02*
X52166666Y-29804819D01*
X52166666Y-29804819D02*
X52261904Y-29852438D01*
X52261904Y-29852438D02*
X52309523Y-29900057D01*
X52309523Y-29900057D02*
X52357142Y-29995295D01*
X52357142Y-29995295D02*
X52357142Y-30138152D01*
X52357142Y-30138152D02*
X52309523Y-30233390D01*
X52309523Y-30233390D02*
X52261904Y-30281009D01*
X52261904Y-30281009D02*
X52166666Y-30328628D01*
X52166666Y-30328628D02*
X51785714Y-30328628D01*
X53309523Y-30804819D02*
X52738095Y-30804819D01*
X53023809Y-30804819D02*
X53023809Y-29804819D01*
X53023809Y-29804819D02*
X52928571Y-29947676D01*
X52928571Y-29947676D02*
X52833333Y-30042914D01*
X52833333Y-30042914D02*
X52738095Y-30090533D01*
X54166666Y-30138152D02*
X54166666Y-30804819D01*
X53928571Y-29757200D02*
X53690476Y-30471485D01*
X53690476Y-30471485D02*
X54309523Y-30471485D01*
X88779761Y-28100057D02*
X88684523Y-28052438D01*
X88684523Y-28052438D02*
X88589285Y-27957200D01*
X88589285Y-27957200D02*
X88446428Y-27814342D01*
X88446428Y-27814342D02*
X88351190Y-27766723D01*
X88351190Y-27766723D02*
X88255952Y-27766723D01*
X88303571Y-28004819D02*
X88208333Y-27957200D01*
X88208333Y-27957200D02*
X88113095Y-27861961D01*
X88113095Y-27861961D02*
X88065476Y-27671485D01*
X88065476Y-27671485D02*
X88065476Y-27338152D01*
X88065476Y-27338152D02*
X88113095Y-27147676D01*
X88113095Y-27147676D02*
X88208333Y-27052438D01*
X88208333Y-27052438D02*
X88303571Y-27004819D01*
X88303571Y-27004819D02*
X88494047Y-27004819D01*
X88494047Y-27004819D02*
X88589285Y-27052438D01*
X88589285Y-27052438D02*
X88684523Y-27147676D01*
X88684523Y-27147676D02*
X88732142Y-27338152D01*
X88732142Y-27338152D02*
X88732142Y-27671485D01*
X88732142Y-27671485D02*
X88684523Y-27861961D01*
X88684523Y-27861961D02*
X88589285Y-27957200D01*
X88589285Y-27957200D02*
X88494047Y-28004819D01*
X88494047Y-28004819D02*
X88303571Y-28004819D01*
X89684523Y-28004819D02*
X89113095Y-28004819D01*
X89398809Y-28004819D02*
X89398809Y-27004819D01*
X89398809Y-27004819D02*
X89303571Y-27147676D01*
X89303571Y-27147676D02*
X89208333Y-27242914D01*
X89208333Y-27242914D02*
X89113095Y-27290533D01*
X62238095Y-26454819D02*
X62238095Y-27264342D01*
X62238095Y-27264342D02*
X62285714Y-27359580D01*
X62285714Y-27359580D02*
X62333333Y-27407200D01*
X62333333Y-27407200D02*
X62428571Y-27454819D01*
X62428571Y-27454819D02*
X62619047Y-27454819D01*
X62619047Y-27454819D02*
X62714285Y-27407200D01*
X62714285Y-27407200D02*
X62761904Y-27359580D01*
X62761904Y-27359580D02*
X62809523Y-27264342D01*
X62809523Y-27264342D02*
X62809523Y-26454819D01*
X63714285Y-26788152D02*
X63714285Y-27454819D01*
X63476190Y-26407200D02*
X63238095Y-27121485D01*
X63238095Y-27121485D02*
X63857142Y-27121485D01*
X85671706Y-22954819D02*
X85338373Y-22478628D01*
X85100278Y-22954819D02*
X85100278Y-21954819D01*
X85100278Y-21954819D02*
X85481230Y-21954819D01*
X85481230Y-21954819D02*
X85576468Y-22002438D01*
X85576468Y-22002438D02*
X85624087Y-22050057D01*
X85624087Y-22050057D02*
X85671706Y-22145295D01*
X85671706Y-22145295D02*
X85671706Y-22288152D01*
X85671706Y-22288152D02*
X85624087Y-22383390D01*
X85624087Y-22383390D02*
X85576468Y-22431009D01*
X85576468Y-22431009D02*
X85481230Y-22478628D01*
X85481230Y-22478628D02*
X85100278Y-22478628D01*
X86052659Y-22050057D02*
X86100278Y-22002438D01*
X86100278Y-22002438D02*
X86195516Y-21954819D01*
X86195516Y-21954819D02*
X86433611Y-21954819D01*
X86433611Y-21954819D02*
X86528849Y-22002438D01*
X86528849Y-22002438D02*
X86576468Y-22050057D01*
X86576468Y-22050057D02*
X86624087Y-22145295D01*
X86624087Y-22145295D02*
X86624087Y-22240533D01*
X86624087Y-22240533D02*
X86576468Y-22383390D01*
X86576468Y-22383390D02*
X86005040Y-22954819D01*
X86005040Y-22954819D02*
X86624087Y-22954819D01*
X87528849Y-21954819D02*
X87052659Y-21954819D01*
X87052659Y-21954819D02*
X87005040Y-22431009D01*
X87005040Y-22431009D02*
X87052659Y-22383390D01*
X87052659Y-22383390D02*
X87147897Y-22335771D01*
X87147897Y-22335771D02*
X87385992Y-22335771D01*
X87385992Y-22335771D02*
X87481230Y-22383390D01*
X87481230Y-22383390D02*
X87528849Y-22431009D01*
X87528849Y-22431009D02*
X87576468Y-22526247D01*
X87576468Y-22526247D02*
X87576468Y-22764342D01*
X87576468Y-22764342D02*
X87528849Y-22859580D01*
X87528849Y-22859580D02*
X87481230Y-22907200D01*
X87481230Y-22907200D02*
X87385992Y-22954819D01*
X87385992Y-22954819D02*
X87147897Y-22954819D01*
X87147897Y-22954819D02*
X87052659Y-22907200D01*
X87052659Y-22907200D02*
X87005040Y-22859580D01*
X22285714Y-53454819D02*
X22285714Y-52454819D01*
X22285714Y-52454819D02*
X22523809Y-52454819D01*
X22523809Y-52454819D02*
X22666666Y-52502438D01*
X22666666Y-52502438D02*
X22761904Y-52597676D01*
X22761904Y-52597676D02*
X22809523Y-52692914D01*
X22809523Y-52692914D02*
X22857142Y-52883390D01*
X22857142Y-52883390D02*
X22857142Y-53026247D01*
X22857142Y-53026247D02*
X22809523Y-53216723D01*
X22809523Y-53216723D02*
X22761904Y-53311961D01*
X22761904Y-53311961D02*
X22666666Y-53407200D01*
X22666666Y-53407200D02*
X22523809Y-53454819D01*
X22523809Y-53454819D02*
X22285714Y-53454819D01*
X23809523Y-53454819D02*
X23238095Y-53454819D01*
X23523809Y-53454819D02*
X23523809Y-52454819D01*
X23523809Y-52454819D02*
X23428571Y-52597676D01*
X23428571Y-52597676D02*
X23333333Y-52692914D01*
X23333333Y-52692914D02*
X23238095Y-52740533D01*
X24714285Y-52454819D02*
X24238095Y-52454819D01*
X24238095Y-52454819D02*
X24190476Y-52931009D01*
X24190476Y-52931009D02*
X24238095Y-52883390D01*
X24238095Y-52883390D02*
X24333333Y-52835771D01*
X24333333Y-52835771D02*
X24571428Y-52835771D01*
X24571428Y-52835771D02*
X24666666Y-52883390D01*
X24666666Y-52883390D02*
X24714285Y-52931009D01*
X24714285Y-52931009D02*
X24761904Y-53026247D01*
X24761904Y-53026247D02*
X24761904Y-53264342D01*
X24761904Y-53264342D02*
X24714285Y-53359580D01*
X24714285Y-53359580D02*
X24666666Y-53407200D01*
X24666666Y-53407200D02*
X24571428Y-53454819D01*
X24571428Y-53454819D02*
X24333333Y-53454819D01*
X24333333Y-53454819D02*
X24238095Y-53407200D01*
X24238095Y-53407200D02*
X24190476Y-53359580D01*
X27048095Y-11124819D02*
X27048095Y-11934342D01*
X27048095Y-11934342D02*
X27095714Y-12029580D01*
X27095714Y-12029580D02*
X27143333Y-12077200D01*
X27143333Y-12077200D02*
X27238571Y-12124819D01*
X27238571Y-12124819D02*
X27429047Y-12124819D01*
X27429047Y-12124819D02*
X27524285Y-12077200D01*
X27524285Y-12077200D02*
X27571904Y-12029580D01*
X27571904Y-12029580D02*
X27619523Y-11934342D01*
X27619523Y-11934342D02*
X27619523Y-11124819D01*
X28619523Y-12124819D02*
X28048095Y-12124819D01*
X28333809Y-12124819D02*
X28333809Y-11124819D01*
X28333809Y-11124819D02*
X28238571Y-11267676D01*
X28238571Y-11267676D02*
X28143333Y-11362914D01*
X28143333Y-11362914D02*
X28048095Y-11410533D01*
X2738095Y-1454819D02*
X2738095Y-454819D01*
X2738095Y-931009D02*
X3309523Y-931009D01*
X3309523Y-1454819D02*
X3309523Y-454819D01*
X4309523Y-1454819D02*
X3738095Y-1454819D01*
X4023809Y-1454819D02*
X4023809Y-454819D01*
X4023809Y-454819D02*
X3928571Y-597676D01*
X3928571Y-597676D02*
X3833333Y-692914D01*
X3833333Y-692914D02*
X3738095Y-740533D01*
X60738095Y-1454819D02*
X60738095Y-454819D01*
X60738095Y-931009D02*
X61309523Y-931009D01*
X61309523Y-1454819D02*
X61309523Y-454819D01*
X61738095Y-550057D02*
X61785714Y-502438D01*
X61785714Y-502438D02*
X61880952Y-454819D01*
X61880952Y-454819D02*
X62119047Y-454819D01*
X62119047Y-454819D02*
X62214285Y-502438D01*
X62214285Y-502438D02*
X62261904Y-550057D01*
X62261904Y-550057D02*
X62309523Y-645295D01*
X62309523Y-645295D02*
X62309523Y-740533D01*
X62309523Y-740533D02*
X62261904Y-883390D01*
X62261904Y-883390D02*
X61690476Y-1454819D01*
X61690476Y-1454819D02*
X62309523Y-1454819D01*
X2738095Y-49954819D02*
X2738095Y-48954819D01*
X2738095Y-49431009D02*
X3309523Y-49431009D01*
X3309523Y-49954819D02*
X3309523Y-48954819D01*
X3690476Y-48954819D02*
X4309523Y-48954819D01*
X4309523Y-48954819D02*
X3976190Y-49335771D01*
X3976190Y-49335771D02*
X4119047Y-49335771D01*
X4119047Y-49335771D02*
X4214285Y-49383390D01*
X4214285Y-49383390D02*
X4261904Y-49431009D01*
X4261904Y-49431009D02*
X4309523Y-49526247D01*
X4309523Y-49526247D02*
X4309523Y-49764342D01*
X4309523Y-49764342D02*
X4261904Y-49859580D01*
X4261904Y-49859580D02*
X4214285Y-49907200D01*
X4214285Y-49907200D02*
X4119047Y-49954819D01*
X4119047Y-49954819D02*
X3833333Y-49954819D01*
X3833333Y-49954819D02*
X3738095Y-49907200D01*
X3738095Y-49907200D02*
X3690476Y-49859580D01*
X62738095Y-50954819D02*
X62738095Y-49954819D01*
X62738095Y-50431009D02*
X63309523Y-50431009D01*
X63309523Y-50954819D02*
X63309523Y-49954819D01*
X64214285Y-50288152D02*
X64214285Y-50954819D01*
X63976190Y-49907200D02*
X63738095Y-50621485D01*
X63738095Y-50621485D02*
X64357142Y-50621485D01*
X95738095Y-1454819D02*
X95738095Y-454819D01*
X95738095Y-931009D02*
X96309523Y-931009D01*
X96309523Y-1454819D02*
X96309523Y-454819D01*
X97261904Y-454819D02*
X96785714Y-454819D01*
X96785714Y-454819D02*
X96738095Y-931009D01*
X96738095Y-931009D02*
X96785714Y-883390D01*
X96785714Y-883390D02*
X96880952Y-835771D01*
X96880952Y-835771D02*
X97119047Y-835771D01*
X97119047Y-835771D02*
X97214285Y-883390D01*
X97214285Y-883390D02*
X97261904Y-931009D01*
X97261904Y-931009D02*
X97309523Y-1026247D01*
X97309523Y-1026247D02*
X97309523Y-1264342D01*
X97309523Y-1264342D02*
X97261904Y-1359580D01*
X97261904Y-1359580D02*
X97214285Y-1407200D01*
X97214285Y-1407200D02*
X97119047Y-1454819D01*
X97119047Y-1454819D02*
X96880952Y-1454819D01*
X96880952Y-1454819D02*
X96785714Y-1407200D01*
X96785714Y-1407200D02*
X96738095Y-1359580D01*
X95738095Y-49954819D02*
X95738095Y-48954819D01*
X95738095Y-49431009D02*
X96309523Y-49431009D01*
X96309523Y-49954819D02*
X96309523Y-48954819D01*
X97214285Y-48954819D02*
X97023809Y-48954819D01*
X97023809Y-48954819D02*
X96928571Y-49002438D01*
X96928571Y-49002438D02*
X96880952Y-49050057D01*
X96880952Y-49050057D02*
X96785714Y-49192914D01*
X96785714Y-49192914D02*
X96738095Y-49383390D01*
X96738095Y-49383390D02*
X96738095Y-49764342D01*
X96738095Y-49764342D02*
X96785714Y-49859580D01*
X96785714Y-49859580D02*
X96833333Y-49907200D01*
X96833333Y-49907200D02*
X96928571Y-49954819D01*
X96928571Y-49954819D02*
X97119047Y-49954819D01*
X97119047Y-49954819D02*
X97214285Y-49907200D01*
X97214285Y-49907200D02*
X97261904Y-49859580D01*
X97261904Y-49859580D02*
X97309523Y-49764342D01*
X97309523Y-49764342D02*
X97309523Y-49526247D01*
X97309523Y-49526247D02*
X97261904Y-49431009D01*
X97261904Y-49431009D02*
X97214285Y-49383390D01*
X97214285Y-49383390D02*
X97119047Y-49335771D01*
X97119047Y-49335771D02*
X96928571Y-49335771D01*
X96928571Y-49335771D02*
X96833333Y-49383390D01*
X96833333Y-49383390D02*
X96785714Y-49431009D01*
X96785714Y-49431009D02*
X96738095Y-49526247D01*
X62238095Y-36954819D02*
X62238095Y-37764342D01*
X62238095Y-37764342D02*
X62285714Y-37859580D01*
X62285714Y-37859580D02*
X62333333Y-37907200D01*
X62333333Y-37907200D02*
X62428571Y-37954819D01*
X62428571Y-37954819D02*
X62619047Y-37954819D01*
X62619047Y-37954819D02*
X62714285Y-37907200D01*
X62714285Y-37907200D02*
X62761904Y-37859580D01*
X62761904Y-37859580D02*
X62809523Y-37764342D01*
X62809523Y-37764342D02*
X62809523Y-36954819D01*
X63714285Y-36954819D02*
X63523809Y-36954819D01*
X63523809Y-36954819D02*
X63428571Y-37002438D01*
X63428571Y-37002438D02*
X63380952Y-37050057D01*
X63380952Y-37050057D02*
X63285714Y-37192914D01*
X63285714Y-37192914D02*
X63238095Y-37383390D01*
X63238095Y-37383390D02*
X63238095Y-37764342D01*
X63238095Y-37764342D02*
X63285714Y-37859580D01*
X63285714Y-37859580D02*
X63333333Y-37907200D01*
X63333333Y-37907200D02*
X63428571Y-37954819D01*
X63428571Y-37954819D02*
X63619047Y-37954819D01*
X63619047Y-37954819D02*
X63714285Y-37907200D01*
X63714285Y-37907200D02*
X63761904Y-37859580D01*
X63761904Y-37859580D02*
X63809523Y-37764342D01*
X63809523Y-37764342D02*
X63809523Y-37526247D01*
X63809523Y-37526247D02*
X63761904Y-37431009D01*
X63761904Y-37431009D02*
X63714285Y-37383390D01*
X63714285Y-37383390D02*
X63619047Y-37335771D01*
X63619047Y-37335771D02*
X63428571Y-37335771D01*
X63428571Y-37335771D02*
X63333333Y-37383390D01*
X63333333Y-37383390D02*
X63285714Y-37431009D01*
X63285714Y-37431009D02*
X63238095Y-37526247D01*
X92396666Y-20454819D02*
X92396666Y-21169104D01*
X92396666Y-21169104D02*
X92349047Y-21311961D01*
X92349047Y-21311961D02*
X92253809Y-21407200D01*
X92253809Y-21407200D02*
X92110952Y-21454819D01*
X92110952Y-21454819D02*
X92015714Y-21454819D01*
X93301428Y-20788152D02*
X93301428Y-21454819D01*
X93063333Y-20407200D02*
X92825238Y-21121485D01*
X92825238Y-21121485D02*
X93444285Y-21121485D01*
X93238095Y-23304819D02*
X93238095Y-24114342D01*
X93238095Y-24114342D02*
X93285714Y-24209580D01*
X93285714Y-24209580D02*
X93333333Y-24257200D01*
X93333333Y-24257200D02*
X93428571Y-24304819D01*
X93428571Y-24304819D02*
X93619047Y-24304819D01*
X93619047Y-24304819D02*
X93714285Y-24257200D01*
X93714285Y-24257200D02*
X93761904Y-24209580D01*
X93761904Y-24209580D02*
X93809523Y-24114342D01*
X93809523Y-24114342D02*
X93809523Y-23304819D01*
X94333333Y-24304819D02*
X94523809Y-24304819D01*
X94523809Y-24304819D02*
X94619047Y-24257200D01*
X94619047Y-24257200D02*
X94666666Y-24209580D01*
X94666666Y-24209580D02*
X94761904Y-24066723D01*
X94761904Y-24066723D02*
X94809523Y-23876247D01*
X94809523Y-23876247D02*
X94809523Y-23495295D01*
X94809523Y-23495295D02*
X94761904Y-23400057D01*
X94761904Y-23400057D02*
X94714285Y-23352438D01*
X94714285Y-23352438D02*
X94619047Y-23304819D01*
X94619047Y-23304819D02*
X94428571Y-23304819D01*
X94428571Y-23304819D02*
X94333333Y-23352438D01*
X94333333Y-23352438D02*
X94285714Y-23400057D01*
X94285714Y-23400057D02*
X94238095Y-23495295D01*
X94238095Y-23495295D02*
X94238095Y-23733390D01*
X94238095Y-23733390D02*
X94285714Y-23828628D01*
X94285714Y-23828628D02*
X94333333Y-23876247D01*
X94333333Y-23876247D02*
X94428571Y-23923866D01*
X94428571Y-23923866D02*
X94619047Y-23923866D01*
X94619047Y-23923866D02*
X94714285Y-23876247D01*
X94714285Y-23876247D02*
X94761904Y-23828628D01*
X94761904Y-23828628D02*
X94809523Y-23733390D01*
X52357142Y-19804819D02*
X52023809Y-19328628D01*
X51785714Y-19804819D02*
X51785714Y-18804819D01*
X51785714Y-18804819D02*
X52166666Y-18804819D01*
X52166666Y-18804819D02*
X52261904Y-18852438D01*
X52261904Y-18852438D02*
X52309523Y-18900057D01*
X52309523Y-18900057D02*
X52357142Y-18995295D01*
X52357142Y-18995295D02*
X52357142Y-19138152D01*
X52357142Y-19138152D02*
X52309523Y-19233390D01*
X52309523Y-19233390D02*
X52261904Y-19281009D01*
X52261904Y-19281009D02*
X52166666Y-19328628D01*
X52166666Y-19328628D02*
X51785714Y-19328628D01*
X53309523Y-19804819D02*
X52738095Y-19804819D01*
X53023809Y-19804819D02*
X53023809Y-18804819D01*
X53023809Y-18804819D02*
X52928571Y-18947676D01*
X52928571Y-18947676D02*
X52833333Y-19042914D01*
X52833333Y-19042914D02*
X52738095Y-19090533D01*
X53690476Y-18900057D02*
X53738095Y-18852438D01*
X53738095Y-18852438D02*
X53833333Y-18804819D01*
X53833333Y-18804819D02*
X54071428Y-18804819D01*
X54071428Y-18804819D02*
X54166666Y-18852438D01*
X54166666Y-18852438D02*
X54214285Y-18900057D01*
X54214285Y-18900057D02*
X54261904Y-18995295D01*
X54261904Y-18995295D02*
X54261904Y-19090533D01*
X54261904Y-19090533D02*
X54214285Y-19233390D01*
X54214285Y-19233390D02*
X53642857Y-19804819D01*
X53642857Y-19804819D02*
X54261904Y-19804819D01*
X48357142Y-29804819D02*
X48023809Y-29328628D01*
X47785714Y-29804819D02*
X47785714Y-28804819D01*
X47785714Y-28804819D02*
X48166666Y-28804819D01*
X48166666Y-28804819D02*
X48261904Y-28852438D01*
X48261904Y-28852438D02*
X48309523Y-28900057D01*
X48309523Y-28900057D02*
X48357142Y-28995295D01*
X48357142Y-28995295D02*
X48357142Y-29138152D01*
X48357142Y-29138152D02*
X48309523Y-29233390D01*
X48309523Y-29233390D02*
X48261904Y-29281009D01*
X48261904Y-29281009D02*
X48166666Y-29328628D01*
X48166666Y-29328628D02*
X47785714Y-29328628D01*
X48738095Y-28900057D02*
X48785714Y-28852438D01*
X48785714Y-28852438D02*
X48880952Y-28804819D01*
X48880952Y-28804819D02*
X49119047Y-28804819D01*
X49119047Y-28804819D02*
X49214285Y-28852438D01*
X49214285Y-28852438D02*
X49261904Y-28900057D01*
X49261904Y-28900057D02*
X49309523Y-28995295D01*
X49309523Y-28995295D02*
X49309523Y-29090533D01*
X49309523Y-29090533D02*
X49261904Y-29233390D01*
X49261904Y-29233390D02*
X48690476Y-29804819D01*
X48690476Y-29804819D02*
X49309523Y-29804819D01*
X49690476Y-28900057D02*
X49738095Y-28852438D01*
X49738095Y-28852438D02*
X49833333Y-28804819D01*
X49833333Y-28804819D02*
X50071428Y-28804819D01*
X50071428Y-28804819D02*
X50166666Y-28852438D01*
X50166666Y-28852438D02*
X50214285Y-28900057D01*
X50214285Y-28900057D02*
X50261904Y-28995295D01*
X50261904Y-28995295D02*
X50261904Y-29090533D01*
X50261904Y-29090533D02*
X50214285Y-29233390D01*
X50214285Y-29233390D02*
X49642857Y-29804819D01*
X49642857Y-29804819D02*
X50261904Y-29804819D01*
X20738095Y-25954819D02*
X20738095Y-26764342D01*
X20738095Y-26764342D02*
X20785714Y-26859580D01*
X20785714Y-26859580D02*
X20833333Y-26907200D01*
X20833333Y-26907200D02*
X20928571Y-26954819D01*
X20928571Y-26954819D02*
X21119047Y-26954819D01*
X21119047Y-26954819D02*
X21214285Y-26907200D01*
X21214285Y-26907200D02*
X21261904Y-26859580D01*
X21261904Y-26859580D02*
X21309523Y-26764342D01*
X21309523Y-26764342D02*
X21309523Y-25954819D01*
X21690476Y-25954819D02*
X22309523Y-25954819D01*
X22309523Y-25954819D02*
X21976190Y-26335771D01*
X21976190Y-26335771D02*
X22119047Y-26335771D01*
X22119047Y-26335771D02*
X22214285Y-26383390D01*
X22214285Y-26383390D02*
X22261904Y-26431009D01*
X22261904Y-26431009D02*
X22309523Y-26526247D01*
X22309523Y-26526247D02*
X22309523Y-26764342D01*
X22309523Y-26764342D02*
X22261904Y-26859580D01*
X22261904Y-26859580D02*
X22214285Y-26907200D01*
X22214285Y-26907200D02*
X22119047Y-26954819D01*
X22119047Y-26954819D02*
X21833333Y-26954819D01*
X21833333Y-26954819D02*
X21738095Y-26907200D01*
X21738095Y-26907200D02*
X21690476Y-26859580D01*
X58454819Y-5833333D02*
X59169104Y-5833333D01*
X59169104Y-5833333D02*
X59311961Y-5880952D01*
X59311961Y-5880952D02*
X59407200Y-5976190D01*
X59407200Y-5976190D02*
X59454819Y-6119047D01*
X59454819Y-6119047D02*
X59454819Y-6214285D01*
X58550057Y-5404761D02*
X58502438Y-5357142D01*
X58502438Y-5357142D02*
X58454819Y-5261904D01*
X58454819Y-5261904D02*
X58454819Y-5023809D01*
X58454819Y-5023809D02*
X58502438Y-4928571D01*
X58502438Y-4928571D02*
X58550057Y-4880952D01*
X58550057Y-4880952D02*
X58645295Y-4833333D01*
X58645295Y-4833333D02*
X58740533Y-4833333D01*
X58740533Y-4833333D02*
X58883390Y-4880952D01*
X58883390Y-4880952D02*
X59454819Y-5452380D01*
X59454819Y-5452380D02*
X59454819Y-4833333D01*
X70166666Y-8454819D02*
X70166666Y-9169104D01*
X70166666Y-9169104D02*
X70119047Y-9311961D01*
X70119047Y-9311961D02*
X70023809Y-9407200D01*
X70023809Y-9407200D02*
X69880952Y-9454819D01*
X69880952Y-9454819D02*
X69785714Y-9454819D01*
X71166666Y-9454819D02*
X70595238Y-9454819D01*
X70880952Y-9454819D02*
X70880952Y-8454819D01*
X70880952Y-8454819D02*
X70785714Y-8597676D01*
X70785714Y-8597676D02*
X70690476Y-8692914D01*
X70690476Y-8692914D02*
X70595238Y-8740533D01*
X78666666Y-51454819D02*
X78666666Y-52169104D01*
X78666666Y-52169104D02*
X78619047Y-52311961D01*
X78619047Y-52311961D02*
X78523809Y-52407200D01*
X78523809Y-52407200D02*
X78380952Y-52454819D01*
X78380952Y-52454819D02*
X78285714Y-52454819D01*
X79047619Y-51454819D02*
X79666666Y-51454819D01*
X79666666Y-51454819D02*
X79333333Y-51835771D01*
X79333333Y-51835771D02*
X79476190Y-51835771D01*
X79476190Y-51835771D02*
X79571428Y-51883390D01*
X79571428Y-51883390D02*
X79619047Y-51931009D01*
X79619047Y-51931009D02*
X79666666Y-52026247D01*
X79666666Y-52026247D02*
X79666666Y-52264342D01*
X79666666Y-52264342D02*
X79619047Y-52359580D01*
X79619047Y-52359580D02*
X79571428Y-52407200D01*
X79571428Y-52407200D02*
X79476190Y-52454819D01*
X79476190Y-52454819D02*
X79190476Y-52454819D01*
X79190476Y-52454819D02*
X79095238Y-52407200D01*
X79095238Y-52407200D02*
X79047619Y-52359580D01*
X55285714Y-33954819D02*
X55285714Y-32954819D01*
X55285714Y-32954819D02*
X55523809Y-32954819D01*
X55523809Y-32954819D02*
X55666666Y-33002438D01*
X55666666Y-33002438D02*
X55761904Y-33097676D01*
X55761904Y-33097676D02*
X55809523Y-33192914D01*
X55809523Y-33192914D02*
X55857142Y-33383390D01*
X55857142Y-33383390D02*
X55857142Y-33526247D01*
X55857142Y-33526247D02*
X55809523Y-33716723D01*
X55809523Y-33716723D02*
X55761904Y-33811961D01*
X55761904Y-33811961D02*
X55666666Y-33907200D01*
X55666666Y-33907200D02*
X55523809Y-33954819D01*
X55523809Y-33954819D02*
X55285714Y-33954819D01*
X56809523Y-33954819D02*
X56238095Y-33954819D01*
X56523809Y-33954819D02*
X56523809Y-32954819D01*
X56523809Y-32954819D02*
X56428571Y-33097676D01*
X56428571Y-33097676D02*
X56333333Y-33192914D01*
X56333333Y-33192914D02*
X56238095Y-33240533D01*
X57190476Y-33050057D02*
X57238095Y-33002438D01*
X57238095Y-33002438D02*
X57333333Y-32954819D01*
X57333333Y-32954819D02*
X57571428Y-32954819D01*
X57571428Y-32954819D02*
X57666666Y-33002438D01*
X57666666Y-33002438D02*
X57714285Y-33050057D01*
X57714285Y-33050057D02*
X57761904Y-33145295D01*
X57761904Y-33145295D02*
X57761904Y-33240533D01*
X57761904Y-33240533D02*
X57714285Y-33383390D01*
X57714285Y-33383390D02*
X57142857Y-33954819D01*
X57142857Y-33954819D02*
X57761904Y-33954819D01*
X60285714Y-21454819D02*
X60285714Y-20454819D01*
X60285714Y-20454819D02*
X60523809Y-20454819D01*
X60523809Y-20454819D02*
X60666666Y-20502438D01*
X60666666Y-20502438D02*
X60761904Y-20597676D01*
X60761904Y-20597676D02*
X60809523Y-20692914D01*
X60809523Y-20692914D02*
X60857142Y-20883390D01*
X60857142Y-20883390D02*
X60857142Y-21026247D01*
X60857142Y-21026247D02*
X60809523Y-21216723D01*
X60809523Y-21216723D02*
X60761904Y-21311961D01*
X60761904Y-21311961D02*
X60666666Y-21407200D01*
X60666666Y-21407200D02*
X60523809Y-21454819D01*
X60523809Y-21454819D02*
X60285714Y-21454819D01*
X61809523Y-21454819D02*
X61238095Y-21454819D01*
X61523809Y-21454819D02*
X61523809Y-20454819D01*
X61523809Y-20454819D02*
X61428571Y-20597676D01*
X61428571Y-20597676D02*
X61333333Y-20692914D01*
X61333333Y-20692914D02*
X61238095Y-20740533D01*
X62428571Y-20454819D02*
X62523809Y-20454819D01*
X62523809Y-20454819D02*
X62619047Y-20502438D01*
X62619047Y-20502438D02*
X62666666Y-20550057D01*
X62666666Y-20550057D02*
X62714285Y-20645295D01*
X62714285Y-20645295D02*
X62761904Y-20835771D01*
X62761904Y-20835771D02*
X62761904Y-21073866D01*
X62761904Y-21073866D02*
X62714285Y-21264342D01*
X62714285Y-21264342D02*
X62666666Y-21359580D01*
X62666666Y-21359580D02*
X62619047Y-21407200D01*
X62619047Y-21407200D02*
X62523809Y-21454819D01*
X62523809Y-21454819D02*
X62428571Y-21454819D01*
X62428571Y-21454819D02*
X62333333Y-21407200D01*
X62333333Y-21407200D02*
X62285714Y-21359580D01*
X62285714Y-21359580D02*
X62238095Y-21264342D01*
X62238095Y-21264342D02*
X62190476Y-21073866D01*
X62190476Y-21073866D02*
X62190476Y-20835771D01*
X62190476Y-20835771D02*
X62238095Y-20645295D01*
X62238095Y-20645295D02*
X62285714Y-20550057D01*
X62285714Y-20550057D02*
X62333333Y-20502438D01*
X62333333Y-20502438D02*
X62428571Y-20454819D01*
X31261905Y-21454819D02*
X31261905Y-20454819D01*
X31261905Y-20454819D02*
X31500000Y-20454819D01*
X31500000Y-20454819D02*
X31642857Y-20502438D01*
X31642857Y-20502438D02*
X31738095Y-20597676D01*
X31738095Y-20597676D02*
X31785714Y-20692914D01*
X31785714Y-20692914D02*
X31833333Y-20883390D01*
X31833333Y-20883390D02*
X31833333Y-21026247D01*
X31833333Y-21026247D02*
X31785714Y-21216723D01*
X31785714Y-21216723D02*
X31738095Y-21311961D01*
X31738095Y-21311961D02*
X31642857Y-21407200D01*
X31642857Y-21407200D02*
X31500000Y-21454819D01*
X31500000Y-21454819D02*
X31261905Y-21454819D01*
X32309524Y-21454819D02*
X32500000Y-21454819D01*
X32500000Y-21454819D02*
X32595238Y-21407200D01*
X32595238Y-21407200D02*
X32642857Y-21359580D01*
X32642857Y-21359580D02*
X32738095Y-21216723D01*
X32738095Y-21216723D02*
X32785714Y-21026247D01*
X32785714Y-21026247D02*
X32785714Y-20645295D01*
X32785714Y-20645295D02*
X32738095Y-20550057D01*
X32738095Y-20550057D02*
X32690476Y-20502438D01*
X32690476Y-20502438D02*
X32595238Y-20454819D01*
X32595238Y-20454819D02*
X32404762Y-20454819D01*
X32404762Y-20454819D02*
X32309524Y-20502438D01*
X32309524Y-20502438D02*
X32261905Y-20550057D01*
X32261905Y-20550057D02*
X32214286Y-20645295D01*
X32214286Y-20645295D02*
X32214286Y-20883390D01*
X32214286Y-20883390D02*
X32261905Y-20978628D01*
X32261905Y-20978628D02*
X32309524Y-21026247D01*
X32309524Y-21026247D02*
X32404762Y-21073866D01*
X32404762Y-21073866D02*
X32595238Y-21073866D01*
X32595238Y-21073866D02*
X32690476Y-21026247D01*
X32690476Y-21026247D02*
X32738095Y-20978628D01*
X32738095Y-20978628D02*
X32785714Y-20883390D01*
X51785714Y-53954819D02*
X51785714Y-52954819D01*
X51785714Y-52954819D02*
X52023809Y-52954819D01*
X52023809Y-52954819D02*
X52166666Y-53002438D01*
X52166666Y-53002438D02*
X52261904Y-53097676D01*
X52261904Y-53097676D02*
X52309523Y-53192914D01*
X52309523Y-53192914D02*
X52357142Y-53383390D01*
X52357142Y-53383390D02*
X52357142Y-53526247D01*
X52357142Y-53526247D02*
X52309523Y-53716723D01*
X52309523Y-53716723D02*
X52261904Y-53811961D01*
X52261904Y-53811961D02*
X52166666Y-53907200D01*
X52166666Y-53907200D02*
X52023809Y-53954819D01*
X52023809Y-53954819D02*
X51785714Y-53954819D01*
X53309523Y-53954819D02*
X52738095Y-53954819D01*
X53023809Y-53954819D02*
X53023809Y-52954819D01*
X53023809Y-52954819D02*
X52928571Y-53097676D01*
X52928571Y-53097676D02*
X52833333Y-53192914D01*
X52833333Y-53192914D02*
X52738095Y-53240533D01*
X54166666Y-52954819D02*
X53976190Y-52954819D01*
X53976190Y-52954819D02*
X53880952Y-53002438D01*
X53880952Y-53002438D02*
X53833333Y-53050057D01*
X53833333Y-53050057D02*
X53738095Y-53192914D01*
X53738095Y-53192914D02*
X53690476Y-53383390D01*
X53690476Y-53383390D02*
X53690476Y-53764342D01*
X53690476Y-53764342D02*
X53738095Y-53859580D01*
X53738095Y-53859580D02*
X53785714Y-53907200D01*
X53785714Y-53907200D02*
X53880952Y-53954819D01*
X53880952Y-53954819D02*
X54071428Y-53954819D01*
X54071428Y-53954819D02*
X54166666Y-53907200D01*
X54166666Y-53907200D02*
X54214285Y-53859580D01*
X54214285Y-53859580D02*
X54261904Y-53764342D01*
X54261904Y-53764342D02*
X54261904Y-53526247D01*
X54261904Y-53526247D02*
X54214285Y-53431009D01*
X54214285Y-53431009D02*
X54166666Y-53383390D01*
X54166666Y-53383390D02*
X54071428Y-53335771D01*
X54071428Y-53335771D02*
X53880952Y-53335771D01*
X53880952Y-53335771D02*
X53785714Y-53383390D01*
X53785714Y-53383390D02*
X53738095Y-53431009D01*
X53738095Y-53431009D02*
X53690476Y-53526247D01*
X23357142Y-41804819D02*
X23023809Y-41328628D01*
X22785714Y-41804819D02*
X22785714Y-40804819D01*
X22785714Y-40804819D02*
X23166666Y-40804819D01*
X23166666Y-40804819D02*
X23261904Y-40852438D01*
X23261904Y-40852438D02*
X23309523Y-40900057D01*
X23309523Y-40900057D02*
X23357142Y-40995295D01*
X23357142Y-40995295D02*
X23357142Y-41138152D01*
X23357142Y-41138152D02*
X23309523Y-41233390D01*
X23309523Y-41233390D02*
X23261904Y-41281009D01*
X23261904Y-41281009D02*
X23166666Y-41328628D01*
X23166666Y-41328628D02*
X22785714Y-41328628D01*
X24309523Y-41804819D02*
X23738095Y-41804819D01*
X24023809Y-41804819D02*
X24023809Y-40804819D01*
X24023809Y-40804819D02*
X23928571Y-40947676D01*
X23928571Y-40947676D02*
X23833333Y-41042914D01*
X23833333Y-41042914D02*
X23738095Y-41090533D01*
X25214285Y-40804819D02*
X24738095Y-40804819D01*
X24738095Y-40804819D02*
X24690476Y-41281009D01*
X24690476Y-41281009D02*
X24738095Y-41233390D01*
X24738095Y-41233390D02*
X24833333Y-41185771D01*
X24833333Y-41185771D02*
X25071428Y-41185771D01*
X25071428Y-41185771D02*
X25166666Y-41233390D01*
X25166666Y-41233390D02*
X25214285Y-41281009D01*
X25214285Y-41281009D02*
X25261904Y-41376247D01*
X25261904Y-41376247D02*
X25261904Y-41614342D01*
X25261904Y-41614342D02*
X25214285Y-41709580D01*
X25214285Y-41709580D02*
X25166666Y-41757200D01*
X25166666Y-41757200D02*
X25071428Y-41804819D01*
X25071428Y-41804819D02*
X24833333Y-41804819D01*
X24833333Y-41804819D02*
X24738095Y-41757200D01*
X24738095Y-41757200D02*
X24690476Y-41709580D01*
X7261905Y-44954819D02*
X7261905Y-43954819D01*
X7261905Y-43954819D02*
X7500000Y-43954819D01*
X7500000Y-43954819D02*
X7642857Y-44002438D01*
X7642857Y-44002438D02*
X7738095Y-44097676D01*
X7738095Y-44097676D02*
X7785714Y-44192914D01*
X7785714Y-44192914D02*
X7833333Y-44383390D01*
X7833333Y-44383390D02*
X7833333Y-44526247D01*
X7833333Y-44526247D02*
X7785714Y-44716723D01*
X7785714Y-44716723D02*
X7738095Y-44811961D01*
X7738095Y-44811961D02*
X7642857Y-44907200D01*
X7642857Y-44907200D02*
X7500000Y-44954819D01*
X7500000Y-44954819D02*
X7261905Y-44954819D01*
X8166667Y-43954819D02*
X8833333Y-43954819D01*
X8833333Y-43954819D02*
X8404762Y-44954819D01*
X18857142Y-12804819D02*
X18523809Y-12328628D01*
X18285714Y-12804819D02*
X18285714Y-11804819D01*
X18285714Y-11804819D02*
X18666666Y-11804819D01*
X18666666Y-11804819D02*
X18761904Y-11852438D01*
X18761904Y-11852438D02*
X18809523Y-11900057D01*
X18809523Y-11900057D02*
X18857142Y-11995295D01*
X18857142Y-11995295D02*
X18857142Y-12138152D01*
X18857142Y-12138152D02*
X18809523Y-12233390D01*
X18809523Y-12233390D02*
X18761904Y-12281009D01*
X18761904Y-12281009D02*
X18666666Y-12328628D01*
X18666666Y-12328628D02*
X18285714Y-12328628D01*
X19809523Y-12804819D02*
X19238095Y-12804819D01*
X19523809Y-12804819D02*
X19523809Y-11804819D01*
X19523809Y-11804819D02*
X19428571Y-11947676D01*
X19428571Y-11947676D02*
X19333333Y-12042914D01*
X19333333Y-12042914D02*
X19238095Y-12090533D01*
X20142857Y-11804819D02*
X20809523Y-11804819D01*
X20809523Y-11804819D02*
X20380952Y-12804819D01*
X7261905Y-22954819D02*
X7261905Y-21954819D01*
X7261905Y-21954819D02*
X7500000Y-21954819D01*
X7500000Y-21954819D02*
X7642857Y-22002438D01*
X7642857Y-22002438D02*
X7738095Y-22097676D01*
X7738095Y-22097676D02*
X7785714Y-22192914D01*
X7785714Y-22192914D02*
X7833333Y-22383390D01*
X7833333Y-22383390D02*
X7833333Y-22526247D01*
X7833333Y-22526247D02*
X7785714Y-22716723D01*
X7785714Y-22716723D02*
X7738095Y-22811961D01*
X7738095Y-22811961D02*
X7642857Y-22907200D01*
X7642857Y-22907200D02*
X7500000Y-22954819D01*
X7500000Y-22954819D02*
X7261905Y-22954819D01*
X8166667Y-21954819D02*
X8785714Y-21954819D01*
X8785714Y-21954819D02*
X8452381Y-22335771D01*
X8452381Y-22335771D02*
X8595238Y-22335771D01*
X8595238Y-22335771D02*
X8690476Y-22383390D01*
X8690476Y-22383390D02*
X8738095Y-22431009D01*
X8738095Y-22431009D02*
X8785714Y-22526247D01*
X8785714Y-22526247D02*
X8785714Y-22764342D01*
X8785714Y-22764342D02*
X8738095Y-22859580D01*
X8738095Y-22859580D02*
X8690476Y-22907200D01*
X8690476Y-22907200D02*
X8595238Y-22954819D01*
X8595238Y-22954819D02*
X8309524Y-22954819D01*
X8309524Y-22954819D02*
X8214286Y-22907200D01*
X8214286Y-22907200D02*
X8166667Y-22859580D01*
X36261905Y-22954819D02*
X36261905Y-21954819D01*
X36261905Y-21954819D02*
X36500000Y-21954819D01*
X36500000Y-21954819D02*
X36642857Y-22002438D01*
X36642857Y-22002438D02*
X36738095Y-22097676D01*
X36738095Y-22097676D02*
X36785714Y-22192914D01*
X36785714Y-22192914D02*
X36833333Y-22383390D01*
X36833333Y-22383390D02*
X36833333Y-22526247D01*
X36833333Y-22526247D02*
X36785714Y-22716723D01*
X36785714Y-22716723D02*
X36738095Y-22811961D01*
X36738095Y-22811961D02*
X36642857Y-22907200D01*
X36642857Y-22907200D02*
X36500000Y-22954819D01*
X36500000Y-22954819D02*
X36261905Y-22954819D01*
X37690476Y-22288152D02*
X37690476Y-22954819D01*
X37452381Y-21907200D02*
X37214286Y-22621485D01*
X37214286Y-22621485D02*
X37833333Y-22621485D01*
X27055714Y-40494819D02*
X27055714Y-39494819D01*
X27055714Y-39494819D02*
X27293809Y-39494819D01*
X27293809Y-39494819D02*
X27436666Y-39542438D01*
X27436666Y-39542438D02*
X27531904Y-39637676D01*
X27531904Y-39637676D02*
X27579523Y-39732914D01*
X27579523Y-39732914D02*
X27627142Y-39923390D01*
X27627142Y-39923390D02*
X27627142Y-40066247D01*
X27627142Y-40066247D02*
X27579523Y-40256723D01*
X27579523Y-40256723D02*
X27531904Y-40351961D01*
X27531904Y-40351961D02*
X27436666Y-40447200D01*
X27436666Y-40447200D02*
X27293809Y-40494819D01*
X27293809Y-40494819D02*
X27055714Y-40494819D01*
X28579523Y-40494819D02*
X28008095Y-40494819D01*
X28293809Y-40494819D02*
X28293809Y-39494819D01*
X28293809Y-39494819D02*
X28198571Y-39637676D01*
X28198571Y-39637676D02*
X28103333Y-39732914D01*
X28103333Y-39732914D02*
X28008095Y-39780533D01*
X28912857Y-39494819D02*
X29531904Y-39494819D01*
X29531904Y-39494819D02*
X29198571Y-39875771D01*
X29198571Y-39875771D02*
X29341428Y-39875771D01*
X29341428Y-39875771D02*
X29436666Y-39923390D01*
X29436666Y-39923390D02*
X29484285Y-39971009D01*
X29484285Y-39971009D02*
X29531904Y-40066247D01*
X29531904Y-40066247D02*
X29531904Y-40304342D01*
X29531904Y-40304342D02*
X29484285Y-40399580D01*
X29484285Y-40399580D02*
X29436666Y-40447200D01*
X29436666Y-40447200D02*
X29341428Y-40494819D01*
X29341428Y-40494819D02*
X29055714Y-40494819D01*
X29055714Y-40494819D02*
X28960476Y-40447200D01*
X28960476Y-40447200D02*
X28912857Y-40399580D01*
X44420833Y-32304819D02*
X44087500Y-31828628D01*
X43849405Y-32304819D02*
X43849405Y-31304819D01*
X43849405Y-31304819D02*
X44230357Y-31304819D01*
X44230357Y-31304819D02*
X44325595Y-31352438D01*
X44325595Y-31352438D02*
X44373214Y-31400057D01*
X44373214Y-31400057D02*
X44420833Y-31495295D01*
X44420833Y-31495295D02*
X44420833Y-31638152D01*
X44420833Y-31638152D02*
X44373214Y-31733390D01*
X44373214Y-31733390D02*
X44325595Y-31781009D01*
X44325595Y-31781009D02*
X44230357Y-31828628D01*
X44230357Y-31828628D02*
X43849405Y-31828628D01*
X45277976Y-31304819D02*
X45087500Y-31304819D01*
X45087500Y-31304819D02*
X44992262Y-31352438D01*
X44992262Y-31352438D02*
X44944643Y-31400057D01*
X44944643Y-31400057D02*
X44849405Y-31542914D01*
X44849405Y-31542914D02*
X44801786Y-31733390D01*
X44801786Y-31733390D02*
X44801786Y-32114342D01*
X44801786Y-32114342D02*
X44849405Y-32209580D01*
X44849405Y-32209580D02*
X44897024Y-32257200D01*
X44897024Y-32257200D02*
X44992262Y-32304819D01*
X44992262Y-32304819D02*
X45182738Y-32304819D01*
X45182738Y-32304819D02*
X45277976Y-32257200D01*
X45277976Y-32257200D02*
X45325595Y-32209580D01*
X45325595Y-32209580D02*
X45373214Y-32114342D01*
X45373214Y-32114342D02*
X45373214Y-31876247D01*
X45373214Y-31876247D02*
X45325595Y-31781009D01*
X45325595Y-31781009D02*
X45277976Y-31733390D01*
X45277976Y-31733390D02*
X45182738Y-31685771D01*
X45182738Y-31685771D02*
X44992262Y-31685771D01*
X44992262Y-31685771D02*
X44897024Y-31733390D01*
X44897024Y-31733390D02*
X44849405Y-31781009D01*
X44849405Y-31781009D02*
X44801786Y-31876247D01*
X94515714Y-41994819D02*
X94515714Y-40994819D01*
X94515714Y-40994819D02*
X94753809Y-40994819D01*
X94753809Y-40994819D02*
X94896666Y-41042438D01*
X94896666Y-41042438D02*
X94991904Y-41137676D01*
X94991904Y-41137676D02*
X95039523Y-41232914D01*
X95039523Y-41232914D02*
X95087142Y-41423390D01*
X95087142Y-41423390D02*
X95087142Y-41566247D01*
X95087142Y-41566247D02*
X95039523Y-41756723D01*
X95039523Y-41756723D02*
X94991904Y-41851961D01*
X94991904Y-41851961D02*
X94896666Y-41947200D01*
X94896666Y-41947200D02*
X94753809Y-41994819D01*
X94753809Y-41994819D02*
X94515714Y-41994819D01*
X96039523Y-41994819D02*
X95468095Y-41994819D01*
X95753809Y-41994819D02*
X95753809Y-40994819D01*
X95753809Y-40994819D02*
X95658571Y-41137676D01*
X95658571Y-41137676D02*
X95563333Y-41232914D01*
X95563333Y-41232914D02*
X95468095Y-41280533D01*
X96515714Y-41994819D02*
X96706190Y-41994819D01*
X96706190Y-41994819D02*
X96801428Y-41947200D01*
X96801428Y-41947200D02*
X96849047Y-41899580D01*
X96849047Y-41899580D02*
X96944285Y-41756723D01*
X96944285Y-41756723D02*
X96991904Y-41566247D01*
X96991904Y-41566247D02*
X96991904Y-41185295D01*
X96991904Y-41185295D02*
X96944285Y-41090057D01*
X96944285Y-41090057D02*
X96896666Y-41042438D01*
X96896666Y-41042438D02*
X96801428Y-40994819D01*
X96801428Y-40994819D02*
X96610952Y-40994819D01*
X96610952Y-40994819D02*
X96515714Y-41042438D01*
X96515714Y-41042438D02*
X96468095Y-41090057D01*
X96468095Y-41090057D02*
X96420476Y-41185295D01*
X96420476Y-41185295D02*
X96420476Y-41423390D01*
X96420476Y-41423390D02*
X96468095Y-41518628D01*
X96468095Y-41518628D02*
X96515714Y-41566247D01*
X96515714Y-41566247D02*
X96610952Y-41613866D01*
X96610952Y-41613866D02*
X96801428Y-41613866D01*
X96801428Y-41613866D02*
X96896666Y-41566247D01*
X96896666Y-41566247D02*
X96944285Y-41518628D01*
X96944285Y-41518628D02*
X96991904Y-41423390D01*
X23357142Y-19804819D02*
X23023809Y-19328628D01*
X22785714Y-19804819D02*
X22785714Y-18804819D01*
X22785714Y-18804819D02*
X23166666Y-18804819D01*
X23166666Y-18804819D02*
X23261904Y-18852438D01*
X23261904Y-18852438D02*
X23309523Y-18900057D01*
X23309523Y-18900057D02*
X23357142Y-18995295D01*
X23357142Y-18995295D02*
X23357142Y-19138152D01*
X23357142Y-19138152D02*
X23309523Y-19233390D01*
X23309523Y-19233390D02*
X23261904Y-19281009D01*
X23261904Y-19281009D02*
X23166666Y-19328628D01*
X23166666Y-19328628D02*
X22785714Y-19328628D01*
X24309523Y-19804819D02*
X23738095Y-19804819D01*
X24023809Y-19804819D02*
X24023809Y-18804819D01*
X24023809Y-18804819D02*
X23928571Y-18947676D01*
X23928571Y-18947676D02*
X23833333Y-19042914D01*
X23833333Y-19042914D02*
X23738095Y-19090533D01*
X25261904Y-19804819D02*
X24690476Y-19804819D01*
X24976190Y-19804819D02*
X24976190Y-18804819D01*
X24976190Y-18804819D02*
X24880952Y-18947676D01*
X24880952Y-18947676D02*
X24785714Y-19042914D01*
X24785714Y-19042914D02*
X24690476Y-19090533D01*
X56048095Y-11124819D02*
X56048095Y-11934342D01*
X56048095Y-11934342D02*
X56095714Y-12029580D01*
X56095714Y-12029580D02*
X56143333Y-12077200D01*
X56143333Y-12077200D02*
X56238571Y-12124819D01*
X56238571Y-12124819D02*
X56429047Y-12124819D01*
X56429047Y-12124819D02*
X56524285Y-12077200D01*
X56524285Y-12077200D02*
X56571904Y-12029580D01*
X56571904Y-12029580D02*
X56619523Y-11934342D01*
X56619523Y-11934342D02*
X56619523Y-11124819D01*
X57048095Y-11220057D02*
X57095714Y-11172438D01*
X57095714Y-11172438D02*
X57190952Y-11124819D01*
X57190952Y-11124819D02*
X57429047Y-11124819D01*
X57429047Y-11124819D02*
X57524285Y-11172438D01*
X57524285Y-11172438D02*
X57571904Y-11220057D01*
X57571904Y-11220057D02*
X57619523Y-11315295D01*
X57619523Y-11315295D02*
X57619523Y-11410533D01*
X57619523Y-11410533D02*
X57571904Y-11553390D01*
X57571904Y-11553390D02*
X57000476Y-12124819D01*
X57000476Y-12124819D02*
X57619523Y-12124819D01*
D12*
%TO.C,R18*%
X48772936Y-8265000D02*
X49227064Y-8265000D01*
X48772936Y-9735000D02*
X49227064Y-9735000D01*
%TO.C,U5*%
X25160000Y-34670000D02*
X25160000Y-39870000D01*
X25160000Y-39870000D02*
X30460000Y-39870000D01*
X26810000Y-34670000D02*
X25160000Y-34670000D01*
X30460000Y-34670000D02*
X28810000Y-34670000D01*
X30460000Y-39870000D02*
X30460000Y-34670000D01*
X28810000Y-34670000D02*
G75*
G02*
X26810000Y-34670000I-1000000J0D01*
G01*
%TO.C,R16*%
X52772936Y-42265000D02*
X53227064Y-42265000D01*
X52772936Y-43735000D02*
X53227064Y-43735000D01*
%TO.C,D8*%
X33490000Y-45350000D02*
X33490000Y-48650000D01*
X33490000Y-45350000D02*
X39000000Y-45350000D01*
X33490000Y-48650000D02*
X39000000Y-48650000D01*
%TO.C,R5*%
X14772936Y-35265000D02*
X15227064Y-35265000D01*
X14772936Y-36735000D02*
X15227064Y-36735000D01*
%TO.C,D5*%
X4490000Y-34350000D02*
X4490000Y-37650000D01*
X4490000Y-34350000D02*
X10000000Y-34350000D01*
X4490000Y-37650000D02*
X10000000Y-37650000D01*
%TO.C,U8*%
X54160000Y-45670000D02*
X54160000Y-50870000D01*
X54160000Y-50870000D02*
X59460000Y-50870000D01*
X55810000Y-45670000D02*
X54160000Y-45670000D01*
X59460000Y-45670000D02*
X57810000Y-45670000D01*
X59460000Y-50870000D02*
X59460000Y-45670000D01*
X57810000Y-45670000D02*
G75*
G02*
X55810000Y-45670000I-1000000J0D01*
G01*
%TO.C,R10*%
X52772936Y-9265000D02*
X53227064Y-9265000D01*
X52772936Y-10735000D02*
X53227064Y-10735000D01*
%TO.C,D18*%
X67350000Y-30990000D02*
X67350000Y-36500000D01*
X70650000Y-30990000D02*
X67350000Y-30990000D01*
X70650000Y-30990000D02*
X70650000Y-36500000D01*
%TO.C,C1*%
X66840302Y-12185000D02*
X67640302Y-12185000D01*
X67240302Y-11785000D02*
X67240302Y-12585000D01*
X71250000Y-10420000D02*
X71250000Y-18580000D01*
X71290000Y-10420000D02*
X71290000Y-18580000D01*
X71330000Y-10421000D02*
X71330000Y-18579000D01*
X71370000Y-10422000D02*
X71370000Y-18578000D01*
X71410000Y-10423000D02*
X71410000Y-18577000D01*
X71450000Y-10425000D02*
X71450000Y-18575000D01*
X71490000Y-10427000D02*
X71490000Y-18573000D01*
X71530000Y-10430000D02*
X71530000Y-18570000D01*
X71570000Y-10432000D02*
X71570000Y-18568000D01*
X71610000Y-10436000D02*
X71610000Y-18564000D01*
X71650000Y-10439000D02*
X71650000Y-18561000D01*
X71690000Y-10444000D02*
X71690000Y-18556000D01*
X71730000Y-10448000D02*
X71730000Y-18552000D01*
X71770000Y-10453000D02*
X71770000Y-18547000D01*
X71810000Y-10458000D02*
X71810000Y-18542000D01*
X71850000Y-10464000D02*
X71850000Y-18536000D01*
X71890000Y-10470000D02*
X71890000Y-18530000D01*
X71930000Y-10477000D02*
X71930000Y-18523000D01*
X71970000Y-10483000D02*
X71970000Y-13460000D01*
X71970000Y-15540000D02*
X71970000Y-18517000D01*
X72010000Y-10491000D02*
X72010000Y-13460000D01*
X72010000Y-15540000D02*
X72010000Y-18509000D01*
X72050000Y-10498000D02*
X72050000Y-13460000D01*
X72050000Y-15540000D02*
X72050000Y-18502000D01*
X72090000Y-10507000D02*
X72090000Y-13460000D01*
X72090000Y-15540000D02*
X72090000Y-18493000D01*
X72130000Y-10515000D02*
X72130000Y-13460000D01*
X72130000Y-15540000D02*
X72130000Y-18485000D01*
X72170000Y-10524000D02*
X72170000Y-13460000D01*
X72170000Y-15540000D02*
X72170000Y-18476000D01*
X72210000Y-10533000D02*
X72210000Y-13460000D01*
X72210000Y-15540000D02*
X72210000Y-18467000D01*
X72250000Y-10543000D02*
X72250000Y-13460000D01*
X72250000Y-15540000D02*
X72250000Y-18457000D01*
X72290000Y-10553000D02*
X72290000Y-13460000D01*
X72290000Y-15540000D02*
X72290000Y-18447000D01*
X72330000Y-10564000D02*
X72330000Y-13460000D01*
X72330000Y-15540000D02*
X72330000Y-18436000D01*
X72370000Y-10575000D02*
X72370000Y-13460000D01*
X72370000Y-15540000D02*
X72370000Y-18425000D01*
X72410000Y-10587000D02*
X72410000Y-13460000D01*
X72410000Y-15540000D02*
X72410000Y-18413000D01*
X72450000Y-10599000D02*
X72450000Y-13460000D01*
X72450000Y-15540000D02*
X72450000Y-18401000D01*
X72490000Y-10611000D02*
X72490000Y-13460000D01*
X72490000Y-15540000D02*
X72490000Y-18389000D01*
X72530000Y-10624000D02*
X72530000Y-13460000D01*
X72530000Y-15540000D02*
X72530000Y-18376000D01*
X72570000Y-10637000D02*
X72570000Y-13460000D01*
X72570000Y-15540000D02*
X72570000Y-18363000D01*
X72610000Y-10651000D02*
X72610000Y-13460000D01*
X72610000Y-15540000D02*
X72610000Y-18349000D01*
X72650000Y-10665000D02*
X72650000Y-13460000D01*
X72650000Y-15540000D02*
X72650000Y-18335000D01*
X72690000Y-10680000D02*
X72690000Y-13460000D01*
X72690000Y-15540000D02*
X72690000Y-18320000D01*
X72730000Y-10695000D02*
X72730000Y-13460000D01*
X72730000Y-15540000D02*
X72730000Y-18305000D01*
X72770000Y-10711000D02*
X72770000Y-13460000D01*
X72770000Y-15540000D02*
X72770000Y-18289000D01*
X72810000Y-10727000D02*
X72810000Y-13460000D01*
X72810000Y-15540000D02*
X72810000Y-18273000D01*
X72850000Y-10743000D02*
X72850000Y-13460000D01*
X72850000Y-15540000D02*
X72850000Y-18257000D01*
X72890000Y-10760000D02*
X72890000Y-13460000D01*
X72890000Y-15540000D02*
X72890000Y-18240000D01*
X72930000Y-10778000D02*
X72930000Y-13460000D01*
X72930000Y-15540000D02*
X72930000Y-18222000D01*
X72970000Y-10796000D02*
X72970000Y-13460000D01*
X72970000Y-15540000D02*
X72970000Y-18204000D01*
X73010000Y-10815000D02*
X73010000Y-13460000D01*
X73010000Y-15540000D02*
X73010000Y-18185000D01*
X73050000Y-10834000D02*
X73050000Y-13460000D01*
X73050000Y-15540000D02*
X73050000Y-18166000D01*
X73090000Y-10854000D02*
X73090000Y-13460000D01*
X73090000Y-15540000D02*
X73090000Y-18146000D01*
X73130000Y-10874000D02*
X73130000Y-13460000D01*
X73130000Y-15540000D02*
X73130000Y-18126000D01*
X73170000Y-10895000D02*
X73170000Y-13460000D01*
X73170000Y-15540000D02*
X73170000Y-18105000D01*
X73210000Y-10916000D02*
X73210000Y-13460000D01*
X73210000Y-15540000D02*
X73210000Y-18084000D01*
X73250000Y-10938000D02*
X73250000Y-13460000D01*
X73250000Y-15540000D02*
X73250000Y-18062000D01*
X73290000Y-10961000D02*
X73290000Y-13460000D01*
X73290000Y-15540000D02*
X73290000Y-18039000D01*
X73330000Y-10984000D02*
X73330000Y-13460000D01*
X73330000Y-15540000D02*
X73330000Y-18016000D01*
X73370000Y-11007000D02*
X73370000Y-13460000D01*
X73370000Y-15540000D02*
X73370000Y-17993000D01*
X73410000Y-11032000D02*
X73410000Y-13460000D01*
X73410000Y-15540000D02*
X73410000Y-17968000D01*
X73450000Y-11057000D02*
X73450000Y-13460000D01*
X73450000Y-15540000D02*
X73450000Y-17943000D01*
X73490000Y-11082000D02*
X73490000Y-13460000D01*
X73490000Y-15540000D02*
X73490000Y-17918000D01*
X73530000Y-11108000D02*
X73530000Y-13460000D01*
X73530000Y-15540000D02*
X73530000Y-17892000D01*
X73570000Y-11135000D02*
X73570000Y-13460000D01*
X73570000Y-15540000D02*
X73570000Y-17865000D01*
X73610000Y-11163000D02*
X73610000Y-13460000D01*
X73610000Y-15540000D02*
X73610000Y-17837000D01*
X73650000Y-11191000D02*
X73650000Y-13460000D01*
X73650000Y-15540000D02*
X73650000Y-17809000D01*
X73690000Y-11220000D02*
X73690000Y-13460000D01*
X73690000Y-15540000D02*
X73690000Y-17780000D01*
X73730000Y-11250000D02*
X73730000Y-13460000D01*
X73730000Y-15540000D02*
X73730000Y-17750000D01*
X73770000Y-11281000D02*
X73770000Y-13460000D01*
X73770000Y-15540000D02*
X73770000Y-17719000D01*
X73810000Y-11312000D02*
X73810000Y-13460000D01*
X73810000Y-15540000D02*
X73810000Y-17688000D01*
X73850000Y-11344000D02*
X73850000Y-13460000D01*
X73850000Y-15540000D02*
X73850000Y-17656000D01*
X73890000Y-11377000D02*
X73890000Y-13460000D01*
X73890000Y-15540000D02*
X73890000Y-17623000D01*
X73930000Y-11411000D02*
X73930000Y-13460000D01*
X73930000Y-15540000D02*
X73930000Y-17589000D01*
X73970000Y-11445000D02*
X73970000Y-13460000D01*
X73970000Y-15540000D02*
X73970000Y-17555000D01*
X74010000Y-11481000D02*
X74010000Y-13460000D01*
X74010000Y-15540000D02*
X74010000Y-17519000D01*
X74050000Y-11518000D02*
X74050000Y-17482000D01*
X74090000Y-11555000D02*
X74090000Y-17445000D01*
X74130000Y-11594000D02*
X74130000Y-17406000D01*
X74170000Y-11633000D02*
X74170000Y-17367000D01*
X74210000Y-11674000D02*
X74210000Y-17326000D01*
X74250000Y-11716000D02*
X74250000Y-17284000D01*
X74290000Y-11759000D02*
X74290000Y-17241000D01*
X74330000Y-11804000D02*
X74330000Y-17196000D01*
X74370000Y-11849000D02*
X74370000Y-17151000D01*
X74410000Y-11896000D02*
X74410000Y-17104000D01*
X74450000Y-11945000D02*
X74450000Y-17055000D01*
X74490000Y-11995000D02*
X74490000Y-17005000D01*
X74530000Y-12047000D02*
X74530000Y-16953000D01*
X74570000Y-12100000D02*
X74570000Y-16900000D01*
X74610000Y-12156000D02*
X74610000Y-16844000D01*
X74650000Y-12213000D02*
X74650000Y-16787000D01*
X74690000Y-12273000D02*
X74690000Y-16727000D01*
X74730000Y-12335000D02*
X74730000Y-16665000D01*
X74770000Y-12399000D02*
X74770000Y-16601000D01*
X74810000Y-12466000D02*
X74810000Y-16534000D01*
X74850000Y-12536000D02*
X74850000Y-16464000D01*
X74890000Y-12610000D02*
X74890000Y-16390000D01*
X74930000Y-12687000D02*
X74930000Y-16313000D01*
X74970000Y-12769000D02*
X74970000Y-16231000D01*
X75010000Y-12856000D02*
X75010000Y-16144000D01*
X75050000Y-12948000D02*
X75050000Y-16052000D01*
X75090000Y-13047000D02*
X75090000Y-15953000D01*
X75130000Y-13154000D02*
X75130000Y-15846000D01*
X75170000Y-13272000D02*
X75170000Y-15728000D01*
X75210000Y-13403000D02*
X75210000Y-15597000D01*
X75250000Y-13553000D02*
X75250000Y-15447000D01*
X75290000Y-13732000D02*
X75290000Y-15268000D01*
X75330000Y-13967000D02*
X75330000Y-15033000D01*
X75370000Y-14500000D02*
G75*
G02*
X67130000Y-14500000I-4120000J0D01*
G01*
X67130000Y-14500000D02*
G75*
G02*
X75370000Y-14500000I4120000J0D01*
G01*
%TO.C,R8*%
X43772936Y-46265000D02*
X44227064Y-46265000D01*
X43772936Y-47735000D02*
X44227064Y-47735000D01*
%TO.C,R23*%
X19772936Y-41265000D02*
X20227064Y-41265000D01*
X19772936Y-42735000D02*
X20227064Y-42735000D01*
%TO.C,D14*%
X55710000Y-41764000D02*
X55710000Y-41920000D01*
X55710000Y-44080000D02*
X55710000Y-44236000D01*
X55710000Y-41764484D02*
G75*
G02*
X58941437Y-41920000I1560000J-1235516D01*
G01*
X56229039Y-41920000D02*
G75*
G02*
X58310961Y-41920000I1040961J-1080000D01*
G01*
X58310961Y-44080000D02*
G75*
G02*
X56229039Y-44080000I-1040961J1080000D01*
G01*
X58941437Y-44080000D02*
G75*
G02*
X55710000Y-44235516I-1671437J1080000D01*
G01*
%TO.C,R21*%
X19772936Y-30265000D02*
X20227064Y-30265000D01*
X19772936Y-31735000D02*
X20227064Y-31735000D01*
%TO.C,R1*%
X14772936Y-13265000D02*
X15227064Y-13265000D01*
X14772936Y-14735000D02*
X15227064Y-14735000D01*
%TO.C,L1*%
X89620000Y-47000000D02*
G75*
G02*
X79380000Y-47000000I-5120000J0D01*
G01*
X79380000Y-47000000D02*
G75*
G02*
X89620000Y-47000000I5120000J0D01*
G01*
%TO.C,C2*%
X77840302Y-12185000D02*
X78640302Y-12185000D01*
X78240302Y-11785000D02*
X78240302Y-12585000D01*
X82250000Y-10420000D02*
X82250000Y-18580000D01*
X82290000Y-10420000D02*
X82290000Y-18580000D01*
X82330000Y-10421000D02*
X82330000Y-18579000D01*
X82370000Y-10422000D02*
X82370000Y-18578000D01*
X82410000Y-10423000D02*
X82410000Y-18577000D01*
X82450000Y-10425000D02*
X82450000Y-18575000D01*
X82490000Y-10427000D02*
X82490000Y-18573000D01*
X82530000Y-10430000D02*
X82530000Y-18570000D01*
X82570000Y-10432000D02*
X82570000Y-18568000D01*
X82610000Y-10436000D02*
X82610000Y-18564000D01*
X82650000Y-10439000D02*
X82650000Y-18561000D01*
X82690000Y-10444000D02*
X82690000Y-18556000D01*
X82730000Y-10448000D02*
X82730000Y-18552000D01*
X82770000Y-10453000D02*
X82770000Y-18547000D01*
X82810000Y-10458000D02*
X82810000Y-18542000D01*
X82850000Y-10464000D02*
X82850000Y-18536000D01*
X82890000Y-10470000D02*
X82890000Y-18530000D01*
X82930000Y-10477000D02*
X82930000Y-18523000D01*
X82970000Y-10483000D02*
X82970000Y-13460000D01*
X82970000Y-15540000D02*
X82970000Y-18517000D01*
X83010000Y-10491000D02*
X83010000Y-13460000D01*
X83010000Y-15540000D02*
X83010000Y-18509000D01*
X83050000Y-10498000D02*
X83050000Y-13460000D01*
X83050000Y-15540000D02*
X83050000Y-18502000D01*
X83090000Y-10507000D02*
X83090000Y-13460000D01*
X83090000Y-15540000D02*
X83090000Y-18493000D01*
X83130000Y-10515000D02*
X83130000Y-13460000D01*
X83130000Y-15540000D02*
X83130000Y-18485000D01*
X83170000Y-10524000D02*
X83170000Y-13460000D01*
X83170000Y-15540000D02*
X83170000Y-18476000D01*
X83210000Y-10533000D02*
X83210000Y-13460000D01*
X83210000Y-15540000D02*
X83210000Y-18467000D01*
X83250000Y-10543000D02*
X83250000Y-13460000D01*
X83250000Y-15540000D02*
X83250000Y-18457000D01*
X83290000Y-10553000D02*
X83290000Y-13460000D01*
X83290000Y-15540000D02*
X83290000Y-18447000D01*
X83330000Y-10564000D02*
X83330000Y-13460000D01*
X83330000Y-15540000D02*
X83330000Y-18436000D01*
X83370000Y-10575000D02*
X83370000Y-13460000D01*
X83370000Y-15540000D02*
X83370000Y-18425000D01*
X83410000Y-10587000D02*
X83410000Y-13460000D01*
X83410000Y-15540000D02*
X83410000Y-18413000D01*
X83450000Y-10599000D02*
X83450000Y-13460000D01*
X83450000Y-15540000D02*
X83450000Y-18401000D01*
X83490000Y-10611000D02*
X83490000Y-13460000D01*
X83490000Y-15540000D02*
X83490000Y-18389000D01*
X83530000Y-10624000D02*
X83530000Y-13460000D01*
X83530000Y-15540000D02*
X83530000Y-18376000D01*
X83570000Y-10637000D02*
X83570000Y-13460000D01*
X83570000Y-15540000D02*
X83570000Y-18363000D01*
X83610000Y-10651000D02*
X83610000Y-13460000D01*
X83610000Y-15540000D02*
X83610000Y-18349000D01*
X83650000Y-10665000D02*
X83650000Y-13460000D01*
X83650000Y-15540000D02*
X83650000Y-18335000D01*
X83690000Y-10680000D02*
X83690000Y-13460000D01*
X83690000Y-15540000D02*
X83690000Y-18320000D01*
X83730000Y-10695000D02*
X83730000Y-13460000D01*
X83730000Y-15540000D02*
X83730000Y-18305000D01*
X83770000Y-10711000D02*
X83770000Y-13460000D01*
X83770000Y-15540000D02*
X83770000Y-18289000D01*
X83810000Y-10727000D02*
X83810000Y-13460000D01*
X83810000Y-15540000D02*
X83810000Y-18273000D01*
X83850000Y-10743000D02*
X83850000Y-13460000D01*
X83850000Y-15540000D02*
X83850000Y-18257000D01*
X83890000Y-10760000D02*
X83890000Y-13460000D01*
X83890000Y-15540000D02*
X83890000Y-18240000D01*
X83930000Y-10778000D02*
X83930000Y-13460000D01*
X83930000Y-15540000D02*
X83930000Y-18222000D01*
X83970000Y-10796000D02*
X83970000Y-13460000D01*
X83970000Y-15540000D02*
X83970000Y-18204000D01*
X84010000Y-10815000D02*
X84010000Y-13460000D01*
X84010000Y-15540000D02*
X84010000Y-18185000D01*
X84050000Y-10834000D02*
X84050000Y-13460000D01*
X84050000Y-15540000D02*
X84050000Y-18166000D01*
X84090000Y-10854000D02*
X84090000Y-13460000D01*
X84090000Y-15540000D02*
X84090000Y-18146000D01*
X84130000Y-10874000D02*
X84130000Y-13460000D01*
X84130000Y-15540000D02*
X84130000Y-18126000D01*
X84170000Y-10895000D02*
X84170000Y-13460000D01*
X84170000Y-15540000D02*
X84170000Y-18105000D01*
X84210000Y-10916000D02*
X84210000Y-13460000D01*
X84210000Y-15540000D02*
X84210000Y-18084000D01*
X84250000Y-10938000D02*
X84250000Y-13460000D01*
X84250000Y-15540000D02*
X84250000Y-18062000D01*
X84290000Y-10961000D02*
X84290000Y-13460000D01*
X84290000Y-15540000D02*
X84290000Y-18039000D01*
X84330000Y-10984000D02*
X84330000Y-13460000D01*
X84330000Y-15540000D02*
X84330000Y-18016000D01*
X84370000Y-11007000D02*
X84370000Y-13460000D01*
X84370000Y-15540000D02*
X84370000Y-17993000D01*
X84410000Y-11032000D02*
X84410000Y-13460000D01*
X84410000Y-15540000D02*
X84410000Y-17968000D01*
X84450000Y-11057000D02*
X84450000Y-13460000D01*
X84450000Y-15540000D02*
X84450000Y-17943000D01*
X84490000Y-11082000D02*
X84490000Y-13460000D01*
X84490000Y-15540000D02*
X84490000Y-17918000D01*
X84530000Y-11108000D02*
X84530000Y-13460000D01*
X84530000Y-15540000D02*
X84530000Y-17892000D01*
X84570000Y-11135000D02*
X84570000Y-13460000D01*
X84570000Y-15540000D02*
X84570000Y-17865000D01*
X84610000Y-11163000D02*
X84610000Y-13460000D01*
X84610000Y-15540000D02*
X84610000Y-17837000D01*
X84650000Y-11191000D02*
X84650000Y-13460000D01*
X84650000Y-15540000D02*
X84650000Y-17809000D01*
X84690000Y-11220000D02*
X84690000Y-13460000D01*
X84690000Y-15540000D02*
X84690000Y-17780000D01*
X84730000Y-11250000D02*
X84730000Y-13460000D01*
X84730000Y-15540000D02*
X84730000Y-17750000D01*
X84770000Y-11281000D02*
X84770000Y-13460000D01*
X84770000Y-15540000D02*
X84770000Y-17719000D01*
X84810000Y-11312000D02*
X84810000Y-13460000D01*
X84810000Y-15540000D02*
X84810000Y-17688000D01*
X84850000Y-11344000D02*
X84850000Y-13460000D01*
X84850000Y-15540000D02*
X84850000Y-17656000D01*
X84890000Y-11377000D02*
X84890000Y-13460000D01*
X84890000Y-15540000D02*
X84890000Y-17623000D01*
X84930000Y-11411000D02*
X84930000Y-13460000D01*
X84930000Y-15540000D02*
X84930000Y-17589000D01*
X84970000Y-11445000D02*
X84970000Y-13460000D01*
X84970000Y-15540000D02*
X84970000Y-17555000D01*
X85010000Y-11481000D02*
X85010000Y-13460000D01*
X85010000Y-15540000D02*
X85010000Y-17519000D01*
X85050000Y-11518000D02*
X85050000Y-17482000D01*
X85090000Y-11555000D02*
X85090000Y-17445000D01*
X85130000Y-11594000D02*
X85130000Y-17406000D01*
X85170000Y-11633000D02*
X85170000Y-17367000D01*
X85210000Y-11674000D02*
X85210000Y-17326000D01*
X85250000Y-11716000D02*
X85250000Y-17284000D01*
X85290000Y-11759000D02*
X85290000Y-17241000D01*
X85330000Y-11804000D02*
X85330000Y-17196000D01*
X85370000Y-11849000D02*
X85370000Y-17151000D01*
X85410000Y-11896000D02*
X85410000Y-17104000D01*
X85450000Y-11945000D02*
X85450000Y-17055000D01*
X85490000Y-11995000D02*
X85490000Y-17005000D01*
X85530000Y-12047000D02*
X85530000Y-16953000D01*
X85570000Y-12100000D02*
X85570000Y-16900000D01*
X85610000Y-12156000D02*
X85610000Y-16844000D01*
X85650000Y-12213000D02*
X85650000Y-16787000D01*
X85690000Y-12273000D02*
X85690000Y-16727000D01*
X85730000Y-12335000D02*
X85730000Y-16665000D01*
X85770000Y-12399000D02*
X85770000Y-16601000D01*
X85810000Y-12466000D02*
X85810000Y-16534000D01*
X85850000Y-12536000D02*
X85850000Y-16464000D01*
X85890000Y-12610000D02*
X85890000Y-16390000D01*
X85930000Y-12687000D02*
X85930000Y-16313000D01*
X85970000Y-12769000D02*
X85970000Y-16231000D01*
X86010000Y-12856000D02*
X86010000Y-16144000D01*
X86050000Y-12948000D02*
X86050000Y-16052000D01*
X86090000Y-13047000D02*
X86090000Y-15953000D01*
X86130000Y-13154000D02*
X86130000Y-15846000D01*
X86170000Y-13272000D02*
X86170000Y-15728000D01*
X86210000Y-13403000D02*
X86210000Y-15597000D01*
X86250000Y-13553000D02*
X86250000Y-15447000D01*
X86290000Y-13732000D02*
X86290000Y-15268000D01*
X86330000Y-13967000D02*
X86330000Y-15033000D01*
X86370000Y-14500000D02*
G75*
G02*
X78130000Y-14500000I-4120000J0D01*
G01*
X78130000Y-14500000D02*
G75*
G02*
X86370000Y-14500000I4120000J0D01*
G01*
%TO.C,D17*%
X74850000Y-30990000D02*
X74850000Y-36500000D01*
X78150000Y-30990000D02*
X74850000Y-30990000D01*
X78150000Y-30990000D02*
X78150000Y-36500000D01*
%TO.C,R9*%
X30860436Y-8765000D02*
X31314564Y-8765000D01*
X30860436Y-10235000D02*
X31314564Y-10235000D01*
%TO.C,D2*%
X33490000Y-12350000D02*
X33490000Y-15650000D01*
X33490000Y-12350000D02*
X39000000Y-12350000D01*
X33490000Y-15650000D02*
X39000000Y-15650000D01*
%TO.C,R7*%
X14772936Y-46265000D02*
X15227064Y-46265000D01*
X14772936Y-47735000D02*
X15227064Y-47735000D01*
%TO.C,R4*%
X43772936Y-24265000D02*
X44227064Y-24265000D01*
X43772936Y-25735000D02*
X44227064Y-25735000D01*
%TO.C,R3*%
X14772936Y-24265000D02*
X15227064Y-24265000D01*
X14772936Y-25735000D02*
X15227064Y-25735000D01*
%TO.C,R19*%
X19772936Y-19265000D02*
X20227064Y-19265000D01*
X19772936Y-20735000D02*
X20227064Y-20735000D01*
%TO.C,D6*%
X33990000Y-31350000D02*
X33990000Y-34650000D01*
X33990000Y-31350000D02*
X39500000Y-31350000D01*
X33990000Y-34650000D02*
X39500000Y-34650000D01*
%TO.C,U7*%
X25160000Y-45670000D02*
X25160000Y-50870000D01*
X25160000Y-50870000D02*
X30460000Y-50870000D01*
X26810000Y-45670000D02*
X25160000Y-45670000D01*
X30460000Y-45670000D02*
X28810000Y-45670000D01*
X30460000Y-50870000D02*
X30460000Y-45670000D01*
X28810000Y-45670000D02*
G75*
G02*
X26810000Y-45670000I-1000000J0D01*
G01*
%TO.C,R24*%
X48772936Y-41265000D02*
X49227064Y-41265000D01*
X48772936Y-42735000D02*
X49227064Y-42735000D01*
%TO.C,R2*%
X43772936Y-13265000D02*
X44227064Y-13265000D01*
X43772936Y-14735000D02*
X44227064Y-14735000D01*
%TO.C,R20*%
X48772936Y-19265000D02*
X49227064Y-19265000D01*
X48772936Y-20735000D02*
X49227064Y-20735000D01*
%TO.C,D1*%
X4490000Y-12350000D02*
X4490000Y-15650000D01*
X4490000Y-12350000D02*
X10000000Y-12350000D01*
X4490000Y-15650000D02*
X10000000Y-15650000D01*
%TO.C,F1*%
X73730000Y-24130000D02*
X80270000Y-24130000D01*
X73730000Y-24460000D02*
X73730000Y-24130000D01*
X73730000Y-26540000D02*
X73730000Y-26870000D01*
X73730000Y-26870000D02*
X80270000Y-26870000D01*
X80270000Y-24130000D02*
X80270000Y-24460000D01*
X80270000Y-26870000D02*
X80270000Y-26540000D01*
%TO.C,D11*%
X26710000Y-30764000D02*
X26710000Y-30920000D01*
X26710000Y-33080000D02*
X26710000Y-33236000D01*
X26710000Y-30764484D02*
G75*
G02*
X29941437Y-30920000I1560000J-1235516D01*
G01*
X27229039Y-30920000D02*
G75*
G02*
X29310961Y-30920000I1040961J-1080000D01*
G01*
X29310961Y-33080000D02*
G75*
G02*
X27229039Y-33080000I-1040961J1080000D01*
G01*
X29941437Y-33080000D02*
G75*
G02*
X26710000Y-33235516I-1671437J1080000D01*
G01*
%TO.C,R13*%
X23772936Y-31265000D02*
X24227064Y-31265000D01*
X23772936Y-32735000D02*
X24227064Y-32735000D01*
%TO.C,R14*%
X52772936Y-31265000D02*
X53227064Y-31265000D01*
X52772936Y-32735000D02*
X53227064Y-32735000D01*
%TO.C,Q1*%
X85677500Y-28390000D02*
X87197500Y-28390000D01*
X85677500Y-28440000D02*
X85677500Y-28390000D01*
X85677500Y-30340000D02*
X85677500Y-29560000D01*
X85677500Y-31510000D02*
X85677500Y-31460000D01*
X87197500Y-28390000D02*
X87197500Y-29390000D01*
X87197500Y-30510000D02*
X87197500Y-31510000D01*
X87197500Y-31510000D02*
X85677500Y-31510000D01*
X85377500Y-29900000D02*
X84897500Y-29900000D01*
X85137500Y-29570000D01*
X85377500Y-29900000D01*
G36*
X85377500Y-29900000D02*
G01*
X84897500Y-29900000D01*
X85137500Y-29570000D01*
X85377500Y-29900000D01*
G37*
%TO.C,U4*%
X54160000Y-23670000D02*
X54160000Y-28870000D01*
X54160000Y-28870000D02*
X59460000Y-28870000D01*
X55810000Y-23670000D02*
X54160000Y-23670000D01*
X59460000Y-23670000D02*
X57810000Y-23670000D01*
X59460000Y-28870000D02*
X59460000Y-23670000D01*
X57810000Y-23670000D02*
G75*
G02*
X55810000Y-23670000I-1000000J0D01*
G01*
%TO.C,R25*%
X85860436Y-24765000D02*
X86314564Y-24765000D01*
X85860436Y-26235000D02*
X86314564Y-26235000D01*
%TO.C,D15*%
X26710000Y-52764000D02*
X26710000Y-52920000D01*
X26710000Y-55080000D02*
X26710000Y-55236000D01*
X26710000Y-52764484D02*
G75*
G02*
X29941437Y-52920000I1560000J-1235516D01*
G01*
X27229039Y-52920000D02*
G75*
G02*
X29310961Y-52920000I1040961J-1080000D01*
G01*
X29310961Y-55080000D02*
G75*
G02*
X27229039Y-55080000I-1040961J1080000D01*
G01*
X29941437Y-55080000D02*
G75*
G02*
X26710000Y-55235516I-1671437J1080000D01*
G01*
%TO.C,U1*%
X25160000Y-12670000D02*
X25160000Y-17870000D01*
X25160000Y-17870000D02*
X30460000Y-17870000D01*
X26810000Y-12670000D02*
X25160000Y-12670000D01*
X30460000Y-12670000D02*
X28810000Y-12670000D01*
X30460000Y-17870000D02*
X30460000Y-12670000D01*
X28810000Y-12670000D02*
G75*
G02*
X26810000Y-12670000I-1000000J0D01*
G01*
%TO.C,U6*%
X54160000Y-34670000D02*
X54160000Y-39870000D01*
X54160000Y-39870000D02*
X59460000Y-39870000D01*
X55810000Y-34670000D02*
X54160000Y-34670000D01*
X59460000Y-34670000D02*
X57810000Y-34670000D01*
X59460000Y-39870000D02*
X59460000Y-34670000D01*
X57810000Y-34670000D02*
G75*
G02*
X55810000Y-34670000I-1000000J0D01*
G01*
%TO.C,J4*%
X90080000Y-20000000D02*
X90080000Y-7080000D01*
X92730000Y-17350000D02*
X92730000Y-20000000D01*
X92730000Y-20000000D02*
X90080000Y-20000000D01*
X95380000Y-7080000D02*
X90080000Y-7080000D01*
X95380000Y-17350000D02*
X92730000Y-17350000D01*
X95380000Y-17350000D02*
X95380000Y-7080000D01*
X95380000Y-18620000D02*
X95380000Y-20000000D01*
X95380000Y-20000000D02*
X94000000Y-20000000D01*
%TO.C,U9*%
X88890000Y-24690000D02*
X99110000Y-24690000D01*
X88890000Y-26070000D02*
X99110000Y-26070000D01*
X88890000Y-29310000D02*
X88890000Y-24690000D01*
X92150000Y-24690000D02*
X92150000Y-26070000D01*
X95850000Y-24690000D02*
X95850000Y-26070000D01*
X99110000Y-24690000D02*
X99110000Y-29310000D01*
X99110000Y-29310000D02*
X88890000Y-29310000D01*
%TO.C,R12*%
X52772936Y-20265000D02*
X53227064Y-20265000D01*
X52772936Y-21735000D02*
X53227064Y-21735000D01*
%TO.C,R22*%
X48772936Y-30265000D02*
X49227064Y-30265000D01*
X48772936Y-31735000D02*
X49227064Y-31735000D01*
%TO.C,U3*%
X25160000Y-23670000D02*
X25160000Y-28870000D01*
X25160000Y-28870000D02*
X30460000Y-28870000D01*
X26810000Y-23670000D02*
X25160000Y-23670000D01*
X30460000Y-23670000D02*
X28810000Y-23670000D01*
X30460000Y-28870000D02*
X30460000Y-23670000D01*
X28810000Y-23670000D02*
G75*
G02*
X26810000Y-23670000I-1000000J0D01*
G01*
%TO.C,J3*%
X68000000Y-56110000D02*
X70000000Y-56110000D01*
X68250000Y-54610000D02*
X68000000Y-56110000D01*
X68700000Y-43090000D02*
X69300000Y-43090000D01*
X69000000Y-43690000D02*
X68700000Y-43090000D01*
X69300000Y-43090000D02*
X69000000Y-43690000D01*
X69750000Y-54610000D02*
X68250000Y-54610000D01*
X70000000Y-56110000D02*
X69750000Y-54610000D01*
X73080000Y-56110000D02*
X75080000Y-56110000D01*
X73330000Y-54610000D02*
X73080000Y-56110000D01*
X74830000Y-54610000D02*
X73330000Y-54610000D01*
X75080000Y-56110000D02*
X74830000Y-54610000D01*
X65350000Y-43890000D02*
X77730000Y-43890000D01*
X77730000Y-56110000D01*
X65350000Y-56110000D01*
X65350000Y-43890000D01*
X65350000Y-52810000D02*
X77730000Y-52810000D01*
X77730000Y-54610000D01*
X65350000Y-54610000D01*
X65350000Y-52810000D01*
%TO.C,D12*%
X55710000Y-30764000D02*
X55710000Y-30920000D01*
X55710000Y-33080000D02*
X55710000Y-33236000D01*
X55710000Y-30764484D02*
G75*
G02*
X58941437Y-30920000I1560000J-1235516D01*
G01*
X56229039Y-30920000D02*
G75*
G02*
X58310961Y-30920000I1040961J-1080000D01*
G01*
X58310961Y-33080000D02*
G75*
G02*
X56229039Y-33080000I-1040961J1080000D01*
G01*
X58941437Y-33080000D02*
G75*
G02*
X55710000Y-33235516I-1671437J1080000D01*
G01*
%TO.C,D10*%
X55710000Y-19764000D02*
X55710000Y-19920000D01*
X55710000Y-22080000D02*
X55710000Y-22236000D01*
X55710000Y-19764484D02*
G75*
G02*
X58941437Y-19920000I1560000J-1235516D01*
G01*
X56229039Y-19920000D02*
G75*
G02*
X58310961Y-19920000I1040961J-1080000D01*
G01*
X58310961Y-22080000D02*
G75*
G02*
X56229039Y-22080000I-1040961J1080000D01*
G01*
X58941437Y-22080000D02*
G75*
G02*
X55710000Y-22235516I-1671437J1080000D01*
G01*
%TO.C,D9*%
X26710000Y-19764000D02*
X26710000Y-19920000D01*
X26710000Y-22080000D02*
X26710000Y-22236000D01*
X26710000Y-19764484D02*
G75*
G02*
X29941437Y-19920000I1560000J-1235516D01*
G01*
X27229039Y-19920000D02*
G75*
G02*
X29310961Y-19920000I1040961J-1080000D01*
G01*
X29310961Y-22080000D02*
G75*
G02*
X27229039Y-22080000I-1040961J1080000D01*
G01*
X29941437Y-22080000D02*
G75*
G02*
X26710000Y-22235516I-1671437J1080000D01*
G01*
%TO.C,D16*%
X55710000Y-52764000D02*
X55710000Y-52920000D01*
X55710000Y-55080000D02*
X55710000Y-55236000D01*
X55710000Y-52764484D02*
G75*
G02*
X58941437Y-52920000I1560000J-1235516D01*
G01*
X56229039Y-52920000D02*
G75*
G02*
X58310961Y-52920000I1040961J-1080000D01*
G01*
X58310961Y-55080000D02*
G75*
G02*
X56229039Y-55080000I-1040961J1080000D01*
G01*
X58941437Y-55080000D02*
G75*
G02*
X55710000Y-55235516I-1671437J1080000D01*
G01*
%TO.C,R15*%
X23772936Y-42265000D02*
X24227064Y-42265000D01*
X23772936Y-43735000D02*
X24227064Y-43735000D01*
%TO.C,D7*%
X4490000Y-45350000D02*
X4490000Y-48650000D01*
X4490000Y-45350000D02*
X10000000Y-45350000D01*
X4490000Y-48650000D02*
X10000000Y-48650000D01*
%TO.C,R17*%
X19272936Y-13265000D02*
X19727064Y-13265000D01*
X19272936Y-14735000D02*
X19727064Y-14735000D01*
%TO.C,D3*%
X4490000Y-23350000D02*
X4490000Y-26650000D01*
X4490000Y-23350000D02*
X10000000Y-23350000D01*
X4490000Y-26650000D02*
X10000000Y-26650000D01*
%TO.C,D4*%
X33490000Y-23350000D02*
X33490000Y-26650000D01*
X33490000Y-23350000D02*
X39000000Y-23350000D01*
X33490000Y-26650000D02*
X39000000Y-26650000D01*
%TO.C,D13*%
X26710000Y-41764000D02*
X26710000Y-41920000D01*
X26710000Y-44080000D02*
X26710000Y-44236000D01*
X26710000Y-41764484D02*
G75*
G02*
X29941437Y-41920000I1560000J-1235516D01*
G01*
X27229039Y-41920000D02*
G75*
G02*
X29310961Y-41920000I1040961J-1080000D01*
G01*
X29310961Y-44080000D02*
G75*
G02*
X27229039Y-44080000I-1040961J1080000D01*
G01*
X29941437Y-44080000D02*
G75*
G02*
X26710000Y-44235516I-1671437J1080000D01*
G01*
%TO.C,R6*%
X44360436Y-32765000D02*
X44814564Y-32765000D01*
X44360436Y-34235000D02*
X44814564Y-34235000D01*
%TO.C,D19*%
X94170000Y-43264000D02*
X94170000Y-43420000D01*
X94170000Y-45580000D02*
X94170000Y-45736000D01*
X94170000Y-43264484D02*
G75*
G02*
X97401437Y-43420000I1560000J-1235516D01*
G01*
X94689039Y-43420000D02*
G75*
G02*
X96770961Y-43420000I1040961J-1080000D01*
G01*
X96770961Y-45580000D02*
G75*
G02*
X94689039Y-45580000I-1040961J1080000D01*
G01*
X97401437Y-45580000D02*
G75*
G02*
X94170000Y-45735516I-1671437J1080000D01*
G01*
%TO.C,R11*%
X23772936Y-20265000D02*
X24227064Y-20265000D01*
X23772936Y-21735000D02*
X24227064Y-21735000D01*
%TO.C,U2*%
X54160000Y-12670000D02*
X54160000Y-17870000D01*
X54160000Y-17870000D02*
X59460000Y-17870000D01*
X55810000Y-12670000D02*
X54160000Y-12670000D01*
X59460000Y-12670000D02*
X57810000Y-12670000D01*
X59460000Y-17870000D02*
X59460000Y-12670000D01*
X57810000Y-12670000D02*
G75*
G02*
X55810000Y-12670000I-1000000J0D01*
G01*
%TD*%
M02*
